<svg width="850" height="549" viewBox="0 0 850 549" fill="none" xmlns="http://www.w3.org/2000/svg">
<path d="M799.521 162.443C800.426 164.586 801.242 166.766 801.966 168.982C801.704 169.066 801.56 169.347 801.644 169.61C802.048 170.871 802.422 172.144 802.766 173.428C803.11 174.713 803.423 176.002 803.704 177.296C803.762 177.565 804.027 177.737 804.297 177.679C804.777 179.96 805.161 182.255 805.449 184.564C805.175 184.597 804.98 184.846 805.013 185.119C805.324 187.742 805.512 190.383 805.578 193.039C805.585 193.314 805.813 193.532 806.089 193.526C806.133 195.847 806.086 198.179 805.948 200.522C805.673 200.505 805.436 200.713 805.418 200.989C805.25 203.607 804.967 206.24 804.574 208.884C804.533 209.156 804.721 209.41 804.994 209.452C804.643 211.728 804.211 214.013 803.697 216.304C803.428 216.243 803.161 216.412 803.099 216.68C802.516 219.23 801.832 221.788 801.05 224.355C800.969 224.618 801.118 224.897 801.381 224.978C800.7 227.18 799.947 229.386 799.123 231.597C798.865 231.5 798.577 231.63 798.479 231.888C797.553 234.345 796.539 236.807 795.438 239.273C795.326 239.525 795.439 239.82 795.69 239.933C794.747 242.027 793.742 244.124 792.676 246.222C792.431 246.097 792.13 246.194 792.004 246.44C790.815 248.764 789.55 251.091 788.212 253.419C788.074 253.658 788.157 253.963 788.396 254.101C787.241 256.098 786.032 258.095 784.77 260.092C784.537 259.944 784.229 260.013 784.081 260.246C782.67 262.466 781.193 264.687 779.652 266.907C779.494 267.134 779.551 267.445 779.777 267.603C778.466 269.481 777.11 271.359 775.708 273.235C775.487 273.07 775.174 273.114 775.009 273.335C773.431 275.437 771.797 277.537 770.106 279.635C769.933 279.85 769.967 280.165 770.181 280.338C768.726 282.137 767.23 283.934 765.693 285.729C765.484 285.549 765.168 285.573 764.988 285.782C763.283 287.766 761.529 289.747 759.725 291.724C759.539 291.928 759.554 292.244 759.758 292.43C758.193 294.141 756.592 295.849 754.955 297.553C754.756 297.362 754.439 297.367 754.248 297.566C752.427 299.457 750.561 301.343 748.653 303.225C748.456 303.419 748.454 303.735 748.648 303.932C747.001 305.55 745.323 307.166 743.614 308.777C743.424 308.576 743.108 308.566 742.907 308.755C740.981 310.565 739.016 312.37 737.011 314.17C736.806 314.354 736.789 314.67 736.973 314.876C735.259 316.41 733.517 317.941 731.747 319.468C731.567 319.258 731.251 319.235 731.042 319.415C729.029 321.146 726.98 322.872 724.895 324.592C724.682 324.768 724.652 325.083 724.828 325.296C723.056 326.755 721.26 328.209 719.438 329.658C719.266 329.442 718.951 329.406 718.735 329.577C716.658 331.226 714.548 332.869 712.406 334.505C712.187 334.673 712.145 334.987 712.313 335.206C710.482 336.602 708.628 337.993 706.751 339.379C706.587 339.157 706.274 339.109 706.052 339.273C703.918 340.845 701.754 342.412 699.562 343.971C699.337 344.131 699.284 344.443 699.444 344.668C697.563 346.003 695.661 347.333 693.738 348.658C693.582 348.43 693.27 348.372 693.043 348.529C690.858 350.031 688.646 351.526 686.408 353.013C686.178 353.166 686.116 353.477 686.269 353.707C684.345 354.983 682.402 356.254 680.439 357.519C680.29 357.287 679.98 357.22 679.748 357.369C677.517 358.805 675.261 360.234 672.981 361.655C672.747 361.801 672.675 362.11 672.821 362.344C670.861 363.564 668.883 364.778 666.887 365.986C666.744 365.75 666.437 365.674 666.2 365.817C663.926 367.19 661.63 368.557 659.311 369.915C659.073 370.055 658.993 370.361 659.132 370.6C657.14 371.764 655.132 372.924 653.107 374.077C652.97 373.837 652.665 373.753 652.425 373.889C650.111 375.205 647.777 376.512 645.422 377.811C645.18 377.945 645.092 378.249 645.225 378.491C643.206 379.603 641.171 380.709 639.121 381.809C638.991 381.565 638.688 381.474 638.444 381.604C636.099 382.861 633.734 384.109 631.35 385.349C631.105 385.476 631.01 385.778 631.137 386.023C629.088 387.087 627.025 388.145 624.948 389.196C624.823 388.95 624.522 388.851 624.276 388.975C621.905 390.173 619.516 391.363 617.11 392.544C616.862 392.665 616.76 392.965 616.881 393.213C614.801 394.232 612.708 395.245 610.602 396.251C610.483 396.001 610.184 395.896 609.935 396.015C607.542 397.156 605.132 398.288 602.706 399.412C602.456 399.528 602.347 399.826 602.463 400.076C600.353 401.052 598.231 402.021 596.097 402.983C595.983 402.732 595.687 402.619 595.435 402.733C593.023 403.819 590.594 404.896 588.15 405.965C587.897 406.075 587.782 406.37 587.893 406.623C585.755 407.556 583.605 408.483 581.444 409.403C581.336 409.148 581.042 409.03 580.788 409.138C578.358 410.17 575.912 411.194 573.453 412.209C573.198 412.314 573.076 412.606 573.181 412.862C571.026 413.749 568.86 414.63 566.683 415.504C566.58 415.248 566.289 415.123 566.032 415.226C563.576 416.21 561.106 417.185 558.623 418.151C558.366 418.251 558.239 418.541 558.339 418.798C556.172 419.64 553.995 420.474 551.808 421.302C551.71 421.043 551.422 420.913 551.163 421.01C548.678 421.949 546.181 422.878 543.67 423.797C543.411 423.892 543.278 424.18 543.373 424.439C541.196 425.235 539.009 426.024 536.813 426.806C536.72 426.546 536.435 426.41 536.174 426.502C533.663 427.395 531.141 428.278 528.606 429.151C528.345 429.241 528.206 429.525 528.296 429.786C526.108 430.539 523.911 431.284 521.706 432.022C521.618 431.76 521.335 431.618 521.073 431.706C518.552 432.547 516.02 433.38 513.477 434.202C513.214 434.287 513.07 434.569 513.155 434.832C510.942 435.546 508.722 436.252 506.493 436.951C506.411 436.688 506.13 436.541 505.867 436.623C503.336 437.415 500.796 438.198 498.244 438.97C497.98 439.05 497.831 439.33 497.911 439.594C495.676 440.269 493.433 440.937 491.183 441.597C491.105 441.332 490.827 441.18 490.562 441.258C488.023 442.001 485.474 442.734 482.916 443.458C482.65 443.533 482.496 443.809 482.571 444.075C480.33 444.707 478.082 445.332 475.826 445.949C475.754 445.682 475.479 445.525 475.212 445.598C473.924 445.949 472.632 446.299 471.339 446.645C470.046 446.992 468.753 447.335 467.462 447.675C467.194 447.745 467.035 448.018 467.105 448.285C464.843 448.879 462.584 449.462 460.327 450.035C460.259 449.767 459.987 449.605 459.72 449.673C457.142 450.326 454.568 450.965 451.998 451.591C451.73 451.656 451.565 451.927 451.63 452.195C449.351 452.749 447.075 453.292 444.802 453.824C444.739 453.555 444.47 453.388 444.201 453.451C441.606 454.058 439.014 454.651 436.427 455.23C436.157 455.29 435.988 455.557 436.048 455.827C433.768 456.336 431.492 456.834 429.219 457.322C429.162 457.052 428.896 456.88 428.626 456.938C426.012 457.497 423.403 458.043 420.799 458.574C420.528 458.629 420.354 458.893 420.409 459.164C418.13 459.628 415.855 460.081 413.584 460.523C413.531 460.252 413.269 460.075 412.998 460.128C410.366 460.639 407.74 461.136 405.119 461.619C404.848 461.669 404.668 461.929 404.718 462.201C402.425 462.622 400.137 463.032 397.853 463.431C397.806 463.159 397.547 462.977 397.275 463.024C394.641 463.483 392.013 463.927 389.392 464.357C389.12 464.402 388.935 464.659 388.98 464.931C386.672 465.308 384.37 465.674 382.072 466.029C382.03 465.756 381.775 465.569 381.502 465.611C378.869 466.016 376.242 466.406 373.623 466.782C373.35 466.821 373.16 467.075 373.199 467.348C370.877 467.68 368.56 468 366.25 468.309C366.213 468.035 365.962 467.843 365.688 467.879C363.051 468.23 360.421 468.566 357.8 468.887C357.526 468.921 357.331 469.17 357.364 469.444C355.033 469.729 352.708 470.001 350.39 470.262C350.359 469.987 350.112 469.79 349.838 469.82C347.187 470.117 344.545 470.398 341.913 470.664C341.638 470.692 341.438 470.937 341.465 471.212C339.136 471.445 336.813 471.667 334.499 471.877C334.474 471.602 334.231 471.399 333.956 471.424C331.293 471.664 328.639 471.888 325.996 472.096C325.721 472.118 325.515 472.358 325.537 472.634C323.21 472.815 320.891 472.985 318.58 473.143C318.561 472.867 318.323 472.659 318.047 472.677C315.373 472.858 312.709 473.022 310.057 473.17C309.782 473.185 309.571 473.421 309.586 473.697C307.261 473.825 304.946 473.941 302.639 474.044C302.627 473.768 302.394 473.554 302.118 473.566C299.433 473.684 296.761 473.786 294.102 473.871C293.826 473.879 293.609 474.11 293.618 474.386C291.293 474.458 288.977 474.518 286.672 474.565C286.667 474.289 286.439 474.069 286.163 474.074C283.473 474.127 280.798 474.162 278.136 474.18C277.86 474.181 277.638 474.407 277.64 474.683C275.31 474.697 272.991 474.697 270.683 474.684C270.685 474.408 270.462 474.183 270.186 474.181C267.499 474.164 264.827 474.129 262.17 474.076C261.894 474.071 261.666 474.29 261.661 474.566C259.328 474.517 257.008 474.455 254.7 474.379C254.709 474.103 254.493 473.872 254.217 473.863C251.532 473.772 248.864 473.662 246.214 473.535C245.938 473.521 245.704 473.734 245.69 474.01C243.358 473.895 241.04 473.766 238.736 473.623C238.753 473.347 238.544 473.11 238.268 473.092C235.586 472.923 232.923 472.734 230.28 472.526C230.005 472.504 229.764 472.71 229.742 472.985C227.415 472.799 225.102 472.598 222.806 472.383C222.832 472.108 222.63 471.864 222.355 471.838C219.677 471.584 217.02 471.309 214.386 471.015C214.112 470.984 213.864 471.181 213.834 471.456C211.515 471.194 209.214 470.916 206.931 470.623C206.966 470.349 206.773 470.098 206.499 470.063C203.826 469.717 201.178 469.349 198.554 468.96C198.281 468.919 198.027 469.107 197.986 469.38C195.684 469.036 193.401 468.675 191.137 468.298C191.183 468.026 190.999 467.768 190.727 467.723C188.062 467.275 185.424 466.805 182.815 466.312C182.544 466.26 182.282 466.439 182.231 466.71C179.935 466.273 177.661 465.818 175.409 465.346C175.466 465.076 175.293 464.811 175.023 464.754C172.387 464.198 169.782 463.617 167.21 463.013C166.941 462.949 166.672 463.116 166.609 463.385C164.322 462.844 162.061 462.284 159.826 461.706C159.896 461.439 159.736 461.166 159.469 461.096C156.875 460.421 154.316 459.72 151.794 458.993C151.529 458.917 151.252 459.07 151.175 459.335C148.905 458.677 146.665 457.999 144.454 457.301C144.538 457.038 144.392 456.757 144.129 456.673C141.579 455.862 139.069 455.024 136.6 454.158C136.34 454.067 136.055 454.204 135.963 454.464C133.735 453.678 131.541 452.87 129.381 452.04C129.48 451.783 129.352 451.493 129.095 451.394C126.582 450.422 124.116 449.42 121.699 448.389C121.445 448.281 121.152 448.398 121.043 448.652C118.891 447.728 116.777 446.78 114.703 445.809C114.821 445.559 114.713 445.262 114.464 445.144C112.019 443.992 109.63 442.807 107.298 441.589C107.053 441.462 106.751 441.556 106.623 441.801C104.532 440.702 102.487 439.577 100.488 438.426C100.626 438.187 100.545 437.881 100.306 437.743C97.9834 436.396 95.7249 435.013 93.5325 433.595C93.3008 433.445 92.9916 433.511 92.8415 433.742C90.8693 432.458 88.9506 431.145 87.0867 429.803C87.2482 429.579 87.1983 429.267 86.975 429.105C84.7889 427.52 82.6796 425.895 80.649 424.231C80.4357 424.056 80.1212 424.087 79.946 424.3C78.1271 422.797 76.3716 421.263 74.681 419.697C74.8687 419.495 74.8577 419.18 74.6562 418.991C72.6956 417.16 70.8242 415.286 69.0441 413.37C68.8564 413.168 68.5407 413.156 68.3384 413.343C66.748 411.615 65.2311 409.853 63.7893 408.057C64.0046 407.885 64.0403 407.571 63.8687 407.355C62.206 405.262 60.6456 403.124 59.1902 400.94C59.0373 400.71 58.7276 400.648 58.498 400.8C57.2072 398.841 56 396.845 54.8781 394.812C55.1197 394.68 55.2087 394.377 55.0768 394.135C53.8062 391.802 52.6485 389.421 51.6066 386.994C51.4979 386.741 51.2048 386.623 50.9513 386.731C50.0463 384.588 49.2307 382.408 48.5064 380.193C48.7685 380.108 48.9127 379.827 48.8286 379.564C48.4247 378.303 48.0505 377.03 47.7064 375.746C47.3622 374.462 47.0499 373.172 46.7691 371.878C46.7107 371.609 46.4453 371.438 46.1759 371.495C45.6954 369.214 45.3119 366.919 45.0239 364.61C45.2974 364.577 45.4925 364.329 45.46 364.055C45.1487 361.432 44.9611 358.792 44.895 356.136C44.8881 355.86 44.6595 355.642 44.3841 355.648C44.3396 353.328 44.387 350.995 44.525 348.653C44.8 348.67 45.037 348.461 45.0547 348.186C45.2232 345.567 45.5053 342.934 45.8988 340.291C45.9394 340.018 45.7515 339.764 45.4791 339.723C45.8296 337.446 46.2622 335.162 46.7755 332.87C47.0443 332.931 47.3118 332.763 47.3733 332.494C47.9568 329.944 48.6406 327.386 49.4229 324.82C49.5033 324.556 49.3549 324.277 49.0914 324.196C49.7727 321.995 50.5259 319.788 51.3498 317.578C51.608 317.674 51.8959 317.544 51.9932 317.286C52.9197 314.83 53.9339 312.368 55.0344 309.901C55.1468 309.65 55.0339 309.354 54.7823 309.241C55.7256 307.147 56.7305 305.051 57.7962 302.952C58.0419 303.077 58.3427 302.98 58.4684 302.735C59.6581 300.41 60.9227 298.084 62.2608 295.755C62.3983 295.516 62.316 295.211 62.0771 295.073C63.2321 293.077 64.4408 291.08 65.7024 289.083C65.9355 289.23 66.2441 289.161 66.3921 288.928C67.8031 286.708 69.2797 284.487 70.8209 282.267C70.9783 282.04 70.9222 281.729 70.6958 281.571C72.0064 279.693 73.3629 277.816 74.7646 275.939C74.9854 276.105 75.2985 276.06 75.4642 275.839C77.0417 273.737 78.6762 271.637 80.3667 269.539C80.5398 269.324 80.5061 269.009 80.2914 268.836C81.7468 267.037 83.2431 265.24 84.7797 263.446C84.9891 263.625 85.3046 263.601 85.4845 263.392C87.1896 261.408 88.9441 259.427 90.7473 257.45C90.9333 257.246 90.9188 256.93 90.7151 256.744C92.2801 255.033 93.8814 253.326 95.5183 251.621C95.7171 251.813 96.0335 251.807 96.225 251.608C98.0462 249.718 99.9114 247.831 101.82 245.949C102.016 245.756 102.019 245.439 101.825 245.243C103.472 243.624 105.15 242.009 106.859 240.398C107.049 240.599 107.365 240.608 107.566 240.419C109.492 238.61 111.457 236.804 113.462 235.005C113.667 234.82 113.684 234.504 113.5 234.299C115.214 232.764 116.956 231.233 118.726 229.707C118.906 229.916 119.222 229.94 119.431 229.76C121.444 228.028 123.493 226.302 125.577 224.582C125.79 224.406 125.82 224.091 125.645 223.878C127.416 222.42 129.213 220.966 131.035 219.516C131.207 219.732 131.521 219.768 131.738 219.597C133.815 217.948 135.925 216.305 138.066 214.669C138.286 214.501 138.328 214.188 138.16 213.968C139.991 212.573 141.845 211.182 143.722 209.796C143.886 210.018 144.199 210.065 144.421 209.901C146.555 208.329 148.718 206.763 150.911 205.203C151.136 205.043 151.188 204.731 151.029 204.506C152.91 203.171 154.812 201.842 156.735 200.517C156.891 200.744 157.202 200.802 157.43 200.646C159.615 199.144 161.826 197.649 164.065 196.161C164.294 196.008 164.357 195.698 164.204 195.468C166.128 194.192 168.071 192.921 170.034 191.655C170.183 191.887 170.492 191.954 170.725 191.805C172.956 190.369 175.211 188.94 177.491 187.519C177.726 187.373 177.797 187.065 177.651 186.831C179.612 185.611 181.59 184.397 183.586 183.189C183.729 183.425 184.036 183.5 184.273 183.358C186.546 181.984 188.843 180.617 191.162 179.259C191.4 179.119 191.48 178.813 191.341 178.575C193.333 177.41 195.341 176.251 197.366 175.098C197.503 175.337 197.808 175.421 198.048 175.285C200.361 173.97 202.696 172.662 205.051 171.363C205.293 171.23 205.381 170.926 205.248 170.684C207.267 169.572 209.302 168.466 211.352 167.366C211.482 167.609 211.785 167.7 212.028 167.57C214.374 166.314 216.739 165.065 219.123 163.825C219.368 163.698 219.463 163.396 219.336 163.151C221.385 162.087 223.448 161.03 225.525 159.978C225.65 160.225 225.95 160.324 226.197 160.199C228.568 159.001 230.956 157.812 233.363 156.631C233.611 156.509 233.713 156.209 233.591 155.962C235.671 154.943 237.765 153.93 239.871 152.924C239.99 153.173 240.288 153.278 240.538 153.16C242.931 152.019 245.34 150.886 247.766 149.762C248.017 149.646 248.126 149.349 248.01 149.098C250.12 148.123 252.242 147.153 254.376 146.191C254.489 146.443 254.785 146.555 255.037 146.442C257.45 145.356 259.879 144.278 262.322 143.21C262.575 143.099 262.691 142.804 262.58 142.551C264.718 141.618 266.868 140.691 269.029 139.772C269.137 140.026 269.43 140.144 269.685 140.036C272.115 139.004 274.56 137.98 277.02 136.965C277.275 136.86 277.397 136.568 277.291 136.313C279.447 135.425 281.613 134.544 283.79 133.67C283.893 133.926 284.184 134.051 284.44 133.948C286.896 132.964 289.366 131.989 291.849 131.023C292.107 130.923 292.234 130.633 292.134 130.376C294.301 129.535 296.478 128.7 298.665 127.873C298.763 128.131 299.051 128.261 299.309 128.164C301.794 127.225 304.292 126.296 306.802 125.377C307.062 125.282 307.195 124.995 307.1 124.735C309.277 123.939 311.464 123.15 313.66 122.368C313.752 122.628 314.038 122.764 314.298 122.672C316.809 121.78 319.332 120.897 321.867 120.024C322.128 119.934 322.267 119.649 322.177 119.388C324.365 118.636 326.562 117.891 328.767 117.153C328.855 117.415 329.138 117.556 329.4 117.469C331.921 116.627 334.453 115.795 336.996 114.972C337.259 114.887 337.403 114.605 337.318 114.343C339.53 113.629 341.751 112.922 343.979 112.223C344.062 112.487 344.342 112.633 344.606 112.551C347.136 111.759 349.677 110.976 352.228 110.204C352.493 110.124 352.642 109.845 352.562 109.581C354.797 108.905 357.04 108.237 359.29 107.577C359.368 107.842 359.645 107.994 359.91 107.917C362.449 107.173 364.998 106.44 367.557 105.717C367.822 105.642 367.977 105.365 367.902 105.1C370.143 104.467 372.391 103.843 374.647 103.226C374.719 103.492 374.994 103.649 375.261 103.576C376.549 103.225 377.84 102.876 379.134 102.529C380.427 102.183 381.719 101.839 383.011 101.5C383.278 101.429 383.438 101.156 383.368 100.889C385.629 100.296 387.889 99.7123 390.146 99.1394C390.213 99.407 390.485 99.569 390.753 99.5012C393.33 98.8485 395.904 98.2092 398.475 97.5832C398.743 97.5179 398.908 97.2475 398.842 96.9793C401.121 96.4257 403.398 95.8827 405.671 95.3501C405.734 95.6189 406.003 95.7859 406.271 95.7231C408.867 95.1166 411.459 94.5237 414.046 93.9445C414.315 93.8842 414.485 93.6169 414.425 93.3475C416.704 92.8385 418.981 92.3402 421.253 91.8524C421.311 92.1223 421.577 92.2943 421.847 92.2365C424.461 91.6771 427.07 91.1317 429.674 90.6002C429.944 90.5449 430.119 90.2809 430.064 90.0104C432.343 89.5467 434.618 89.0936 436.889 88.6511C436.942 88.922 437.204 89.099 437.475 89.0464C440.107 88.5353 442.733 88.0384 445.354 87.5557C445.625 87.5057 445.805 87.2451 445.755 86.9735C448.048 86.5527 450.336 86.1427 452.619 85.7435C452.667 86.0155 452.926 86.1976 453.198 86.1502C455.832 85.6915 458.459 85.2472 461.08 84.8173C461.353 84.7727 461.537 84.5156 461.493 84.2432C463.801 83.8662 466.103 83.5003 468.4 83.1455C468.443 83.4183 468.698 83.6055 468.971 83.5635C471.604 83.1585 474.231 82.7681 476.85 82.3923C477.123 82.3531 477.313 82.0998 477.274 81.8265C479.596 81.4947 481.913 81.1744 484.223 80.8655C484.26 81.1391 484.511 81.3314 484.785 81.295C487.422 80.9441 490.051 80.6081 492.673 80.2869C492.947 80.2533 493.142 80.004 493.108 79.73C495.44 79.4458 497.765 79.1732 500.083 78.9124C500.113 79.1869 500.361 79.3845 500.635 79.3538C503.286 79.0574 505.928 78.7763 508.56 78.5103C508.835 78.4826 509.035 78.2374 509.007 77.9626C511.337 77.7289 513.659 77.5071 515.974 77.2972C515.999 77.5722 516.242 77.7751 516.517 77.7503C519.18 77.5107 521.833 77.2867 524.476 77.0784C524.752 77.0567 524.957 76.816 524.936 76.5407C527.263 76.3589 529.582 76.1893 531.893 76.0317C531.911 76.3072 532.15 76.5155 532.425 76.4969C535.1 76.3166 537.763 76.1524 540.415 76.0044C540.691 75.989 540.902 75.753 540.887 75.4773C543.211 75.3492 545.527 75.2336 547.833 75.1304C547.845 75.4063 548.079 75.6201 548.355 75.6079C551.04 75.4898 553.712 75.3884 556.371 75.3037C556.647 75.2949 556.864 75.0641 556.855 74.7881C559.18 74.7158 561.495 74.6564 563.8 74.6096C563.806 74.8857 564.034 75.1052 564.31 75.0998C567 75.0474 569.675 75.0123 572.336 74.9946C572.612 74.9927 572.835 74.7674 572.833 74.4913C575.163 74.4776 577.482 74.4772 579.79 74.49C579.788 74.7661 580.01 74.9914 580.287 74.9931C582.974 75.0103 585.646 75.0453 588.302 75.0983C588.578 75.1038 588.807 74.8844 588.812 74.6083C591.145 74.6568 593.465 74.719 595.773 74.795C595.763 75.071 595.98 75.3023 596.256 75.3116C598.941 75.4024 601.609 75.5118 604.259 75.6397C604.535 75.653 604.769 75.4402 604.782 75.1644C607.114 75.2791 609.433 75.4082 611.737 75.5516C611.72 75.8272 611.929 76.0647 612.204 76.0821C614.887 76.2515 617.55 76.4404 620.193 76.6486C620.468 76.6702 620.709 76.4647 620.73 76.1894C623.058 76.375 625.37 76.5757 627.667 76.7912C627.641 77.0661 627.842 77.3101 628.117 77.3362C630.796 77.5904 633.452 77.8649 636.087 78.1598C636.361 78.1905 636.609 77.9929 636.639 77.7184C638.958 77.9804 641.259 78.258 643.542 78.5513C643.506 78.8251 643.7 79.0759 643.973 79.1114C646.646 79.4577 649.295 79.8255 651.918 80.2147C652.192 80.2552 652.446 80.0666 652.486 79.7935C654.789 80.1378 657.072 80.4986 659.336 80.8758C659.29 81.1482 659.474 81.406 659.746 81.4517C662.411 81.8993 665.049 82.3696 667.658 82.8626C667.929 82.9139 668.19 82.7355 668.242 82.4641C670.538 82.9011 672.812 83.3557 675.064 83.8278C675.007 84.098 675.18 84.3633 675.45 84.4203C678.086 84.9767 680.69 85.5573 683.263 86.1617C683.532 86.2248 683.801 86.0581 683.864 85.7893C686.15 86.3299 688.411 86.8896 690.646 87.468C690.577 87.7352 690.737 88.0083 691.004 88.0779C693.598 88.7535 696.157 89.4545 698.679 90.1808C698.944 90.2572 699.221 90.104 699.298 89.8387C701.568 90.4964 703.808 91.1745 706.019 91.8732C705.935 92.1364 706.08 92.4175 706.344 92.5012C708.894 93.3123 711.404 94.1506 713.873 95.016C714.133 95.1073 714.418 94.9703 714.51 94.71C716.738 95.4959 718.932 96.304 721.092 97.1341C720.993 97.3915 721.121 97.6808 721.378 97.7803C723.891 98.7521 726.357 99.7539 728.774 100.785C729.028 100.894 729.321 100.776 729.43 100.522C731.582 101.446 733.695 102.394 735.769 103.365C735.652 103.615 735.759 103.913 736.009 104.03C738.454 105.182 740.843 106.367 743.175 107.585C743.42 107.712 743.722 107.618 743.849 107.374C745.941 108.472 747.986 109.597 749.984 110.749C749.846 110.987 749.928 111.293 750.166 111.431C752.489 112.779 754.748 114.161 756.94 115.579C757.172 115.729 757.481 115.663 757.631 115.432C759.603 116.716 761.522 118.03 763.386 119.372C763.225 119.595 763.274 119.907 763.498 120.069C765.684 121.655 767.793 123.28 769.824 124.944C770.037 125.119 770.352 125.088 770.527 124.875C772.346 126.377 774.101 127.911 775.792 129.477C775.604 129.679 775.615 129.995 775.817 130.183C777.777 132.014 779.649 133.888 781.429 135.804C781.616 136.006 781.932 136.018 782.134 135.831C783.725 137.559 785.242 139.321 786.683 141.117C786.468 141.289 786.433 141.603 786.604 141.819C788.267 143.912 789.827 146.051 791.283 148.234C791.435 148.464 791.745 148.526 791.975 148.374C793.266 150.334 794.473 152.33 795.595 154.362C795.353 154.494 795.264 154.797 795.396 155.039C796.667 157.373 797.824 159.753 798.866 162.18C798.975 162.433 799.268 162.551 799.521 162.443Z" stroke="url(#paint0_linear)" stroke-opacity="0.6" stroke-linecap="round" stroke-dasharray="8 8"/>
<defs>
<linearGradient id="paint0_linear" x1="96.5001" y1="275" x2="661.5" y2="207.5" gradientUnits="userSpaceOnUse">
<stop stop-color="white" stop-opacity="0"/>
<stop offset="1" stop-color="white"/>
</linearGradient>
</defs>
</svg>
