<svg width="244" height="259" viewBox="0 0 244 259" fill="none" xmlns="http://www.w3.org/2000/svg">
<path d="M169.337 199.168C155.619 206.275 140.304 209.61 124.965 208.83C109.625 208.049 94.8136 203.183 82.0507 194.73C69.2878 186.277 59.0333 174.542 52.3402 160.729C45.6471 146.917 42.7565 131.525 43.9658 116.134C45.175 100.742 50.4405 85.9067 59.2216 73.1502C68.0028 60.3937 79.9831 50.1763 93.932 43.5471C107.881 36.918 123.296 34.116 138.593 35.4285C153.891 36.741 168.521 42.1206 180.98 51.0149" stroke="white" stroke-width="0.5"/>
<path d="M212.66 173.3C200.68 193.366 182.194 208.669 160.456 216.516C138.718 224.363 115.12 224.252 93.8138 216.203C72.5078 208.155 54.8573 192.684 43.9677 172.512C33.0781 152.34 29.6468 128.759 34.2788 105.917" stroke="white" stroke-width="0.3"/>
</svg>
