<svg width="917" height="534" viewBox="0 0 917 534" fill="none" xmlns="http://www.w3.org/2000/svg">
<mask id="mask0_116_39758" style="mask-type:luminance" maskUnits="userSpaceOnUse" x="-99" y="0" width="1016" height="613">
<path d="M-99.0001 0H916.558V612.412H-99.0001V0Z" fill="white"/>
</mask>
<g mask="url(#mask0_116_39758)">
<path opacity="0.5" d="M150.898 42.9343C-47.4169 42.9343 -208.771 204.207 -208.771 402.422C-208.771 600.638 -47.4169 761.911 150.898 761.911C349.214 761.911 510.568 600.638 510.568 402.422C510.568 204.207 349.214 42.9343 150.898 42.9343ZM480.456 533.215C475.058 541.896 468.373 550.085 460.372 557.698C483.333 507.5 491.059 484.168 497.936 426.138C500.32 433.122 502.129 438.407 503.115 443.583C499.471 474.884 491.744 504.899 480.456 533.188V533.215ZM279.428 732.745C278.524 732.992 277.674 733.293 276.77 733.539C272.551 734.662 268.277 735.703 263.92 736.661C312.663 715.246 332.089 703.333 373.243 669.567C372.421 674.086 371.763 677.509 370.421 680.549C343.049 702.183 312.417 719.874 279.401 732.745H279.428ZM234.028 747.013C242.439 744.466 251.7 741.344 262.194 737.346C261.81 738.113 261.509 738.743 261.235 739.29C252.303 742.221 243.234 744.795 234.028 747.013ZM-166.905 559.615C-167.069 553.261 -163.617 548.031 -153.698 538.665C-136.382 582.345 -126.792 603.048 -94.2421 647.768C-102.051 641.771 -109.476 635.554 -116.518 629.119C-125.313 621.068 -133.121 612.934 -140.081 604.801C-150.082 590.478 -159.069 575.389 -166.905 559.615ZM479.497 269.193C481.442 277.655 482.429 285.98 482.292 294.058C465.003 248.352 455.112 229.073 422.89 189.419C430.617 193.773 437.686 197.826 443.385 202.208C457.714 223.048 469.825 245.477 479.497 269.193ZM-187.838 297.263C-180.385 284.912 -172.138 277.983 -149.232 264.948C-167.672 314.789 -173.535 338.45 -176.768 399.136C-190.221 373.421 -196.194 348.254 -195.099 324.73C-193.016 315.446 -190.66 306.272 -187.865 297.263H-187.838ZM-120.08 174.056C-111.01 167.593 -100.544 163.293 -76.049 156.666C-110.736 193.198 -124.436 211.574 -148.438 263.031C-152.027 241.342 -149.588 220.693 -141.396 201.961C-134.738 192.294 -127.614 183.011 -120.08 174.083V174.056ZM-47.773 108.933C-62.185 122.544 -71.4733 138.455 -75.501 155.844C-98.3519 162.088 -109.257 166.086 -119.148 172.988C-98.352 148.587 -74.3776 126.98 -47.773 108.906V108.933ZM-23.2234 93.789C-10.4006 90.6945 1.3811 90.2289 27.9035 91.1052C-15.8804 109.207 -34.6488 119.833 -74.679 155.324C-70.6514 137.797 -61.1986 121.804 -46.5674 108.112C-39.0052 103.018 -31.1965 98.2802 -23.2508 93.789H-23.2234ZM252.166 198.429C256.522 164.005 255.454 149.327 239.891 118.409C258.742 147.629 270.797 163.759 298.58 196.95C284.387 199.935 268.496 200.318 252.166 198.456V198.429ZM299.073 197.826C308.088 235.043 309.238 252.706 299.594 298.194C275.537 255.719 265.783 235.399 252.221 199.332C268.688 201.222 284.743 200.839 299.073 197.826ZM251.7 113.507C253.728 113.068 255.728 112.685 257.728 112.302C259.235 112 260.742 111.672 262.221 111.425C264.304 111.069 266.331 110.768 268.386 110.467C269.756 110.248 271.153 110.001 272.523 109.837C274.743 109.536 276.907 109.317 279.099 109.097C280.25 108.988 281.428 108.824 282.552 108.714C285.401 108.468 288.223 108.276 291.018 108.139C291.429 108.139 291.867 108.084 292.306 108.057C295.511 107.92 298.662 107.865 301.786 107.865C302.717 107.865 303.622 107.92 304.553 107.947C306.718 107.975 308.855 108.029 310.964 108.139C312.143 108.194 313.293 108.331 314.444 108.413C316.143 108.55 317.842 108.659 319.513 108.824C325.048 113.945 329.651 119.121 333.322 124.269C296.498 111.946 279.044 109.152 242.138 115.807C243.727 115.396 245.289 115.04 246.878 114.657C248.467 114.273 250.083 113.863 251.673 113.534L251.7 113.507ZM319.568 108.55C320.554 108.659 321.486 108.824 322.445 108.961C321.13 108.796 319.842 108.577 318.499 108.468C318.855 108.495 319.212 108.55 319.568 108.577V108.55ZM368.475 122.79C367.763 122.407 367.051 122.051 366.338 121.695C366.968 121.996 367.599 122.27 368.229 122.598C368.311 122.653 368.393 122.735 368.475 122.79ZM353.05 608.361C308.471 617.727 258.468 618.904 207.176 613.071C252.549 575.361 269.647 558.3 303.457 517.085C328.482 561.979 345.022 592.413 353.077 608.388L353.05 608.361ZM302.416 516.537C268.304 557.78 249.399 576.594 206.08 612.359C181.312 559.806 173.53 541.924 157.063 499.778C206.053 511.882 255.81 517.825 302.416 516.537L303.704 514.867C276.579 465.436 266.687 445.965 248.029 405.161C289.566 409.899 330.062 408.94 366.146 401.354C348.775 446.979 338.501 467.408 303.704 514.867L302.416 516.537ZM58.5084 744.658C32.2874 737.592 7.27194 727.597 -16.1818 715.027C-8.75659 715.219 0.586517 713.74 17.6014 709.906C34.5067 727.323 44.1238 736.47 58.5084 744.63V744.658ZM29.1091 91.1326C60.4264 93.1592 76.2631 94.7749 123.28 100.635C79.1674 108.413 59.9605 114.711 17.848 141.357C14.8067 122.954 18.6426 105.756 29.1091 91.1326ZM16.8342 141.741C-29.854 146.999 -46.0469 149.436 -74.3503 155.543C-37.6354 123.201 -19.7437 110.85 28.1501 91.2969C18.0124 107.673 14.1765 118.299 16.8342 141.741ZM246.083 404.969C246.083 404.969 246.111 404.969 246.138 404.969C215.314 443.994 197.724 462.232 156.406 497.915C137.829 445.965 130.705 420.497 121.746 373.996C161.94 389.442 204.519 400.04 246.083 404.969ZM122.157 372.983C164.077 338.97 179.229 324.155 207.478 289.677C218.492 334.096 225.726 355.429 246.193 403.874C204.71 398.972 162.269 388.374 122.157 372.956V372.983ZM302.58 515.497C256.029 516.784 206.327 510.841 157.392 498.764C199.121 462.479 217.561 443.336 247.015 405.654C266.66 448.622 275.483 466.066 302.553 515.497H302.58ZM204.738 612.797C153.392 606.718 100.813 593.6 51.1654 574.54C98.3468 544.471 117.91 530.559 155.83 500.079C172.955 543.95 180.27 560.82 204.738 612.797ZM155.118 498.189C106.183 485.893 58.0974 467.435 14.7793 443.884C62.3717 415.869 83.1403 402.203 120.622 374.161C130.102 423.126 136.541 446.294 155.118 498.189ZM119.91 373.284C80.3729 402.642 61.5771 414.992 13.9847 442.816C6.42252 389.223 4.97037 365.699 10.0666 313.009C42.0141 337.3 79.7428 357.675 119.883 373.284H119.91ZM-99.0643 356.579C-126.71 325.47 -142.958 294.004 -148.191 264.455C-121.039 251.666 -107.476 246.654 -62.8426 233.016C-84.3235 277.49 -91.6665 299.125 -99.0643 356.607V356.579ZM-62.1028 233.236C-51.4719 253.117 -35.416 273.355 -13.7706 293.182C-6.7016 299.645 0.750885 305.889 8.58704 311.886C-26.7579 327.414 -62.596 341.736 -98.1328 356.826C-91.2556 304.301 -85.6935 281.708 -62.1028 233.236ZM47.7131 201.112C26.9719 236.741 18.8618 254.267 9.24469 311.01C1.43591 305.013 -6.01672 298.796 -13.0583 292.333C-34.6489 272.561 -50.6774 252.378 -61.2809 232.551C-24.9769 221.953 11.4366 211.82 47.7131 201.112ZM8.99811 312.927C4.28543 363.07 4.9978 388.565 12.7518 442.816C-19.7985 424.933 -49.6088 404.148 -74.9805 380.925C-83.255 373.339 -90.8446 365.699 -97.7492 358.058C-62.1851 342.969 -26.3195 328.564 8.99811 312.927ZM10.7242 312.16C59.0016 289.622 80.0716 278.421 118.074 255.116C112.786 299.097 113.225 322.101 120.294 372.299C80.236 356.744 42.6168 336.424 10.7242 312.188V312.16ZM117.773 254.322C78.1262 278.421 58.0426 289.02 10.3406 311.12C19.3002 259.115 26.0951 239.589 48.5899 201.249C52.9189 206.042 57.6591 210.834 62.8649 215.572C78.7564 230.114 97.4153 243.122 117.8 254.322H117.773ZM63.6594 214.887C58.481 210.15 53.7683 205.385 49.4667 200.619C104.84 183.613 122.184 177.287 157.173 162.882C135.61 192.376 127.883 207.849 118.376 253.473C98.0728 242.327 79.4962 229.374 63.6869 214.887H63.6594ZM47.7679 200.346C11.5188 210.944 -24.8947 221.022 -61.1713 231.565C-36.2106 190.24 -22.922 173.563 16.9986 142.645C20.2591 161.157 30.4243 180.847 47.7679 200.346ZM-61.9384 231.318C-75.6928 205.056 -79.9124 179.451 -74.8983 156.392C-44.951 149.956 -30.4294 147.738 16.3958 142.398C-20.0725 170.879 -34.7858 186.023 -61.9384 231.318ZM18.0124 142.261C54.8369 138.4 91.7162 134.867 128.541 131.033C91.634 150.422 76.6741 161.787 48.6173 199.688C31.3832 180.299 21.2455 160.692 17.985 142.261H18.0124ZM-62.7604 232.031C-107.229 245.614 -122.381 251.173 -147.999 263.305C-125.916 216.311 -113.75 196.649 -75.775 156.94C-80.7891 180.026 -76.5696 205.686 -62.7878 232.031H-62.7604ZM-99.6123 357.483C-140.958 376.023 -154.575 383.472 -176.22 399.383C-173.097 343.9 -169.124 319.554 -148.821 265.222C-143.588 294.825 -127.34 326.318 -99.6397 357.483H-99.6123ZM-99.2561 358.688C-101.832 408.338 -101.585 431.615 -88.6526 497.833C-98.3245 490.412 -107.531 482.716 -116.271 474.72C-143.013 450.265 -162.85 425.235 -175.974 400.697C-153.232 384.156 -140.328 377.091 -99.2561 358.715V358.688ZM-98.3245 358.934C-91.4199 366.602 -83.8304 374.243 -75.5284 381.856C-50.1293 405.106 -20.2917 425.892 12.2859 443.802C0.74176 450.283 -32.5574 468.348 -87.6115 497.998C-99.3657 437.202 -101.256 412.5 -98.352 358.934H-98.3245ZM13.108 444.87C23.1909 496.847 29.8763 520.919 48.8639 573.663C-0.728638 554.411 -47.3347 529.244 -86.7895 499.23C-32.8862 470.147 0.422089 452.027 13.1353 444.87H13.108ZM14.3409 444.897C57.7138 468.476 105.854 486.961 154.844 499.257C115.362 530.805 96.7851 544.005 50.1516 573.581C31.1914 520.727 23.8211 494.273 14.3135 444.87L14.3409 444.897ZM99.7168 678.33C50.8092 666.034 2.72369 647.604 -40.567 624.052C-1.76978 605.403 14.2313 596.804 49.6036 575.553C67.6597 620.246 77.0303 639.443 99.7442 678.33H99.7168ZM99.4702 678.988C63.3854 695.255 48.0967 700.896 17.6836 709.166C-8.20862 679.015 -18.5929 664.035 -40.704 624.737C2.55923 648.261 50.59 666.692 99.4427 678.96L99.4702 678.988ZM100.484 679.617C118.129 707.797 125.582 718.614 142.569 740.632C101.142 735.73 58.7002 725.132 18.6151 709.741C49.2474 701.389 66.0706 695.172 100.484 679.617ZM50.864 575.498C100.539 594.558 153.09 607.676 204.464 613.756H204.519C163.392 644.592 144.021 656.641 100.977 678.248C78.0166 638.704 68.1803 618.548 50.864 575.471V575.498ZM205.56 614.413C213.031 629.73 226.886 656.805 247.124 695.638C200.601 696.925 150.926 691.01 102.018 678.906C145.199 657.134 166.489 643.88 205.587 614.413H205.56ZM300.388 298.769C308.91 257.116 309.868 238.877 299.703 198.264C326.116 228.333 337.788 240.876 377.736 282.173C370.065 285.788 361.489 288.91 352.036 291.457C336.035 295.784 318.609 298.166 300.388 298.741V298.769ZM352.419 292.497C361.9 289.951 370.503 286.801 378.229 283.159C382.723 328.153 381.791 347.734 366.777 399.602C335.679 356.059 323.294 337.41 300.553 299.809C318.855 299.207 336.336 296.824 352.419 292.497ZM345.789 156.118C385.381 171.7 399.628 177.862 422.013 189.035C428.507 207.959 428.069 226.006 420.917 241.834C397.245 202.126 384.504 186.078 345.789 156.118ZM421.246 243.395C441.22 286.035 447.686 306.437 452.043 359.345C429.493 334.425 424.726 329.413 379.161 282.721C399.738 272.807 413.848 259.224 421.246 243.395ZM451.769 360.304C434.864 376.05 411.054 388.675 380.504 396.918C376.284 398.068 372.01 399.081 367.653 400.04C381.216 352.225 384.148 332.316 378.914 283.46C424.753 330.618 430.178 336.369 451.742 360.304H451.769ZM378.668 281.735C369.27 238.576 362.228 220.255 333.761 182.162C383.024 215.736 393.573 223.075 420.561 242.574C413.218 258.348 399.162 271.849 378.668 281.735ZM299.923 300.384C323.568 339.546 335.295 357.291 365.982 400.369C329.979 407.927 289.593 408.885 248.138 404.175C276.031 363.508 286.196 344.968 299.923 300.412V300.384ZM367.051 401.82C397.793 443.994 418.369 473.013 428.781 488.878C416.451 494.684 402.724 499.695 387.573 503.776C361.872 510.704 333.952 514.511 304.717 515.469C336.336 471.927 348.364 451.716 367.051 401.82ZM367.79 401.081C372.147 400.15 376.449 399.081 380.668 397.959C411.273 389.688 435.138 377.036 452.07 361.262C451.659 411.131 448.645 433.806 429.521 487.947C418.652 471.479 398.067 442.524 367.763 401.081H367.79ZM452.701 361.344C478.428 391.578 486.812 403.518 497.498 425.317C485.716 450.593 463.194 472.283 430.288 488.139C447.522 438.516 452.536 415.841 452.673 361.372L452.701 361.344ZM421.712 243.395C454.153 267.796 465.468 277.463 482.209 295.209C481.552 319.363 471.579 341.38 452.618 359.427C448.371 311.01 443.796 289.896 421.712 243.423V243.395ZM421.52 242.601C428.699 226.69 429.137 208.561 422.616 189.583C451.961 226.006 463.304 244.162 481.99 294.195C464.427 275.792 453.687 266.646 421.52 242.629V242.601ZM334.72 124.844C361.132 127.227 369.626 128.13 376.832 129.472C384.148 135.524 391.189 141.933 397.984 148.56C409.136 161.842 417.027 175.178 421.63 188.104C390.312 155.735 375.106 143.521 334.72 124.844ZM376.147 128.87C369.106 127.61 361.954 126.871 334.117 124.488C330.418 119.257 325.76 114.027 320.143 108.878C338.473 110.878 354.858 115.807 369.106 123.338C371.462 125.173 373.846 126.98 376.147 128.87ZM348.638 114.547C349.954 114.958 351.214 115.396 352.502 115.862C351.214 115.423 349.954 114.958 348.638 114.547ZM357.68 117.806C358.913 118.299 360.146 118.819 361.352 119.34C360.146 118.792 358.913 118.299 357.68 117.806ZM334.473 124.954C371.434 142.261 387.326 152.668 421.438 188.214C398.012 176.685 384.504 170.879 345.241 155.57C345.378 145.958 341.843 135.497 334.473 124.954ZM344.309 155.078C306.334 131.417 288.251 123.53 241.508 116.875C277.072 119.887 321.897 123.721 333.651 124.762C340.967 135.196 344.474 145.547 344.309 155.078ZM345.241 156.036C380.558 183.641 394.696 198.21 420.342 241.725C392.121 221.432 382.367 214.696 333.487 181.559C341.021 174.384 344.994 165.621 345.241 156.036ZM332.665 180.82C302.635 148.779 287.018 136.592 241.508 117.614C287.703 134.155 308.827 141.96 344.309 155.516C344.035 165.018 340.117 173.7 332.665 180.792V180.82ZM333.13 181.888C358.94 216.859 367.955 234.167 377.873 281.379C339.514 241.862 326.308 227.895 299.676 197.689C301.402 197.306 303.101 196.895 304.8 196.457C316.938 193.171 326.418 188.159 333.13 181.915V181.888ZM304.252 195.553C302.58 195.991 300.909 196.402 299.183 196.786C284.908 160.692 275.537 146.013 240.905 118.162C273.893 141.303 284.141 148.341 332.308 181.148C325.65 187.338 316.28 192.322 304.252 195.553ZM251.864 199.743C266.002 237.316 275.263 256.76 298.991 298.741C269.975 299.536 238.987 295.838 208.492 288.307C233.562 252.926 242.275 237.015 251.864 199.743ZM299.155 299.809C286.305 340.559 277.921 359.071 247.207 403.381C226.685 354.909 218.684 331.467 208.245 289.321C238.877 296.907 270.003 300.604 299.128 299.809H299.155ZM206.848 288.965C179.311 322.211 164.762 337.163 121.39 372.052C114.485 322.512 113.334 301.124 118.951 254.952C146.076 269.713 176.188 281.242 206.82 288.937L206.848 288.965ZM119.554 254.103C160.488 226.69 175.065 214.805 201.532 187.201C197.504 223.788 198.6 243.56 207.039 287.952C176.544 280.284 146.542 268.782 119.554 254.103ZM201.368 186.653C175.503 213.244 161.584 225.212 119.252 253.309C128.048 211.711 134.158 194.786 157.803 162.773C170.489 172.413 185.449 180.491 201.368 186.68V186.653ZM158.598 162.17C196.025 145.109 210.903 137.222 237.343 117.751C217.04 137.606 209.916 148.971 201.751 185.859C185.969 179.724 171.146 171.728 158.598 162.17ZM157.228 162.307C120.677 177.178 104.155 183.148 49.4667 199.771C75.2219 165.238 88.8119 152.038 129.171 131.088C133.39 138.975 139.747 146.999 148.35 154.858C151.145 157.433 154.104 159.897 157.228 162.28V162.307ZM149.227 154.393C140.733 146.615 134.404 138.646 130.24 130.841C179.037 125.447 199.888 122.735 236.384 117.039C200.491 125.885 185.86 132.813 158.022 161.76C154.954 159.404 152.022 156.94 149.227 154.393ZM128.924 130.65C92.0998 134.374 55.2753 137.797 18.4508 141.604C57.0562 117.395 75.578 109.125 123.746 100.882C121.746 110.056 123.417 120.216 128.897 130.677L128.924 130.65ZM124.869 100.854C164.817 106.085 186.6 109.097 235.945 116.218C192.162 112.548 172.955 113.972 129.965 130.349C124.54 119.997 122.896 109.919 124.869 100.854ZM123.855 100.444C76.4275 94.4189 59.7413 92.6936 29.8214 90.7219C73.9067 77.1661 93.8534 73.7155 141.035 76.8648C132.788 83.1361 127.527 87.8464 123.855 100.444ZM29.5748 90.4754C40.2605 75.9337 57.5768 63.9663 81.2771 55.9698C97.607 60.2967 107.635 63.7472 140.761 76.591C97.5522 73.9072 77.7152 75.4134 29.5475 90.448L29.5748 90.4754ZM141.994 77.0839C174.27 89.9003 193.614 97.8147 236.11 115.533C193.833 100.718 174.106 96.9384 124.979 100.444C127.061 91.4065 132.788 83.3552 141.994 77.0839ZM236.822 115.04C204.793 92.2554 188.518 84.478 142.405 76.7827C148.268 72.8666 155.529 69.6625 164.132 67.3347C169.201 65.9654 174.544 64.9522 180.079 64.2949C197.888 81.7668 209.56 92.1733 236.795 115.013L236.822 115.04ZM163.392 67.0335C154.707 69.3886 147.391 72.6201 141.473 76.5636C108.156 63.5555 97.6344 59.8585 82.2361 55.7507C125.746 51.6155 145.747 53.286 179.531 63.9663C173.941 64.6236 168.544 65.6368 163.42 67.0335H163.392ZM28.5885 90.6397C2.58667 89.7908 -9.90735 90.2563 -22.1822 93.1318C1.81949 79.6581 27.5199 68.9505 54.5355 61.3099C62.3443 59.5025 70.838 57.7498 80.5373 55.9972C56.7274 64.0211 39.329 76.0159 28.6159 90.6397H28.5885ZM-149.095 263.825C-170.823 276.313 -179.755 283.241 -187.344 295.537C-176.796 262.264 -161.452 231.127 -142.136 202.865C-150.246 221.569 -152.657 242.163 -149.095 263.798V263.825ZM-177.125 400.067C-192.961 414.417 -199.455 421.921 -202.332 434.655C-203.291 424.03 -203.866 413.322 -203.866 402.45C-203.866 376.215 -200.907 350.691 -195.482 326.072C-196.496 349.487 -190.523 374.489 -177.125 400.067ZM-202.195 436.161C-199.674 424.331 -194.276 416.882 -176.851 401.327C-175.59 455.605 -172.494 479.951 -154.438 536.748C-175.782 512.731 -190.249 488.522 -198.167 465.135C-199.866 455.605 -201.263 445.965 -202.195 436.189V436.161ZM-176.303 401.574C-163.178 426.138 -143.341 451.141 -116.6 475.624C-107.887 483.62 -98.6533 491.316 -88.9814 498.737C-122.189 516.757 -143.798 529.518 -153.808 537.022C-171.206 481.758 -175.207 457.714 -176.33 401.574H-176.303ZM-88.2142 499.915C-76.049 547.456 -68.98 570.377 -42.6494 622.902C-75.1996 605.02 -104.983 584.262 -130.354 561.039C-138.629 553.453 -146.218 545.812 -153.123 538.172C-142.803 530.577 -121.166 517.825 -88.2142 499.915ZM-87.1456 500.134C-47.6634 530.148 -1.05743 555.315 48.5351 574.567C11.4366 596.777 -2.89313 604.499 -41.6082 623.067C-65.8017 574.458 -73.8845 552.631 -87.173 500.106L-87.1456 500.134ZM16.7246 708.975C-23.2782 693.447 -60.8973 673.127 -92.7625 648.891C-87.5566 646.025 -70.5509 637.91 -41.7452 624.545C-21.6069 660.037 -11.3596 676.523 16.7246 708.975ZM16.6973 709.385C-0.893005 713.329 -9.90741 714.808 -17.0038 714.643C-28.1279 708.646 -38.8958 702.046 -49.28 694.926C-63.144 683.561 -74.679 671.101 -92.5707 649.439C-60.7877 673.593 -23.2508 693.885 16.6698 709.385H16.6973ZM59.6317 744.986C46.4801 737.538 37.274 729.541 18.5604 710.097C58.5358 725.461 100.895 736.004 142.213 740.906C142.213 740.906 142.24 740.906 142.268 740.906C114.868 747.232 99.3332 750.135 77.4139 749.231C71.4135 747.971 65.4952 746.547 59.6317 744.959V744.986ZM143.72 740.495C126.486 718.012 118.622 706.592 101.744 679.481C150.624 691.558 200.244 697.473 246.713 696.213C208.464 717.546 189.668 726.885 143.693 740.495H143.72ZM247.59 696.514C259.947 721.298 262.276 727.734 262.276 736.99C226.301 744.548 185.942 745.507 144.542 740.769C187.093 728.035 205.395 720.175 247.618 696.487L247.59 696.514ZM206.875 614.002C258.194 619.863 308.197 618.658 352.776 609.319C317.924 645.687 299.895 662.502 248.385 695.227C227.945 655.957 214.108 628.891 206.875 614.03V614.002ZM353.652 609.566C367.681 639.334 372.284 650.507 373.27 668.91C360.968 674.716 347.214 679.727 332.062 683.807C306.389 690.736 278.442 694.543 249.234 695.501C296.744 665.103 315.294 649.85 353.625 609.538L353.652 609.566ZM304.58 516.483C333.843 515.524 361.817 511.718 387.545 504.762C402.697 500.681 416.479 495.642 428.808 489.837C406.916 538.857 395.162 559.04 354.255 607.621C345.926 591.19 329.368 560.811 304.58 516.483ZM429.576 490.001C450.043 524.014 454.755 534.94 459.249 558.711C438.343 578.182 408.834 593.819 371.023 604.034C365.818 605.43 360.502 606.718 355.105 607.895C392.587 563.038 406.067 543.293 429.548 490.001H429.576ZM430.343 489.097C463.277 473.214 485.826 451.525 497.608 426.22C491.059 479.266 485.306 502.982 459.961 557.698C455.632 535.707 452.372 525.52 430.315 489.097H430.343ZM453.002 360.359C471.989 342.284 481.99 320.212 482.648 296.003C496.43 344.804 500.101 367.533 497.772 424.139C486.484 401.491 478.538 390.181 453.002 360.359ZM479.99 270.507C485.032 283.049 489.388 295.921 493.005 309.12C490.676 305.095 487.525 300.604 482.675 294.88C482.812 286.966 481.881 278.805 479.99 270.507ZM422.37 188.652C417.849 175.863 410.067 162.691 399.162 149.573C415.218 165.347 429.795 182.627 442.645 201.167C438.371 197.771 432.233 193.855 422.37 188.652ZM367.599 122.051C353.872 114.931 338.144 110.275 320.609 108.385C331.98 106.414 338.501 105.044 341.898 103.922C350.748 109.59 359.324 115.643 367.626 122.051H367.599ZM341.213 103.483C337.925 104.634 331.404 106.03 319.513 108.166C308.06 97.7873 294.004 88.8596 278.633 81.7394C290.415 81.5477 299.32 82.2324 309.43 85.4091C320.362 90.8862 330.966 96.9383 341.241 103.483H341.213ZM318.801 108.084C283.291 101.347 268.633 102.771 240.466 115.615C264.112 101.046 271.948 94.857 278.305 81.9038C293.511 88.9418 307.457 97.7873 318.801 108.084ZM278.414 81.4656C278.743 77.9055 279.044 74.2632 276.688 70.977C287.593 75.1396 298.251 79.8225 308.636 84.9709C299.347 82.1228 290.278 81.137 278.442 81.4382L278.414 81.4656ZM275.811 70.6483C278.14 73.1952 279.264 76.5362 277.894 81.4108C262.495 74.3454 245.837 69.1148 229.233 66.075C231.397 63.0078 233.644 59.9407 238.055 58.7631C250.933 62.0219 263.536 66.0476 275.811 70.6757V70.6483ZM277.565 81.5751C257.07 86.6414 249.563 91.6256 239.261 115.067C244.412 92.4471 243.754 83.3278 229.342 66.3762C245.782 69.416 262.303 74.5918 277.537 81.5751H277.565ZM228.767 65.8285C220.328 59.5025 213.396 55.0387 203.477 51.8072C214.958 53.5325 226.274 55.8055 237.37 58.5988C233.315 59.3382 231.589 61.7755 228.767 65.8285ZM228.466 65.9107C211.862 62.9257 195.34 62.1041 180.243 63.8294L180.791 64.4045C213.177 79.4938 223.452 88.7227 238.631 116.272C228.274 90.5575 225.78 80.8905 229.068 66.4858C243.124 83.4373 244.768 91.8173 238.877 116.3C249.125 92.9948 255.645 87.2165 277.784 81.849C271.4 94.6654 264.55 100.8 239.096 116.409C266.879 103.648 280.688 101.046 318.718 108.303L318.307 108.385C318.307 108.385 318.417 108.385 318.499 108.385C296.525 106.249 271.756 108.385 244.686 115.122C243.727 115.369 242.768 115.56 241.809 115.807C241.919 115.807 242.001 115.779 242.11 115.752C241.453 115.916 240.823 116.053 240.165 116.218C239.727 116.327 239.288 116.437 238.85 116.574C275.647 109.536 293.265 110.987 333.103 124.324C301.841 121.75 270.605 119.203 239.343 116.628C285.1 123.037 303.649 129.828 343.898 154.968C306.526 140.81 286.004 133.306 239.343 116.738C283.894 135.168 300.388 146.506 332.144 180.519C283.648 147.683 271.482 139.358 239.261 116.848C273.126 143.959 283.702 158.063 298.69 196.32C270.03 162.198 257.755 145.876 239.069 116.902C254.33 147.026 256.577 161.404 251.81 197.826L251.536 199.195C242.467 233.29 235.644 249.009 207.971 287.568C199.642 243.779 197.888 225.266 202.19 186.899C218.136 193.034 235.014 197.224 251.508 199.195L251.782 197.826C239.699 159.213 237.398 144.835 238.822 116.875C233.069 144.014 226.602 156.2 202.409 185.557C210.437 149.683 216.876 137.469 238.576 116.793C212.738 135.716 198.573 143.658 158.789 161.623C186.38 133.251 199.779 125.693 238.384 116.656C199.779 122.598 180.681 125.036 130.733 130.403C172.763 114.629 191.888 112.165 238.302 116.519C186.983 108.961 165.913 106.003 125.554 100.608C173.585 97.4313 193.614 100.225 238.329 116.409C195.066 98.2254 174.544 89.7634 142.761 77.0292C187.75 84.7792 204.765 91.7625 238.466 116.327C209.944 92.2828 198.628 82.0955 180.818 64.4319L180.27 63.8568C172.434 55.559 169.037 51.8893 166.79 48.3019C179.01 48.8496 191.066 49.9998 202.957 51.7524C211.697 54.6005 219.479 58.8726 228.52 65.9381L228.466 65.9107ZM228.603 66.2393C225.835 79.1104 226.712 87.0522 238 114.848C223.369 89.1609 214.081 79.3843 180.818 64.1854C195.778 62.4875 212.163 63.2817 228.603 66.2667V66.2393ZM202.491 186.105C225.178 158.336 232.658 146.068 238.576 118.189C237.398 144.863 238.932 158.583 251.344 198.292C235.014 196.347 218.273 192.185 202.491 186.133V186.105ZM150.844 47.8911C155.913 47.8911 160.927 48.0554 165.913 48.2745C168.105 51.5607 170.872 54.71 179.558 63.7198C145.638 53.2586 128.787 50.9309 82.3731 55.559C85.0034 54.6827 87.7433 53.8885 90.5107 53.1217C110.128 49.7533 130.267 47.8911 150.816 47.8911H150.844ZM81.6333 55.5864C80.6743 55.4221 79.8798 55.2851 79.1126 55.1756C82.3731 54.491 85.6884 53.9706 88.9763 53.3955C86.483 54.1076 84.017 54.8196 81.6333 55.5864ZM78.4824 55.3125C79.1126 55.4495 79.825 55.5864 80.7017 55.7781C71.797 57.4486 63.8787 59.0369 56.5083 60.7075C63.7417 58.7083 71.0572 56.8735 78.4824 55.3125ZM-197.921 466.559C-189.947 489.727 -175.563 513.689 -154.411 537.487C-163.617 546.442 -167.59 551.673 -167.425 558.684C-181.618 529.956 -191.948 499.011 -197.921 466.559ZM-153.123 538.911C-146.246 546.552 -138.656 554.192 -130.382 561.778C-105.037 584.974 -75.2819 605.704 -42.759 623.56C-71.4003 636.905 -88.3694 645.048 -93.6666 647.987C-123.614 606.553 -134.163 587.164 -153.123 538.884V538.911ZM-93.2009 649.11C-76.1586 669.567 -64.8975 682.055 -51.1979 693.529C-68.1854 681.726 -84.1044 668.499 -98.7629 653.985C-97.5574 651.958 -96.8998 651.465 -93.2009 649.11ZM150.844 756.899C125.965 756.899 101.69 754.298 78.2358 749.396C98.018 750.245 112.896 748.163 143.008 741.125C150.131 750.025 153.721 754.517 155.502 756.762C153.94 756.762 152.378 756.872 150.816 756.872L150.844 756.899ZM144.131 741.098C185.449 745.808 225.726 744.85 261.619 737.319C250.768 741.18 240.74 744.713 230.383 747.807C206.574 753.284 181.86 756.351 156.515 756.762C154.789 754.544 151.282 750.135 144.131 741.098ZM263.262 736.963C267.592 736.031 271.866 734.991 276.085 733.841C276.633 733.676 277.154 733.512 277.702 733.348C272.797 735.237 267.838 736.99 262.824 738.66C262.988 738.195 263.098 737.647 263.262 736.935V736.963ZM372.722 669.54C332.802 702.019 313.595 714.753 263.345 736.607C263.262 726.803 261.098 720.723 248.796 696.104C277.976 695.145 305.896 691.338 331.541 684.41C346.666 680.33 360.393 675.318 372.695 669.512L372.722 669.54ZM354.776 608.826C360.173 607.649 365.461 606.362 370.695 604.965C408.506 594.75 437.987 579.113 458.92 559.642C432.096 607.128 417.739 627.147 374.284 668.17C373.161 649.384 369.571 640.155 354.776 608.826ZM459.304 559.615C459.523 567.31 459.632 572.814 458.674 578.072C443.385 604.746 424.781 629.256 403.355 651C394.888 657.271 385.381 663.022 374.75 668.143C414.342 630.433 430.26 611.62 459.304 559.615ZM459.989 558.601C467.88 551.098 474.483 543.019 479.853 534.475C473.962 549.099 467.112 563.23 459.386 576.813C460.4 572.102 460.646 566.708 459.989 558.601ZM482.812 295.838C486.922 301.069 490.429 305.56 493.279 310.243C501.005 338.888 505.225 368.93 505.444 399.958C503.964 408.256 501.498 416.334 498.019 424.03C499.882 372.216 498.128 349.103 482.812 295.838ZM-139.177 606.115C-128.327 618.849 -114.709 631.666 -94.0777 648.261C-96.708 650.178 -98.7355 651.684 -99.6671 653.136C-114.161 638.676 -127.34 622.902 -139.177 606.115ZM371.517 679.59C372.969 676.824 373.873 673.565 374.229 668.8C384.723 663.734 394.121 658.065 402.478 651.904C392.724 661.735 382.339 670.964 371.489 679.59H371.517ZM503.197 442.214C502.485 437.448 501.033 432.218 498.074 424.988C501.526 417.348 503.964 409.378 505.444 401.135C505.444 401.546 505.471 401.957 505.471 402.368C505.471 415.841 504.649 429.123 503.17 442.214H503.197Z" fill="#2A59FF"/>
<g opacity="0.5">
<path style="mix-blend-mode:color-dodge" d="M115.363 508.319C109.974 485.658 123.985 462.922 146.657 457.536C169.329 452.15 192.077 466.154 197.465 488.814C202.854 511.475 188.843 534.211 166.171 539.597C143.499 544.983 120.752 530.979 115.363 508.319Z" fill="url(#paint0_radial_116_39758)"/>
<path style="mix-blend-mode:color-dodge" d="M287.474 555.353C266.007 546.368 255.891 521.691 264.88 500.235C273.868 478.778 298.558 468.667 320.025 477.652C341.492 486.636 351.608 511.313 342.62 532.77C333.631 554.226 308.941 564.337 287.474 555.353Z" fill="url(#paint1_radial_116_39758)"/>
<path style="mix-blend-mode:color-dodge" d="M430.096 522.754C411.468 522.754 396.368 507.661 396.368 489.042C396.368 470.424 411.468 455.331 430.096 455.331C448.724 455.331 463.825 470.424 463.825 489.042C463.825 507.661 448.724 522.754 430.096 522.754Z" fill="url(#paint2_radial_116_39758)"/>
<path style="mix-blend-mode:color-dodge" d="M367.215 434.545C348.587 434.545 333.487 419.452 333.487 400.834C333.487 382.216 348.587 367.123 367.215 367.123C385.843 367.123 400.943 382.216 400.943 400.834C400.943 419.452 385.843 434.545 367.215 434.545Z" fill="url(#paint3_radial_116_39758)"/>
<path style="mix-blend-mode:color-dodge" d="M270.772 306.32C266.936 290.162 276.931 273.955 293.097 270.121C309.263 266.286 325.478 276.276 329.315 292.434C333.151 308.592 323.156 324.799 306.99 328.634C290.824 332.468 274.609 322.478 270.772 306.32Z" fill="url(#paint4_radial_116_39758)"/>
<path style="mix-blend-mode:color-dodge" d="M97.8356 275.688C86.0869 263.945 86.0869 244.906 97.8356 233.164C109.584 221.421 128.633 221.421 140.381 233.164C152.13 244.906 152.13 263.945 140.381 275.688C128.633 287.431 109.584 287.431 97.8356 275.688Z" fill="url(#paint5_radial_116_39758)"/>
<path style="mix-blend-mode:color-dodge" d="M48.8091 230.579C32.194 230.579 18.7248 217.117 18.7248 200.51C18.7248 183.903 32.194 170.441 48.8091 170.441C65.4242 170.441 78.8934 183.903 78.8934 200.51C78.8934 217.117 65.4242 230.579 48.8091 230.579Z" fill="url(#paint6_radial_116_39758)"/>
<path style="mix-blend-mode:color-dodge" d="M-5.30587 147.344C-8.31327 134.658 -0.461934 121.937 12.2306 118.931C24.923 115.925 37.6503 123.773 40.6577 136.459C43.6651 149.145 35.8138 161.866 23.1213 164.872C10.4288 167.877 -2.29848 160.03 -5.30587 147.344Z" fill="url(#paint7_radial_116_39758)"/>
<path style="mix-blend-mode:color-dodge" d="M10.9434 91.1051C10.9434 100.827 18.8343 108.687 28.5336 108.687C38.233 108.687 46.124 100.8 46.124 91.1051C46.124 81.4107 38.233 73.5237 28.5336 73.5237C18.8343 73.5237 10.9434 81.4107 10.9434 91.1051Z" fill="url(#paint8_radial_116_39758)"/>
<path style="mix-blend-mode:color-dodge" d="M207.834 321.115C189.963 321.115 175.475 306.635 175.475 288.773C175.475 270.911 189.963 256.431 207.834 256.431C225.705 256.431 240.192 270.911 240.192 288.773C240.192 306.635 225.705 321.115 207.834 321.115Z" fill="url(#paint9_radial_116_39758)"/>
<path style="mix-blend-mode:color-dodge" d="M429.093 567.953C424.967 550.574 435.717 533.142 453.105 529.017C470.494 524.893 487.935 535.638 492.061 553.018C496.187 570.397 485.437 587.83 468.049 591.954C450.66 596.078 433.219 585.333 429.093 567.953Z" fill="url(#paint10_radial_116_39758)"/>
<path style="mix-blend-mode:color-dodge" d="M12.6422 482.114C-7.87704 482.114 -24.5111 465.488 -24.5111 444.979C-24.5111 424.47 -7.87704 407.845 12.6422 407.845C33.1614 407.845 49.7954 424.47 49.7954 444.979C49.7954 465.488 33.1614 482.114 12.6422 482.114Z" fill="url(#paint11_radial_116_39758)"/>
<path style="mix-blend-mode:color-dodge" d="M247.207 441.392C226.687 441.392 210.053 424.766 210.053 404.257C210.053 383.748 226.687 367.123 247.207 367.123C267.726 367.123 284.36 383.748 284.36 404.257C284.36 424.766 267.726 441.392 247.207 441.392Z" fill="url(#paint12_radial_116_39758)"/>
<path style="mix-blend-mode:color-dodge" d="M120.787 410.884C100.268 410.884 83.6335 394.259 83.6335 373.75C83.6335 353.241 100.268 336.615 120.787 336.615C141.306 336.615 157.94 353.241 157.94 373.75C157.94 394.259 141.306 410.884 120.787 410.884Z" fill="url(#paint13_radial_116_39758)"/>
<path style="mix-blend-mode:color-dodge" d="M9.87482 349.35C-10.6444 349.35 -27.2785 332.724 -27.2785 312.215C-27.2785 291.706 -10.6444 275.08 9.87482 275.08C30.394 275.08 47.0281 291.706 47.0281 312.215C47.0281 332.724 30.394 349.35 9.87482 349.35Z" fill="url(#paint14_radial_116_39758)"/>
<path style="mix-blend-mode:color-dodge" d="M49.8229 623.642C22.4942 623.642 0.339951 601.499 0.339951 574.184C0.339951 546.869 22.4942 524.726 49.8229 524.726C77.1515 524.726 99.3058 546.869 99.3058 574.184C99.3058 601.499 77.1515 623.642 49.8229 623.642Z" fill="url(#paint15_radial_116_39758)"/>
<path style="mix-blend-mode:color-dodge" d="M497.662 453.606C482.44 453.606 470.099 441.271 470.099 426.056C470.099 410.841 482.44 398.506 497.662 398.506C512.885 398.506 525.226 410.841 525.226 426.056C525.226 441.271 512.885 453.606 497.662 453.606Z" fill="url(#paint16_radial_116_39758)"/>
<path style="mix-blend-mode:color-dodge" d="M481.935 322.95C466.712 322.95 454.372 310.616 454.372 295.4C454.372 280.185 466.712 267.851 481.935 267.851C497.158 267.851 509.499 280.185 509.499 295.4C509.499 310.616 497.158 322.95 481.935 322.95Z" fill="url(#paint17_radial_116_39758)"/>
<path style="mix-blend-mode:color-dodge" d="M422.041 210.478C410.086 210.478 400.395 200.792 400.395 188.844C400.395 176.895 410.086 167.209 422.041 167.209C433.995 167.209 443.686 176.895 443.686 188.844C443.686 200.792 433.995 210.478 422.041 210.478Z" fill="url(#paint18_radial_116_39758)"/>
<path style="mix-blend-mode:color-dodge" d="M344.748 169.126C337.166 169.126 331.021 162.984 331.021 155.406C331.021 147.829 337.166 141.686 344.748 141.686C352.329 141.686 358.475 147.829 358.475 155.406C358.475 162.984 352.329 169.126 344.748 169.126Z" fill="url(#paint19_radial_116_39758)"/>
<path style="mix-blend-mode:color-dodge" d="M319.075 180.929C319.075 188.515 325.212 194.649 332.802 194.649C340.391 194.649 346.529 188.515 346.529 180.929C346.529 173.344 340.391 167.209 332.802 167.209C325.212 167.209 319.075 173.344 319.075 180.929Z" fill="url(#paint20_radial_116_39758)"/>
<path style="mix-blend-mode:color-dodge" d="M285.757 197.388C285.757 204.974 291.895 211.108 299.484 211.108C307.074 211.108 313.211 204.974 313.211 197.388C313.211 189.802 307.074 183.668 299.484 183.668C291.895 183.668 285.757 189.802 285.757 197.388Z" fill="url(#paint21_radial_116_39758)"/>
<path style="mix-blend-mode:color-dodge" d="M251.864 212.943C244.283 212.943 238.137 206.8 238.137 199.223C238.137 191.645 244.283 185.503 251.864 185.503C259.446 185.503 265.591 191.645 265.591 199.223C265.591 206.8 259.446 212.943 251.864 212.943Z" fill="url(#paint22_radial_116_39758)"/>
<path style="mix-blend-mode:color-dodge" d="M202.19 200.702C194.608 200.702 188.463 194.559 188.463 186.982C188.463 179.404 194.608 173.261 202.19 173.261C209.771 173.261 215.917 179.404 215.917 186.982C215.917 194.559 209.771 200.702 202.19 200.702Z" fill="url(#paint23_radial_116_39758)"/>
<path style="mix-blend-mode:color-dodge" d="M144.295 162.444C144.295 170.03 150.433 176.164 158.022 176.164C165.612 176.164 171.749 170.03 171.749 162.444C171.749 154.858 165.612 148.724 158.022 148.724C150.433 148.724 144.295 154.858 144.295 162.444Z" fill="url(#paint24_radial_116_39758)"/>
<path style="mix-blend-mode:color-dodge" d="M225.452 116.382C225.452 123.968 231.589 130.102 239.179 130.102C246.768 130.102 252.906 123.968 252.906 116.382C252.906 108.796 246.768 102.662 239.179 102.662C231.589 102.662 225.452 108.796 225.452 116.382Z" fill="url(#paint25_radial_116_39758)"/>
<path style="mix-blend-mode:color-dodge" d="M115.8 131.143C115.8 138.728 121.938 144.863 129.527 144.863C137.117 144.863 143.254 138.728 143.254 131.143C143.254 123.557 137.117 117.423 129.527 117.423C121.938 117.423 115.8 123.557 115.8 131.143Z" fill="url(#paint26_radial_116_39758)"/>
<path style="mix-blend-mode:color-dodge" d="M110.676 100.882C110.676 108.467 116.814 114.602 124.403 114.602C131.993 114.602 138.13 108.467 138.13 100.882C138.13 93.296 131.993 87.1616 124.403 87.1616C116.814 87.1616 110.676 93.296 110.676 100.882Z" fill="url(#paint27_radial_116_39758)"/>
<path style="mix-blend-mode:color-dodge" d="M141.692 91.1326C134.111 91.1326 127.965 84.9899 127.965 77.4125C127.965 69.8351 134.111 63.6924 141.692 63.6924C149.274 63.6924 155.419 69.8351 155.419 77.4125C155.419 84.9899 149.274 91.1326 141.692 91.1326Z" fill="url(#paint28_radial_116_39758)"/>
<path style="mix-blend-mode:color-dodge" d="M180.051 78.1247C172.47 78.1247 166.324 71.982 166.324 64.4047C166.324 56.8273 172.47 50.6846 180.051 50.6846C187.632 50.6846 193.778 56.8273 193.778 64.4047C193.778 71.982 187.632 78.1247 180.051 78.1247Z" fill="url(#paint29_radial_116_39758)"/>
<path style="mix-blend-mode:color-dodge" d="M228.877 79.9868C221.295 79.9868 215.15 73.8441 215.15 66.2667C215.15 58.6893 221.295 52.5466 228.877 52.5466C236.458 52.5466 242.603 58.6893 242.603 66.2667C242.603 73.8441 236.458 79.9868 228.877 79.9868Z" fill="url(#paint30_radial_116_39758)"/>
<path style="mix-blend-mode:color-dodge" d="M81.606 69.7173C74.0247 69.7173 67.8789 63.5746 67.8789 55.9972C67.8789 48.4198 74.0247 42.2771 81.606 42.2771C89.1872 42.2771 95.3329 48.4198 95.3329 55.9972C95.3329 63.5746 89.1872 69.7173 81.606 69.7173Z" fill="url(#paint31_radial_116_39758)"/>
<path style="mix-blend-mode:color-dodge" d="M320.28 124.598C320.28 132.183 326.418 138.318 334.007 138.318C341.597 138.318 347.734 132.183 347.734 124.598C347.734 117.012 341.597 110.877 334.007 110.877C326.418 110.877 320.28 117.012 320.28 124.598Z" fill="url(#paint32_radial_116_39758)"/>
<path style="mix-blend-mode:color-dodge" d="M305.539 108.522C305.539 116.108 311.677 122.242 319.266 122.242C326.856 122.242 332.993 116.108 332.993 108.522C332.993 100.937 326.856 94.8022 319.266 94.8022C311.677 94.8022 305.539 100.937 305.539 108.522Z" fill="url(#paint33_radial_116_39758)"/>
<path style="mix-blend-mode:color-dodge" d="M264.112 81.8217C264.112 89.4074 270.249 95.5417 277.839 95.5417C285.428 95.5417 291.566 89.4074 291.566 81.8217C291.566 74.2359 285.428 68.1016 277.839 68.1016C270.249 68.1016 264.112 74.2359 264.112 81.8217Z" fill="url(#paint34_radial_116_39758)"/>
<path style="mix-blend-mode:color-dodge" d="M395.654 248.422C392.428 234.824 400.841 221.187 414.446 217.962C428.051 214.738 441.695 223.147 444.921 236.745C448.147 250.343 439.734 263.981 426.129 267.205C412.524 270.43 398.88 262.02 395.654 248.422Z" fill="url(#paint35_radial_116_39758)"/>
<path style="mix-blend-mode:color-dodge" d="M378.805 309.969C363.582 309.969 351.241 297.635 351.241 282.42C351.241 267.204 363.582 254.87 378.805 254.87C394.028 254.87 406.368 267.204 406.368 282.42C406.368 297.635 394.028 309.969 378.805 309.969Z" fill="url(#paint36_radial_116_39758)"/>
<path style="mix-blend-mode:color-dodge" d="M422.16 367.789C418.274 351.255 428.534 334.702 445.077 330.818C461.621 326.933 478.182 337.189 482.068 353.723C485.954 370.258 475.694 386.811 459.151 390.695C442.608 394.579 426.046 384.324 422.16 367.789Z" fill="url(#paint37_radial_116_39758)"/>
</g>
</g>
<path style="mix-blend-mode:color-dodge" d="M506 495C413.216 495 338 419.56 338 326.5C338 233.44 413.216 158 506 158C598.784 158 674 233.44 674 326.5C674 419.56 598.784 495 506 495Z" fill="url(#paint38_radial_116_39758)"/>
<defs>
<radialGradient id="paint0_radial_116_39758" cx="0" cy="0" r="1" gradientUnits="userSpaceOnUse" gradientTransform="translate(156.423 498.624) rotate(-180) scale(42.1948 42.1735)">
<stop stop-color="#F4F4F4"/>
<stop offset="0.02" stop-color="#CACACA"/>
<stop offset="0.04" stop-color="#A3A3A3"/>
<stop offset="0.06" stop-color="#828282"/>
<stop offset="0.08" stop-color="#666666"/>
<stop offset="0.11" stop-color="#505050"/>
<stop offset="0.14" stop-color="#3F3F3F"/>
<stop offset="0.18" stop-color="#323232"/>
<stop offset="0.23" stop-color="#2B2B2B"/>
<stop offset="0.36" stop-color="#2A2A2A"/>
<stop offset="0.56" stop-color="#161616"/>
<stop offset="0.81" stop-color="#060606"/>
<stop offset="1"/>
</radialGradient>
<radialGradient id="paint1_radial_116_39758" cx="0" cy="0" r="1" gradientUnits="userSpaceOnUse" gradientTransform="translate(303.692 516.43) rotate(180) scale(42.1399 42.1188)">
<stop stop-color="#F4F4F4"/>
<stop offset="0.02" stop-color="#CACACA"/>
<stop offset="0.04" stop-color="#A3A3A3"/>
<stop offset="0.06" stop-color="#828282"/>
<stop offset="0.08" stop-color="#666666"/>
<stop offset="0.11" stop-color="#505050"/>
<stop offset="0.14" stop-color="#3F3F3F"/>
<stop offset="0.18" stop-color="#323232"/>
<stop offset="0.23" stop-color="#2B2B2B"/>
<stop offset="0.36" stop-color="#2A2A2A"/>
<stop offset="0.56" stop-color="#161616"/>
<stop offset="0.81" stop-color="#060606"/>
<stop offset="1"/>
</radialGradient>
<radialGradient id="paint2_radial_116_39758" cx="0" cy="0" r="1" gradientUnits="userSpaceOnUse" gradientTransform="translate(430.096 489.042) rotate(180) scale(33.7284 33.7114)">
<stop stop-color="#F4F4F4"/>
<stop offset="0.02" stop-color="#CACACA"/>
<stop offset="0.04" stop-color="#A3A3A3"/>
<stop offset="0.06" stop-color="#828282"/>
<stop offset="0.08" stop-color="#666666"/>
<stop offset="0.11" stop-color="#505050"/>
<stop offset="0.14" stop-color="#3F3F3F"/>
<stop offset="0.18" stop-color="#323232"/>
<stop offset="0.23" stop-color="#2B2B2B"/>
<stop offset="0.36" stop-color="#2A2A2A"/>
<stop offset="0.56" stop-color="#161616"/>
<stop offset="0.81" stop-color="#060606"/>
<stop offset="1"/>
</radialGradient>
<radialGradient id="paint3_radial_116_39758" cx="0" cy="0" r="1" gradientUnits="userSpaceOnUse" gradientTransform="translate(367.215 400.834) rotate(180) scale(33.7284 33.7114)">
<stop stop-color="#F4F4F4"/>
<stop offset="0.02" stop-color="#CACACA"/>
<stop offset="0.04" stop-color="#A3A3A3"/>
<stop offset="0.06" stop-color="#828282"/>
<stop offset="0.08" stop-color="#666666"/>
<stop offset="0.11" stop-color="#505050"/>
<stop offset="0.14" stop-color="#3F3F3F"/>
<stop offset="0.18" stop-color="#323232"/>
<stop offset="0.23" stop-color="#2B2B2B"/>
<stop offset="0.36" stop-color="#2A2A2A"/>
<stop offset="0.56" stop-color="#161616"/>
<stop offset="0.81" stop-color="#060606"/>
<stop offset="1"/>
</radialGradient>
<radialGradient id="paint4_radial_116_39758" cx="0" cy="0" r="1" gradientUnits="userSpaceOnUse" gradientTransform="translate(300.02 299.328) rotate(-180) scale(30.0843 30.0692)">
<stop stop-color="#F4F4F4"/>
<stop offset="0.02" stop-color="#CACACA"/>
<stop offset="0.04" stop-color="#A3A3A3"/>
<stop offset="0.06" stop-color="#828282"/>
<stop offset="0.08" stop-color="#666666"/>
<stop offset="0.11" stop-color="#505050"/>
<stop offset="0.14" stop-color="#3F3F3F"/>
<stop offset="0.18" stop-color="#323232"/>
<stop offset="0.23" stop-color="#2B2B2B"/>
<stop offset="0.36" stop-color="#2A2A2A"/>
<stop offset="0.56" stop-color="#161616"/>
<stop offset="0.81" stop-color="#060606"/>
<stop offset="1"/>
</radialGradient>
<radialGradient id="paint5_radial_116_39758" cx="0" cy="0" r="1" gradientUnits="userSpaceOnUse" gradientTransform="translate(119.099 254.427) rotate(180) scale(30.0843 30.0692)">
<stop stop-color="#F4F4F4"/>
<stop offset="0.02" stop-color="#CACACA"/>
<stop offset="0.04" stop-color="#A3A3A3"/>
<stop offset="0.06" stop-color="#828282"/>
<stop offset="0.08" stop-color="#666666"/>
<stop offset="0.11" stop-color="#505050"/>
<stop offset="0.14" stop-color="#3F3F3F"/>
<stop offset="0.18" stop-color="#323232"/>
<stop offset="0.23" stop-color="#2B2B2B"/>
<stop offset="0.36" stop-color="#2A2A2A"/>
<stop offset="0.56" stop-color="#161616"/>
<stop offset="0.81" stop-color="#060606"/>
<stop offset="1"/>
</radialGradient>
<radialGradient id="paint6_radial_116_39758" cx="0" cy="0" r="1" gradientUnits="userSpaceOnUse" gradientTransform="translate(48.8091 200.51) rotate(180) scale(30.0843 30.0692)">
<stop stop-color="#F4F4F4"/>
<stop offset="0.02" stop-color="#CACACA"/>
<stop offset="0.04" stop-color="#A3A3A3"/>
<stop offset="0.06" stop-color="#828282"/>
<stop offset="0.08" stop-color="#666666"/>
<stop offset="0.11" stop-color="#505050"/>
<stop offset="0.14" stop-color="#3F3F3F"/>
<stop offset="0.18" stop-color="#323232"/>
<stop offset="0.23" stop-color="#2B2B2B"/>
<stop offset="0.36" stop-color="#2A2A2A"/>
<stop offset="0.56" stop-color="#161616"/>
<stop offset="0.81" stop-color="#060606"/>
<stop offset="1"/>
</radialGradient>
<radialGradient id="paint7_radial_116_39758" cx="0" cy="0" r="1" gradientUnits="userSpaceOnUse" gradientTransform="translate(17.6668 141.975) rotate(180) scale(23.6181 23.6062)">
<stop stop-color="#F4F4F4"/>
<stop offset="0.02" stop-color="#CACACA"/>
<stop offset="0.04" stop-color="#A3A3A3"/>
<stop offset="0.06" stop-color="#828282"/>
<stop offset="0.08" stop-color="#666666"/>
<stop offset="0.11" stop-color="#505050"/>
<stop offset="0.14" stop-color="#3F3F3F"/>
<stop offset="0.18" stop-color="#323232"/>
<stop offset="0.23" stop-color="#2B2B2B"/>
<stop offset="0.36" stop-color="#2A2A2A"/>
<stop offset="0.56" stop-color="#161616"/>
<stop offset="0.81" stop-color="#060606"/>
<stop offset="1"/>
</radialGradient>
<radialGradient id="paint8_radial_116_39758" cx="0" cy="0" r="1" gradientUnits="userSpaceOnUse" gradientTransform="translate(28.5611 91.1051) rotate(180) scale(17.5903 17.5814)">
<stop stop-color="#F4F4F4"/>
<stop offset="0.02" stop-color="#CACACA"/>
<stop offset="0.04" stop-color="#A3A3A3"/>
<stop offset="0.06" stop-color="#828282"/>
<stop offset="0.08" stop-color="#666666"/>
<stop offset="0.11" stop-color="#505050"/>
<stop offset="0.14" stop-color="#3F3F3F"/>
<stop offset="0.18" stop-color="#323232"/>
<stop offset="0.23" stop-color="#2B2B2B"/>
<stop offset="0.36" stop-color="#2A2A2A"/>
<stop offset="0.56" stop-color="#161616"/>
<stop offset="0.81" stop-color="#060606"/>
<stop offset="1"/>
</radialGradient>
<radialGradient id="paint9_radial_116_39758" cx="0" cy="0" r="1" gradientUnits="userSpaceOnUse" gradientTransform="translate(207.834 288.773) rotate(180) scale(32.3584 32.3422)">
<stop stop-color="#F4F4F4"/>
<stop offset="0.02" stop-color="#CACACA"/>
<stop offset="0.04" stop-color="#A3A3A3"/>
<stop offset="0.06" stop-color="#828282"/>
<stop offset="0.08" stop-color="#666666"/>
<stop offset="0.11" stop-color="#505050"/>
<stop offset="0.14" stop-color="#3F3F3F"/>
<stop offset="0.18" stop-color="#323232"/>
<stop offset="0.23" stop-color="#2B2B2B"/>
<stop offset="0.36" stop-color="#2A2A2A"/>
<stop offset="0.56" stop-color="#161616"/>
<stop offset="0.81" stop-color="#060606"/>
<stop offset="1"/>
</radialGradient>
<radialGradient id="paint10_radial_116_39758" cx="0" cy="0" r="1" gradientUnits="userSpaceOnUse" gradientTransform="translate(460.588 560.476) rotate(180) scale(32.3584 32.3421)">
<stop stop-color="#F4F4F4"/>
<stop offset="0.02" stop-color="#CACACA"/>
<stop offset="0.04" stop-color="#A3A3A3"/>
<stop offset="0.06" stop-color="#828282"/>
<stop offset="0.08" stop-color="#666666"/>
<stop offset="0.11" stop-color="#505050"/>
<stop offset="0.14" stop-color="#3F3F3F"/>
<stop offset="0.18" stop-color="#323232"/>
<stop offset="0.23" stop-color="#2B2B2B"/>
<stop offset="0.36" stop-color="#2A2A2A"/>
<stop offset="0.56" stop-color="#161616"/>
<stop offset="0.81" stop-color="#060606"/>
<stop offset="1"/>
</radialGradient>
<radialGradient id="paint11_radial_116_39758" cx="0" cy="0" r="1" gradientUnits="userSpaceOnUse" gradientTransform="translate(12.6422 444.979) rotate(180) scale(37.1533 37.1346)">
<stop stop-color="#F4F4F4"/>
<stop offset="0.02" stop-color="#CACACA"/>
<stop offset="0.04" stop-color="#A3A3A3"/>
<stop offset="0.06" stop-color="#828282"/>
<stop offset="0.08" stop-color="#666666"/>
<stop offset="0.11" stop-color="#505050"/>
<stop offset="0.14" stop-color="#3F3F3F"/>
<stop offset="0.18" stop-color="#323232"/>
<stop offset="0.23" stop-color="#2B2B2B"/>
<stop offset="0.36" stop-color="#2A2A2A"/>
<stop offset="0.56" stop-color="#161616"/>
<stop offset="0.81" stop-color="#060606"/>
<stop offset="1"/>
</radialGradient>
<radialGradient id="paint12_radial_116_39758" cx="0" cy="0" r="1" gradientUnits="userSpaceOnUse" gradientTransform="translate(247.207 404.257) rotate(180) scale(37.1533 37.1346)">
<stop stop-color="#F4F4F4"/>
<stop offset="0.02" stop-color="#CACACA"/>
<stop offset="0.04" stop-color="#A3A3A3"/>
<stop offset="0.06" stop-color="#828282"/>
<stop offset="0.08" stop-color="#666666"/>
<stop offset="0.11" stop-color="#505050"/>
<stop offset="0.14" stop-color="#3F3F3F"/>
<stop offset="0.18" stop-color="#323232"/>
<stop offset="0.23" stop-color="#2B2B2B"/>
<stop offset="0.36" stop-color="#2A2A2A"/>
<stop offset="0.56" stop-color="#161616"/>
<stop offset="0.81" stop-color="#060606"/>
<stop offset="1"/>
</radialGradient>
<radialGradient id="paint13_radial_116_39758" cx="0" cy="0" r="1" gradientUnits="userSpaceOnUse" gradientTransform="translate(120.787 373.75) rotate(180) scale(37.1533 37.1346)">
<stop stop-color="#F4F4F4"/>
<stop offset="0.02" stop-color="#CACACA"/>
<stop offset="0.04" stop-color="#A3A3A3"/>
<stop offset="0.06" stop-color="#828282"/>
<stop offset="0.08" stop-color="#666666"/>
<stop offset="0.11" stop-color="#505050"/>
<stop offset="0.14" stop-color="#3F3F3F"/>
<stop offset="0.18" stop-color="#323232"/>
<stop offset="0.23" stop-color="#2B2B2B"/>
<stop offset="0.36" stop-color="#2A2A2A"/>
<stop offset="0.56" stop-color="#161616"/>
<stop offset="0.81" stop-color="#060606"/>
<stop offset="1"/>
</radialGradient>
<radialGradient id="paint14_radial_116_39758" cx="0" cy="0" r="1" gradientUnits="userSpaceOnUse" gradientTransform="translate(9.87482 312.215) rotate(180) scale(37.1533 37.1346)">
<stop stop-color="#F4F4F4"/>
<stop offset="0.02" stop-color="#CACACA"/>
<stop offset="0.04" stop-color="#A3A3A3"/>
<stop offset="0.06" stop-color="#828282"/>
<stop offset="0.08" stop-color="#666666"/>
<stop offset="0.11" stop-color="#505050"/>
<stop offset="0.14" stop-color="#3F3F3F"/>
<stop offset="0.18" stop-color="#323232"/>
<stop offset="0.23" stop-color="#2B2B2B"/>
<stop offset="0.36" stop-color="#2A2A2A"/>
<stop offset="0.56" stop-color="#161616"/>
<stop offset="0.81" stop-color="#060606"/>
<stop offset="1"/>
</radialGradient>
<radialGradient id="paint15_radial_116_39758" cx="0" cy="0" r="1" gradientUnits="userSpaceOnUse" gradientTransform="translate(49.8229 574.184) rotate(180) scale(49.4829 49.458)">
<stop stop-color="#F4F4F4"/>
<stop offset="0.02" stop-color="#CACACA"/>
<stop offset="0.04" stop-color="#A3A3A3"/>
<stop offset="0.06" stop-color="#828282"/>
<stop offset="0.08" stop-color="#666666"/>
<stop offset="0.11" stop-color="#505050"/>
<stop offset="0.14" stop-color="#3F3F3F"/>
<stop offset="0.18" stop-color="#323232"/>
<stop offset="0.23" stop-color="#2B2B2B"/>
<stop offset="0.36" stop-color="#2A2A2A"/>
<stop offset="0.56" stop-color="#161616"/>
<stop offset="0.81" stop-color="#060606"/>
<stop offset="1"/>
</radialGradient>
<radialGradient id="paint16_radial_116_39758" cx="0" cy="0" r="1" gradientUnits="userSpaceOnUse" gradientTransform="translate(497.662 426.056) rotate(180) scale(27.5636 27.5497)">
<stop stop-color="#F4F4F4"/>
<stop offset="0.02" stop-color="#CACACA"/>
<stop offset="0.04" stop-color="#A3A3A3"/>
<stop offset="0.06" stop-color="#828282"/>
<stop offset="0.08" stop-color="#666666"/>
<stop offset="0.11" stop-color="#505050"/>
<stop offset="0.14" stop-color="#3F3F3F"/>
<stop offset="0.18" stop-color="#323232"/>
<stop offset="0.23" stop-color="#2B2B2B"/>
<stop offset="0.36" stop-color="#2A2A2A"/>
<stop offset="0.56" stop-color="#161616"/>
<stop offset="0.81" stop-color="#060606"/>
<stop offset="1"/>
</radialGradient>
<radialGradient id="paint17_radial_116_39758" cx="0" cy="0" r="1" gradientUnits="userSpaceOnUse" gradientTransform="translate(481.935 295.4) rotate(180) scale(27.5636 27.5497)">
<stop stop-color="#F4F4F4"/>
<stop offset="0.02" stop-color="#CACACA"/>
<stop offset="0.04" stop-color="#A3A3A3"/>
<stop offset="0.06" stop-color="#828282"/>
<stop offset="0.08" stop-color="#666666"/>
<stop offset="0.11" stop-color="#505050"/>
<stop offset="0.14" stop-color="#3F3F3F"/>
<stop offset="0.18" stop-color="#323232"/>
<stop offset="0.23" stop-color="#2B2B2B"/>
<stop offset="0.36" stop-color="#2A2A2A"/>
<stop offset="0.56" stop-color="#161616"/>
<stop offset="0.81" stop-color="#060606"/>
<stop offset="1"/>
</radialGradient>
<radialGradient id="paint18_radial_116_39758" cx="0" cy="0" r="1" gradientUnits="userSpaceOnUse" gradientTransform="translate(422.041 188.844) rotate(180) scale(21.6454 21.6345)">
<stop stop-color="#F4F4F4"/>
<stop offset="0.02" stop-color="#CACACA"/>
<stop offset="0.04" stop-color="#A3A3A3"/>
<stop offset="0.06" stop-color="#828282"/>
<stop offset="0.08" stop-color="#666666"/>
<stop offset="0.11" stop-color="#505050"/>
<stop offset="0.14" stop-color="#3F3F3F"/>
<stop offset="0.18" stop-color="#323232"/>
<stop offset="0.23" stop-color="#2B2B2B"/>
<stop offset="0.36" stop-color="#2A2A2A"/>
<stop offset="0.56" stop-color="#161616"/>
<stop offset="0.81" stop-color="#060606"/>
<stop offset="1"/>
</radialGradient>
<radialGradient id="paint19_radial_116_39758" cx="0" cy="0" r="1" gradientUnits="userSpaceOnUse" gradientTransform="translate(344.748 155.406) rotate(180) scale(13.727 13.7201)">
<stop stop-color="#F4F4F4"/>
<stop offset="0.02" stop-color="#CACACA"/>
<stop offset="0.04" stop-color="#A3A3A3"/>
<stop offset="0.06" stop-color="#828282"/>
<stop offset="0.08" stop-color="#666666"/>
<stop offset="0.11" stop-color="#505050"/>
<stop offset="0.14" stop-color="#3F3F3F"/>
<stop offset="0.18" stop-color="#323232"/>
<stop offset="0.23" stop-color="#2B2B2B"/>
<stop offset="0.36" stop-color="#2A2A2A"/>
<stop offset="0.56" stop-color="#161616"/>
<stop offset="0.81" stop-color="#060606"/>
<stop offset="1"/>
</radialGradient>
<radialGradient id="paint20_radial_116_39758" cx="0" cy="0" r="1" gradientUnits="userSpaceOnUse" gradientTransform="translate(332.802 180.929) rotate(180) scale(13.727 13.7201)">
<stop stop-color="#F4F4F4"/>
<stop offset="0.02" stop-color="#CACACA"/>
<stop offset="0.04" stop-color="#A3A3A3"/>
<stop offset="0.06" stop-color="#828282"/>
<stop offset="0.08" stop-color="#666666"/>
<stop offset="0.11" stop-color="#505050"/>
<stop offset="0.14" stop-color="#3F3F3F"/>
<stop offset="0.18" stop-color="#323232"/>
<stop offset="0.23" stop-color="#2B2B2B"/>
<stop offset="0.36" stop-color="#2A2A2A"/>
<stop offset="0.56" stop-color="#161616"/>
<stop offset="0.81" stop-color="#060606"/>
<stop offset="1"/>
</radialGradient>
<radialGradient id="paint21_radial_116_39758" cx="0" cy="0" r="1" gradientUnits="userSpaceOnUse" gradientTransform="translate(299.484 197.388) rotate(180) scale(13.727 13.7201)">
<stop stop-color="#F4F4F4"/>
<stop offset="0.02" stop-color="#CACACA"/>
<stop offset="0.04" stop-color="#A3A3A3"/>
<stop offset="0.06" stop-color="#828282"/>
<stop offset="0.08" stop-color="#666666"/>
<stop offset="0.11" stop-color="#505050"/>
<stop offset="0.14" stop-color="#3F3F3F"/>
<stop offset="0.18" stop-color="#323232"/>
<stop offset="0.23" stop-color="#2B2B2B"/>
<stop offset="0.36" stop-color="#2A2A2A"/>
<stop offset="0.56" stop-color="#161616"/>
<stop offset="0.81" stop-color="#060606"/>
<stop offset="1"/>
</radialGradient>
<radialGradient id="paint22_radial_116_39758" cx="0" cy="0" r="1" gradientUnits="userSpaceOnUse" gradientTransform="translate(251.864 199.223) rotate(180) scale(13.727 13.7201)">
<stop stop-color="#F4F4F4"/>
<stop offset="0.02" stop-color="#CACACA"/>
<stop offset="0.04" stop-color="#A3A3A3"/>
<stop offset="0.06" stop-color="#828282"/>
<stop offset="0.08" stop-color="#666666"/>
<stop offset="0.11" stop-color="#505050"/>
<stop offset="0.14" stop-color="#3F3F3F"/>
<stop offset="0.18" stop-color="#323232"/>
<stop offset="0.23" stop-color="#2B2B2B"/>
<stop offset="0.36" stop-color="#2A2A2A"/>
<stop offset="0.56" stop-color="#161616"/>
<stop offset="0.81" stop-color="#060606"/>
<stop offset="1"/>
</radialGradient>
<radialGradient id="paint23_radial_116_39758" cx="0" cy="0" r="1" gradientUnits="userSpaceOnUse" gradientTransform="translate(202.19 186.982) rotate(180) scale(13.727 13.7201)">
<stop stop-color="#F4F4F4"/>
<stop offset="0.02" stop-color="#CACACA"/>
<stop offset="0.04" stop-color="#A3A3A3"/>
<stop offset="0.06" stop-color="#828282"/>
<stop offset="0.08" stop-color="#666666"/>
<stop offset="0.11" stop-color="#505050"/>
<stop offset="0.14" stop-color="#3F3F3F"/>
<stop offset="0.18" stop-color="#323232"/>
<stop offset="0.23" stop-color="#2B2B2B"/>
<stop offset="0.36" stop-color="#2A2A2A"/>
<stop offset="0.56" stop-color="#161616"/>
<stop offset="0.81" stop-color="#060606"/>
<stop offset="1"/>
</radialGradient>
<radialGradient id="paint24_radial_116_39758" cx="0" cy="0" r="1" gradientUnits="userSpaceOnUse" gradientTransform="translate(157.995 162.444) rotate(180) scale(13.727 13.7201)">
<stop stop-color="#F4F4F4"/>
<stop offset="0.02" stop-color="#CACACA"/>
<stop offset="0.04" stop-color="#A3A3A3"/>
<stop offset="0.06" stop-color="#828282"/>
<stop offset="0.08" stop-color="#666666"/>
<stop offset="0.11" stop-color="#505050"/>
<stop offset="0.14" stop-color="#3F3F3F"/>
<stop offset="0.18" stop-color="#323232"/>
<stop offset="0.23" stop-color="#2B2B2B"/>
<stop offset="0.36" stop-color="#2A2A2A"/>
<stop offset="0.56" stop-color="#161616"/>
<stop offset="0.81" stop-color="#060606"/>
<stop offset="1"/>
</radialGradient>
<radialGradient id="paint25_radial_116_39758" cx="0" cy="0" r="1" gradientUnits="userSpaceOnUse" gradientTransform="translate(239.179 116.382) rotate(180) scale(13.727 13.7201)">
<stop stop-color="#F4F4F4"/>
<stop offset="0.02" stop-color="#CACACA"/>
<stop offset="0.04" stop-color="#A3A3A3"/>
<stop offset="0.06" stop-color="#828282"/>
<stop offset="0.08" stop-color="#666666"/>
<stop offset="0.11" stop-color="#505050"/>
<stop offset="0.14" stop-color="#3F3F3F"/>
<stop offset="0.18" stop-color="#323232"/>
<stop offset="0.23" stop-color="#2B2B2B"/>
<stop offset="0.36" stop-color="#2A2A2A"/>
<stop offset="0.56" stop-color="#161616"/>
<stop offset="0.81" stop-color="#060606"/>
<stop offset="1"/>
</radialGradient>
<radialGradient id="paint26_radial_116_39758" cx="0" cy="0" r="1" gradientUnits="userSpaceOnUse" gradientTransform="translate(129.527 131.143) rotate(180) scale(13.727 13.7201)">
<stop stop-color="#F4F4F4"/>
<stop offset="0.02" stop-color="#CACACA"/>
<stop offset="0.04" stop-color="#A3A3A3"/>
<stop offset="0.06" stop-color="#828282"/>
<stop offset="0.08" stop-color="#666666"/>
<stop offset="0.11" stop-color="#505050"/>
<stop offset="0.14" stop-color="#3F3F3F"/>
<stop offset="0.18" stop-color="#323232"/>
<stop offset="0.23" stop-color="#2B2B2B"/>
<stop offset="0.36" stop-color="#2A2A2A"/>
<stop offset="0.56" stop-color="#161616"/>
<stop offset="0.81" stop-color="#060606"/>
<stop offset="1"/>
</radialGradient>
<radialGradient id="paint27_radial_116_39758" cx="0" cy="0" r="1" gradientUnits="userSpaceOnUse" gradientTransform="translate(124.403 100.882) rotate(180) scale(13.727 13.7201)">
<stop stop-color="#F4F4F4"/>
<stop offset="0.02" stop-color="#CACACA"/>
<stop offset="0.04" stop-color="#A3A3A3"/>
<stop offset="0.06" stop-color="#828282"/>
<stop offset="0.08" stop-color="#666666"/>
<stop offset="0.11" stop-color="#505050"/>
<stop offset="0.14" stop-color="#3F3F3F"/>
<stop offset="0.18" stop-color="#323232"/>
<stop offset="0.23" stop-color="#2B2B2B"/>
<stop offset="0.36" stop-color="#2A2A2A"/>
<stop offset="0.56" stop-color="#161616"/>
<stop offset="0.81" stop-color="#060606"/>
<stop offset="1"/>
</radialGradient>
<radialGradient id="paint28_radial_116_39758" cx="0" cy="0" r="1" gradientUnits="userSpaceOnUse" gradientTransform="translate(141.692 77.4125) rotate(180) scale(13.727 13.7201)">
<stop stop-color="#F4F4F4"/>
<stop offset="0.02" stop-color="#CACACA"/>
<stop offset="0.04" stop-color="#A3A3A3"/>
<stop offset="0.06" stop-color="#828282"/>
<stop offset="0.08" stop-color="#666666"/>
<stop offset="0.11" stop-color="#505050"/>
<stop offset="0.14" stop-color="#3F3F3F"/>
<stop offset="0.18" stop-color="#323232"/>
<stop offset="0.23" stop-color="#2B2B2B"/>
<stop offset="0.36" stop-color="#2A2A2A"/>
<stop offset="0.56" stop-color="#161616"/>
<stop offset="0.81" stop-color="#060606"/>
<stop offset="1"/>
</radialGradient>
<radialGradient id="paint29_radial_116_39758" cx="0" cy="0" r="1" gradientUnits="userSpaceOnUse" gradientTransform="translate(180.051 64.4047) rotate(180) scale(13.727 13.7201)">
<stop stop-color="#F4F4F4"/>
<stop offset="0.02" stop-color="#CACACA"/>
<stop offset="0.04" stop-color="#A3A3A3"/>
<stop offset="0.06" stop-color="#828282"/>
<stop offset="0.08" stop-color="#666666"/>
<stop offset="0.11" stop-color="#505050"/>
<stop offset="0.14" stop-color="#3F3F3F"/>
<stop offset="0.18" stop-color="#323232"/>
<stop offset="0.23" stop-color="#2B2B2B"/>
<stop offset="0.36" stop-color="#2A2A2A"/>
<stop offset="0.56" stop-color="#161616"/>
<stop offset="0.81" stop-color="#060606"/>
<stop offset="1"/>
</radialGradient>
<radialGradient id="paint30_radial_116_39758" cx="0" cy="0" r="1" gradientUnits="userSpaceOnUse" gradientTransform="translate(228.877 66.2667) rotate(180) scale(13.727 13.7201)">
<stop stop-color="#F4F4F4"/>
<stop offset="0.02" stop-color="#CACACA"/>
<stop offset="0.04" stop-color="#A3A3A3"/>
<stop offset="0.06" stop-color="#828282"/>
<stop offset="0.08" stop-color="#666666"/>
<stop offset="0.11" stop-color="#505050"/>
<stop offset="0.14" stop-color="#3F3F3F"/>
<stop offset="0.18" stop-color="#323232"/>
<stop offset="0.23" stop-color="#2B2B2B"/>
<stop offset="0.36" stop-color="#2A2A2A"/>
<stop offset="0.56" stop-color="#161616"/>
<stop offset="0.81" stop-color="#060606"/>
<stop offset="1"/>
</radialGradient>
<radialGradient id="paint31_radial_116_39758" cx="0" cy="0" r="1" gradientUnits="userSpaceOnUse" gradientTransform="translate(81.6059 55.9972) rotate(180) scale(13.727 13.7201)">
<stop stop-color="#F4F4F4"/>
<stop offset="0.02" stop-color="#CACACA"/>
<stop offset="0.04" stop-color="#A3A3A3"/>
<stop offset="0.06" stop-color="#828282"/>
<stop offset="0.08" stop-color="#666666"/>
<stop offset="0.11" stop-color="#505050"/>
<stop offset="0.14" stop-color="#3F3F3F"/>
<stop offset="0.18" stop-color="#323232"/>
<stop offset="0.23" stop-color="#2B2B2B"/>
<stop offset="0.36" stop-color="#2A2A2A"/>
<stop offset="0.56" stop-color="#161616"/>
<stop offset="0.81" stop-color="#060606"/>
<stop offset="1"/>
</radialGradient>
<radialGradient id="paint32_radial_116_39758" cx="0" cy="0" r="1" gradientUnits="userSpaceOnUse" gradientTransform="translate(334.007 124.598) rotate(180) scale(13.727 13.7201)">
<stop stop-color="#F4F4F4"/>
<stop offset="0.02" stop-color="#CACACA"/>
<stop offset="0.04" stop-color="#A3A3A3"/>
<stop offset="0.06" stop-color="#828282"/>
<stop offset="0.08" stop-color="#666666"/>
<stop offset="0.11" stop-color="#505050"/>
<stop offset="0.14" stop-color="#3F3F3F"/>
<stop offset="0.18" stop-color="#323232"/>
<stop offset="0.23" stop-color="#2B2B2B"/>
<stop offset="0.36" stop-color="#2A2A2A"/>
<stop offset="0.56" stop-color="#161616"/>
<stop offset="0.81" stop-color="#060606"/>
<stop offset="1"/>
</radialGradient>
<radialGradient id="paint33_radial_116_39758" cx="0" cy="0" r="1" gradientUnits="userSpaceOnUse" gradientTransform="translate(319.266 108.522) rotate(180) scale(13.727 13.7201)">
<stop stop-color="#F4F4F4"/>
<stop offset="0.02" stop-color="#CACACA"/>
<stop offset="0.04" stop-color="#A3A3A3"/>
<stop offset="0.06" stop-color="#828282"/>
<stop offset="0.08" stop-color="#666666"/>
<stop offset="0.11" stop-color="#505050"/>
<stop offset="0.14" stop-color="#3F3F3F"/>
<stop offset="0.18" stop-color="#323232"/>
<stop offset="0.23" stop-color="#2B2B2B"/>
<stop offset="0.36" stop-color="#2A2A2A"/>
<stop offset="0.56" stop-color="#161616"/>
<stop offset="0.81" stop-color="#060606"/>
<stop offset="1"/>
</radialGradient>
<radialGradient id="paint34_radial_116_39758" cx="0" cy="0" r="1" gradientUnits="userSpaceOnUse" gradientTransform="translate(277.839 81.8217) rotate(180) scale(13.727 13.7201)">
<stop stop-color="#F4F4F4"/>
<stop offset="0.02" stop-color="#CACACA"/>
<stop offset="0.04" stop-color="#A3A3A3"/>
<stop offset="0.06" stop-color="#828282"/>
<stop offset="0.08" stop-color="#666666"/>
<stop offset="0.11" stop-color="#505050"/>
<stop offset="0.14" stop-color="#3F3F3F"/>
<stop offset="0.18" stop-color="#323232"/>
<stop offset="0.23" stop-color="#2B2B2B"/>
<stop offset="0.36" stop-color="#2A2A2A"/>
<stop offset="0.56" stop-color="#161616"/>
<stop offset="0.81" stop-color="#060606"/>
<stop offset="1"/>
</radialGradient>
<radialGradient id="paint35_radial_116_39758" cx="0" cy="0" r="1" gradientUnits="userSpaceOnUse" gradientTransform="translate(420.245 242.532) rotate(-180) scale(25.3168 25.3041)">
<stop stop-color="#F4F4F4"/>
<stop offset="0.02" stop-color="#CACACA"/>
<stop offset="0.04" stop-color="#A3A3A3"/>
<stop offset="0.06" stop-color="#828282"/>
<stop offset="0.08" stop-color="#666666"/>
<stop offset="0.11" stop-color="#505050"/>
<stop offset="0.14" stop-color="#3F3F3F"/>
<stop offset="0.18" stop-color="#323232"/>
<stop offset="0.23" stop-color="#2B2B2B"/>
<stop offset="0.36" stop-color="#2A2A2A"/>
<stop offset="0.56" stop-color="#161616"/>
<stop offset="0.81" stop-color="#060606"/>
<stop offset="1"/>
</radialGradient>
<radialGradient id="paint36_radial_116_39758" cx="0" cy="0" r="1" gradientUnits="userSpaceOnUse" gradientTransform="translate(378.805 282.42) rotate(180) scale(27.5636 27.5497)">
<stop stop-color="#F4F4F4"/>
<stop offset="0.02" stop-color="#CACACA"/>
<stop offset="0.04" stop-color="#A3A3A3"/>
<stop offset="0.06" stop-color="#828282"/>
<stop offset="0.08" stop-color="#666666"/>
<stop offset="0.11" stop-color="#505050"/>
<stop offset="0.14" stop-color="#3F3F3F"/>
<stop offset="0.18" stop-color="#323232"/>
<stop offset="0.23" stop-color="#2B2B2B"/>
<stop offset="0.36" stop-color="#2A2A2A"/>
<stop offset="0.56" stop-color="#161616"/>
<stop offset="0.81" stop-color="#060606"/>
<stop offset="1"/>
</radialGradient>
<radialGradient id="paint37_radial_116_39758" cx="0" cy="0" r="1" gradientUnits="userSpaceOnUse" gradientTransform="translate(452.102 360.712) rotate(-180) scale(30.7693 30.7538)">
<stop stop-color="#F4F4F4"/>
<stop offset="0.02" stop-color="#CACACA"/>
<stop offset="0.04" stop-color="#A3A3A3"/>
<stop offset="0.06" stop-color="#828282"/>
<stop offset="0.08" stop-color="#666666"/>
<stop offset="0.11" stop-color="#505050"/>
<stop offset="0.14" stop-color="#3F3F3F"/>
<stop offset="0.18" stop-color="#323232"/>
<stop offset="0.23" stop-color="#2B2B2B"/>
<stop offset="0.36" stop-color="#2A2A2A"/>
<stop offset="0.56" stop-color="#161616"/>
<stop offset="0.81" stop-color="#060606"/>
<stop offset="1"/>
</radialGradient>
<radialGradient id="paint38_radial_116_39758" cx="0" cy="0" r="1" gradientUnits="userSpaceOnUse" gradientTransform="translate(506 326.5) rotate(180) scale(168 168.5)">
<stop stop-color="white"/>
<stop offset="0.02" stop-color="#DADADA"/>
<stop offset="0.05" stop-color="#B8B8B8"/>
<stop offset="0.08" stop-color="#9B9B9B"/>
<stop offset="0.11" stop-color="#858585"/>
<stop offset="0.15" stop-color="#767676"/>
<stop offset="0.19" stop-color="#6C6C6C"/>
<stop offset="0.24" stop-color="#6A6A6A"/>
<stop offset="0.45" stop-color="#434343"/>
<stop offset="0.69" stop-color="#1E1E1E"/>
<stop offset="0.88" stop-color="#080808"/>
<stop offset="1"/>
</radialGradient>
</defs>
</svg>
