<svg width="1280" height="1135" viewBox="0 0 1280 1135" fill="none" xmlns="http://www.w3.org/2000/svg">
<path opacity="0.5" d="M710.059 -344.196C165.812 -344.196 -277 98.3926 -277 642.366C-277 1186.34 165.812 1628.93 710.059 1628.93C1254.31 1628.93 1697.12 1186.34 1697.12 642.366C1697.12 98.3926 1254.31 -344.196 710.059 -344.196ZM1614.48 1001.31C1599.67 1025.13 1581.32 1047.6 1559.36 1068.5C1622.38 930.737 1643.58 866.704 1662.45 707.451C1669 726.615 1673.96 741.12 1676.67 755.325C1666.67 841.227 1645.46 923.597 1614.48 1001.23V1001.31ZM1062.79 1548.89C1060.31 1549.56 1057.98 1550.39 1055.5 1551.07C1043.92 1554.15 1032.19 1557.01 1020.23 1559.64C1154 1500.86 1207.31 1468.17 1320.25 1375.51C1317.99 1387.91 1316.19 1397.3 1312.51 1405.64C1237.39 1465.02 1153.32 1513.57 1062.71 1548.89H1062.79ZM938.195 1588.04C961.279 1581.06 986.694 1572.49 1015.49 1561.51C1014.44 1563.62 1013.61 1565.35 1012.86 1566.85C988.349 1574.89 963.46 1581.96 938.195 1588.04ZM-162.105 1073.76C-162.556 1056.32 -153.082 1041.97 -125.862 1016.26C-78.34 1136.14 -52.0226 1192.95 37.3068 1315.68C15.8768 1299.22 -4.50037 1282.16 -23.825 1264.5C-47.9619 1242.41 -69.392 1220.08 -88.491 1197.76C-115.937 1158.46 -140.6 1117.05 -162.105 1073.76ZM1611.85 276.736C1617.19 299.959 1619.89 322.806 1619.52 344.977C1572.07 219.543 1544.93 166.634 1456.5 57.8089C1477.7 69.7586 1497.1 80.8815 1512.74 92.9064C1552.07 150.099 1585.31 211.652 1611.85 276.736ZM-219.552 353.77C-199.1 319.875 -176.467 300.861 -113.605 265.087C-164.21 401.869 -180.302 466.804 -189.175 633.348C-226.094 562.777 -242.487 493.709 -239.479 429.151C-233.764 403.673 -227.297 378.496 -219.628 353.77H-219.552ZM-33.6002 15.6468C-8.7113 -2.08981 20.0125 -13.8892 87.2351 -32.0768C-7.95935 68.1803 -45.5559 118.609 -111.425 259.826C-121.275 200.303 -114.583 143.636 -92.1003 92.23C-73.8285 65.7002 -54.2783 40.2226 -33.6002 15.722V15.6468ZM164.834 -163.072C125.283 -125.72 99.7925 -82.055 88.739 -34.3314C26.0281 -17.196 -3.89893 -6.22336 -31.0437 12.7158C26.0278 -54.2475 91.8219 -113.545 164.834 -163.147V-163.072ZM232.207 -204.633C267.398 -213.126 299.731 -214.403 372.518 -211.998C252.359 -162.321 200.852 -133.161 90.9948 -35.7594C102.048 -83.8587 127.99 -127.749 168.143 -165.327C188.896 -179.306 210.326 -192.308 232.132 -204.633H232.207ZM987.973 82.535C999.928 -11.9352 996.996 -52.2184 954.286 -137.069C1006.02 -56.878 1039.1 -12.6115 1115.35 78.4766C1076.4 86.6685 1032.79 87.7206 987.973 82.6101V82.535ZM1116.7 80.8816C1141.44 183.018 1144.6 231.493 1118.13 356.325C1052.11 239.76 1025.34 183.995 988.123 85.015C1033.31 90.2008 1077.38 89.1486 1116.7 80.8816ZM986.694 -150.521C992.259 -151.724 997.748 -152.776 1003.24 -153.828C1007.37 -154.655 1011.51 -155.557 1015.57 -156.233C1021.28 -157.21 1026.85 -158.037 1032.49 -158.864C1036.25 -159.465 1040.08 -160.141 1043.84 -160.592C1049.93 -161.419 1055.87 -162.02 1061.89 -162.621C1065.05 -162.922 1068.28 -163.373 1071.36 -163.674C1079.18 -164.35 1086.93 -164.876 1094.6 -165.252C1095.72 -165.252 1096.93 -165.402 1098.13 -165.477C1106.93 -165.853 1115.58 -166.003 1124.15 -166.003C1126.7 -166.003 1129.19 -165.853 1131.74 -165.778C1137.68 -165.703 1143.55 -165.552 1149.34 -165.252C1152.57 -165.102 1155.73 -164.726 1158.89 -164.5C1163.55 -164.124 1168.21 -163.824 1172.8 -163.373C1187.99 -149.319 1200.62 -135.115 1210.69 -120.985C1109.64 -154.805 1061.74 -162.471 960.452 -144.208C964.813 -145.336 969.099 -146.313 973.46 -147.365C977.821 -148.417 982.258 -149.544 986.619 -150.446L986.694 -150.521ZM1172.95 -164.124C1175.65 -163.824 1178.21 -163.373 1180.84 -162.997C1177.23 -163.448 1173.7 -164.049 1170.01 -164.35C1170.99 -164.275 1171.97 -164.125 1172.95 -164.049V-164.124ZM1307.17 -125.044C1305.21 -126.096 1303.26 -127.073 1301.3 -128.05C1303.03 -127.223 1304.76 -126.472 1306.49 -125.57C1306.72 -125.42 1306.94 -125.194 1307.17 -125.044ZM1264.83 1207.53C1142.49 1233.24 1005.27 1236.47 864.506 1220.46C989.025 1116.97 1035.95 1070.15 1128.73 957.041C1197.41 1080.25 1242.8 1163.77 1264.91 1207.61L1264.83 1207.53ZM1125.88 955.538C1032.26 1068.72 980.378 1120.35 861.498 1218.51C793.523 1074.28 772.168 1025.21 726.977 909.543C861.423 942.762 997.973 959.07 1125.88 955.538L1129.41 950.954C1054.97 815.298 1027.82 761.863 976.618 649.882C1090.61 662.884 1201.75 660.253 1300.78 639.435C1253.1 764.644 1224.91 820.71 1129.41 950.954L1125.88 955.538ZM456.508 1581.58C384.548 1562.19 315.897 1534.76 251.532 1500.26C271.909 1500.79 297.55 1496.73 344.245 1486.21C390.639 1534.01 417.032 1559.11 456.508 1581.51V1581.58ZM375.826 -211.923C461.772 -206.362 505.233 -201.928 634.265 -185.844C513.204 -164.5 460.493 -147.215 344.922 -74.0885C336.575 -124.593 347.102 -171.79 375.826 -211.923ZM342.14 -73.0364C214.01 -58.6066 169.571 -51.9178 91.897 -35.1581C192.656 -123.916 241.757 -157.811 373.194 -211.472C345.373 -166.529 334.846 -137.369 342.14 -73.0364ZM971.28 649.356C971.28 649.356 971.355 649.356 971.43 649.356C886.838 756.452 838.564 806.505 725.173 904.432C674.192 761.863 654.642 691.969 630.054 564.355C740.362 606.743 857.212 635.828 971.28 649.356ZM631.182 561.574C746.227 468.232 787.809 427.573 865.333 332.952C895.56 454.854 915.411 513.4 971.58 646.349C857.738 632.897 741.264 603.812 631.182 561.499V561.574ZM1126.33 952.682C998.575 956.214 862.175 939.906 727.88 906.762C842.399 807.182 893.004 754.648 973.836 651.234C1027.75 769.153 1051.96 817.027 1126.25 952.682H1126.33ZM857.814 1219.71C716.902 1203.02 572.606 1167.02 436.356 1114.72C565.839 1032.2 619.527 994.017 723.594 910.37C770.59 1030.77 790.666 1077.06 857.814 1219.71ZM721.639 905.184C587.344 871.439 455.38 820.785 336.5 756.151C467.11 679.267 524.107 641.765 626.971 564.806C652.988 699.184 670.658 762.765 721.639 905.184ZM625.016 562.401C516.512 642.967 464.93 676.862 334.319 753.22C313.566 606.141 309.581 541.583 323.567 396.984C411.242 463.647 514.783 519.562 624.941 562.401H625.016ZM24.073 516.556C-51.7968 431.18 -96.3865 344.827 -110.748 263.734C-36.2321 228.637 0.98877 214.883 123.478 177.456C64.5269 299.508 44.3751 358.881 24.073 516.631V516.556ZM125.508 178.057C154.683 232.62 198.746 288.16 258.149 342.572C277.549 360.309 298.001 377.444 319.506 393.903C222.507 436.516 124.155 475.822 26.6295 517.233C45.5029 373.085 60.7671 311.082 125.508 178.057ZM426.882 89.9001C369.961 187.677 347.704 235.776 321.311 391.498C299.881 375.039 279.428 357.979 260.104 340.242C200.852 285.98 156.864 230.591 127.764 176.178C227.395 147.093 327.326 119.286 426.882 89.9001ZM320.634 396.759C307.701 534.368 309.656 604.338 330.936 753.22C241.606 704.144 159.796 647.101 90.1675 583.369C67.4592 562.551 46.6307 541.583 27.6821 520.615C125.283 479.204 223.711 439.673 320.634 396.759ZM325.371 394.655C457.861 332.802 515.685 302.063 619.978 238.106C605.466 358.806 606.669 421.936 626.068 559.695C516.136 517.007 412.896 461.242 325.371 394.73V394.655ZM619.151 235.927C510.346 302.063 455.23 331.148 324.319 391.799C348.907 249.079 367.555 195.493 429.288 90.2759C441.169 103.428 454.177 116.58 468.464 129.582C512.076 169.49 563.282 205.188 619.226 235.927H619.151ZM470.644 127.703C456.433 114.701 443.5 101.624 431.694 88.5474C583.66 41.876 631.257 24.5151 727.278 -15.0165C668.101 65.9257 646.897 108.388 620.805 233.597C565.087 203.009 514.106 167.46 470.72 127.703H470.644ZM427.032 87.7958C327.552 116.881 227.62 144.538 128.065 173.473C196.566 60.0636 233.034 14.294 342.591 -70.5562C351.539 -19.7513 379.435 34.2853 427.032 87.7958ZM125.959 172.796C88.2125 100.722 76.6327 30.4524 90.3931 -32.8283C172.579 -50.4898 212.431 -56.5773 340.936 -71.2326C240.854 6.92883 200.476 48.4896 125.959 172.796ZM345.373 -71.6084C446.432 -82.2053 547.642 -91.9003 648.701 -102.422C547.416 -49.2121 506.361 -18.0227 429.363 85.9921C382.067 32.7822 354.246 -21.0289 345.298 -71.6084H345.373ZM123.704 174.75C1.66541 212.027 -39.9164 227.284 -110.222 260.578C-49.6163 131.611 -16.2305 77.6499 87.9871 -31.3252C74.2267 32.0306 85.8064 102.451 123.629 174.75H123.704ZM22.569 519.036C-90.8973 569.917 -128.268 590.359 -187.671 634.024C-179.099 481.76 -168.196 414.946 -112.478 265.839C-98.1157 347.081 -53.5264 433.51 22.4938 519.036H22.569ZM23.5466 522.343C16.4784 658.6 17.1552 722.482 52.6462 904.207C26.1031 883.84 0.838379 862.721 -23.1482 840.776C-96.5366 773.662 -150.976 704.971 -186.994 637.631C-124.584 592.238 -89.1678 572.848 23.5466 522.418V522.343ZM26.1031 523.02C45.0518 544.063 65.8802 565.031 88.6638 585.925C158.368 649.731 240.253 706.774 329.657 755.926C297.976 773.712 206.592 823.29 55.5037 904.658C23.2458 737.813 18.0574 670.023 26.0278 523.02H26.1031ZM331.913 758.857C359.584 901.501 377.931 967.563 430.04 1112.31C293.941 1059.48 166.037 990.41 57.7593 908.04C205.689 828.225 297.099 778.497 331.988 758.857H331.913ZM335.297 758.932C454.328 823.641 586.442 874.37 720.887 908.115C612.534 994.694 561.553 1030.92 433.574 1112.09C381.541 967.037 361.314 894.437 335.222 758.857L335.297 758.932ZM569.598 1399.56C435.379 1365.81 303.415 1315.23 184.61 1250.6C291.083 1199.42 334.996 1175.82 432.07 1117.5C481.623 1240.15 507.339 1292.83 569.674 1399.56H569.598ZM568.922 1401.36C469.892 1446 427.935 1461.48 344.47 1484.18C273.413 1401.43 244.915 1360.32 184.234 1252.48C302.964 1317.03 434.777 1367.61 568.846 1401.28L568.922 1401.36ZM571.704 1403.09C620.128 1480.42 640.581 1510.11 687.201 1570.53C573.509 1557.08 457.034 1528 347.027 1485.76C431.093 1462.84 477.261 1445.78 571.704 1403.09ZM435.529 1117.35C571.854 1169.66 716.075 1205.65 857.062 1222.34H857.212C744.347 1306.96 691.186 1340.03 573.057 1399.33C510.046 1290.81 483.051 1235.49 435.529 1117.27V1117.35ZM860.069 1224.14C880.572 1266.18 918.595 1340.48 974.137 1447.05C846.459 1450.59 710.134 1434.35 575.915 1401.13C694.419 1341.39 752.844 1305.01 860.144 1224.14H860.069ZM1120.31 357.904C1143.7 243.593 1146.33 193.539 1118.43 82.084C1190.92 164.604 1222.95 199.026 1332.58 312.36C1311.53 322.28 1287.99 330.848 1262.05 337.837C1218.14 349.712 1170.32 356.25 1120.31 357.829V357.904ZM1263.1 340.693C1289.12 333.704 1312.73 325.061 1333.94 315.065C1346.27 438.545 1343.71 492.281 1302.51 634.625C1217.16 515.128 1183.17 463.948 1120.76 360.76C1170.99 359.106 1218.97 352.568 1263.1 340.693ZM1244.91 -33.5799C1353.56 9.18344 1392.66 26.0934 1454.09 56.7567C1471.92 108.689 1470.71 158.216 1451.09 201.656C1386.12 92.6808 1351.15 48.6399 1244.91 -33.5799ZM1451.99 205.94C1506.8 322.956 1524.55 378.947 1536.51 524.147C1474.62 455.756 1461.54 442.002 1336.49 313.863C1392.96 286.657 1431.69 249.38 1451.99 205.94ZM1535.75 526.777C1489.36 569.992 1424.02 604.638 1340.18 627.26C1328.6 630.417 1316.87 633.197 1304.91 635.828C1342.13 504.607 1350.18 449.969 1335.82 315.892C1461.61 445.309 1476.5 461.092 1535.68 526.777H1535.75ZM1335.14 311.157C1309.35 192.712 1290.02 142.434 1211.9 37.8928C1347.09 130.033 1376.04 150.175 1450.11 203.685C1429.96 246.975 1391.38 284.026 1335.14 311.157ZM1119.03 362.338C1183.93 469.81 1216.11 518.51 1300.32 636.729C1201.52 657.472 1090.69 660.103 976.919 647.176C1053.47 535.571 1081.36 484.69 1119.03 362.413V362.338ZM1303.26 640.713C1387.62 756.452 1444.09 836.091 1472.67 879.631C1438.83 895.564 1401.16 909.318 1359.58 920.516C1289.05 939.53 1212.42 949.977 1132.19 952.607C1218.97 833.11 1251.98 777.646 1303.26 640.713ZM1305.29 638.684C1317.24 636.128 1329.05 633.197 1340.63 630.116C1424.62 607.419 1490.11 572.697 1536.58 529.408C1535.45 666.266 1527.18 728.494 1474.7 877.076C1444.87 831.883 1388.38 752.418 1305.21 638.684H1305.29ZM1538.31 529.633C1608.92 612.605 1631.93 645.372 1661.25 705.196C1628.92 774.564 1567.11 834.087 1476.8 877.602C1524.1 741.421 1537.86 679.192 1538.24 529.709L1538.31 529.633ZM1453.27 205.94C1542.3 272.903 1573.35 299.433 1619.29 348.133C1617.49 414.42 1590.12 474.845 1538.09 524.372C1526.43 391.498 1513.87 333.553 1453.27 206.015V205.94ZM1452.74 203.76C1472.44 160.095 1473.64 110.342 1455.75 58.2598C1536.28 158.216 1567.41 208.044 1618.69 345.353C1570.49 294.848 1541.02 269.747 1452.74 203.835V203.76ZM1214.53 -119.407C1287.02 -112.869 1310.33 -110.388 1330.1 -106.706C1350.18 -90.0966 1369.5 -72.5103 1388.15 -54.3227C1418.75 -17.8724 1440.41 18.7281 1453.04 54.2014C1367.1 -34.632 1325.36 -68.1513 1214.53 -119.407ZM1328.22 -108.359C1308.9 -111.816 1289.27 -113.846 1212.88 -120.384C1202.72 -134.739 1189.94 -149.093 1174.53 -163.223C1224.83 -157.736 1269.8 -144.208 1308.9 -123.541C1315.36 -118.505 1321.9 -113.545 1328.22 -108.359ZM1252.73 -147.666C1256.34 -146.538 1259.8 -145.336 1263.33 -144.058C1259.8 -145.261 1256.34 -146.538 1252.73 -147.666ZM1277.54 -138.722C1280.92 -137.369 1284.31 -135.941 1287.62 -134.513C1284.31 -136.016 1280.92 -137.369 1277.54 -138.722ZM1213.85 -119.107C1315.29 -71.6084 1358.9 -43.0494 1452.52 54.502C1388.23 22.8617 1351.16 6.9288 1243.4 -35.083C1243.78 -61.4624 1234.08 -90.1718 1213.85 -119.107ZM1240.85 -36.4358C1136.63 -101.37 1087 -123.015 958.722 -141.277C1056.32 -133.01 1179.34 -122.488 1211.6 -119.633C1231.67 -90.9984 1241.3 -62.5898 1240.85 -36.4358ZM1243.4 -33.8053C1340.33 41.9511 1379.13 81.9337 1449.51 201.355C1372.06 145.665 1345.29 127.177 1211.15 36.2393C1231.82 16.5487 1242.73 -7.50101 1243.4 -33.8053ZM1208.89 34.2102C1126.48 -53.7214 1083.62 -87.1655 958.722 -139.248C1085.5 -93.8544 1143.47 -72.4352 1240.85 -35.2333C1240.09 -9.15445 1229.34 14.6698 1208.89 34.135V34.2102ZM1210.17 37.1412C1281 133.114 1305.74 180.612 1332.96 310.18C1227.69 201.731 1191.45 163.402 1118.36 80.5057C1123.09 79.4536 1127.76 78.3263 1132.42 77.1238C1165.73 68.1052 1191.75 54.3518 1210.17 37.2164V37.1412ZM1130.91 74.6436C1126.33 75.8461 1121.74 76.9734 1117 78.0256C1077.83 -21.029 1052.11 -61.3122 957.068 -137.745C1047.6 -74.2389 1075.72 -54.924 1207.91 35.112C1189.64 52.0971 1163.92 65.7753 1130.91 74.6436ZM987.145 86.1424C1025.95 189.255 1051.36 242.616 1116.48 357.829C1036.85 360.008 951.805 349.862 868.115 329.194C936.917 232.094 960.828 188.429 987.145 86.1424ZM1116.93 360.76C1081.66 472.591 1058.65 523.395 974.363 644.997C918.043 511.972 896.087 447.639 867.438 331.975C951.504 352.793 1036.92 362.939 1116.85 360.76H1116.93ZM863.603 330.998C788.034 422.237 748.107 463.271 629.076 559.019C610.128 423.063 606.969 364.367 622.384 237.655C696.825 278.164 779.462 309.804 863.528 330.923L863.603 330.998ZM624.038 235.326C736.377 160.095 776.379 127.478 849.016 51.7213C837.962 152.129 840.97 206.391 864.13 328.217C780.44 307.174 698.103 275.609 624.038 235.326ZM848.565 50.2182C777.582 123.194 739.384 156.037 623.211 233.146C647.348 118.985 664.116 72.5393 729.008 -15.3172C763.822 11.1375 804.878 33.3083 848.565 50.2934V50.2182ZM731.188 -16.9706C833.902 -63.7923 874.732 -85.437 947.293 -138.872C891.575 -84.3848 872.025 -53.1954 849.617 48.0387C806.306 31.2039 765.627 9.25858 731.188 -16.9706ZM727.429 -16.5948C627.121 24.2145 581.78 40.5983 431.694 86.2176C502.376 -8.55316 539.672 -44.778 650.431 -102.272C662.011 -80.627 679.456 -58.6066 703.066 -37.037C710.736 -29.9724 718.857 -23.2085 727.429 -16.67V-16.5948ZM705.472 -38.3146C682.162 -59.6587 664.793 -81.5289 653.364 -102.948C787.282 -117.754 844.504 -125.194 944.661 -140.826C846.159 -116.551 806.005 -97.5369 729.609 -18.0979C721.188 -24.5612 713.142 -31.3252 705.472 -38.3146ZM649.754 -103.474C548.695 -93.2531 447.635 -83.8587 346.576 -73.4121C452.523 -139.849 503.353 -162.546 635.543 -185.168C630.054 -159.991 634.64 -132.108 649.679 -103.399L649.754 -103.474ZM638.626 -185.243C748.257 -170.888 808.036 -162.621 943.458 -143.081C823.3 -153.152 770.59 -149.244 652.612 -104.301C637.723 -132.71 633.212 -160.367 638.626 -185.243ZM635.844 -186.37C505.684 -202.905 459.892 -207.639 377.781 -213.051C498.766 -250.252 553.507 -259.722 682.99 -251.079C660.357 -233.869 645.919 -220.942 635.844 -186.37ZM377.104 -213.727C406.429 -253.634 453.951 -286.477 518.993 -308.423C563.808 -296.548 591.329 -287.078 682.238 -251.831C563.658 -259.196 509.219 -255.062 377.029 -213.802L377.104 -213.727ZM685.621 -250.478C774.199 -215.305 827.285 -193.585 943.909 -144.96C827.887 -185.619 773.748 -195.99 638.926 -186.37C644.641 -211.172 660.356 -233.267 685.621 -250.478ZM945.865 -146.313C857.964 -208.842 813.299 -230.186 686.749 -251.305C702.841 -262.052 722.767 -270.845 746.377 -277.233C760.288 -280.991 774.951 -283.772 790.14 -285.575C839.015 -237.626 871.047 -209.067 945.789 -146.388L945.865 -146.313ZM744.347 -278.06C720.511 -271.596 700.434 -262.728 684.193 -251.906C592.758 -287.605 563.884 -297.75 521.625 -309.024C641.032 -320.372 695.923 -315.788 788.636 -286.477C773.296 -284.674 758.483 -281.893 744.422 -278.06H744.347ZM374.397 -213.276C303.039 -215.606 268.751 -214.328 235.065 -206.437C300.934 -243.413 371.465 -272.799 445.605 -293.767C467.035 -298.727 490.345 -303.537 516.963 -308.347C451.621 -286.327 403.873 -253.409 374.473 -213.276H374.397ZM-113.23 262.006C-172.858 296.276 -197.371 315.291 -218.199 349.035C-189.25 257.722 -147.142 172.27 -94.1305 94.7101C-116.388 146.041 -123.005 202.558 -113.23 261.93V262.006ZM-190.152 635.903C-233.614 675.284 -251.435 695.877 -259.33 730.824C-261.962 701.664 -263.541 672.278 -263.541 642.441C-263.541 570.443 -255.42 500.398 -240.532 432.833C-243.314 497.091 -226.922 565.708 -190.152 635.903ZM-258.953 734.957C-252.036 702.49 -237.223 682.048 -189.4 639.36C-185.941 788.318 -177.445 855.131 -127.892 1011C-186.468 945.091 -226.17 878.654 -247.9 814.472C-252.562 788.318 -256.397 761.863 -258.953 735.033V734.957ZM-187.896 640.036C-151.879 707.451 -97.439 776.067 -24.0505 843.256C-0.13916 865.201 25.2008 886.32 51.744 906.687C-39.39 956.139 -98.6923 991.162 -126.163 1011.75C-173.91 860.091 -184.889 794.105 -187.972 640.036H-187.896ZM53.8494 909.919C87.2351 1040.39 106.635 1103.29 178.895 1247.44C89.566 1198.36 7.83118 1141.4 -61.7976 1077.67C-84.5059 1056.85 -105.334 1035.88 -124.283 1014.91C-95.9603 994.068 -36.5828 959.07 53.8494 909.919ZM56.782 910.52C165.135 992.89 293.038 1061.96 429.138 1114.79C327.327 1175.74 288.001 1196.94 181.753 1247.89C115.357 1114.49 93.1754 1054.59 56.7068 910.445L56.782 910.52ZM341.839 1483.65C232.057 1441.04 128.817 1385.28 41.3673 1318.76C55.6539 1310.9 102.324 1288.63 181.377 1251.95C236.644 1349.35 264.766 1394.59 341.839 1483.65ZM341.764 1484.78C293.49 1495.6 268.751 1499.66 249.276 1499.21C218.748 1482.75 189.197 1464.64 160.699 1445.1C122.651 1413.91 90.9948 1379.71 41.8937 1320.27C129.118 1386.55 232.132 1442.24 341.688 1484.78H341.764ZM459.591 1582.48C423.498 1562.04 398.234 1540.1 346.877 1486.74C456.583 1528.9 572.832 1557.83 686.223 1571.28C686.223 1571.28 686.298 1571.28 686.373 1571.28C611.18 1588.65 568.546 1596.61 508.391 1594.13C491.924 1590.67 475.682 1586.77 459.591 1582.41V1582.48ZM690.358 1570.16C643.062 1508.46 621.482 1477.12 575.163 1402.71C709.307 1435.86 845.482 1452.09 973.009 1448.63C868.04 1507.18 816.457 1532.81 690.283 1570.16H690.358ZM975.415 1449.46C1009.33 1517.47 1015.72 1535.14 1015.72 1560.54C916.99 1581.28 806.231 1583.91 692.614 1570.91C809.389 1535.96 859.618 1514.39 975.491 1449.38L975.415 1449.46ZM863.679 1223.02C1004.52 1239.1 1141.74 1235.79 1264.08 1210.16C1168.44 1309.97 1118.96 1356.12 977.596 1445.93C921.502 1338.15 883.53 1263.88 863.679 1223.09V1223.02ZM1266.49 1210.84C1304.99 1292.53 1317.62 1323.2 1320.33 1373.7C1286.56 1389.63 1248.82 1403.39 1207.24 1414.59C1136.78 1433.6 1060.08 1444.05 979.927 1446.68C1110.31 1363.26 1161.22 1321.39 1266.41 1210.77L1266.49 1210.84ZM1131.82 955.388C1212.12 952.757 1288.9 942.311 1359.5 923.221C1401.08 912.023 1438.91 898.195 1472.74 882.262C1412.66 1016.79 1380.41 1072.18 1268.14 1205.5C1245.28 1160.41 1199.84 1077.04 1131.82 955.388ZM1474.85 882.713C1531.02 976.055 1543.95 1006.04 1556.28 1071.28C1498.91 1124.71 1417.93 1167.63 1314.16 1195.66C1299.87 1199.49 1285.29 1203.02 1270.47 1206.26C1373.34 1083.15 1410.33 1028.96 1474.77 882.713H1474.85ZM1476.95 880.233C1567.34 836.642 1629.22 777.12 1661.55 707.676C1643.58 853.252 1627.79 918.336 1558.24 1068.5C1546.36 1008.15 1537.41 980.189 1476.88 880.233H1476.95ZM1539.14 526.928C1591.25 477.325 1618.69 416.75 1620.5 350.313C1658.32 484.24 1668.39 546.618 1662 701.964C1631.02 639.811 1609.22 608.772 1539.14 526.928ZM1613.2 280.343C1627.04 314.765 1638.99 350.088 1648.92 386.312C1642.53 375.265 1633.88 362.939 1620.57 347.232C1620.95 325.512 1618.39 303.115 1613.2 280.343ZM1455.07 55.7046C1442.66 20.6071 1421.31 -15.5426 1391.38 -51.542C1435.45 -8.25256 1475.45 39.1704 1510.71 90.0505C1498.98 80.7313 1482.14 69.984 1455.07 55.7046ZM1304.76 -127.073C1267.09 -146.613 1223.93 -159.39 1175.8 -164.575C1207.01 -169.987 1224.91 -173.744 1234.23 -176.826C1258.52 -161.269 1282.05 -144.659 1304.84 -127.073H1304.76ZM1232.35 -178.028C1223.33 -174.872 1205.43 -171.039 1172.8 -165.177C1141.37 -193.66 1102.79 -218.161 1060.61 -237.701C1092.94 -238.228 1117.38 -236.349 1145.13 -227.631C1175.13 -212.6 1204.23 -195.99 1232.43 -178.028H1232.35ZM1170.84 -165.402C1073.39 -183.89 1033.16 -179.982 955.865 -144.734C1020.76 -184.717 1042.26 -201.702 1059.71 -237.251C1101.44 -217.936 1139.71 -193.661 1170.84 -165.402ZM1060.01 -238.453C1060.91 -248.223 1061.74 -258.219 1055.27 -267.237C1085.2 -255.814 1114.45 -242.962 1142.95 -228.833C1117.46 -236.649 1092.57 -239.355 1060.08 -238.528L1060.01 -238.453ZM1052.86 -268.139C1059.26 -261.15 1062.34 -251.981 1058.58 -238.603C1016.32 -257.993 970.603 -272.348 925.036 -280.69C930.976 -289.108 937.142 -297.525 949.248 -300.757C984.589 -291.813 1019.18 -280.765 1052.86 -268.064V-268.139ZM1057.68 -238.152C1001.43 -224.249 980.829 -210.57 952.557 -146.238C966.693 -208.316 964.888 -233.342 925.337 -279.864C970.453 -271.521 1015.79 -257.317 1057.6 -238.152H1057.68ZM923.758 -281.367C900.598 -298.728 881.574 -310.978 854.354 -319.846C885.86 -315.111 916.915 -308.873 947.368 -301.208C936.24 -299.178 931.503 -292.49 923.758 -281.367ZM922.93 -281.141C877.364 -289.333 832.022 -291.588 790.591 -286.853L792.095 -285.275C880.973 -243.864 909.17 -218.537 950.827 -142.931C922.404 -213.501 915.562 -240.031 924.585 -279.563C963.159 -233.042 967.671 -210.044 951.504 -142.856C979.626 -206.813 997.522 -222.67 1058.28 -237.401C1040.76 -202.228 1021.96 -185.393 952.105 -142.555C1028.35 -177.577 1066.25 -184.717 1170.62 -164.801L1169.49 -164.575C1169.49 -164.575 1169.79 -164.575 1170.01 -164.575C1109.71 -170.438 1041.74 -164.575 967.445 -146.087C964.813 -145.411 962.181 -144.885 959.55 -144.208C959.85 -144.208 960.076 -144.284 960.377 -144.359C958.572 -143.908 956.843 -143.532 955.038 -143.081C953.835 -142.78 952.632 -142.48 951.429 -142.104C1052.41 -161.419 1100.76 -157.436 1210.09 -120.835C1124.3 -127.9 1038.58 -134.889 952.782 -141.954C1078.35 -124.367 1129.26 -105.729 1239.72 -36.7364C1137.16 -75.5916 1080.84 -96.1842 952.782 -141.653C1075.05 -91.0736 1120.31 -59.9594 1207.46 33.3835C1074.37 -56.7277 1040.98 -79.5749 952.557 -141.352C1045.5 -66.9488 1074.52 -28.2439 1115.65 76.748C1037 -16.8954 1003.31 -61.6879 952.03 -141.202C993.913 -58.5314 1000.08 -19.0749 986.995 80.8816L986.243 84.6393C961.354 178.208 942.631 221.347 866.686 327.165C843.828 206.992 839.015 156.187 850.82 50.8946C894.583 67.7294 940.902 79.2281 986.168 84.6393L986.92 80.8816C953.76 -25.0873 947.443 -64.5438 951.353 -141.277C935.563 -66.7985 917.818 -33.3544 851.422 47.212C873.454 -51.2414 891.124 -84.7606 950.677 -141.503C879.77 -89.5705 840.895 -67.7755 731.715 -18.4737C807.434 -96.3345 844.204 -117.077 950.151 -141.879C844.204 -125.57 791.794 -118.881 654.717 -104.151C770.063 -147.44 822.548 -154.204 949.925 -142.254C809.088 -162.997 751.265 -171.114 640.505 -185.919C772.319 -194.637 827.285 -186.972 950 -142.555C831.27 -192.458 774.951 -215.681 687.727 -250.628C811.194 -229.359 857.889 -210.195 950.376 -142.78C872.1 -208.767 841.045 -236.724 792.17 -285.2L790.666 -286.778C769.161 -309.55 759.837 -319.621 753.671 -329.466C787.207 -327.963 820.292 -324.806 852.926 -319.996C876.912 -312.18 898.267 -300.456 923.081 -281.066L922.93 -281.141ZM923.307 -280.239C915.712 -244.916 918.118 -223.121 949.098 -146.839C908.945 -217.334 883.454 -244.165 792.17 -285.876C833.225 -290.536 878.191 -288.356 923.307 -280.164V-280.239ZM851.648 48.7151C913.907 -27.4923 934.435 -61.1618 950.677 -137.67C947.443 -64.4687 951.654 -26.8159 985.717 82.1592C940.902 76.8232 894.959 65.3995 851.648 48.7903V48.7151ZM709.909 -330.593C723.819 -330.593 737.58 -330.142 751.265 -329.541C757.28 -320.523 764.875 -311.88 788.711 -287.154C695.622 -315.863 649.378 -322.251 522.001 -309.55C529.22 -311.955 536.739 -314.134 544.334 -316.239C598.172 -325.483 653.439 -330.593 709.833 -330.593H709.909ZM519.971 -309.475C517.339 -309.926 515.159 -310.301 513.053 -310.602C522.001 -312.481 531.1 -313.909 540.123 -315.487C533.28 -313.533 526.513 -311.579 519.971 -309.475ZM511.324 -310.226C513.053 -309.85 515.008 -309.475 517.414 -308.949C492.977 -304.364 471.246 -300.005 451.019 -295.421C470.87 -300.907 490.947 -305.942 511.324 -310.226ZM-247.223 818.38C-225.342 881.961 -185.866 947.722 -127.817 1013.03C-153.082 1037.61 -163.985 1051.96 -163.534 1071.2C-202.484 992.364 -230.831 907.439 -247.223 818.38ZM-124.283 1016.94C-105.41 1037.91 -84.5812 1058.88 -61.8728 1079.69C7.68066 1143.35 89.3405 1200.24 178.595 1249.24C99.9928 1285.87 53.4233 1308.22 38.886 1316.28C-43.2999 1202.57 -72.2494 1149.36 -124.283 1016.86V1016.94ZM40.1642 1319.36C86.9342 1375.51 117.839 1409.78 155.435 1441.27C108.816 1408.87 65.1283 1372.57 24.9 1332.74C28.2085 1327.18 30.0131 1325.83 40.1642 1319.36ZM709.909 1615.18C641.633 1615.18 575.012 1608.04 510.647 1594.58C564.937 1596.91 605.766 1591.2 688.404 1571.89C707.954 1596.31 717.804 1608.64 722.692 1614.8C718.406 1614.8 714.119 1615.1 709.833 1615.1L709.909 1615.18ZM691.486 1571.81C804.877 1584.74 915.411 1582.11 1013.91 1561.44C984.138 1572.04 956.617 1581.73 928.194 1590.22C862.851 1605.25 795.027 1613.67 725.474 1614.8C720.737 1608.71 711.112 1596.61 691.486 1571.81ZM1018.43 1560.46C1030.31 1557.91 1042.04 1555.05 1053.62 1551.89C1055.12 1551.44 1056.55 1550.99 1058.05 1550.54C1044.59 1555.73 1030.98 1560.54 1017.22 1565.12C1017.67 1563.84 1017.97 1562.34 1018.43 1560.39V1560.46ZM1318.82 1375.43C1209.27 1464.56 1156.56 1499.51 1018.65 1559.49C1018.43 1532.58 1012.49 1515.9 978.724 1448.33C1058.8 1445.7 1135.43 1435.25 1205.81 1416.24C1247.31 1405.04 1284.99 1391.29 1318.75 1375.35L1318.82 1375.43ZM1269.57 1208.81C1284.38 1205.58 1298.9 1202.05 1313.26 1198.21C1417.02 1170.18 1497.93 1127.27 1555.38 1073.83C1481.77 1204.15 1442.36 1259.09 1323.11 1371.67C1320.02 1320.12 1310.17 1294.79 1269.57 1208.81ZM1556.43 1073.76C1557.03 1094.88 1557.33 1109.98 1554.7 1124.41C1512.74 1197.61 1461.69 1264.88 1402.89 1324.55C1379.65 1341.76 1353.56 1357.54 1324.39 1371.6C1433.04 1268.11 1476.73 1216.48 1556.43 1073.76ZM1558.31 1070.98C1579.97 1050.38 1598.09 1028.21 1612.83 1004.76C1596.66 1044.9 1577.86 1083.68 1556.66 1120.95C1559.44 1108.03 1560.12 1093.22 1558.31 1070.98ZM1620.95 349.862C1632.23 364.217 1641.85 376.542 1649.67 389.394C1670.88 468.006 1682.46 550.451 1683.06 635.602C1679 658.374 1672.23 680.545 1662.68 701.664C1667.79 559.47 1662.98 496.039 1620.95 349.862ZM-86.0098 1201.37C-56.2333 1236.32 -18.8624 1271.49 37.7579 1317.03C30.5394 1322.3 24.9753 1326.43 22.4187 1330.41C-17.3584 1290.73 -53.5264 1247.44 -86.0098 1201.37ZM1315.51 1403.01C1319.5 1395.42 1321.98 1386.48 1322.96 1373.4C1351.76 1359.5 1377.55 1343.94 1400.48 1327.03C1373.71 1354.01 1345.21 1379.34 1315.44 1403.01H1315.51ZM1676.89 751.567C1674.94 738.49 1670.95 724.135 1662.83 704.294C1672.3 683.326 1679 661.456 1683.06 638.834C1683.06 639.961 1683.13 641.089 1683.13 642.216C1683.13 679.192 1680.88 715.643 1676.82 751.567H1676.89Z" fill="#2A59FF"/>
</svg>
