<svg width="207" height="215" viewBox="0 0 207 215" fill="none" xmlns="http://www.w3.org/2000/svg">
<path d="M197.936 146.62C192.701 161.155 183.73 174.008 171.946 183.859C160.162 193.71 145.988 200.204 130.88 202.675C115.773 205.145 100.275 203.503 85.979 197.917C71.6829 192.332 59.1033 183.003 49.5321 170.889C39.961 158.775 33.7433 144.313 31.5178 128.987C29.2923 113.661 31.1392 98.024 36.8687 83.6821C42.5982 69.3401 52.0037 56.81 64.1191 47.3782C76.2345 37.9464 90.6232 31.9526 105.808 30.0121" stroke="white" stroke-width="0.5"/>
<path d="M22.9018 138.355C18.0097 115.502 21.1254 91.7073 31.7001 71.1573C42.2747 50.6074 59.6305 34.6186 80.7136 26.003C101.797 17.3874 125.257 16.6964 146.969 24.052C168.68 31.4076 187.251 46.3389 199.415 66.2201" stroke="white" stroke-width="0.3"/>
</svg>
