<svg width="222" height="245" viewBox="0 0 222 245" fill="none" xmlns="http://www.w3.org/2000/svg">
<path d="M201.803 134.027C201.1 149.433 196.339 164.338 188.008 177.21C179.677 190.082 168.077 200.457 154.399 207.272C140.721 214.086 125.458 217.094 110.176 215.986C94.8944 214.878 80.1448 209.695 67.442 200.967C54.7392 192.239 44.5413 180.282 37.8957 166.322C31.2501 152.363 28.3967 136.906 29.628 121.537C30.8593 106.169 36.1311 91.4438 44.9012 78.8738C53.6714 66.3038 65.624 56.3417 79.5317 50.01" stroke="white" stroke-width="0.8"/>
<path d="M25.0765 94.0755C33.1293 72.7582 48.6083 55.0984 68.7905 44.2031C88.9729 33.3078 112.566 29.8749 135.419 34.5092" stroke="white" stroke-width="0.5"/>
</svg>
