<svg width="198" height="220" viewBox="0 0 198 220" fill="none" xmlns="http://www.w3.org/2000/svg">
<path d="M189.171 125.981C184.497 140.707 176.025 153.894 164.627 164.189C153.228 174.484 139.314 181.516 124.312 184.563C109.31 187.611 93.761 186.564 79.2614 181.53C64.7618 176.496 51.8341 167.656 41.8059 155.918C31.7777 144.179 25.0106 129.966 22.1996 114.736C19.3886 99.5069 20.6351 83.8108 25.811 69.2599C30.9868 54.709 39.9054 41.8277 51.6506 31.9387C63.3958 22.0497 77.5443 15.5091 92.6435 12.9883" stroke="white" stroke-width="0.5"/>
<path d="M139.42 194.801C117.861 202.141 94.3602 201.434 73.0526 192.803M12.5379 80.4034C16.8969 57.5535 29.014 37.1158 46.7567 22.6855" stroke="white" stroke-width="0.3"/>
</svg>
