<svg width="8" height="15" viewBox="0 0 8 15" fill="none" xmlns="http://www.w3.org/2000/svg">
<path d="M0.324649 1.0123C0.221072 1.11834 0.163086 1.26069 0.163086 1.40892C0.163086 1.55716 0.221072 1.69951 0.324649 1.80555L6.11134 7.74186L0.324649 13.677C0.221072 13.783 0.163086 13.9254 0.163086 14.0736C0.163086 14.2218 0.221072 14.3642 0.324649 14.4702C0.374994 14.5219 0.435188 14.563 0.501678 14.5911C0.568167 14.6192 0.639605 14.6336 0.711774 14.6336C0.783943 14.6336 0.85538 14.6192 0.92187 14.5911C0.98836 14.563 1.04855 14.5219 1.0989 14.4702L7.25252 8.1563C7.3606 8.04542 7.42109 7.8967 7.42109 7.74186C7.42109 7.58702 7.3606 7.4383 7.25252 7.32742L1.0989 1.01349C1.04855 0.961778 0.98836 0.92068 0.92187 0.892618C0.85538 0.864555 0.783943 0.850098 0.711774 0.850098C0.639605 0.850098 0.568167 0.864555 0.501678 0.892618C0.435188 0.92068 0.374994 0.961778 0.324649 1.01349V1.0123Z" fill="white"/>
</svg>
