<svg width="36" height="36" viewBox="0 0 36 36" fill="none" xmlns="http://www.w3.org/2000/svg">
<path d="M31.455 28.995C31.455 29.535 31.335 30.09 31.08 30.63C30.825 31.17 30.495 31.68 30.06 32.16C29.325 32.97 28.515 33.555 27.6 33.93C26.7 34.305 25.725 34.5 24.675 34.5C23.145 34.5 21.51 34.14 19.785 33.405C18.06 32.67 16.335 31.68 14.625 30.435C12.9 29.175 11.265 27.78 9.705 26.235C8.16 24.675 6.765 23.04 5.52 21.33C4.29 19.62 3.3 17.91 2.58 16.215C1.86 14.505 1.5 12.87 1.5 11.31C1.5 10.29 1.68 9.315 2.04 8.415C2.4 7.5 2.97 6.66 3.765 5.91C4.725 4.965 5.775 4.5 6.885 4.5C7.305 4.5 7.725 4.59 8.1 4.77C8.49 4.95 8.835 5.22 9.105 5.61L12.585 10.515C12.855 10.89 13.05 11.235 13.185 11.565C13.32 11.88 13.395 12.195 13.395 12.48C13.395 12.84 13.29 13.2 13.08 13.545C12.885 13.89 12.6 14.25 12.24 14.61L11.1 15.795C10.935 15.96 10.86 16.155 10.86 16.395C10.86 16.515 10.875 16.62 10.905 16.74C10.95 16.86 10.995 16.95 11.025 17.04C11.295 17.535 11.76 18.18 12.42 18.96C13.095 19.74 13.815 20.535 14.595 21.33C15.405 22.125 16.185 22.86 16.98 23.535C17.76 24.195 18.405 24.645 18.915 24.915C18.99 24.945 19.08 24.99 19.185 25.035C19.305 25.08 19.425 25.095 19.56 25.095C19.815 25.095 20.01 25.005 20.175 24.84L21.315 23.715C21.69 23.34 22.05 23.055 22.395 22.875C22.74 22.665 23.085 22.56 23.46 22.56C23.745 22.56 24.045 22.62 24.375 22.755C24.705 22.89 25.05 23.085 25.425 23.34L30.39 26.865C30.78 27.135 31.05 27.45 31.215 27.825C31.365 28.2 31.455 28.575 31.455 28.995Z" stroke="#9A9EA6" stroke-width="1.8" stroke-miterlimit="10"/>
<path d="M26.25 15C26.25 14.1 25.545 12.72 24.495 11.595C23.535 10.56 22.26 9.75 21 9.75" stroke="#9A9EA6" stroke-width="1.8" stroke-linecap="round" stroke-linejoin="round"/>
<path d="M31.5 15C31.5 9.195 26.805 4.5 21 4.5" stroke="#9A9EA6" stroke-width="1.8" stroke-linecap="round" stroke-linejoin="round"/>
</svg>
