<svg width="17" height="17" viewBox="0 0 17 17" fill="none" xmlns="http://www.w3.org/2000/svg">
<g clip-path="url(#clip0_1244_4194)">
<path d="M16.9362 8.2025C15.5408 5.17792 12.3958 2.125 8.5 2.125C4.60417 2.125 1.45917 5.17792 0.06375 8.2025C0.021727 8.29605 0 8.39744 0 8.5C0 8.60256 0.021727 8.70395 0.06375 8.7975C1.45917 11.8221 4.60417 14.875 8.5 14.875C12.3958 14.875 15.5408 11.8221 16.9362 8.7975C16.9783 8.70395 17 8.60256 17 8.5C17 8.39744 16.9783 8.29605 16.9362 8.2025ZM8.5 12.0417C7.79952 12.0417 7.11478 11.834 6.53236 11.4448C5.94993 11.0556 5.49599 10.5025 5.22793 9.85534C4.95987 9.20818 4.88973 8.49607 5.02639 7.80905C5.16304 7.12204 5.50035 6.49097 5.99566 5.99566C6.49097 5.50035 7.12204 5.16304 7.80905 5.02639C8.49607 4.88973 9.20818 4.95987 9.85534 5.22793C10.5025 5.49599 11.0556 5.94993 11.4448 6.53236C11.834 7.11478 12.0417 7.79952 12.0417 8.5C12.0405 9.43896 11.667 10.3391 11.0031 11.0031C10.3391 11.667 9.43896 12.0405 8.5 12.0417Z" fill="#6E6E6E"/>
<path d="M8.5 10.625C9.6736 10.625 10.625 9.6736 10.625 8.5C10.625 7.32639 9.6736 6.375 8.5 6.375C7.32639 6.375 6.375 7.32639 6.375 8.5C6.375 9.6736 7.32639 10.625 8.5 10.625Z" fill="#6E6E6E"/>
</g>
<defs>
<clipPath id="clip0_1244_4194">
<rect width="17" height="17" fill="white"/>
</clipPath>
</defs>
</svg>
