<svg xmlns="http://www.w3.org/2000/svg" version="1.1" xmlns:xlink="http://www.w3.org/1999/xlink" xmlns:svgjs="http://svgjs.com/svgjs" width="44" height="44"><svg width="44" height="44" viewBox="0 0 44 44" fill="none" xmlns="http://www.w3.org/2000/svg">
<path d="M40.3333 14.6667C40.3511 14.539 40.3511 14.4094 40.3333 14.2817V14.135C40.3018 14.0327 40.2588 13.9343 40.205 13.8417C40.1812 13.7889 40.1504 13.7395 40.1133 13.695L39.93 13.4567L39.7833 13.3467L39.5633 13.1817L23.0633 4.015C22.7846 3.85409 22.4685 3.76938 22.1467 3.76938C21.8248 3.76938 21.5087 3.85409 21.23 4.015L4.72999 13.1817L4.56499 13.31L4.36332 13.4567C4.31006 13.5166 4.26674 13.5847 4.23499 13.6583C4.17633 13.7109 4.12678 13.7729 4.08832 13.8417C4.04072 13.9221 4.00375 14.0084 3.97832 14.0983C3.96807 14.159 3.96807 14.221 3.97832 14.2817C3.85227 14.3904 3.74672 14.5207 3.66666 14.6667V29.3333C3.66904 29.66 3.75867 29.9801 3.92628 30.2606C4.09389 30.541 4.33338 30.7715 4.61999 30.9283L21.12 40.095C21.1957 40.1392 21.2756 40.176 21.3583 40.205H21.5417C21.8428 40.2781 22.1571 40.2781 22.4583 40.205H22.6417L22.8983 40.095L39.3983 30.9283C39.6815 30.7692 39.9173 30.5376 40.0816 30.2573C40.2459 29.9771 40.3328 29.6582 40.3333 29.3333V14.6667ZM22 21.7617L9.27666 14.6667L14.3367 11.88L26.8583 19.03L22 21.7617ZM22 7.60833L34.7233 14.6667L30.6167 16.9583L18.095 9.79L22 7.60833ZM7.33332 17.7833L20.1667 24.97V35.3833L7.33332 28.2517V17.7833ZM23.8333 35.3833V24.97L29.3333 21.89V27.5L33 25.6667V19.8367L36.6667 17.8017V28.2517L23.8333 35.3833Z" fill="#009F81"></path>
</svg><style>@media (prefers-color-scheme: light) { :root { filter: none; } }
</style></svg>