<svg width="196" height="40" viewBox="0 0 196 40" fill="none" xmlns="http://www.w3.org/2000/svg">
<path d="M55.1004 31V11.64L56.2844 12.824H47.9644V8.6H67.3884V12.824H59.0684L60.2204 11.64V31H55.1004ZM76.9254 31.256C74.9627 31.256 73.2347 30.872 71.7414 30.104C70.2694 29.336 69.128 28.2907 68.3174 26.968C67.5067 25.624 67.1014 24.0987 67.1014 22.392C67.1014 20.664 67.496 19.1387 68.2854 17.816C69.096 16.472 70.1947 15.4267 71.5814 14.68C72.968 13.912 74.536 13.528 76.2854 13.528C77.9707 13.528 79.4854 13.8907 80.8294 14.616C82.1947 15.32 83.272 16.344 84.0614 17.688C84.8507 19.0107 85.2454 20.6 85.2454 22.456C85.2454 22.648 85.2347 22.872 85.2134 23.128C85.192 23.3627 85.1707 23.5867 85.1494 23.8H71.1654V20.888H82.5254L80.6054 21.752C80.6054 20.856 80.424 20.0773 80.0614 19.416C79.6987 18.7547 79.1974 18.2427 78.5574 17.88C77.9174 17.496 77.1707 17.304 76.3174 17.304C75.464 17.304 74.7067 17.496 74.0454 17.88C73.4054 18.2427 72.904 18.7653 72.5414 19.448C72.1787 20.1093 71.9974 20.8987 71.9974 21.816V22.584C71.9974 23.5227 72.2 24.3547 72.6054 25.08C73.032 25.784 73.6187 26.328 74.3654 26.712C75.1334 27.0747 76.0294 27.256 77.0534 27.256C77.9707 27.256 78.7707 27.1173 79.4534 26.84C80.1574 26.5627 80.7974 26.1467 81.3734 25.592L84.0294 28.472C83.24 29.368 82.248 30.0613 81.0534 30.552C79.8587 31.0213 78.4827 31.256 76.9254 31.256ZM86.2991 31L94.0111 20.888L93.9151 23.64L86.5231 13.784H92.1231L96.7951 20.216L94.6831 20.28L99.5151 13.784H104.827L97.4031 23.544V20.856L105.083 31H99.4191L94.5231 24.152L96.6031 24.44L91.7391 31H86.2991ZM107.541 31V13.784H112.501V20.504H119.989V13.784H124.981V31H119.989V24.568H112.501V31H107.541ZM137.823 31.256C135.989 31.256 134.357 30.872 132.927 30.104C131.519 29.336 130.399 28.2907 129.567 26.968C128.757 25.624 128.351 24.0987 128.351 22.392C128.351 20.664 128.757 19.1387 129.567 17.816C130.399 16.472 131.519 15.4267 132.927 14.68C134.357 13.912 135.989 13.528 137.823 13.528C139.637 13.528 141.258 13.912 142.687 14.68C144.117 15.4267 145.237 16.4613 146.047 17.784C146.858 19.1067 147.263 20.6427 147.263 22.392C147.263 24.0987 146.858 25.624 146.047 26.968C145.237 28.2907 144.117 29.336 142.687 30.104C141.258 30.872 139.637 31.256 137.823 31.256ZM137.823 27.16C138.655 27.16 139.402 26.968 140.063 26.584C140.725 26.2 141.247 25.656 141.631 24.952C142.015 24.2267 142.207 23.3733 142.207 22.392C142.207 21.3893 142.015 20.536 141.631 19.832C141.247 19.128 140.725 18.584 140.063 18.2C139.402 17.816 138.655 17.624 137.823 17.624C136.991 17.624 136.245 17.816 135.583 18.2C134.922 18.584 134.389 19.128 133.983 19.832C133.599 20.536 133.407 21.3893 133.407 22.392C133.407 23.3733 133.599 24.2267 133.983 24.952C134.389 25.656 134.922 26.2 135.583 26.584C136.245 26.968 136.991 27.16 137.823 27.16ZM155.593 25.88L155.305 19.896L166.025 8.6H171.785L162.121 19L159.241 22.072L155.593 25.88ZM150.953 31V8.6H156.105V31H150.953ZM166.281 31L158.313 21.24L161.705 17.56L172.329 31H166.281ZM174.288 31V13.784H179.28V31H174.288ZM176.784 11.384C175.867 11.384 175.12 11.1173 174.544 10.584C173.968 10.0507 173.68 9.38933 173.68 8.6C173.68 7.81067 173.968 7.14933 174.544 6.616C175.12 6.08267 175.867 5.816 176.784 5.816C177.702 5.816 178.448 6.072 179.024 6.584C179.6 7.07467 179.888 7.71467 179.888 8.504C179.888 9.336 179.6 10.0293 179.024 10.584C178.47 11.1173 177.723 11.384 176.784 11.384ZM190.953 31.256C188.927 31.256 187.348 30.744 186.217 29.72C185.087 28.6747 184.521 27.128 184.521 25.08V9.976H189.513V25.016C189.513 25.7413 189.705 26.3067 190.089 26.712C190.473 27.096 190.996 27.288 191.657 27.288C192.447 27.288 193.119 27.0747 193.673 26.648L195.017 30.168C194.505 30.5307 193.887 30.808 193.161 31C192.457 31.1707 191.721 31.256 190.953 31.256ZM181.865 18.008V14.168H193.801V18.008H181.865Z" fill="#333333"/>
<path d="M33.3334 20V17.155C33.3334 9.75169 27.535 3.55336 20.4084 3.33836C16.735 3.25336 13.3234 4.56502 10.715 7.09836C9.4291 8.33723 8.40743 9.82374 7.71166 11.4682C7.01588 13.1127 6.66042 14.8811 6.66671 16.6667V20C4.82837 20 3.33337 21.495 3.33337 23.3334V30C3.33337 31.8384 4.82837 33.3334 6.66671 33.3334H10V16.6667C9.99513 15.3275 10.2615 14.0012 10.7831 12.7678C11.3047 11.5343 12.0708 10.4193 13.035 9.49002C13.9952 8.55532 15.1342 7.82395 16.3836 7.33969C17.6331 6.85542 18.9674 6.62823 20.3067 6.67169C25.6534 6.83169 30 11.535 30 17.155V33.3334H33.3334C35.1717 33.3334 36.6667 31.8384 36.6667 30V23.3334C36.6667 21.495 35.1717 20 33.3334 20Z" fill="#333333"/>
<path d="M11.6666 20H15V33.3333H11.6666V20ZM25 20H28.3333V33.3333H25V20Z" fill="#333333"/>
</svg>
