<svg width="55" height="42" viewBox="0 0 55 42" fill="none" xmlns="http://www.w3.org/2000/svg">
<path d="M2.73481 1.73585C1.93441 14.6095 6.39674 27.8931 17.7148 35.0616C29.0328 42.2301 42.3572 39.6837 51.289 30.1692C51.2662 30.1888 51.2455 30.2108 51.2275 30.2349C48.9696 30.8598 46.5403 31.8722 44.1547 31.1712C43.8918 31.1065 43.6653 30.94 43.5252 30.7084C43.385 30.4768 43.3426 30.199 43.4073 29.9361C43.4719 29.6731 43.6384 29.4467 43.87 29.3065C44.1017 29.1664 44.3795 29.124 44.6424 29.1886C46.4981 29.3133 48.3589 29.0384 50.0993 28.3824C51.199 28.0426 52.8372 27.2893 53.8942 28.0333C54.9512 28.7773 54.4543 30.0385 54.1826 31.0449C53.5481 33.301 52.9652 35.6192 52.1519 37.8175C52.1051 38.0226 51.9787 38.2007 51.8006 38.3126C51.6224 38.4245 51.4071 38.461 51.202 38.4142C50.9969 38.3673 50.8188 38.2409 50.7069 38.0628C50.595 37.8846 50.5585 37.6693 50.6053 37.4642C50.8536 35.737 51.3509 34.0513 51.7288 32.3906L51.8842 31.7277C44.8041 42.2788 29.5523 43.8546 18.7925 38.1962C5.48511 31.2053 -0.226704 16.2571 0.651532 1.85277C0.669185 0.430173 2.81721 0.346535 2.73481 1.73585Z" fill="#58A151"/>
</svg>
