<svg width="173" height="243" viewBox="0 0 173 243" fill="none" xmlns="http://www.w3.org/2000/svg">
<path d="M130.784 44.5297C138.811 36.0119 138.423 22.5911 129.916 14.5535C121.409 6.51584 108.005 6.90507 99.9781 15.4229C91.9508 23.9407 92.3395 37.3615 100.846 45.3991C109.353 53.4367 122.757 53.0474 130.784 44.5297Z" fill="#F5F5F5"/>
<path d="M108.093 24.6358C108.893 24.5734 109.62 25.4574 109.724 26.6118C109.817 27.7766 109.246 28.7646 108.446 28.827C107.647 28.8894 106.92 28.0054 106.816 26.851C106.712 25.6966 107.293 24.7086 108.093 24.6358Z" fill="#E0E0E0"/>
<path d="M109.952 19.2694C109.942 19.4566 108.166 19.2798 106.182 20.039C104.188 20.7566 102.952 22.0358 102.817 21.911C102.682 21.8382 103.814 20.2574 105.974 19.467C108.124 18.6558 110.004 19.1238 109.952 19.2694Z" fill="#E0E0E0"/>
<path d="M121.555 24.3655C120.755 24.3343 120.059 25.2495 120.007 26.4143C119.955 27.5791 120.568 28.5463 121.378 28.5775C122.178 28.6087 122.874 27.6935 122.926 26.5287C122.967 25.3639 122.355 24.3967 121.555 24.3655Z" fill="#E0E0E0"/>
<path d="M119.467 19.0718C119.405 18.9262 121.264 18.3854 123.455 19.103C125.647 19.7998 126.841 21.3286 126.706 21.4118C126.582 21.547 125.294 20.3198 123.268 19.6854C121.264 19.0094 119.498 19.259 119.467 19.0718Z" fill="#E0E0E0"/>
<path d="M104.98 41.9118C104.949 41.9118 104.959 41.4958 105.125 40.7782C105.281 40.0606 105.655 39.031 106.351 37.8974C107.047 36.7638 108.116 35.547 109.581 34.5486C111.035 33.5502 112.905 32.8014 114.961 32.6766C117.018 32.583 118.96 33.1342 120.508 33.9766C122.066 34.819 123.26 35.911 124.07 36.9718C124.88 38.0222 125.358 38.9998 125.587 39.707C125.826 40.4038 125.888 40.8094 125.846 40.8198C125.722 40.8718 125.389 39.2182 123.728 37.2422C122.907 36.2646 121.733 35.2454 120.238 34.4758C118.752 33.6958 116.914 33.207 114.982 33.2902C113.05 33.4046 111.284 34.091 109.882 35.0166C108.47 35.9422 107.41 37.0758 106.704 38.1262C105.271 40.2686 105.115 41.9534 104.98 41.9118Z" fill="#E0E0E0"/>
<circle cx="33" cy="71.6663" r="33" fill="#F5F5F5"/>
<path d="M26.6967 65.3629L66 104.666M26.6967 104.666L66 65.3629" stroke="#FE224A" stroke-width="5"/>
<circle cx="126.5" cy="196.5" r="44.5" fill="#F5F5F5"/>
<path d="M118 188L171 241M118 241L171 188" stroke="#FE224A" stroke-width="5"/>
</svg>
