<svg width="117" height="163" viewBox="0 0 117 163" fill="none" xmlns="http://www.w3.org/2000/svg">
<path d="M28.8663 133.252C23.5037 138.942 23.7634 147.908 29.4464 153.277C35.1294 158.647 44.0837 158.387 49.4463 152.697C54.809 147.006 54.5493 138.041 48.8663 132.671C43.1832 127.302 34.229 127.562 28.8663 133.252Z" fill="#F5F5F5"/>
<path d="M44.025 146.542C43.4907 146.583 43.005 145.993 42.9356 145.222C42.8731 144.444 43.2548 143.784 43.789 143.742C44.3233 143.7 44.8091 144.291 44.8784 145.062C44.9478 145.833 44.5593 146.493 44.025 146.542Z" fill="#E0E0E0"/>
<path d="M42.783 150.127C42.7899 150.002 43.9764 150.12 45.3017 149.613C46.6339 149.133 47.4597 148.279 47.5499 148.362C47.6401 148.411 46.8837 149.467 45.4405 149.995C44.0042 150.537 42.7483 150.224 42.783 150.127Z" fill="#E0E0E0"/>
<path d="M35.0319 146.723C35.5662 146.743 36.0311 146.132 36.0658 145.354C36.1005 144.576 35.6912 143.93 35.1499 143.909C34.6156 143.888 34.1507 144.499 34.116 145.277C34.0882 146.056 34.4976 146.702 35.0319 146.723Z" fill="#E0E0E0"/>
<path d="M36.427 150.259C36.4686 150.356 35.2266 150.718 33.7625 150.238C32.2984 149.773 31.5005 148.751 31.5907 148.696C31.6739 148.605 32.5343 149.425 33.8874 149.849C35.2266 150.301 36.4061 150.134 36.427 150.259Z" fill="#E0E0E0"/>
<path d="M46.105 135.001C46.1258 135.001 46.1189 135.279 46.0079 135.758C45.9038 136.237 45.654 136.925 45.1891 137.683C44.7242 138.44 44.0095 139.253 43.0311 139.92C42.0597 140.587 40.8107 141.087 39.4368 141.17C38.0629 141.233 36.7654 140.865 35.7315 140.302C34.6907 139.739 33.8927 139.01 33.3515 138.301C32.8103 137.599 32.4911 136.946 32.3384 136.474C32.1788 136.008 32.1372 135.737 32.165 135.73C32.2482 135.696 32.4702 136.8 33.5805 138.12C34.1286 138.773 34.9127 139.454 35.9119 139.968C36.9042 140.489 38.1323 140.816 39.4229 140.76C40.7136 140.684 41.8931 140.225 42.8299 139.607C43.7736 138.989 44.4813 138.231 44.9531 137.53C45.9107 136.098 46.0148 134.973 46.105 135.001Z" fill="#E0E0E0"/>
<circle cx="94.1909" cy="115.123" r="22.0456" transform="rotate(-180 94.1909 115.123)" fill="#F5F5F5"/>
<path d="M98.4021 119.334L72.1455 93.0777M98.4021 93.0778L72.1455 119.334" stroke="#FE224A" stroke-width="5"/>
<circle cx="31.7283" cy="31.7282" r="29.7282" transform="rotate(-180 31.7283 31.7282)" fill="#F5F5F5"/>
<path d="M37.4067 37.4066L2.00011 1.99999M37.4067 1.99999L2.00011 37.4066" stroke="#FE224A" stroke-width="5"/>
</svg>
