<svg width="424" height="202" viewBox="0 0 424 202" fill="none" xmlns="http://www.w3.org/2000/svg">
<path d="M418.312 201.514C421.387 201.514 423.888 199.013 423.888 195.939C423.888 192.866 421.387 190.365 418.312 190.365C415.238 190.365 412.736 192.866 412.736 195.939C412.736 199.013 415.238 201.514 418.312 201.514Z" fill="#B6CC43"/>
<path d="M386.568 201.514C389.642 201.514 392.144 199.013 392.144 195.94C392.144 192.866 389.642 190.365 386.568 190.365C383.494 190.365 380.992 192.866 380.992 195.94C380.991 199.013 383.493 201.514 386.568 201.514Z" fill="#B6CC43"/>
<path d="M354.822 201.514C357.896 201.514 360.398 199.013 360.398 195.94C360.398 192.866 357.896 190.365 354.822 190.365C351.747 190.365 349.246 192.866 349.246 195.94C349.246 199.013 351.747 201.514 354.822 201.514Z" fill="#B6CC43"/>
<path d="M323.077 201.514C326.152 201.514 328.653 199.013 328.653 195.94C328.653 192.866 326.152 190.365 323.077 190.365C320.003 190.365 317.502 192.866 317.502 195.94C317.502 199.013 320.003 201.514 323.077 201.514Z" fill="#B6CC43"/>
<path d="M291.331 201.514C294.405 201.514 296.907 199.013 296.907 195.94C296.907 192.866 294.405 190.365 291.331 190.365C288.257 190.365 285.755 192.866 285.755 195.94C285.755 199.013 288.257 201.514 291.331 201.514Z" fill="#B6CC43"/>
<path d="M259.586 201.514C262.661 201.514 265.162 199.013 265.162 195.94C265.162 192.866 262.661 190.365 259.586 190.365C256.512 190.365 254.01 192.866 254.01 195.94C254.01 199.013 256.512 201.514 259.586 201.514Z" fill="#B6CC43"/>
<path d="M227.841 201.514C230.916 201.514 233.417 199.013 233.417 195.94C233.417 192.866 230.916 190.365 227.841 190.365C224.767 190.365 222.265 192.866 222.265 195.94C222.265 199.013 224.766 201.514 227.841 201.514Z" fill="#B6CC43"/>
<path d="M418.312 169.783C421.387 169.783 423.888 167.282 423.888 164.208C423.888 161.135 421.387 158.634 418.312 158.634C415.238 158.634 412.736 161.135 412.736 164.208C412.736 167.282 415.238 169.783 418.312 169.783Z" fill="#B6CC43"/>
<path d="M386.568 169.783C389.642 169.783 392.144 167.282 392.144 164.208C392.144 161.135 389.642 158.634 386.568 158.634C383.494 158.634 380.992 161.135 380.992 164.208C380.992 167.282 383.493 169.783 386.568 169.783Z" fill="#B6CC43"/>
<path d="M354.822 169.783C357.896 169.783 360.398 167.282 360.398 164.208C360.398 161.135 357.896 158.634 354.822 158.634C351.747 158.634 349.246 161.135 349.246 164.208C349.246 167.282 351.747 169.783 354.822 169.783Z" fill="#B6CC43"/>
<path d="M323.077 169.783C326.152 169.783 328.653 167.282 328.653 164.208C328.653 161.135 326.152 158.634 323.077 158.634C320.003 158.634 317.502 161.135 317.502 164.208C317.502 167.282 320.003 169.783 323.077 169.783Z" fill="#B6CC43"/>
<path d="M291.331 169.783C294.405 169.783 296.907 167.282 296.907 164.208C296.907 161.135 294.405 158.634 291.331 158.634C288.257 158.634 285.755 161.135 285.755 164.208C285.755 167.282 288.257 169.783 291.331 169.783Z" fill="#B6CC43"/>
<path d="M259.586 169.783C262.661 169.783 265.162 167.282 265.162 164.208C265.162 161.135 262.661 158.634 259.586 158.634C256.512 158.634 254.01 161.135 254.01 164.208C254.01 167.282 256.512 169.783 259.586 169.783Z" fill="#B6CC43"/>
<path d="M227.841 169.783C230.916 169.783 233.417 167.282 233.417 164.208C233.417 161.135 230.916 158.634 227.841 158.634C224.767 158.634 222.265 161.135 222.265 164.208C222.265 167.282 224.766 169.783 227.841 169.783Z" fill="#B6CC43"/>
<path d="M418.312 138.249C421.387 138.249 423.888 135.748 423.888 132.674C423.888 129.6 421.387 127.099 418.312 127.099C415.238 127.099 412.736 129.6 412.736 132.674C412.736 135.748 415.238 138.249 418.312 138.249Z" fill="#B6CC43"/>
<path d="M386.568 138.249C389.642 138.249 392.144 135.748 392.144 132.674C392.144 129.6 389.642 127.099 386.568 127.099C383.494 127.099 380.992 129.6 380.992 132.674C380.991 135.748 383.493 138.249 386.568 138.249Z" fill="#B6CC43"/>
<path d="M354.822 138.249C357.896 138.249 360.398 135.748 360.398 132.674C360.398 129.6 357.896 127.099 354.822 127.099C351.747 127.099 349.246 129.6 349.246 132.674C349.246 135.748 351.747 138.249 354.822 138.249Z" fill="#B6CC43"/>
<path d="M323.077 138.249C326.152 138.249 328.653 135.748 328.653 132.674C328.653 129.6 326.152 127.099 323.077 127.099C320.003 127.099 317.502 129.6 317.502 132.674C317.502 135.748 320.003 138.249 323.077 138.249Z" fill="#B6CC43"/>
<path d="M291.331 138.249C294.405 138.249 296.907 135.748 296.907 132.674C296.907 129.6 294.405 127.099 291.331 127.099C288.257 127.099 285.755 129.6 285.755 132.674C285.755 135.748 288.257 138.249 291.331 138.249Z" fill="#B6CC43"/>
<path d="M259.586 138.249C262.661 138.249 265.162 135.748 265.162 132.674C265.162 129.6 262.661 127.099 259.586 127.099C256.512 127.099 254.01 129.6 254.01 132.674C254.01 135.748 256.512 138.249 259.586 138.249Z" fill="#B6CC43"/>
<path d="M227.841 138.249C230.916 138.249 233.417 135.748 233.417 132.674C233.417 129.6 230.916 127.099 227.841 127.099C224.767 127.099 222.265 129.6 222.265 132.674C222.265 135.748 224.766 138.249 227.841 138.249Z" fill="#B6CC43"/>
<path d="M418.312 106.51C421.387 106.51 423.888 104.01 423.888 100.936C423.888 97.8618 421.387 95.3608 418.312 95.3608C415.238 95.3608 412.736 97.8618 412.736 100.936C412.736 104.01 415.238 106.51 418.312 106.51Z" fill="#B6CC43"/>
<path d="M386.568 106.51C389.642 106.51 392.144 104.01 392.144 100.936C392.144 97.8618 389.642 95.3608 386.568 95.3608C383.494 95.3608 380.992 97.8618 380.992 100.936C380.991 104.01 383.493 106.51 386.568 106.51Z" fill="#B6CC43"/>
<path d="M354.822 106.51C357.896 106.51 360.398 104.01 360.398 100.936C360.398 97.8618 357.896 95.3608 354.822 95.3608C351.747 95.3608 349.246 97.8618 349.246 100.936C349.246 104.01 351.747 106.51 354.822 106.51Z" fill="#B6CC43"/>
<path d="M323.077 106.51C326.152 106.51 328.653 104.01 328.653 100.936C328.653 97.8618 326.152 95.3608 323.077 95.3608C320.003 95.3608 317.502 97.8618 317.502 100.936C317.502 104.01 320.003 106.51 323.077 106.51Z" fill="#B6CC43"/>
<path d="M291.331 106.51C294.405 106.51 296.907 104.01 296.907 100.936C296.907 97.8618 294.405 95.3608 291.331 95.3608C288.257 95.3608 285.755 97.8618 285.755 100.936C285.755 104.01 288.257 106.51 291.331 106.51Z" fill="#B6CC43"/>
<path d="M259.586 106.51C262.661 106.51 265.162 104.01 265.162 100.936C265.162 97.8618 262.661 95.3608 259.586 95.3608C256.512 95.3608 254.01 97.8618 254.01 100.936C254.01 104.01 256.512 106.51 259.586 106.51Z" fill="#B6CC43"/>
<path d="M227.841 106.51C230.916 106.51 233.417 104.01 233.417 100.936C233.417 97.8618 230.916 95.3608 227.841 95.3608C224.767 95.3608 222.265 97.8618 222.265 100.936C222.265 104.01 224.766 106.51 227.841 106.51Z" fill="#B6CC43"/>
<path d="M418.312 74.7803C421.387 74.7803 423.888 72.2793 423.888 69.2054C423.888 66.1316 421.387 63.6306 418.312 63.6306C415.238 63.6306 412.736 66.1316 412.736 69.2054C412.736 72.2793 415.238 74.7803 418.312 74.7803Z" fill="#B6CC43"/>
<path d="M386.568 74.7803C389.642 74.7803 392.144 72.2793 392.144 69.2054C392.144 66.1316 389.642 63.6306 386.568 63.6306C383.494 63.6306 380.992 66.1316 380.992 69.2054C380.991 72.2793 383.493 74.7803 386.568 74.7803Z" fill="#B6CC43"/>
<path d="M354.822 74.7803C357.896 74.7803 360.398 72.2793 360.398 69.2054C360.398 66.1316 357.896 63.6306 354.822 63.6306C351.747 63.6306 349.246 66.1316 349.246 69.2054C349.246 72.2793 351.747 74.7803 354.822 74.7803Z" fill="#B6CC43"/>
<path d="M323.077 74.7803C326.152 74.7803 328.653 72.2793 328.653 69.2054C328.653 66.1316 326.152 63.6306 323.077 63.6306C320.003 63.6306 317.502 66.1316 317.502 69.2054C317.502 72.2793 320.003 74.7803 323.077 74.7803Z" fill="#B6CC43"/>
<path d="M291.331 74.7803C294.405 74.7803 296.907 72.2793 296.907 69.2054C296.907 66.1316 294.405 63.6306 291.331 63.6306C288.257 63.6306 285.755 66.1316 285.755 69.2054C285.755 72.2793 288.257 74.7803 291.331 74.7803Z" fill="#B6CC43"/>
<path d="M259.586 74.7803C262.661 74.7803 265.162 72.2793 265.162 69.2054C265.162 66.1316 262.661 63.6306 259.586 63.6306C256.512 63.6306 254.01 66.1316 254.01 69.2054C254.01 72.2793 256.512 74.7803 259.586 74.7803Z" fill="#B6CC43"/>
<path d="M227.841 74.7803C230.916 74.7803 233.417 72.2793 233.417 69.2054C233.417 66.1316 230.916 63.6306 227.841 63.6306C224.767 63.6306 222.265 66.1316 222.265 69.2054C222.265 72.2793 224.766 74.7803 227.841 74.7803Z" fill="#B6CC43"/>
<path d="M418.312 43.2466C421.387 43.2466 423.888 40.7455 423.888 37.6717C423.888 34.5979 421.387 32.0969 418.312 32.0969C415.238 32.0969 412.736 34.5979 412.736 37.6717C412.736 40.7455 415.238 43.2466 418.312 43.2466Z" fill="#B6CC43"/>
<path d="M386.568 43.2466C389.642 43.2466 392.144 40.7455 392.144 37.6717C392.144 34.5979 389.642 32.0969 386.568 32.0969C383.494 32.0969 380.992 34.5979 380.992 37.6717C380.991 40.7455 383.493 43.2466 386.568 43.2466Z" fill="#B6CC43"/>
<path d="M354.822 43.2466C357.896 43.2466 360.398 40.7455 360.398 37.6717C360.398 34.5979 357.896 32.0969 354.822 32.0969C351.747 32.0969 349.246 34.5979 349.246 37.6717C349.246 40.7455 351.747 43.2466 354.822 43.2466Z" fill="#B6CC43"/>
<path d="M323.077 43.2466C326.152 43.2466 328.653 40.7455 328.653 37.6717C328.653 34.5979 326.152 32.0969 323.077 32.0969C320.003 32.0969 317.502 34.5979 317.502 37.6717C317.502 40.7455 320.003 43.2466 323.077 43.2466Z" fill="#B6CC43"/>
<path d="M291.331 43.2466C294.405 43.2466 296.907 40.7455 296.907 37.6717C296.907 34.5979 294.405 32.0969 291.331 32.0969C288.257 32.0969 285.755 34.5979 285.755 37.6717C285.755 40.7455 288.257 43.2466 291.331 43.2466Z" fill="#B6CC43"/>
<path d="M259.586 43.2466C262.661 43.2466 265.162 40.7455 265.162 37.6717C265.162 34.5979 262.661 32.0969 259.586 32.0969C256.512 32.0969 254.01 34.5979 254.01 37.6717C254.01 40.7455 256.512 43.2466 259.586 43.2466Z" fill="#B6CC43"/>
<path d="M227.841 43.2466C230.916 43.2466 233.417 40.7455 233.417 37.6717C233.417 34.5979 230.916 32.0969 227.841 32.0969C224.767 32.0969 222.265 34.5979 222.265 37.6717C222.265 40.7455 224.766 43.2466 227.841 43.2466Z" fill="#B6CC43"/>
<path d="M418.312 11.3093C421.387 11.3093 423.888 8.80834 423.888 5.73452C423.888 2.6607 421.387 0.159711 418.312 0.159711C415.238 0.159711 412.736 2.6607 412.736 5.73452C412.736 8.80834 415.238 11.3093 418.312 11.3093Z" fill="#B6CC43"/>
<path d="M386.568 11.3093C389.642 11.3093 392.144 8.80834 392.144 5.73452C392.144 2.6607 389.642 0.159711 386.568 0.159711C383.494 0.159711 380.992 2.6607 380.992 5.73452C380.991 8.80834 383.493 11.3093 386.568 11.3093Z" fill="#B6CC43"/>
<path d="M354.822 11.3093C357.896 11.3093 360.398 8.80834 360.398 5.73452C360.398 2.6607 357.896 0.159711 354.822 0.159711C351.747 0.159711 349.246 2.6607 349.246 5.73452C349.246 8.80834 351.747 11.3093 354.822 11.3093Z" fill="#B6CC43"/>
<path d="M323.077 11.3093C326.152 11.3093 328.653 8.80834 328.653 5.73452C328.653 2.6607 326.152 0.159711 323.077 0.159711C320.003 0.159711 317.502 2.6607 317.502 5.73452C317.502 8.80834 320.003 11.3093 323.077 11.3093Z" fill="#B6CC43"/>
<path d="M291.331 11.3093C294.405 11.3093 296.907 8.80834 296.907 5.73452C296.907 2.6607 294.405 0.159711 291.331 0.159711C288.257 0.159711 285.755 2.6607 285.755 5.73452C285.755 8.80834 288.257 11.3093 291.331 11.3093Z" fill="#B6CC43"/>
<path d="M259.586 11.3093C262.661 11.3093 265.162 8.80834 265.162 5.73452C265.162 2.6607 262.661 0.159711 259.586 0.159711C256.512 0.159711 254.01 2.6607 254.01 5.73452C254.01 8.80834 256.512 11.3093 259.586 11.3093Z" fill="#B6CC43"/>
<path d="M227.841 11.3093C230.916 11.3093 233.417 8.80834 233.417 5.73452C233.417 2.6607 230.916 0.159711 227.841 0.159711C224.767 0.159711 222.265 2.6607 222.265 5.73452C222.265 8.80834 224.766 11.3093 227.841 11.3093Z" fill="#B6CC43"/>
<path d="M196.108 201.514C199.182 201.514 201.684 199.013 201.684 195.94C201.684 192.866 199.182 190.365 196.108 190.365C193.033 190.365 190.532 192.866 190.532 195.94C190.532 199.013 193.033 201.514 196.108 201.514Z" fill="#B6CC43"/>
<path d="M164.363 201.514C167.438 201.514 169.939 199.013 169.939 195.94C169.939 192.866 167.438 190.365 164.363 190.365C161.289 190.365 158.787 192.866 158.787 195.94C158.787 199.013 161.289 201.514 164.363 201.514Z" fill="#B6CC43"/>
<path d="M132.618 201.514C135.693 201.514 138.194 199.013 138.194 195.94C138.194 192.866 135.693 190.365 132.618 190.365C129.544 190.365 127.043 192.866 127.043 195.94C127.043 199.013 129.544 201.514 132.618 201.514Z" fill="#B6CC43"/>
<path d="M100.873 201.514C103.947 201.514 106.448 199.013 106.448 195.94C106.448 192.866 103.947 190.365 100.873 190.365C97.7982 190.365 95.2967 192.866 95.2967 195.94C95.2967 199.013 97.7973 201.514 100.873 201.514Z" fill="#B6CC43"/>
<path d="M69.1271 201.514C72.2016 201.514 74.7031 199.013 74.7031 195.94C74.7031 192.866 72.2016 190.365 69.1271 190.365C66.0527 190.365 63.5513 192.866 63.5513 195.94C63.5513 199.013 66.0527 201.514 69.1271 201.514Z" fill="#B6CC43"/>
<path d="M37.3822 201.514C40.4567 201.514 42.9583 199.013 42.9583 195.94C42.9583 192.866 40.4567 190.365 37.3822 190.365C34.3078 190.365 31.8062 192.866 31.8062 195.94C31.8062 199.013 34.3078 201.514 37.3822 201.514Z" fill="#B6CC43"/>
<path d="M5.6365 190.365C2.56211 190.365 0.060606 192.866 0.060606 195.94C0.060606 199.013 2.56211 201.514 5.6365 201.514C8.7109 201.514 11.2124 199.013 11.2124 195.94C11.2124 192.866 8.7109 190.365 5.6365 190.365Z" fill="#B6CC43"/>
<path d="M196.108 169.783C199.182 169.783 201.684 167.282 201.684 164.208C201.684 161.135 199.182 158.634 196.108 158.634C193.033 158.634 190.532 161.135 190.532 164.208C190.532 167.282 193.033 169.783 196.108 169.783Z" fill="#B6CC43"/>
<path d="M164.363 169.783C167.438 169.783 169.939 167.282 169.939 164.208C169.939 161.135 167.438 158.634 164.363 158.634C161.289 158.634 158.787 161.135 158.787 164.208C158.787 167.282 161.289 169.783 164.363 169.783Z" fill="#B6CC43"/>
<path d="M132.618 169.783C135.693 169.783 138.194 167.282 138.194 164.208C138.194 161.135 135.693 158.634 132.618 158.634C129.544 158.634 127.043 161.135 127.043 164.208C127.043 167.282 129.544 169.783 132.618 169.783Z" fill="#B6CC43"/>
<path d="M100.873 169.783C103.947 169.783 106.448 167.282 106.448 164.208C106.448 161.135 103.947 158.634 100.873 158.634C97.7982 158.634 95.2967 161.135 95.2967 164.208C95.2967 167.282 97.7973 169.783 100.873 169.783Z" fill="#B6CC43"/>
<path d="M69.1271 169.783C72.2016 169.783 74.7031 167.282 74.7031 164.208C74.7031 161.135 72.2016 158.634 69.1271 158.634C66.0527 158.634 63.5513 161.135 63.5513 164.208C63.5513 167.282 66.0527 169.783 69.1271 169.783Z" fill="#B6CC43"/>
<path d="M37.3822 169.783C40.4567 169.783 42.9583 167.282 42.9583 164.208C42.9583 161.135 40.4567 158.634 37.3822 158.634C34.3078 158.634 31.8062 161.135 31.8062 164.208C31.8062 167.282 34.3078 169.783 37.3822 169.783Z" fill="#B6CC43"/>
<path d="M5.6365 169.783C8.7109 169.783 11.2124 167.282 11.2124 164.208C11.2124 161.135 8.7109 158.634 5.6365 158.634C2.56211 158.634 0.060606 161.135 0.060606 164.208C0.060606 167.282 2.56211 169.783 5.6365 169.783Z" fill="#B6CC43"/>
<path d="M196.108 138.249C199.182 138.249 201.684 135.748 201.684 132.674C201.684 129.6 199.182 127.099 196.108 127.099C193.033 127.099 190.532 129.6 190.532 132.674C190.532 135.748 193.033 138.249 196.108 138.249Z" fill="#B6CC43"/>
<path d="M164.363 138.249C167.438 138.249 169.939 135.748 169.939 132.674C169.939 129.6 167.438 127.099 164.363 127.099C161.289 127.099 158.787 129.6 158.787 132.674C158.787 135.748 161.289 138.249 164.363 138.249Z" fill="#B6CC43"/>
<path d="M132.618 138.249C135.693 138.249 138.194 135.748 138.194 132.674C138.194 129.6 135.693 127.099 132.618 127.099C129.544 127.099 127.043 129.6 127.043 132.674C127.043 135.748 129.544 138.249 132.618 138.249Z" fill="#B6CC43"/>
<path d="M100.873 138.249C103.947 138.249 106.448 135.748 106.448 132.674C106.448 129.6 103.947 127.099 100.873 127.099C97.7982 127.099 95.2967 129.6 95.2967 132.674C95.2967 135.748 97.7973 138.249 100.873 138.249Z" fill="#B6CC43"/>
<path d="M69.1271 138.249C72.2016 138.249 74.7031 135.748 74.7031 132.674C74.7031 129.6 72.2016 127.099 69.1271 127.099C66.0527 127.099 63.5513 129.6 63.5513 132.674C63.5513 135.748 66.0527 138.249 69.1271 138.249Z" fill="#B6CC43"/>
<path d="M37.3822 138.249C40.4567 138.249 42.9583 135.748 42.9583 132.674C42.9583 129.6 40.4567 127.099 37.3822 127.099C34.3078 127.099 31.8062 129.6 31.8062 132.674C31.8062 135.748 34.3078 138.249 37.3822 138.249Z" fill="#B6CC43"/>
<path d="M5.6365 138.249C8.7109 138.249 11.2124 135.748 11.2124 132.674C11.2124 129.6 8.7109 127.099 5.6365 127.099C2.56211 127.099 0.060606 129.6 0.060606 132.674C0.060606 135.748 2.56211 138.249 5.6365 138.249Z" fill="#B6CC43"/>
<path d="M196.108 106.51C199.182 106.51 201.684 104.01 201.684 100.936C201.684 97.8618 199.182 95.3608 196.108 95.3608C193.033 95.3608 190.532 97.8618 190.532 100.936C190.532 104.01 193.033 106.51 196.108 106.51Z" fill="#B6CC43"/>
<path d="M164.363 106.51C167.438 106.51 169.939 104.01 169.939 100.936C169.939 97.8618 167.438 95.3608 164.363 95.3608C161.289 95.3608 158.787 97.8618 158.787 100.936C158.787 104.01 161.289 106.51 164.363 106.51Z" fill="#B6CC43"/>
<path d="M132.618 106.51C135.693 106.51 138.194 104.01 138.194 100.936C138.194 97.8618 135.693 95.3608 132.618 95.3608C129.544 95.3608 127.043 97.8618 127.043 100.936C127.043 104.01 129.544 106.51 132.618 106.51Z" fill="#B6CC43"/>
<path d="M100.873 106.51C103.947 106.51 106.448 104.01 106.448 100.936C106.448 97.8618 103.947 95.3608 100.873 95.3608C97.7982 95.3608 95.2967 97.8618 95.2967 100.936C95.2967 104.01 97.7973 106.51 100.873 106.51Z" fill="#B6CC43"/>
<path d="M69.1271 106.51C72.2016 106.51 74.7031 104.01 74.7031 100.936C74.7031 97.8618 72.2016 95.3608 69.1271 95.3608C66.0527 95.3608 63.5513 97.8618 63.5513 100.936C63.5513 104.01 66.0527 106.51 69.1271 106.51Z" fill="#B6CC43"/>
<path d="M37.3822 106.51C40.4567 106.51 42.9583 104.01 42.9583 100.936C42.9583 97.8618 40.4567 95.3608 37.3822 95.3608C34.3078 95.3608 31.8062 97.8618 31.8062 100.936C31.8062 104.01 34.3078 106.51 37.3822 106.51Z" fill="#B6CC43"/>
<path d="M5.6365 106.51C8.7109 106.51 11.2124 104.01 11.2124 100.936C11.2124 97.8618 8.7109 95.3608 5.6365 95.3608C2.56211 95.3608 0.060606 97.8618 0.060606 100.936C0.060606 104.01 2.56211 106.51 5.6365 106.51Z" fill="#B6CC43"/>
<path d="M196.108 74.7803C199.182 74.7803 201.684 72.2793 201.684 69.2054C201.684 66.1316 199.182 63.6306 196.108 63.6306C193.033 63.6306 190.532 66.1316 190.532 69.2054C190.532 72.2793 193.033 74.7803 196.108 74.7803Z" fill="#B6CC43"/>
<path d="M164.363 74.7803C167.438 74.7803 169.939 72.2793 169.939 69.2054C169.939 66.1316 167.438 63.6306 164.363 63.6306C161.289 63.6306 158.787 66.1316 158.787 69.2054C158.787 72.2793 161.289 74.7803 164.363 74.7803Z" fill="#B6CC43"/>
<path d="M132.618 74.7803C135.693 74.7803 138.194 72.2793 138.194 69.2054C138.194 66.1316 135.693 63.6306 132.618 63.6306C129.544 63.6306 127.043 66.1316 127.043 69.2054C127.043 72.2793 129.544 74.7803 132.618 74.7803Z" fill="#B6CC43"/>
<path d="M100.873 74.7803C103.947 74.7803 106.448 72.2793 106.448 69.2054C106.448 66.1316 103.947 63.6306 100.873 63.6306C97.7982 63.6306 95.2967 66.1316 95.2967 69.2054C95.2967 72.2793 97.7973 74.7803 100.873 74.7803Z" fill="#B6CC43"/>
<path d="M69.1271 74.7803C72.2016 74.7803 74.7031 72.2793 74.7031 69.2054C74.7031 66.1316 72.2016 63.6306 69.1271 63.6306C66.0527 63.6306 63.5513 66.1316 63.5513 69.2054C63.5513 72.2793 66.0527 74.7803 69.1271 74.7803Z" fill="#B6CC43"/>
<path d="M37.3822 74.7803C40.4567 74.7803 42.9583 72.2793 42.9583 69.2054C42.9583 66.1316 40.4567 63.6306 37.3822 63.6306C34.3078 63.6306 31.8062 66.1316 31.8062 69.2054C31.8062 72.2793 34.3078 74.7803 37.3822 74.7803Z" fill="#B6CC43"/>
<path d="M5.6365 74.7803C8.7109 74.7803 11.2124 72.2793 11.2124 69.2054C11.2124 66.1316 8.7109 63.6306 5.6365 63.6306C2.56211 63.6306 0.060606 66.1316 0.060606 69.2054C0.060606 72.2793 2.56211 74.7803 5.6365 74.7803Z" fill="#B6CC43"/>
<path d="M196.108 43.2466C199.182 43.2466 201.684 40.7455 201.684 37.6717C201.684 34.5979 199.182 32.0969 196.108 32.0969C193.033 32.0969 190.532 34.5979 190.532 37.6717C190.532 40.7455 193.033 43.2466 196.108 43.2466Z" fill="#B6CC43"/>
<path d="M164.363 43.2466C167.438 43.2466 169.939 40.7455 169.939 37.6717C169.939 34.5979 167.438 32.0969 164.363 32.0969C161.289 32.0969 158.787 34.5979 158.787 37.6717C158.787 40.7455 161.289 43.2466 164.363 43.2466Z" fill="#B6CC43"/>
<path d="M132.618 43.2466C135.693 43.2466 138.194 40.7455 138.194 37.6717C138.194 34.5979 135.693 32.0969 132.618 32.0969C129.544 32.0969 127.043 34.5979 127.043 37.6717C127.043 40.7455 129.544 43.2466 132.618 43.2466Z" fill="#B6CC43"/>
<path d="M100.873 43.2466C103.947 43.2466 106.448 40.7455 106.448 37.6717C106.448 34.5979 103.947 32.0969 100.873 32.0969C97.7982 32.0969 95.2967 34.5979 95.2967 37.6717C95.2967 40.7455 97.7973 43.2466 100.873 43.2466Z" fill="#B6CC43"/>
<path d="M69.1271 43.2466C72.2016 43.2466 74.7031 40.7455 74.7031 37.6717C74.7031 34.5979 72.2016 32.0969 69.1271 32.0969C66.0527 32.0969 63.5513 34.5979 63.5513 37.6717C63.5513 40.7455 66.0527 43.2466 69.1271 43.2466Z" fill="#B6CC43"/>
<path d="M37.3822 43.2466C40.4567 43.2466 42.9583 40.7455 42.9583 37.6717C42.9583 34.5979 40.4567 32.0969 37.3822 32.0969C34.3078 32.0969 31.8062 34.5979 31.8062 37.6717C31.8062 40.7455 34.3078 43.2466 37.3822 43.2466Z" fill="#B6CC43"/>
<path d="M5.6365 43.2466C8.7109 43.2466 11.2124 40.7455 11.2124 37.6717C11.2124 34.5979 8.7109 32.0969 5.6365 32.0969C2.56211 32.0969 0.060606 34.5979 0.060606 37.6717C0.060606 40.7455 2.56211 43.2466 5.6365 43.2466Z" fill="#B6CC43"/>
<path d="M196.108 11.3093C199.182 11.3093 201.684 8.80834 201.684 5.73452C201.684 2.6607 199.182 0.159711 196.108 0.159711C193.033 0.159711 190.532 2.6607 190.532 5.73452C190.532 8.80834 193.033 11.3093 196.108 11.3093Z" fill="#B6CC43"/>
<path d="M164.363 11.3093C167.438 11.3093 169.939 8.80834 169.939 5.73452C169.939 2.6607 167.438 0.159711 164.363 0.159711C161.289 0.159711 158.787 2.6607 158.787 5.73452C158.787 8.80834 161.289 11.3093 164.363 11.3093Z" fill="#B6CC43"/>
<path d="M132.618 11.3093C135.693 11.3093 138.194 8.80834 138.194 5.73452C138.194 2.6607 135.693 0.159711 132.618 0.159711C129.544 0.159711 127.043 2.6607 127.043 5.73452C127.043 8.80834 129.544 11.3093 132.618 11.3093Z" fill="#B6CC43"/>
<path d="M100.873 11.3093C103.947 11.3093 106.448 8.80834 106.448 5.73452C106.448 2.6607 103.947 0.159711 100.873 0.159711C97.7982 0.159711 95.2967 2.6607 95.2967 5.73452C95.2967 8.80834 97.7973 11.3093 100.873 11.3093Z" fill="#B6CC43"/>
<path d="M69.1271 11.3093C72.2016 11.3093 74.7031 8.80834 74.7031 5.73452C74.7031 2.6607 72.2016 0.159711 69.1271 0.159711C66.0527 0.159711 63.5513 2.6607 63.5513 5.73452C63.5513 8.80834 66.0527 11.3093 69.1271 11.3093Z" fill="#B6CC43"/>
<path d="M37.3822 11.3093C40.4567 11.3093 42.9583 8.80834 42.9583 5.73452C42.9583 2.6607 40.4567 0.159711 37.3822 0.159711C34.3078 0.159711 31.8062 2.6607 31.8062 5.73452C31.8062 8.80834 34.3078 11.3093 37.3822 11.3093Z" fill="#B6CC43"/>
<path d="M5.6365 11.3093C8.7109 11.3093 11.2124 8.80834 11.2124 5.73452C11.2124 2.6607 8.7109 0.159711 5.6365 0.159711C2.56211 0.159711 0.060606 2.6607 0.060606 5.73452C0.060606 8.80834 2.56211 11.3093 5.6365 11.3093Z" fill="#B6CC43"/>
</svg>
