<svg width="245" height="68" viewBox="0 0 245 68" fill="none" xmlns="http://www.w3.org/2000/svg">
<path fill-rule="evenodd" clip-rule="evenodd" d="M205.176 21.3994L205.554 21.2154L205.974 20.934L206.492 20.6525L207.052 20.3278L208.314 19.4835L209.629 18.4984L210.987 17.2753L212.248 15.814L212.809 15.0129L213.327 14.1686L213.801 13.2702L214.221 12.2852L214.545 11.246L214.685 10.261L214.782 9.22184L214.739 8.28012L214.556 7.33838L214.318 6.39665L213.941 5.55234L213.521 4.75133L213.003 4.00444L212.443 3.30085L211.785 2.64055L211.084 2.12097L210.383 1.64469L209.586 1.22254L208.788 0.941102L207.99 0.757091L207.192 0.659668H206.395L205.554 0.702969L204.659 0.800385L203.818 0.984403L202.923 1.26584L202.082 1.64469L201.285 2.06685L200.541 2.58643L199.84 3.20342L199.226 3.86372L198.665 4.66473L198.191 5.50904L197.867 6.49407L197.684 7.53322L197.587 8.7131L197.63 9.65482L197.77 10.5533L198.05 11.4517L198.374 12.3393L199.258 14.082L200.379 15.7274L201.597 17.2753L202.859 18.7799L204.077 20.1438L205.176 21.3994ZM216.798 0.659668L219.752 1.98026L222.609 3.44156L225.368 5.04359L227.945 6.82963L230.425 8.75639L232.764 10.7806L234.92 12.9455L236.893 15.2511L238.715 17.6L240.31 20.0896L241.669 22.6767L242.844 25.3612L243.782 28.1322L244.439 30.9574L244.86 33.8259L244.957 35.2872L245 36.7485L244.86 40.0392L244.482 43.3298L243.825 46.5772L242.93 49.7704L241.809 52.877L240.451 55.8862L238.855 58.7547L237.076 61.5258L235.718 60.6274L234.316 59.5449L232.958 58.3651L231.643 57.0445L229.109 54.3167L227.934 52.9528L226.856 51.6863L226.716 51.5023L227.977 49.24L229.196 46.8911L230.274 44.4448L231.255 42.0958L232.149 39.8876L232.527 38.8593L232.85 37.9176L233.174 37.0733L233.454 36.2723L233.637 35.612L233.82 35.0491H224.215L223.838 37.1166L223.32 39L222.803 40.6021L222.242 41.9659L221.962 42.5288L221.725 43.0484L221.487 43.4705L221.304 43.7953L221.164 44.0767L221.024 44.3149L220.981 44.4123L220.938 44.4556L214.803 36.597L208.809 28.7925H208.853L208.95 28.7492L209.37 28.5652L209.985 28.2405L210.825 27.775L211.763 27.2122L212.841 26.5086L214.016 25.6643L215.192 24.7225L216.41 23.6401L217.531 22.4169L218.609 21.0963L219.59 19.635L220.388 18.0871L221.045 16.3444L221.466 14.5042L221.563 13.5625L221.606 12.5774L221.563 11.4517L221.52 10.3692L221.337 9.38421L221.153 8.39918L220.916 7.55487L220.636 6.71056L219.935 5.20596L219.094 3.93949L218.199 2.85704L217.218 1.96943L216.28 1.21171L216.798 0.659668ZM218.102 53.2342L201.339 32.3105L198.762 33.8151L196.326 35.4604L195.15 36.348L194.072 37.2898L193.037 38.2748L192.1 39.3139L191.259 40.3964L190.515 41.5221L189.9 42.7453L189.383 44.0118L189.059 45.3324L188.876 46.7937L188.833 48.255L188.973 49.857L189.253 51.3616L189.577 52.7255L190.04 54.0461L190.558 55.2259L191.162 56.3517L191.819 57.3367L192.574 58.2785L193.318 59.0795L194.159 59.8264L195.097 60.4434L196.034 61.0062L197.015 61.4717L198.04 61.8505L199.075 62.132L200.153 62.316L201.274 62.4134L202.395 62.4567L203.516 62.4134L204.637 62.2727L205.812 62.0346L206.934 61.7531L208.055 61.331L209.176 60.8655L210.297 60.3459L211.375 59.7289L212.453 59.0253L213.488 58.2243L214.512 57.38L215.45 56.4383L216.388 55.4533L217.283 54.3708L218.102 53.2342Z" fill="#B6CC43"/>
<path fill-rule="evenodd" clip-rule="evenodd" d="M193.663 16.7881H25.5177L23.6958 16.8855L21.917 17.1669L20.1382 17.5891L18.3594 18.152L16.6237 18.8989L14.9419 19.7973L13.3464 20.8365L11.8048 21.9622L10.3063 23.1854L8.9479 24.5492L7.63267 25.9997L6.51148 27.5585L5.47654 29.1497L4.53863 30.8491L3.79477 32.5918L3.23418 34.3779L0 46.274H168.091L169.913 46.1766L171.692 45.8952L173.525 45.473L175.249 44.9101L176.985 44.1524L178.667 43.2648L180.306 42.2257L181.858 41.0999L183.356 39.8334L184.715 38.5128L186.019 37.0515L187.151 35.5036L188.175 33.8583L189.113 32.213L189.868 30.4269L190.429 28.6409L193.663 16.7881ZM19.6637 33.1547H21.5395L24.9138 39.2164H29.5926L24.9569 30.9357L29.5495 23.2719H25.1941L21.6796 29.4311H19.6637V23.2719H15.5455V39.2164H19.6637V33.1547ZM35.9747 39.2705L37.0528 39.5087L38.174 39.552L39.2951 39.5087L40.3732 39.2705L41.4081 38.9458L42.3461 38.4804L43.2408 37.9175L44.0386 37.2139L44.7393 36.4129L45.2999 35.5145L45.7743 34.5727L46.0977 33.5336L46.3349 32.4078L46.378 31.228L46.3349 30.1022L46.0977 29.0198L45.7743 27.9914L45.2999 27.0064L44.7393 26.1188L44.0386 25.3178L43.2408 24.6142L42.3461 24.0513L41.4081 23.5859L40.3732 23.2611L39.2951 23.0771L38.174 23.0338L37.0528 23.0771L35.9747 23.2611L34.9506 23.5859L33.9695 24.0513L33.0855 24.6142L32.3309 25.3178L31.6301 26.1188L31.0695 27.0064L30.606 27.9914L30.2826 29.0198L30.0454 30.1022L30.0023 31.228L30.0454 32.4078L30.2826 33.5336L30.606 34.5727L31.0695 35.5145L31.6301 36.4129L32.3309 37.2139L33.0855 37.9175L33.9695 38.4804L34.9506 38.9458L35.9747 39.2705ZM38.7346 35.7851L38.174 35.8284L37.6134 35.7851L37.0959 35.6876L36.6216 35.5036L36.158 35.2222L35.7375 34.8975L35.3602 34.5727L34.9829 34.1506L34.7026 33.631L34.4654 33.1114L34.3253 32.5485L34.2283 31.8882L34.1851 31.228L34.2283 30.5677L34.3253 29.9507L34.4654 29.3878L34.7026 28.8682L34.9829 28.3486L35.3602 27.9265L35.7375 27.6017L36.158 27.277L36.6216 27.0389L37.0959 26.8549L37.6134 26.7574L38.174 26.7141L38.7346 26.7574L39.252 26.8549L39.7156 27.0389L40.1899 27.277L40.6104 27.6017L40.9877 27.9265L41.365 28.3486L41.6453 28.8682L41.8825 29.3878L42.0226 29.9507L42.1197 30.5677L42.1628 31.228L42.1197 31.8882L42.0226 32.5485L41.8825 33.1114L41.6453 33.631L41.365 34.1506L40.9877 34.5727L40.6104 34.8975L40.1899 35.2222L39.7156 35.5036L39.252 35.6876L38.7346 35.7851ZM62.6675 39.2164V23.2719H58.4954V29.2471H52.8248V23.2719H48.6527V39.2164H52.8248V33.014H58.4954V39.2164H62.6675ZM71.9388 39.5087L73.06 39.552L74.041 39.5087L74.9789 39.368L75.8737 39.0865L76.7146 38.7618L77.5124 38.3396L78.2131 37.8201L78.8168 37.2572L79.3774 36.5536L76.7577 33.9665L76.0139 34.7676L75.173 35.3846L74.289 35.7093L73.3079 35.85L72.7042 35.8067L72.1868 35.7093L71.6262 35.5253L71.1626 35.2438L70.7422 34.9191L70.3217 34.5944L69.9983 34.1722L69.718 33.6526L69.4808 33.1331L69.3407 32.5702L69.2437 31.9099L69.2005 31.2496L69.2437 30.5893L69.3407 29.9723L69.4808 29.4094L69.718 28.8899L69.9983 28.3703L70.3217 27.9481L70.7422 27.6234L71.1626 27.2987L71.6262 27.0605L72.1868 26.8765L72.7042 26.7791L73.3079 26.7358L74.289 26.8332L75.173 27.2121L76.0139 27.7749L76.7577 28.5759L79.3774 25.9889L78.8168 25.3286L78.2131 24.7116L77.5124 24.192L76.7146 23.7699L75.8737 23.4451L74.9789 23.207L74.041 23.0663L73.06 23.023L71.9388 23.0663L70.8607 23.2503L69.8797 23.575L68.8987 24.0405L68.0578 24.6034L67.26 25.3069L66.6024 26.0538L66.0418 26.9523L65.5675 27.9373L65.2441 28.9765L65.0069 30.0589L64.9638 31.2388L65.0069 32.4186L65.2441 33.5444L65.5675 34.5835L66.0418 35.5686L66.6024 36.467L67.26 37.2139L68.0578 37.9175L68.8987 38.4804L69.8797 38.9458L70.8607 39.2705L71.9388 39.5087ZM87.1071 39.5087L88.2822 39.552L89.4034 39.5087L90.4815 39.2705L91.5056 38.9458L92.4435 38.4804L93.3383 37.9175L94.1361 37.2139L94.8368 36.4129L95.3974 35.5145L95.861 34.5727L96.1844 33.5336L96.4216 32.4078L96.4647 31.228L96.4216 30.1022L96.1844 29.0198L95.861 27.9914L95.3974 27.0064L94.8368 26.1188L94.1361 25.3178L93.3383 24.6142L92.4435 24.0513L91.5056 23.5859L90.4815 23.2611L89.4034 23.0771L88.2822 23.0338L87.1071 23.0771L86.0291 23.2611L85.048 23.5859L84.067 24.0513L83.183 24.6142L82.4283 25.3178L81.7276 26.1188L81.167 27.0064L80.6927 27.9914L80.3692 29.0198L80.1321 30.1022L80.089 31.228L80.1321 32.4078L80.3692 33.5336L80.6927 34.5727L81.167 35.5145L81.7276 36.4129L82.4283 37.2139L83.183 37.9175L84.067 38.4804L85.048 38.9458L86.0291 39.2705L87.1071 39.5087ZM88.8428 35.7851L88.2822 35.8284L87.7216 35.7851L87.2041 35.6876L86.7406 35.5036L86.2662 35.2222L85.8458 34.8975L85.4685 34.5727L85.0911 34.1506L84.8108 33.631L84.5737 33.1114L84.4335 32.5485L84.3365 31.8882L84.2934 31.228L84.3365 30.5677L84.4335 29.9507L84.5737 29.3878L84.8108 28.8682L85.0911 28.3486L85.4685 27.9265L85.8458 27.6017L86.2662 27.277L86.7406 27.0389L87.2041 26.8549L87.7216 26.7574L88.2822 26.7141L88.8428 26.7574L89.3603 26.8549L89.8346 27.0389L90.2982 27.277L90.7186 27.6017L91.0959 27.9265L91.4194 28.3486L91.6997 28.8682L91.9368 29.3878L92.1201 29.9507L92.2171 30.5677L92.2603 31.228L92.2171 31.8882L92.1201 32.5485L91.9368 33.1114L91.6997 33.631L91.4194 34.1506L91.0959 34.5727L90.7186 34.8975L90.2982 35.2222L89.8346 35.5036L89.3603 35.6876L88.8428 35.7851ZM106.501 23.3152L105.52 23.2719V23.2611H98.8148V39.2056H102.987V35.0706H105.52L106.501 35.0273L107.396 34.8866L108.237 34.6485L108.981 34.3238L109.682 33.9449L110.285 33.4686L110.803 32.9057L111.266 32.2887L111.59 31.6285L111.87 30.8707L112.01 30.0264L112.053 29.128L112.01 28.2837L111.87 27.4827L111.59 26.7358L111.266 26.0322L110.803 25.426L110.285 24.8631L109.682 24.3869L108.981 23.9647L108.237 23.64L107.396 23.456L106.501 23.3152ZM105.898 31.4661L105.283 31.5094V31.5202H102.987V26.8657H105.283L105.898 26.909L106.415 27.0064L106.836 27.1904L107.213 27.4718L107.493 27.7966L107.73 28.1754L107.827 28.6409L107.871 29.1605L107.827 29.68L107.73 30.1455L107.493 30.5677L107.213 30.8924L106.836 31.1305L106.415 31.3687L105.898 31.4661ZM121.023 26.8549H125.518V23.2828H112.409V26.8549H116.948V39.2273H121.023V26.8549ZM131.599 23.2719H127.534V39.2164H131.469L137.506 29.8532V39.2164H141.625V23.2719H137.69L131.599 32.6784V23.2719ZM152.718 35.5902L158.809 23.2719V23.2611H154.755L151.198 30.9249L147.78 23.2611H143.382L149.096 34.7351L148.675 35.298L148.212 35.6768L147.737 35.915L147.134 35.9583L146.476 35.915L145.678 35.7309L144.697 39.0216L146.012 39.487L146.67 39.5845L147.284 39.6278L148.125 39.5845L148.923 39.3463L149.678 39.0216L150.378 38.5994L151.036 38.0366L151.64 37.333L152.2 36.532L152.718 35.5902ZM173.481 30.7517L173.524 39.2164V39.2273H177.373L177.33 23.2828H173.913L168.856 32.4944L163.703 23.2828H160.232V39.2273H164.07V30.9465L167.865 37.6685H169.687L173.481 30.7517Z" fill="#B6CC43"/>
</svg>
