<svg width="74" height="193" viewBox="0 0 74 193" fill="none" xmlns="http://www.w3.org/2000/svg">
<path fill-rule="evenodd" clip-rule="evenodd" d="M4.08311 98.2788C14.7317 139.666 35.0811 186.4 65.2134 192.162C96.0334 198.055 115.491 144.172 143.653 124.967C163.698 111.298 186.653 113.636 205.42 96.5497C231.002 73.2565 272 53.3559 270.417 9.54663C268.758 -36.3839 218.936 -40.39 199.176 -76.2708C183.442 -104.843 188.881 -151.277 169.243 -174.176C147.137 -199.952 116.811 -212.806 89.0031 -204.735C60.7422 -196.532 36.5072 -167.003 21.4277 -131.272C7.54113 -98.368 13.6809 -57.7524 10.7823 -19.3909C7.75208 20.7137 -5.63422 60.5114 4.08311 98.2788Z" fill="#F6F8FC"/>
</svg>
