<svg width="631" height="390" viewBox="0 0 631 390" fill="none" xmlns="http://www.w3.org/2000/svg">
<path fill-rule="evenodd" clip-rule="evenodd" d="M0.953208 335.107C0.760678 396.329 18.5652 471.388 80.559 500.312C143.968 529.896 216.351 473.916 288.102 469.08C339.172 465.637 387.553 485.014 437.774 476.232C506.237 464.26 606.165 467.661 627.344 409.755C649.548 349.046 543.943 308.377 521.321 247.804C503.306 199.569 541.16 143.261 511.508 99.6003C478.13 50.4522 419.702 12.1988 354.97 2.85825C289.184 -6.63431 220.136 14.3795 167.425 49.9506C118.883 82.7076 109.363 139.719 81.5432 187.373C52.4591 237.192 1.12891 279.24 0.953208 335.107Z" fill="#FDFFF4"/>
</svg>
