<svg width="629" height="349" viewBox="0 0 629 349" fill="none" xmlns="http://www.w3.org/2000/svg">
<path fill-rule="evenodd" clip-rule="evenodd" d="M623.466 274.566C616.238 324.316 619.289 380.689 574.925 415.868C530.263 451.284 459.148 444.541 397.467 453.776C330.511 463.8 258.279 499.663 199.45 472.08C140.587 444.481 153.85 372.765 121.695 324.475C86.4909 271.606 -17.3268 234.827 3.0624 177.146C24.0436 117.789 138.057 127.638 202.935 94.6436C250.496 70.4562 276.376 23.6264 330.318 10.7163C389.759 -3.51013 457.401 -3.71214 511.391 20.8191C565.219 45.2766 594.311 93.2311 614.996 140.064C634.15 183.43 630.107 228.859 623.466 274.566Z" fill="#F6FFC7"/>
</svg>
