<svg width="149" height="282" viewBox="0 0 149 282" fill="none" xmlns="http://www.w3.org/2000/svg">
<path fill-rule="evenodd" clip-rule="evenodd" d="M-117.917 306.279C-107.268 347.666 -86.9189 394.4 -56.7866 400.162C-25.9666 406.055 -6.50931 352.172 21.6528 332.967C41.6975 319.298 64.6535 321.636 83.4197 304.55C109.002 281.256 150 261.356 148.417 217.547C146.758 171.616 96.9355 167.61 77.1763 131.729C61.4416 103.157 66.8808 56.7225 47.2427 33.8241C25.1366 8.04791 -5.18857 -4.80641 -32.9969 3.26505C-61.2578 11.4678 -85.4928 40.9969 -100.572 76.7278C-114.459 109.632 -108.319 150.248 -111.218 188.609C-114.248 228.714 -127.634 268.511 -117.917 306.279Z" fill="#F6F8FC"/>
</svg>
