<svg width="506" height="291" viewBox="0 0 506 291" fill="none" xmlns="http://www.w3.org/2000/svg">
<path fill-rule="evenodd" clip-rule="evenodd" d="M472.303 -102.763C515.577 -68.1328 571.223 -36.0172 578.736 13.3433C586.3 63.036 538.032 104.027 510.575 148.69C480.769 197.173 472.544 264.606 411.594 285.223C350.608 305.853 289.899 254.132 224.856 245.34C153.646 235.715 57.4498 279.286 14.3399 231.526C-30.0219 182.38 46.445 116.082 53.0849 55.0411C57.9523 10.2941 28.4386 -34.3911 47.8322 -76.37C69.203 -122.629 108.795 -165.614 163.984 -185.009C219.007 -204.345 281.928 -193.815 338.834 -178.635C391.526 -164.579 432.545 -134.578 472.303 -102.763Z" fill="#F6FFC7"/>
</svg>
