<svg width="326" height="367" viewBox="0 0 326 367" fill="none" xmlns="http://www.w3.org/2000/svg">
<path fill-rule="evenodd" clip-rule="evenodd" d="M7.27039 279.61C27.3059 317.801 65.5938 360.927 122.288 366.243C180.277 371.682 216.886 321.959 269.874 304.237C307.588 291.623 350.78 293.782 386.089 278.014C434.223 256.52 511.361 238.156 508.384 197.729C505.261 155.345 411.52 151.649 374.342 118.538C344.737 92.1721 354.971 49.3234 318.022 28.1931C276.428 4.40724 219.371 -7.45452 167.049 -0.0062975C113.876 7.5631 68.2771 34.812 39.9047 67.7839C13.7768 98.1475 25.3288 135.627 19.8751 171.026C14.1736 208.034 -11.013 244.759 7.27039 279.61Z" fill="#F6F8FC"/>
</svg>
