<svg width="559" height="518" viewBox="0 0 559 518" fill="none" xmlns="http://www.w3.org/2000/svg">
<path fill-rule="evenodd" clip-rule="evenodd" d="M0.412695 340.776C0.241885 403.116 16.0371 479.546 71.0344 508.998C127.287 539.122 191.502 482.12 255.155 477.195C300.461 473.689 343.382 493.42 387.935 484.478C448.672 472.287 537.322 475.75 556.111 416.787C575.809 354.97 482.123 313.558 462.053 251.879C446.071 202.763 479.653 145.428 453.348 100.969C423.737 50.9239 371.903 11.9722 314.476 2.46107C256.115 -7.20481 194.859 14.1927 148.097 50.4132C105.033 83.7683 96.5877 141.821 71.9075 190.345C46.1058 241.074 0.568562 283.889 0.412695 340.776Z" fill="#F6F8FC"/>
</svg>
