<svg width="575" height="554" viewBox="0 0 575 554" fill="none" xmlns="http://www.w3.org/2000/svg">
<path fill-rule="evenodd" clip-rule="evenodd" d="M96.7048 498.356C46.0884 461.966 -6.5906 404.382 1.76932 342.558C10.3201 279.323 94.138 260.687 135.427 211.992C164.815 177.333 173.976 130.991 207.329 100.127C252.796 58.0529 301.935 -15.8136 360.724 3.51088C422.36 23.771 401.022 123.955 439.243 176.359C469.679 218.089 535.818 224.473 556.431 271.839C579.634 325.159 580.826 389.986 554.884 442.095C528.519 495.051 475.287 532.151 418.535 548.821C366.273 564.173 314.282 537 260.499 528.567C204.272 519.75 142.895 531.563 96.7048 498.356Z" fill="#F6F8FC"/>
</svg>
