<svg width="470" height="272" viewBox="0 0 470 272" fill="none" xmlns="http://www.w3.org/2000/svg">
<path fill-rule="evenodd" clip-rule="evenodd" d="M-31.7296 282.61C-11.6941 320.801 26.5938 363.927 83.2883 369.243C141.277 374.682 177.886 324.959 230.874 307.237C268.588 294.623 311.78 296.782 347.089 281.014C395.223 259.52 472.361 241.156 469.384 200.729C466.261 158.345 372.52 154.649 335.342 121.538C305.737 95.1721 315.971 52.3234 279.022 31.1931C237.428 7.40724 180.371 -4.45453 128.049 2.99369C74.8757 10.5631 29.2771 37.812 0.904656 70.7839C-25.2232 101.147 -13.6712 138.627 -19.1249 174.026C-24.8264 211.034 -50.013 247.759 -31.7296 282.61Z" fill="#F6F8FC"/>
</svg>
