<svg width="150" height="32" viewBox="0 0 150 32" fill="none" xmlns="http://www.w3.org/2000/svg">
<path d="M54.689 0.937805H68.3613C71.6189 0.937805 74.5311 1.57946 77.0484 2.81342C79.5656 4.04737 81.4906 5.82428 82.8727 8.09476C84.2547 10.3652 84.9457 12.9812 84.9457 15.9921C84.9457 19.003 84.2547 21.6189 82.8727 23.8894C81.4906 26.1599 79.5163 27.8875 77.0484 29.1708C74.5311 30.4047 71.6683 31.0464 68.3613 31.0464H54.689V0.937805ZM68.0158 25.3208C71.0267 25.3208 73.4452 24.4817 75.2221 22.8035C76.999 21.1254 77.8875 18.8549 77.8875 15.9921C77.8875 13.1293 76.999 10.8588 75.2221 9.18065C73.4452 7.50247 71.0267 6.66338 68.0158 6.66338H61.6486V25.3208H68.0158Z" fill="#15B3AF"/>
<path d="M94.6693 29.5163C92.152 28.1836 90.1777 26.308 88.7957 23.9388C87.3643 21.5696 86.6732 18.9042 86.6732 15.9427C86.6732 12.9812 87.3643 10.3159 88.7957 7.9467C90.227 5.5775 92.2014 3.70187 94.6693 2.3692C97.1866 1.03652 100 0.345505 103.11 0.345505C106.219 0.345505 109.033 1.03652 111.55 2.3692C114.067 3.70187 115.992 5.5775 117.423 7.9467C118.855 10.3159 119.595 12.9812 119.595 15.9427C119.595 18.9042 118.855 21.5696 117.423 23.9388C115.992 26.308 114.018 28.1836 111.55 29.5163C109.033 30.849 106.269 31.54 103.11 31.54C100 31.54 97.1866 30.849 94.6693 29.5163ZM107.947 24.383C109.378 23.5439 110.513 22.4087 111.303 20.9773C112.093 19.5459 112.537 17.8677 112.537 15.9921C112.537 14.1165 112.142 12.4877 111.303 11.0069C110.464 9.52616 109.378 8.39092 107.947 7.60119C106.515 6.76209 104.886 6.36723 103.11 6.36723C101.333 6.36723 99.7038 6.76209 98.2724 7.60119C96.8411 8.44028 95.7058 9.57552 94.9161 11.0069C94.077 12.4877 93.6821 14.1165 93.6821 15.9921C93.6821 17.8677 94.077 19.4965 94.9161 20.9773C95.7552 22.458 96.8411 23.5933 98.2724 24.383C99.7038 25.2221 101.333 25.617 103.11 25.617C104.886 25.617 106.515 25.2221 107.947 24.383Z" fill="#15B3AF"/>
<path d="M129.269 29.5163C126.802 28.1836 124.827 26.3574 123.445 23.9882C122.014 21.619 121.323 18.9536 121.323 15.9921C121.323 13.0306 122.014 10.3159 123.445 7.99605C124.877 5.62685 126.802 3.8006 129.269 2.46792C131.737 1.13525 134.551 0.444229 137.611 0.444229C140.227 0.444229 142.596 0.888448 144.669 1.82626C146.792 2.76407 148.569 4.04738 150 5.77492L145.508 9.92104C143.485 7.55184 140.967 6.41659 137.957 6.41659C136.081 6.41659 134.452 6.81146 132.971 7.65055C131.491 8.48964 130.355 9.62488 129.566 11.0563C128.727 12.537 128.332 14.1658 128.332 16.0415C128.332 17.9171 128.727 19.5459 129.566 21.0267C130.405 22.5074 131.54 23.6427 132.971 24.4324C134.452 25.2715 136.081 25.6663 137.957 25.6663C140.967 25.6663 143.485 24.4817 145.508 22.1125L150 26.2586C148.569 27.9862 146.792 29.3189 144.669 30.2567C142.547 31.1945 140.178 31.6387 137.562 31.6387C134.501 31.54 131.737 30.8983 129.269 29.5163Z" fill="#15B3AF"/>
<path d="M30.7502 7.60118C29.3189 5.23198 27.3445 3.35637 24.8766 2.02369C22.3593 0.69102 19.5953 0 16.4363 0C13.3268 0 10.5133 0.69102 7.99605 2.02369C5.47877 3.35637 3.50444 5.23198 2.12241 7.60118C0.691018 9.97038 0 12.6357 0 15.5972C0 18.5587 0.691018 21.2241 2.12241 23.5933C3.5538 25.9625 5.52813 27.8381 7.99605 29.1708C10.5133 30.5035 13.3268 31.1945 16.4363 31.1945C19.5459 31.1945 22.3593 30.5035 24.8766 29.1708C27.3939 27.8381 29.3189 25.9625 30.7502 23.5933C32.1816 21.2241 32.922 18.5587 32.922 15.5972C32.922 12.6357 32.1816 9.97038 30.7502 7.60118ZM26.9496 18.5094H19.3978V26.0612H13.4748V18.5094H5.923V12.5864H13.4748V5.03454H19.3978V12.5864H26.9496V18.5094Z" fill="#DC0D15"/>
<path d="M31.8855 15.7947L43.386 0.987167H51.7769L39.2399 15.7947L51.1846 31.0464H42.7443L31.8855 15.7947Z" fill="#DC0D15"/>
</svg>
