<svg width="115" height="38" viewBox="0 0 115 38" fill="none" xmlns="http://www.w3.org/2000/svg">
<rect x="1" width="114" height="38" fill="white"/>
<path d="M1 21V25H5" stroke="black"/>
<path d="M1 19V15H5" stroke="black"/>
<path d="M7 15H11V19" stroke="black"/>
<path d="M11 21V25H7" stroke="black"/>
<path d="M1 15L11 25" stroke="black"/>
<path d="M11 15L1 25" stroke="black" stroke-width="1.4"/>
<path d="M27.3853 14.8975V24H26.4077V15.8115H21.3423V24H20.3647V14.8975H27.3853ZM30.1147 14.8975H33.5615C34.4036 14.8975 35.1019 15.1704 35.6562 15.7163C36.2106 16.2622 36.4878 16.9435 36.4878 17.7603C36.4878 18.5728 36.2085 19.2541 35.6499 19.8042C35.0955 20.3501 34.3994 20.623 33.5615 20.623H31.0923V24H30.1147V14.8975ZM33.5615 15.8115H31.0923V19.709H33.5615C34.1497 19.709 34.6216 19.5312 34.9771 19.1758C35.3325 18.8203 35.5103 18.3485 35.5103 17.7603C35.5103 17.172 35.3325 16.7002 34.9771 16.3447C34.6216 15.9893 34.1497 15.8115 33.5615 15.8115ZM45.9775 24H45.0063V16.6558L39.4141 24H38.5698V14.8975H39.5474V22.248L45.1333 14.8975H45.9775V24ZM49.6909 15.8115V18.541H52.2236C53.0277 18.541 53.7048 18.8076 54.2549 19.3408C54.8092 19.874 55.0864 20.5173 55.0864 21.2705C55.0864 22.0238 54.8092 22.667 54.2549 23.2002C53.7048 23.7334 53.0277 24 52.2236 24H48.7134V14.8975H54.3691V15.8115H49.6909ZM49.6909 23.0923H52.2236C52.7695 23.0923 53.2202 22.9188 53.5757 22.5718C53.9312 22.2248 54.1089 21.791 54.1089 21.2705C54.1089 20.75 53.9312 20.3162 53.5757 19.9692C53.2202 19.6222 52.7695 19.4487 52.2236 19.4487H49.6909V23.0923ZM64.0557 14.8975V24H63.0845V15.8115H59.1807V17.627C59.1807 18.9684 59.1235 20.0814 59.0093 20.9658C58.8993 21.846 58.7257 22.5125 58.4888 22.9653C58.256 23.4139 57.9958 23.7207 57.708 23.8857C57.4245 24.0465 57.0711 24.127 56.6479 24.127C56.5083 24.127 56.3687 24.1164 56.229 24.0952C56.0936 24.0741 55.9899 24.0508 55.918 24.0254L55.8037 24V23.0225C56.0618 23.1071 56.2988 23.1515 56.5146 23.1558C56.7812 23.1558 57.0076 23.0902 57.1938 22.959C57.3843 22.8278 57.562 22.576 57.7271 22.2036C57.8921 21.8312 58.0127 21.2663 58.0889 20.5088C58.1693 19.7513 58.2095 18.7907 58.2095 17.627V14.8975H64.0557ZM74.1992 24H73.228V16.6558L67.6357 24H66.7915V14.8975H67.769V22.248L73.355 14.8975H74.1992V24ZM80.6421 19.1885C80.6929 19.1969 80.7585 19.2181 80.8389 19.252C80.9235 19.2816 81.0737 19.3556 81.2896 19.4741C81.5054 19.5884 81.6979 19.7238 81.8672 19.8804C82.0365 20.0369 82.1888 20.257 82.3242 20.5405C82.4596 20.8198 82.5273 21.1287 82.5273 21.4673C82.5273 22.1782 82.2163 22.8003 81.5942 23.3335C80.9764 23.8625 80.1808 24.127 79.2075 24.127C78.8097 24.127 78.4246 24.0783 78.0522 23.981C77.6799 23.8794 77.3709 23.7609 77.1255 23.6255C76.8843 23.4858 76.6706 23.3462 76.4844 23.2065C76.2982 23.0669 76.167 22.9505 76.0908 22.8574L75.9575 22.6987L76.6113 22.0513C76.6367 22.0851 76.6727 22.1296 76.7192 22.1846C76.77 22.2354 76.8758 22.3285 77.0366 22.4639C77.2017 22.5951 77.3773 22.7135 77.5635 22.8193C77.7497 22.9209 77.993 23.014 78.2935 23.0986C78.5939 23.179 78.8986 23.2192 79.2075 23.2192C79.9269 23.2192 80.4961 23.0457 80.915 22.6987C81.3382 22.3517 81.5498 21.9412 81.5498 21.4673C81.5498 20.9552 81.3382 20.5236 80.915 20.1724C80.4961 19.8211 79.9269 19.6455 79.2075 19.6455H78.1729V18.7378H79.2075C79.8296 18.7378 80.3205 18.5918 80.6802 18.2998C81.0441 18.0078 81.2261 17.6545 81.2261 17.2397C81.2261 16.7996 81.0462 16.4294 80.6865 16.1289C80.3268 15.8285 79.8338 15.6782 79.2075 15.6782C78.7843 15.6782 78.3844 15.765 78.0078 15.9385C77.6312 16.112 77.3561 16.2855 77.1826 16.459L76.9351 16.7192L76.2876 16.0718C76.313 16.0379 76.3532 15.9914 76.4082 15.9321C76.4632 15.8687 76.5838 15.7629 76.77 15.6147C76.9562 15.4666 77.153 15.3376 77.3604 15.2275C77.5719 15.1133 77.8428 15.0096 78.1729 14.9165C78.5072 14.8192 78.8521 14.7705 79.2075 14.7705C80.1174 14.7705 80.8431 15.0033 81.3848 15.4688C81.9264 15.93 82.1973 16.4992 82.1973 17.1763C82.1973 17.4725 82.1423 17.7412 82.0322 17.9824C81.9264 18.2236 81.7974 18.4162 81.645 18.5601C81.4969 18.7039 81.3467 18.8267 81.1943 18.9282C81.042 19.0256 80.9087 19.0954 80.7944 19.1377L80.6421 19.1885ZM92.0742 24H91.103V16.6558L85.5107 24H84.6665V14.8975H85.644V22.248L91.23 14.8975H92.0742V24ZM93.7056 14.8975H100.402V15.8115H97.5396V24H96.5684V15.8115H93.7056V14.8975ZM105.468 24H102.021V14.8975H102.999V18.2808H105.468C106.31 18.2808 107.008 18.5537 107.562 19.0996C108.117 19.6455 108.394 20.3268 108.394 21.1436C108.394 21.9561 108.117 22.6353 107.562 23.1812C107.008 23.7271 106.31 24 105.468 24ZM102.999 23.0923H105.468C106.056 23.0923 106.528 22.9146 106.883 22.5591C107.239 22.2036 107.417 21.7318 107.417 21.1436C107.417 20.5511 107.239 20.0771 106.883 19.7217C106.528 19.3662 106.056 19.1885 105.468 19.1885H102.999V23.0923Z" fill="black"/>
</svg>
