<svg xmlns="http://www.w3.org/2000/svg"><symbol id="icon_android" viewBox="0 0 40 49"><path d="M2.926 16.116c-.815 0-1.506.286-2.074.858A2.816 2.816 0 0 0 0 19.032v12.292c0 .82.284 1.515.852 2.087.568.572 1.26.857 2.074.857.814 0 1.5-.285 2.06-.857.558-.572.838-1.267.838-2.087V19.032c0-.8-.284-1.487-.852-2.058a2.782 2.782 0 0 0-2.046-.858zM26.45 5.081l2.017-3.744c.132-.248.085-.438-.142-.571-.247-.116-.436-.057-.568.17L25.71 4.712c-1.8-.801-3.703-1.202-5.71-1.202a13.89 13.89 0 0 0-5.71 1.202L12.245.937c-.133-.228-.322-.286-.568-.171-.227.134-.275.323-.142.571l2.018 3.744c-2.046 1.05-3.675 2.512-4.887 4.389a11.133 11.133 0 0 0-1.818 6.16h26.278c0-2.23-.607-4.282-1.819-6.16-1.212-1.877-2.831-3.34-4.858-4.389zm-11.662 5.446c-.219.22-.48.33-.782.33-.303 0-.559-.11-.767-.33a1.099 1.099 0 0 1-.312-.786c0-.304.104-.566.312-.785.208-.22.464-.329.767-.329s.563.11.781.329c.218.22.327.48.327.785 0 .306-.11.567-.327.786zm11.974 0c-.209.22-.465.33-.767.33a1.06 1.06 0 0 1-.782-.33 1.073 1.073 0 0 1-.327-.786c0-.304.11-.566.327-.785.218-.22.478-.329.782-.329.303 0 .558.11.767.329.208.22.312.48.312.785a1.1 1.1 0 0 1-.312.786zM6.96 35.697c0 .877.303 1.62.909 2.23.606.61 1.344.914 2.216.914h2.102l.029 6.49c0 .82.284 1.515.852 2.087.568.572 1.25.857 2.045.857.814 0 1.506-.285 2.074-.857.568-.572.852-1.268.852-2.087v-6.49h3.92v6.49c0 .82.284 1.515.853 2.087.568.572 1.259.857 2.073.857.814 0 1.506-.285 2.074-.857.568-.572.852-1.268.852-2.087v-6.49h2.13c.853 0 1.582-.304 2.189-.914.605-.61.908-1.352.908-2.23V16.658H6.96v19.039zM37.074 16.116c-.795 0-1.477.282-2.045.843-.568.563-.852 1.254-.852 2.073v12.292c0 .82.284 1.515.852 2.087.568.572 1.25.857 2.045.857.814 0 1.506-.285 2.074-.857.568-.572.852-1.267.852-2.087V19.032c0-.819-.284-1.51-.852-2.073-.568-.561-1.26-.843-2.074-.843z"/></symbol><symbol id="icon_apple" viewBox="0 0 34 40"><path fill-rule="evenodd" clip-rule="evenodd" d="M27.907 21.01c0-3.028 1.73-5.872 4.423-7.432-1.73-2.293-4.423-3.853-7.5-3.945-3.174-.367-6.155 1.835-7.79 1.835-1.634 0-4.134-1.835-6.827-1.743-3.462.092-6.731 2.018-8.366 4.862-3.654 6.055-.962 14.955 2.5 19.817 1.731 2.385 3.75 5.046 6.443 4.954 2.596-.091 3.558-1.56 6.731-1.56 3.174 0 4.04 1.56 6.732 1.468 2.788 0 4.52-2.385 6.25-4.77 1.25-1.743 2.212-3.578 2.885-5.597-3.366-1.376-5.481-4.495-5.481-7.89zM22.714 6.33c1.442-1.743 2.308-4.036 2.115-6.33-2.308.275-4.52 1.284-5.962 3.028-1.442 1.743-2.308 3.945-2.211 6.055 2.404.091 4.615-.918 6.058-2.753z"/></symbol><symbol id="icon_fb" viewBox="0 0 21 38"><path d="M13.314 6.596c.427-.489 1.28-.815 2.475-.815 1.11 0 2.39.163 3.67.489L20.483.896C18.35.163 16.131 0 13.826 0 11.522 0 9.73.326 8.28 1.14c-1.451.733-2.475 1.629-2.988 2.931-.597 1.14-.853 3.013-.853 5.456v2.117H0v6.026h4.438v19.38c1.878.406 3.84.57 5.804.57.768 0 1.536 0 2.304-.164V17.67h5.889V11.48h-5.889V9.527c0-1.466.256-2.443.768-2.931z"/></symbol><symbol id="icon_google" viewBox="0 0 36 37"><path fill-rule="evenodd" clip-rule="evenodd" d="M2.695 0C3.272.092 3.85.367 4.33.642l21.636 11.56-5.289 5.046C14.715 11.468 8.657 5.688 2.695 0zM.483 2.11v31.927c0 .642.289 1.285.77 1.743 6.25-5.871 12.405-11.835 18.559-17.706C13.657 12.11 7.407 6.239 1.252.275.773.734.484 1.468.484 2.11zM21.64 18.074l5.481 5.23a247.957 247.957 0 0 0 6.827-3.67c.578-.368 1.154-.918 1.154-1.56 0-.734-.576-1.285-1.154-1.652a247.957 247.957 0 0 1-6.827-3.67c-1.827 1.835-3.654 3.579-5.481 5.322zM2.695 36.147c5.962-5.78 12.02-11.468 18.078-17.248l5.29 5.046C18.85 27.8 11.541 31.744 4.33 35.597c-.577.183-1.058.459-1.635.55z"/></symbol><symbol id="icon_instagram" viewBox="0 0 34 32"><path fill-rule="evenodd" clip-rule="evenodd" d="M28.851 0H4.715C1.83 0 .388 1.468.388 4.22v23.028c0 2.66 1.538 4.129 4.23 4.129h24.233c2.79 0 4.328-1.468 4.328-4.129V4.22C33.179 1.468 31.64 0 28.85 0zM26.16 3.486c3.27 0 3.27 0 3.27 3.12 0 3.027 0 3.027-3.174 3.027-3.27 0-3.27 0-3.27-3.12 0-3.027 0-3.027 3.174-3.027zm-9.424 6.055c3.462 0 6.347 2.845 6.347 6.056 0 3.302-2.981 6.055-6.443 6.055-3.462-.092-6.347-2.844-6.25-6.055.096-3.303 2.98-6.056 6.346-6.056zm12.693 16.33c0 1.469-.384 1.836-1.923 1.836H6.061c-1.538 0-1.923-.367-1.923-1.835 0-3.762 0-7.615-.096-11.376 0-1.101.288-1.285 1.346-1.285 1.539.092 1.539.092 1.346 1.468-.577 4.863 2.885 9.542 7.886 10.459 5.192.917 10.289-2.018 11.731-6.697.385-1.468.577-3.028.193-4.496-.097-.55 0-.642.576-.642 2.308-.184 2.308-.184 2.308 2.018v10.55z"/></symbol><symbol id="icon_ios" viewBox="0 0 45 51"><path d="M31.957.708c-2.772.183-6.013 1.871-7.901 4.07-1.723 1.994-3.14 4.956-2.587 7.835 3.029.09 6.159-1.64 7.972-3.875 1.697-2.08 2.98-5.024 2.516-8.03z"/><path d="M42.913 17.305c-2.662-3.176-6.403-5.018-9.936-5.018-4.664 0-6.636 2.124-9.877 2.124-3.34 0-5.88-2.118-9.913-2.118-3.961 0-8.18 2.303-10.855 6.242-3.76 5.547-3.116 15.976 2.977 24.86 2.181 3.178 5.093 6.752 8.902 6.783 3.39.031 4.346-2.068 8.938-2.09 4.592-.025 5.463 2.118 8.847 2.084 3.812-.028 6.883-3.988 9.064-7.167 1.563-2.279 2.145-3.426 3.357-5.998-8.817-3.194-10.23-15.123-1.505-19.702z"/></symbol><symbol id="icon_linux" viewBox="0 0 46 53"><path d="M18.943 13.007c0 .115.05.164.151.143.08 0 .167-.09.257-.273.09-.18.246-.281.468-.302h-.302c-.382.06-.574.203-.574.432zM21.573 12.662a.516.516 0 0 1 .53.13c.151.143.266.206.347.187.12-.057.15-.144.09-.26-.161-.248-.483-.267-.967-.057z"/><path d="M44.695 43.2c-.06-.038-.226-.13-.498-.274a8.036 8.036 0 0 1-.65-.374c-.161-.104-.373-.287-.635-.545a3.342 3.342 0 0 1-.62-.82c-.15-.288-.297-.675-.438-1.164a6.655 6.655 0 0 1-.242-1.625c-.282.23-.438.686-.468 1.366-.03.682.12 1.376.453 2.085.333.71.831 1.17 1.496 1.38.645.211 1.164.437 1.557.676.393.24.645.512.756.819.11.306-.076.637-.56.992-.483.355-1.259.705-2.326 1.05-1.472.479-2.514.886-3.129 1.222-.615.334-1.516.972-2.705 1.912-.806.632-1.663.973-2.57 1.021-.906.047-1.642-.269-2.206-.95-.564-.68-.745-1.644-.544-2.89.382-2.394.372-4.263-.03-5.607-.323-1.053-.393-1.983-.212-2.788.182-.806.463-1.274.846-1.409.383-.133.796.154 1.24.863.04.096.13.283.271.56.14.279.257.475.348.59.09.115.227.265.408.446.182.182.409.312.68.387.272.078.59.125.952.144.685.02 1.3-.114 1.844-.402.544-.288.952-.61 1.224-.964a33.5 33.5 0 0 1 .816-1.021c.272-.325.509-.508.71-.546.222-.038.424-.25.605-.632.18-.383.302-.916.362-1.596s.01-1.49-.15-2.43c-.303-1.668-.903-3.499-1.8-5.493-.896-1.992-1.899-3.555-3.006-4.687-1.995-2.013-3.335-4.102-4.02-6.267-.706-2.282-1.008-4.333-.907-6.155.1-1.303-.197-2.717-.892-4.241-.695-1.524-1.617-2.688-2.765-3.493-.725-.518-1.622-.916-2.69-1.194A11.852 11.852 0 0 0 21.995.76c-1.31 0-2.358.2-3.144.603-1.612.826-2.68 1.826-3.204 3.005-.524 1.179-.765 2.63-.725 4.356.08 3.796.242 6.768.483 8.914-.282.997-1.531 2.866-3.748 5.607-.403.384-.796.9-1.178 1.553a15.885 15.885 0 0 0-.907 1.754 63.585 63.585 0 0 0-.892 2.243c-.373.977-.64 1.668-.8 2.07a7.309 7.309 0 0 1-.666 1.208 8.06 8.06 0 0 0-.725 1.351c-.181.442-.283.94-.302 1.496-.02.423 0 .787.06 1.092.08.46.231.604.453.431.907-.651 2.045-.267 3.416 1.15.967.998 2.67 3.318 5.108 6.96.201.326.403.675.604 1.05.201.374.393.871.575 1.494.18.624.256 1.184.226 1.683-.03.497-.262.958-.695 1.38-.434.422-1.084.69-1.95.805-.463.058-1.022.019-1.677-.115a28.805 28.805 0 0 1-2.494-.662 41.117 41.117 0 0 0-2.237-.632 99.995 99.995 0 0 0-3.007-.59c-1.3-.239-2.151-.416-2.554-.531-.685-.173-1.058-.423-1.119-.748-.06-.269.08-.73.424-1.38.342-.653.513-1.122.513-1.41.02-.21.01-.42-.03-.631a2.457 2.457 0 0 0-.136-.49 8.902 8.902 0 0 0-.256-.517 4.325 4.325 0 0 1-.242-.517c-.363-.806-.414-1.351-.151-1.64.182-.248.614-.345 1.3-.287 1.028.096 1.863-.048 2.509-.431 1.067-.633 1.39-1.649.967-3.049 0 .653-.121 1.141-.363 1.467-.242.326-.665.66-1.27 1.006-.342.192-.947.307-1.813.345-.867.038-1.44.172-1.723.402-.202.173-.307.432-.317.777-.01.346.035.696.136 1.05.1.355.201.761.302 1.222.1.46.14.843.121 1.15-.02.21-.202.734-.544 1.567-.343.834-.414 1.472-.212 1.912.1.212.272.398.514.562.242.162.579.301 1.012.417.433.114.831.205 1.194.272.363.066.866.153 1.511.259a44.53 44.53 0 0 1 1.542.274c1.289.248 2.76.66 4.413 1.236 1.652.575 2.77.871 3.355.891a3.51 3.51 0 0 0 1.617-.33c.514-.24.952-.513 1.315-.82.362-.307.901-.595 1.617-.862.714-.269 1.516-.412 2.402-.431.404-.02.988-.043 1.753-.073.766-.029 1.34-.043 1.723-.043 1.733 0 3.043.01 3.93.028.604.02 1.077.11 1.42.273.342.163.564.35.665.562.1.21.267.454.499.732.231.279.53.504.892.676.766.346 1.662.484 2.69.417s1.712-.254 2.055-.56c.564-.518 1.325-1.132 2.282-1.84.957-.71 1.819-1.247 2.585-1.611.16-.078.433-.201.816-.374a36.953 36.953 0 0 0 1.919-.92c.372-.193.675-.37.906-.533.232-.163.469-.35.71-.56.242-.212.398-.423.469-.633.07-.211.096-.426.075-.647-.02-.22-.14-.45-.362-.69-.22-.238-.533-.474-.936-.705zM29.432 16.112c.06-.037.1-.052.12-.043.02.01.06.048.121.114l.167.188c.05.057.12.135.212.229.09.097.186.173.287.23.12.078.267.13.438.159.171.029.303.078.393.143.09.068.156.178.196.33a.763.763 0 0 1-.105.575c-.111.173-.257.25-.439.23-.362-.076-.755-.378-1.178-.905-.423-.527-.495-.943-.212-1.25zm-3.748-11.17c.1-.126.16-.225.18-.303a.625.625 0 0 0 .016-.36.602.602 0 0 1 .03-.373c.05-.124.166-.196.347-.216.182 0 .424.144.726.431.06.038.156.097.287.173.13.077.221.144.272.201.05.057.075.106.075.144-.04.095-.13.162-.271.2a1.743 1.743 0 0 1-.454.058c-.161 0-.252.01-.271.029a1.511 1.511 0 0 0-.454.258c-.141.116-.252.201-.333.26a.192.192 0 0 1-.241 0c-.081-.115-.111-.196-.091-.245.02-.047.08-.134.182-.258zm-14.63 21.521c.141-.153.243-.277.303-.374.06-.094.115-.224.166-.387a2.23 2.23 0 0 1 .136-.36c.04-.076.1-.105.182-.086.04.02.07.038.09.057a.1.1 0 0 1 .03.072v.087a.595.595 0 0 1-.06.245.83.83 0 0 0-.06.171c-.02.078-.04.144-.06.201-.08.193-.207.366-.378.518-.171.154-.297.221-.377.2-.123-.036-.112-.152.029-.344zm19.572 15.629c.171 1.006.236 1.71.196 2.113-.04.614-.176 1.476-.408 2.587a69.392 69.392 0 0 0-.438 2.216c-.424-.02-.665-.169-.726-.447-.06-.278 0-.638.181-1.078.444-1.285.675-2.167.696-2.645.04-.882-.06-1.38-.302-1.496-.222-.153-.565.135-1.028.863-.887 1.38-2.67 2.215-5.35 2.502-2.418.306-4.09-.039-5.017-1.035-.202-.135-.404-.159-.604-.072-.202.086-.333.178-.393.273-.02.038 0 .095.06.172.06.077.156.191.287.345.13.153.236.307.317.46.786 1.304.716 2.186-.211 2.646 0-.883-.071-1.558-.212-2.027-.141-.47-.423-.988-.846-1.553-.424-.566-.716-.993-.877-1.28.604-.057 1.063-.277 1.375-.66.312-.383.453-.795.423-1.237a1.555 1.555 0 0 0-.529-1.093c-.18-.173-1.118-.906-2.811-2.2-1.693-1.293-2.74-2.16-3.144-2.602a13.132 13.132 0 0 0-.725-.575c-.403-.306-.655-.575-.756-.805-.927-1.936-1.027-3.527-.302-4.774l.121-.143c.1-.019.11.154.03.517a5.437 5.437 0 0 0-.12 1.611c.08 1.208.442 2.108 1.087 2.703.424.403.716.374.877-.087.12-.153.176-.719.166-1.696-.01-.977.004-1.639.045-1.983.161-1.093.64-2.445 1.436-4.055.795-1.61 1.425-2.474 1.89-2.588a2.348 2.348 0 0 1-.348-1.812c.13-.651.342-1.207.635-1.668.292-.46.589-.992.891-1.595.303-.604.454-1.145.454-1.625 0-.134.01-.23.03-.288.06-.171.312.04.756.632.846 1.19 1.48 1.89 1.904 2.1.443.23.937.221 1.48-.028.545-.25 1.215-.662 2.011-1.237.796-.575 1.476-.996 2.04-1.266.061-.018.156-.062.288-.13a4.75 4.75 0 0 1 .302-.143c.07-.028.162-.072.272-.13.11-.056.197-.105.257-.143.06-.038.12-.08.18-.129.061-.048.101-.096.122-.143a.35.35 0 0 0 .03-.13c-.04-.172-.126-.278-.257-.317-.131-.038-.308-.014-.53.072a7.12 7.12 0 0 0-.74.345c-.272.144-.574.308-.907.489-.332.183-.67.35-1.013.503a8.989 8.989 0 0 1-1.088.404 4.705 4.705 0 0 1-1.088.2c-.846.02-1.521-.19-2.025-.632-.323-.287-.494-.469-.514-.546-.02-.077.07-.095.272-.058 1.088.135 1.884.154 2.388.058.524-.077 1.229-.297 2.116-.66.181-.077.64-.265 1.375-.563.735-.296 1.305-.503 1.708-.617.241-.058.408-.148.498-.273.09-.125.12-.24.09-.345a.402.402 0 0 0-.196-.245c-.222-.115-.423-.038-.604.23-.102.172-.313.34-.635.504-.323.163-.62.288-.892.374-.272.085-.62.186-1.043.3-.423.117-.655.184-.695.203-1.108.326-2.136.47-3.083.431-.443-.02-.8-.08-1.073-.187-.271-.105-.458-.23-.559-.375a4.5 4.5 0 0 0-.483-.545 3.335 3.335 0 0 0-.756-.56c-.202-.097-.277-.27-.227-.519.05-.249.207-.508.469-.776.02-.02.226-.138.62-.36.392-.22.67-.445.83-.675.182-.268.494-.546.937-.834.02-.076.035-.288.046-.632.01-.346-.087-.719-.288-1.122-.202-.402-.474-.603-.816-.603-.483-.02-.826.114-1.027.402-.202.288-.293.643-.272 1.063.02.366.115.686.287.964.171.279.328.417.469.417.221-.02.292.057.211.23a.809.809 0 0 1-.483.402c-.141.04-.297-.09-.468-.387a3.693 3.693 0 0 1-.393-1.078c-.09-.423-.126-.777-.106-1.065.04-.593.206-1.163.498-1.71.292-.546.71-.81 1.255-.79.564.02 1.017.344 1.36.977.342.633.504 1.495.483 2.588.06.135.217.183.469.144.251-.038.584-.044.997-.015.413.028.71.13.892.302.02 0 .03-.143.03-.431-.362-2.416.534-3.7 2.69-3.854.323.057.594.13.816.216.222.086.459.23.71.431.252.2.464.494.636.878.17.384.307.862.408 1.437v1.064c0 .614-.131.96-.393 1.035-.423.135-.726.13-.907-.015-.181-.143-.161-.398.06-.761.201-.48.161-1.036-.12-1.668-.283-.633-.797-.92-1.543-.863-.503.02-.866.278-1.088.776-.222.499-.302.988-.242 1.467.06.48.172.728.333.747.12.02.478.173 1.073.46.594.288 1.042.46 1.345.518.786.153 1.234.394 1.345.72.11.325.065.8-.136 1.423-.202.623-.262 1.135-.182 1.537.08.423.232.806.454 1.15.221.347.458.663.71.95.252.288.549.826.892 1.61.342.787.654 1.774.937 2.963.02.02.095.085.226.2s.262.26.393.432c.13.172.287.408.468.704.181.298.378.734.59 1.308.211.576.408 1.237.589 1.985.221.882.337 1.908.348 3.076.01 1.17.09 1.97.241 2.402.151.43.54.609 1.164.532.786-.038 1.289-.44 1.51-1.209.666-2.222.122-4.888-1.631-7.992-.665-1.21-1.24-2.004-1.723-2.387.705.383 1.43 1.102 2.176 2.157.746 1.054 1.22 2.04 1.421 2.962l.166.761c.09.412.14.653.151.72.01.066.05.263.12.59.072.325.107.536.107.631 0 .097.01.283.03.56.02.28.015.495-.015.648-.03.154-.06.359-.091.619-.03.258-.081.507-.151.747-.071.24-.146.503-.227.79 1.108.461 1.663.863 1.663 1.208-.423-.324-1.028-.54-1.814-.647-.785-.104-1.516-.004-2.19.302-.676.308-1.024.816-1.043 1.525-.726 0-1.24.172-1.542.517-.444.499-.675 1.174-.695 2.028-.017.851.058 1.78.23 2.786zM18.158 10.88c-.06-.02-.111-.077-.151-.173 0-.172.09-.238.271-.2.121.038.237.182.348.43.11.25.136.538.076.863 0 .057-.03.086-.091.086-.222 0-.303-.19-.242-.575.061-.288-.01-.431-.211-.431zm7.828.46-.06.085c-.162.097-.242.116-.242.059-.081-.518-.262-.815-.545-.892l-.12-.057c-.142-.116-.072-.182.211-.201.06-.02.151.009.272.085.12.078.231.198.332.36.102.163.152.35.152.561z"/></symbol><symbol id="icon_log-out" viewBox="0 0 24 24"><path d="M8 9V5l8 7-8 7v-4H0V9h8zm6-7c-1.787 0-3.46.474-4.911 1.295l.228.2 1.395 1.221A7.927 7.927 0 0 1 14 4c4.411 0 8 3.589 8 8s-3.589 8-8 8a7.942 7.942 0 0 1-3.288-.715l-1.395 1.221-.228.2A9.948 9.948 0 0 0 14 22c5.522 0 10-4.477 10-10S19.522 2 14 2z"/></symbol><symbol id="icon_logo" viewBox="0 0 24 24"><path d="M11.954 11c3.33 0 7.057 6.123 7.632 8.716.575 2.594-.996 4.729-3.484 4.112-1.092-.271-3.252-1.307-4.102-1.291-.925.016-2.379.836-3.587 1.252-2.657.916-4.717-1.283-4.01-4.073C5.177 16.665 8.883 11 11.954 11zm10.793-4.39c1.188.539 1.629 2.82.894 5.27-.704 2.341-2.33 3.806-4.556 2.796-1.931-.877-2.158-3.178-.894-5.27 1.274-2.107 3.367-3.336 4.556-2.796zM.779 7.316c-1.044.729-1.06 2.996.082 5.215 1.092 2.12 2.913 3.236 4.868 1.87 1.696-1.185 1.504-3.433-.082-5.215C4.051 7.393 1.823 6.587.779 7.316zM16.422.024c1.323.251 2.321 2.428 2.182 5.062-.134 2.517-1.405 4.382-3.882 3.912-2.149-.407-2.938-2.657-2.181-5.061.761-2.421 2.559-4.164 3.881-3.913zM6.127.082C4.859.533 4.207 2.838 4.75 5.419c.519 2.467 2.062 4.114 4.437 3.269 2.06-.732 2.494-3.077 1.377-5.336C9.439 1.076 7.395-.369 6.127.082z"/></symbol><symbol id="icon_mail" viewBox="0 0 40 40"><path d="m2 16.446 2 1.328 14.893 9.892a1.998 1.998 0 0 0 2.214 0L36 17.774l2-1.328 2-1.329V38a2 2 0 0 1-2 2H2a2 2 0 0 1-2-2V15.117l2 1.329z"/><path d="M18.89.336a2 2 0 0 1 2.22 0L38.035 11.62l-1.806 1.2-1.806 1.2L20 23.6 5.577 14.02l-1.807-1.2-1.806-1.2L18.891.336z"/></symbol><symbol id="icon_map" viewBox="0 0 36 51"><path d="M18 0c9.925 0 18 7.953 18 17.727C36 30.013 17.982 51 17.982 51S0 29.409 0 17.727C0 7.953 8.075 0 18 0zm-5.431 22.918A7.718 7.718 0 0 0 18 25.13a7.717 7.717 0 0 0 5.43-2.212 7.491 7.491 0 0 0 0-10.697A7.689 7.689 0 0 0 18 10.005c-2.052 0-3.98.787-5.431 2.216a7.491 7.491 0 0 0 0 10.697z"/></symbol><symbol id="icon_phone" viewBox="0 0 513.64 513.64"><path d="m499.66 376.96-71.68-71.68c-25.6-25.6-69.12-15.359-79.36 17.92-7.68 23.041-33.28 35.841-56.32 30.72-51.2-12.8-120.32-79.36-133.12-133.12-7.68-23.041 7.68-48.641 30.72-56.32 33.28-10.24 43.52-53.76 17.92-79.36l-71.68-71.68c-20.48-17.92-51.2-17.92-69.12 0L18.38 62.08c-48.64 51.2 5.12 186.88 125.44 307.2s256 176.641 307.2 125.44l48.64-48.64c17.921-20.48 17.921-51.2 0-69.12z"/></symbol><symbol id="icon_play" viewBox="0 0 24 24"><path d="M13 2.004c5.046.504 9 4.783 9 9.97a9.957 9.957 0 0 1-.892 4.113l1.738 1.005A11.967 11.967 0 0 0 24 11.975C24 5.671 19.158.511 13 0v2.004zM2.891 16.087A9.955 9.955 0 0 1 2 11.975c0-5.188 3.954-9.466 9-9.97V0C4.842.511 0 5.671 0 11.975c0 1.833.421 3.563 1.153 5.118l1.738-1.006zm17.213 1.734c-1.817 2.523-4.769 4.174-8.104 4.174s-6.288-1.651-8.105-4.175l-1.746 1.01C4.316 21.953 7.917 24 12 24c4.082 0 7.683-2.047 9.851-5.168l-1.747-1.011zM12 3.958c-4.419 0-8 3.589-8 8.017s3.581 8.017 8 8.017 8-3.589 8-8.017-3.581-8.017-8-8.017zm-2 11.023V8.968l6 3.152-6 2.861z"/></symbol><symbol id="icon_user" viewBox="0 0 24 24"><path d="M19 7.001A7 7 0 1 1 4.999 7 7 7 0 0 1 19 7zm-1.598 7.18A8.937 8.937 0 0 1 12 16.001a8.953 8.953 0 0 1-5.407-1.822C2.521 15.972 0 21.555 0 24h24c0-2.423-2.6-8.006-6.598-9.819z"/></symbol><symbol id="icon_windows" viewBox="0 0 52 51"><path d="M0 8.438v15.46h22.75V5.731L0 8.438zM26 5.346v18.551h26V2.254L26 5.346zM26 26.99v18.55l26 3.092V26.99H26zM0 26.99v15.459l22.75 2.705V26.989H0z"/></symbol></svg>