<svg width="30" height="30" viewBox="0 0 30 30" fill="none" xmlns="http://www.w3.org/2000/svg">
<path fill-rule="evenodd" clip-rule="evenodd" d="M10 0C4.47715 0 0 4.47715 0 10V20C0 25.5228 4.47715 30 10 30H20C25.5228 30 30 25.5228 30 20V10C30 4.47715 25.5228 0 20 0H10ZM25.3587 2.53545C26.5876 2.96999 27.2315 4.31844 26.7969 5.54729L19.3703 26.5488C18.9358 27.7776 17.5873 28.4215 16.3585 27.987C15.9815 27.8537 15.6596 27.6343 15.4069 27.3589L3.86158 17.8641C2.85425 17.0357 2.70922 15.5476 3.53763 14.5402C4.36604 13.5329 5.8542 13.3879 6.86152 14.2163L16.0521 21.7745L22.3469 3.97365C22.7814 2.7448 24.1299 2.1009 25.3587 2.53545Z" fill="url(#paint0_linear_1_531)"/>
<defs>
<linearGradient id="paint0_linear_1_531" x1="21.289" y1="33.2877" x2="-8.19823" y2="28.8361" gradientUnits="userSpaceOnUse">
<stop stop-color="#00B19F"/>
<stop offset="1" stop-color="#5BCF90"/>
</linearGradient>
</defs>
</svg>
