<svg width="18" height="18" viewBox="0 0 18 18" fill="none" xmlns="http://www.w3.org/2000/svg">
<path d="M16.5837 4.851L10.9587 1.75725C10.8756 1.71155 10.7824 1.68759 10.6876 1.68759C10.5928 1.68759 10.4995 1.71155 10.4164 1.75725L4.79144 4.851C4.70325 4.89955 4.62971 4.97089 4.57849 5.05756C4.52726 5.14424 4.50024 5.24307 4.50024 5.34375C4.50024 5.44442 4.52726 5.54325 4.57849 5.62993C4.62971 5.7166 4.70325 5.78794 4.79144 5.8365L10.1251 8.76993V14.7994L8.41732 13.86L7.87507 14.8449L10.4164 16.2427C10.4995 16.2885 10.5927 16.3126 10.6876 16.3126C10.7824 16.3126 10.8757 16.2885 10.9587 16.2427L16.5837 13.149C16.6719 13.1005 16.7455 13.0291 16.7968 12.9425C16.848 12.8558 16.8751 12.7569 16.8751 12.6562V5.34375C16.8751 5.24305 16.848 5.14421 16.7968 5.05753C16.7455 4.97086 16.6719 4.89953 16.5837 4.851ZM10.6876 2.89237L15.1454 5.34375L10.6876 7.79512L6.22976 5.34375L10.6876 2.89237ZM15.7501 12.3238L11.2501 14.7988V8.76937L15.7501 6.29437V12.3238Z" fill="black"/>
<path d="M5.625 9H1.125V7.875H5.625V9ZM6.75 13.5H2.25V12.375H6.75V13.5ZM7.875 11.25H3.375V10.125H7.875V11.25Z" fill="black"/>
</svg>
