<svg width="24" height="21" viewBox="0 0 24 21" fill="none" xmlns="http://www.w3.org/2000/svg">
<path d="M0.888916 0.222229V1.46667C0.891003 1.61321 0.950908 1.75299 1.05558 1.85556L9.14447 10.0333C9.24915 10.1359 9.30905 10.2757 9.31114 10.4222V18.0778C9.31093 18.1819 9.33999 18.284 9.39499 18.3724C9.45 18.4608 9.52875 18.532 9.62225 18.5778L14.0111 20.1445C14.0959 20.186 14.1899 20.2052 14.2842 20.2004C14.3785 20.1955 14.47 20.1667 14.55 20.1167C14.6301 20.0666 14.6961 19.997 14.7418 19.9144C14.7875 19.8318 14.8113 19.7389 14.8111 19.6444V10.3222C14.8265 10.1721 14.8979 10.0332 15.0111 9.93334L22.9222 1.87778C23.0269 1.77521 23.0868 1.63543 23.0889 1.4889V0.222229H0.888916Z" fill="#15B3AF"/>
</svg>
