<svg width="10" height="10" viewBox="0 0 10 10" fill="none" xmlns="http://www.w3.org/2000/svg">
<path d="M6.62374 7.055L7.46374 6.215C7.57688 6.10327 7.72002 6.02678 7.87579 5.99483C8.03156 5.96288 8.19325 5.97683 8.34124 6.035L9.36499 6.44375C9.51454 6.50445 9.64278 6.60807 9.73354 6.74154C9.8243 6.87501 9.87351 7.03235 9.87499 7.19375V9.06875C9.87412 9.17854 9.85104 9.28702 9.80714 9.38766C9.76324 9.4883 9.69943 9.57901 9.61955 9.65434C9.53967 9.72966 9.44537 9.78805 9.34233 9.82597C9.23929 9.86389 9.12964 9.88057 9.01999 9.875C1.84624 9.42875 0.398739 3.35375 0.124989 1.02875C0.112282 0.914576 0.123892 0.799006 0.159057 0.689641C0.194222 0.580277 0.252145 0.479597 0.329014 0.394226C0.405884 0.308855 0.499958 0.240727 0.605048 0.194324C0.710138 0.147921 0.823863 0.124295 0.938739 0.125H2.74999C2.91162 0.125478 3.06941 0.1743 3.20306 0.265186C3.33672 0.356072 3.44013 0.484865 3.49999 0.635L3.90874 1.65875C3.96883 1.80615 3.98417 1.96799 3.95282 2.12405C3.92147 2.28012 3.84484 2.42349 3.73249 2.53625L2.89249 3.37625C2.89249 3.37625 3.37624 6.65 6.62374 7.055Z" fill="#242321"/>
</svg>
