<svg width="51" height="51" viewBox="0 0 51 51" fill="none" xmlns="http://www.w3.org/2000/svg">
<path fill-rule="evenodd" clip-rule="evenodd" d="M36.8125 32.2475L50.2625 45.6975C50.7353 46.1706 51.0007 46.8121 51.0005 47.4809C51.0003 48.1497 50.7344 48.791 50.2613 49.2637C49.7882 49.7365 49.1467 50.002 48.4779 50.0017C47.8091 50.0015 47.1678 49.7356 46.695 49.2625L33.245 35.8125C29.2243 38.9267 24.1682 40.3922 19.1053 39.9109C14.0425 39.4296 9.35311 37.0376 5.99124 33.2215C2.62936 29.4055 0.847506 24.452 1.00816 19.3689C1.16881 14.2857 3.25991 9.45465 6.85604 5.85851C10.4522 2.26238 15.2832 0.171285 20.3664 0.0106317C25.4496 -0.150022 30.403 1.63183 34.2191 4.99371C38.0351 8.35558 40.4271 13.0449 40.9084 18.1078C41.3897 23.1707 39.9242 28.2268 36.81 32.2475H36.8125ZM21 35C24.9783 35 28.7936 33.4196 31.6066 30.6066C34.4197 27.7936 36 23.9782 36 20C36 16.0218 34.4197 12.2064 31.6066 9.3934C28.7936 6.58035 24.9783 5 21 5C17.0218 5 13.2065 6.58035 10.3934 9.3934C7.58038 12.2064 6.00003 16.0218 6.00003 20C6.00003 23.9782 7.58038 27.7936 10.3934 30.6066C13.2065 33.4196 17.0218 35 21 35ZM28.5 22.5H23.5V27.5C23.5 28.163 23.2366 28.7989 22.7678 29.2678C22.299 29.7366 21.6631 30 21 30C20.337 30 19.7011 29.7366 19.2323 29.2678C18.7634 28.7989 18.5 28.163 18.5 27.5V22.5H13.5C12.837 22.5 12.2011 22.2366 11.7323 21.7678C11.2634 21.2989 11 20.663 11 20C11 19.337 11.2634 18.7011 11.7323 18.2322C12.2011 17.7634 12.837 17.5 13.5 17.5H18.5V12.5C18.5 11.837 18.7634 11.2011 19.2323 10.7322C19.7011 10.2634 20.337 10 21 10C21.6631 10 22.299 10.2634 22.7678 10.7322C23.2366 11.2011 23.5 11.837 23.5 12.5V17.5H28.5C29.1631 17.5 29.799 17.7634 30.2678 18.2322C30.7366 18.7011 31 19.337 31 20C31 20.663 30.7366 21.2989 30.2678 21.7678C29.799 22.2366 29.1631 22.5 28.5 22.5Z" fill="white"/>
</svg>
