<svg width="50" height="50" viewBox="0 0 50 50" fill="none" xmlns="http://www.w3.org/2000/svg">
<path fill-rule="evenodd" clip-rule="evenodd" d="M25 0C11.1929 0 0 11.1929 0 25C0 38.8071 11.1929 50 25 50C38.8071 50 50 38.8071 50 25C50 11.1929 38.8071 0 25 0ZM24.3037 21.1848L24.2513 20.3197C24.0939 18.0776 25.4754 16.0297 27.6612 15.2353C28.4656 14.9528 29.8296 14.9175 30.7215 15.1647C31.0712 15.2706 31.7357 15.6237 32.2078 15.9415L33.0647 16.524L34.009 16.2239C34.5336 16.065 35.2331 15.8002 35.5479 15.6237C35.8451 15.4648 36.1074 15.3765 36.1074 15.4295C36.1074 15.7296 35.4604 16.7536 34.9183 17.3185C34.1839 18.1129 34.3937 18.1835 35.8801 17.6539C36.7719 17.3538 36.7894 17.3538 36.6146 17.6892C36.5096 17.8658 35.9675 18.4837 35.3905 19.0486C34.4112 20.0196 34.3587 20.1255 34.3587 20.9376C34.3587 22.191 33.7642 24.8039 33.1696 26.2339C32.068 28.9173 29.7072 31.689 27.3465 33.0837C24.0239 35.0433 19.5997 35.5376 15.875 34.3901C14.6334 34.0017 12.5 33.0131 12.5 32.8365C12.5 32.7836 13.147 32.713 13.9339 32.6953C15.5777 32.66 17.2215 32.201 18.6205 31.3889L19.5648 30.824L18.4806 30.4532C16.9417 29.9236 15.5602 28.7055 15.2105 27.5579C15.1056 27.1872 15.1406 27.1695 16.1198 27.1695L17.1341 27.1519L16.2772 26.7458C15.263 26.2339 14.3361 25.3688 13.8815 24.4861C13.5492 23.8505 13.1295 22.244 13.252 22.1204C13.2869 22.0675 13.6542 22.1734 14.0738 22.3146C15.2804 22.756 15.4378 22.6501 14.7383 21.9086C13.4268 20.5669 13.0246 18.5719 13.6542 16.6829L13.9514 15.8355L15.1056 16.9831C17.4663 19.2958 20.2467 20.6728 23.4294 21.0788L24.3037 21.1848Z" fill="#878787" fill-opacity="0.4"/>
</svg>
