<svg width="27" height="17" viewBox="0 0 27 17" fill="none" xmlns="http://www.w3.org/2000/svg">
<path d="M0.375 14.9688C0.375 14.6787 0.490234 14.4005 0.695352 14.1954C0.90047 13.9902 1.17867 13.875 1.46875 13.875H8.03125C8.32133 13.875 8.59953 13.9902 8.80465 14.1954C9.00977 14.4005 9.125 14.6787 9.125 14.9688C9.125 15.2588 9.00977 15.537 8.80465 15.7421C8.59953 15.9473 8.32133 16.0625 8.03125 16.0625H1.46875C1.17867 16.0625 0.90047 15.9473 0.695352 15.7421C0.490234 15.537 0.375 15.2588 0.375 14.9688ZM0.375 8.40625C0.375 8.11617 0.490234 7.83797 0.695352 7.63285C0.90047 7.42773 1.17867 7.3125 1.46875 7.3125H16.7812C17.0713 7.3125 17.3495 7.42773 17.5546 7.63285C17.7598 7.83797 17.875 8.11617 17.875 8.40625C17.875 8.69633 17.7598 8.97453 17.5546 9.17965C17.3495 9.38477 17.0713 9.5 16.7812 9.5H1.46875C1.17867 9.5 0.90047 9.38477 0.695352 9.17965C0.490234 8.97453 0.375 8.69633 0.375 8.40625ZM0.375 1.84375C0.375 1.55367 0.490234 1.27547 0.695352 1.07035C0.90047 0.865234 1.17867 0.75 1.46875 0.75H25.5312C25.8213 0.75 26.0995 0.865234 26.3046 1.07035C26.5098 1.27547 26.625 1.55367 26.625 1.84375C26.625 2.13383 26.5098 2.41203 26.3046 2.61715C26.0995 2.82227 25.8213 2.9375 25.5312 2.9375H1.46875C1.17867 2.9375 0.90047 2.82227 0.695352 2.61715C0.490234 2.41203 0.375 2.13383 0.375 1.84375Z" fill="black"/>
</svg>
