<svg width="50" height="50" viewBox="0 0 50 50" fill="none" xmlns="http://www.w3.org/2000/svg">
<path fill-rule="evenodd" clip-rule="evenodd" d="M25 0C11.1929 0 0 11.1929 0 25C0 38.8071 11.1929 50 25 50C38.8071 50 50 38.8071 50 25C50 11.1929 38.8071 0 25 0ZM35.4185 16.4063C36.566 16.7211 37.4696 17.6488 37.7763 18.827C38.3335 20.9622 38.3335 25.4174 38.3335 25.4174C38.3335 25.4174 38.3335 29.8724 37.7763 32.0078C37.4696 33.1859 36.566 34.1136 35.4185 34.4286C33.3391 35.0007 25.0002 35.0007 25.0002 35.0007C25.0002 35.0007 16.6613 35.0007 14.5817 34.4286C13.4343 34.1136 12.5307 33.1859 12.224 32.0078C11.6669 29.8724 11.6669 25.4174 11.6669 25.4174C11.6669 25.4174 11.6669 20.9622 12.224 18.827C12.5307 17.6488 13.4343 16.7211 14.5817 16.4063C16.6613 15.834 25.0002 15.834 25.0002 15.834C25.0002 15.834 33.3391 15.834 35.4185 16.4063Z" fill="#878787" fill-opacity="0.4"/>
<path fill-rule="evenodd" clip-rule="evenodd" d="M22.4999 29.9993V21.666L29.1665 25.8328L22.4999 29.9993Z" fill="#878787" fill-opacity="0.4"/>
</svg>
