<svg width="240" height="47" viewBox="0 0 240 47" fill="none" xmlns="http://www.w3.org/2000/svg">
<g filter="url(#filter0_di_1_3)">
<path d="M25.3262 4.22852H26.6973C33.5293 4.22852 37.5605 6.47266 38.791 10.9609L38.9492 11.8926V12.3496C38.9492 13.6973 35.8848 15.9414 29.7559 19.082C31.291 25.5859 32.0586 30.127 32.0586 32.7051L32.2168 32.8633V33.0039L32.0586 33.4785L32.2168 34.8496L32.0586 35.0078H31.7598C31.7598 34.5977 31.6543 34.3926 31.4434 34.3926C31.4434 34.6973 31.3438 34.8496 31.1445 34.8496H30.8281L30.6875 34.6914H30.5293C30.377 35.1016 30.2246 35.3066 30.0723 35.3066L29.2988 35.1484L29 35.4648C28.9297 34.9492 28.6719 34.6914 28.2266 34.6914C26.5977 30.8945 25.1738 26.5059 23.9551 21.5254L17.0645 23.8281C16.4316 25.2695 15.9219 26.084 15.5352 26.2715L15.377 27.0449H14.9199L15.5352 25.3574V25.1992H15.377L14.6035 26.8867L14.9199 27.2031C14.5332 27.2031 13.7656 28.2695 12.6172 30.4023C12.4766 30.4141 12.1719 31.082 11.7031 32.4062C11.4922 32.4062 10.9824 33.4258 10.1738 35.4648H10.0156C10.0156 34.9961 9.50586 34.5859 8.48633 34.2344L8.1875 34.5508C8.1875 34.3398 8.0293 34.2344 7.71289 34.2344L7.25586 34.3926C7.0332 33.8418 6.72852 33.5371 6.3418 33.4785V33.0039C6.3418 30.5312 9.14844 23.6934 14.7617 12.4902C12.6172 11.0371 11.5449 9.86523 11.5449 8.97461V8.21875C11.627 7.67969 13.5137 6.75977 17.2051 5.45898C17.7207 4.63867 20.4277 4.22852 25.3262 4.22852ZM20.4219 16.3223H20.7383C26.8672 13.6973 30.5879 11.6055 31.9004 10.0469V9.88867L28.8418 9.74805H28.543C24.6641 9.74805 22.7246 10.2051 22.7246 11.1191C21.5176 14.2012 20.75 15.9355 20.4219 16.3223ZM54.4004 5.30078C54.4004 5.69922 54.5996 5.89844 54.998 5.89844V6.19727H54.541V6.35547C55.0449 6.35547 55.2969 6.45508 55.2969 6.6543V6.8125H54.6992C54.6992 7.11719 54.998 7.26953 55.5957 7.26953V7.56836H55.1387V7.70898H56.9492L58.3203 8.46484L58.1621 8.62305V8.76367C58.666 8.76367 58.918 8.86914 58.918 9.08008C58.918 9.44336 57.0547 9.8418 53.3281 10.2754C52.0625 10.2754 49.6543 10.9785 46.1035 12.3848L44.4336 15.707H44.5918C45.1309 15.5078 46.6895 15.3555 49.2676 15.25L49.5664 15.707L49.1094 15.8652V16.0059C49.918 16.0059 50.3223 16.1055 50.3223 16.3047L49.5664 16.6211V16.7617H49.8652L49.7246 17.2188C49.7246 17.7227 50.123 18.127 50.9199 18.4316V18.5723L50.7793 18.7305V18.8711C51.2832 18.8711 51.5352 18.9766 51.5352 19.1875V19.3281C51.5352 19.6328 48.3652 20.4355 42.0254 21.7363C41.2402 21.7363 40.2324 23.248 39.002 26.2715L49.8652 24.4609V24.7598H50.0234L50.7793 24.6016C50.9082 25.1055 51.1602 25.3574 51.5352 25.3574V25.8145C51.2891 25.8145 51.0371 25.9668 50.7793 26.2715H50.4629V26.4121H51.377V26.7285H50.6211L50.7793 26.8691V27.0273L50.6211 27.168C52.1094 27.168 52.9121 27.4199 53.0293 27.9238L52.8887 28.082C53.3926 28.1523 53.6445 28.3047 53.6445 28.5391C52.7539 29.1133 49.7363 29.8633 44.5918 30.7891C38.5566 31.8086 35.5391 32.7168 35.5391 33.5137C35.3984 34.041 34.9473 34.4922 34.1855 34.8672H34.0273L33.1309 34.1113H32.8145L32.0586 34.2695C32.0586 34.0117 31.5605 33.7598 30.5645 33.5137L30.1074 33.6543L29.9492 33.5137V33.3555L30.1074 32.8984H29.8086L29.6504 33.0566H29.5098L29.3516 32.8984V32.7578C30.1836 29.7695 33.9043 21.3203 40.5137 7.41016C40.5137 6.40234 41.2168 5.79883 42.623 5.59961L48.5117 5.75781L54.4004 5.30078ZM71.0996 3.8418L74.2461 4H77.3926C78.002 4 78.4473 4.28125 78.7285 4.84375L78.5527 5.00195C79.1035 5.03711 79.3789 5.20117 79.3789 5.49414V5.66992H77.5684V5.82812H78.2188V6.16211H77.9023L78.0605 6.33789L77.9023 6.49609V6.83008L78.7285 6.98828V7.16406L78.5527 7.32227V7.49805C79.2207 7.49805 79.5547 7.9375 79.5547 8.81641C80 8.875 80.2227 9.03906 80.2227 9.30859V9.64258L70.4316 10.8027C69.5996 10.8027 68.9375 11.8516 68.4453 13.9492C62.6094 25.3164 59.123 32.5586 57.9863 35.6758C57.3184 36.3438 56.7676 36.6777 56.334 36.6777L55.666 36.0098C55.0098 36.0098 54.6816 35.7344 54.6816 35.1836L54.5059 35.3594H54.3477C54.3242 35.0781 53.7734 34.5801 52.6953 33.8652L52.1855 33.0215C52.1855 30.7949 54.8398 24.8828 60.1484 15.2852L61.4844 12.1387L55.332 13.123C53.0117 13.123 51.4648 12.0742 50.6914 9.97656L50.1992 7.99023V7.65625C50.1992 6.95312 50.6387 6.29102 51.5176 5.66992H53.6797C57.1484 5.66992 62.9551 5.06055 71.0996 3.8418ZM91.877 4.22852H93.248C100.08 4.22852 104.111 6.47266 105.342 10.9609L105.5 11.8926V12.3496C105.5 13.6973 102.436 15.9414 96.3066 19.082C97.8418 25.5859 98.6094 30.127 98.6094 32.7051L98.7676 32.8633V33.0039L98.6094 33.4785L98.7676 34.8496L98.6094 35.0078H98.3105C98.3105 34.5977 98.2051 34.3926 97.9941 34.3926C97.9941 34.6973 97.8945 34.8496 97.6953 34.8496H97.3789L97.2383 34.6914H97.0801C96.9277 35.1016 96.7754 35.3066 96.623 35.3066L95.8496 35.1484L95.5508 35.4648C95.4805 34.9492 95.2227 34.6914 94.7773 34.6914C93.1484 30.8945 91.7246 26.5059 90.5059 21.5254L83.6152 23.8281C82.9824 25.2695 82.4727 26.084 82.0859 26.2715L81.9277 27.0449H81.4707L82.0859 25.3574V25.1992H81.9277L81.1543 26.8867L81.4707 27.2031C81.084 27.2031 80.3164 28.2695 79.168 30.4023C79.0273 30.4141 78.7227 31.082 78.2539 32.4062C78.043 32.4062 77.5332 33.4258 76.7246 35.4648H76.5664C76.5664 34.9961 76.0566 34.5859 75.0371 34.2344L74.7383 34.5508C74.7383 34.3398 74.5801 34.2344 74.2637 34.2344L73.8066 34.3926C73.584 33.8418 73.2793 33.5371 72.8926 33.4785V33.0039C72.8926 30.5312 75.6992 23.6934 81.3125 12.4902C79.168 11.0371 78.0957 9.86523 78.0957 8.97461V8.21875C78.1777 7.67969 80.0645 6.75977 83.7559 5.45898C84.2715 4.63867 86.9785 4.22852 91.877 4.22852ZM86.9727 16.3223H87.2891C93.418 13.6973 97.1387 11.6055 98.4512 10.0469V9.88867L95.3926 9.74805H95.0938C91.2148 9.74805 89.2754 10.2051 89.2754 11.1191C88.0684 14.2012 87.3008 15.9355 86.9727 16.3223ZM123.096 4.70312H123.271C124.385 4.70312 125.51 5.77539 126.646 7.91992L126.822 8.0957V8.88672C126.822 9.39063 125.979 9.82422 124.291 10.1875V10.3457C126.881 13.5566 128.176 16.5625 128.176 19.3633V20.1719C128.176 27.1094 125.188 31.5684 119.211 33.5488C117.172 34.0879 115.484 34.3574 114.148 34.3574H112.285C107.035 34.3574 103.256 31.6738 100.947 26.3066C100.619 26.2363 100.396 25.2695 100.279 23.4062V22.2637C100.279 17.0605 104.053 12.3379 111.6 8.0957C116.369 5.83398 120.201 4.70312 123.096 4.70312ZM106.537 23.7227V23.8809C106.537 25.7441 107.721 26.8164 110.088 27.0977H111.441C115.086 27.0977 118.467 25.0059 121.584 20.8223C122.064 19.7207 122.398 18.2676 122.586 16.4629C122.48 14.9629 122.316 14.0488 122.094 13.7207L122.252 13.2461C121.947 11.6289 121.725 10.8203 121.584 10.8203C118.268 11.2656 114.436 13.416 110.088 17.2715C107.721 19.5684 106.537 21.7188 106.537 23.7227ZM160.941 2.57617L161.1 2.73438V2.89258L161.574 2.73438C162.008 2.83984 162.225 3.05078 162.225 3.36719H162.383L162.541 2.89258C164.018 3.20898 164.756 3.47266 164.756 3.68359L164.598 4.17578L164.756 4.01758H164.914L165.389 4.17578V4.33398C165.389 5.10742 163.01 9.17969 158.252 16.5508L150.465 30.0508L149.199 32.7578C148.355 33.3906 147.611 33.707 146.967 33.707C144.318 33.1328 142.994 32.5527 142.994 31.9668C141.518 30.6895 140.779 28.1465 140.779 24.3379C139.068 26.2246 137.691 28.2871 136.648 30.5254C135.887 32.541 134.773 33.5488 133.309 33.5488C132.629 33.5488 131.996 33.3379 131.41 32.916L131.252 33.0742H131.094C130.895 33.0742 130.578 32.8105 130.145 32.2832C129.371 32.2832 128.68 29.7402 128.07 24.6543C127.859 23.2129 127.754 20.0898 127.754 15.2852L128.07 6.86523C128.07 5.98633 129.025 5.40625 130.936 5.125C132.33 5.34766 133.49 5.98047 134.416 7.02344L134.75 7.97266V9.09766L134.1 15.127V17.3418L134.258 18.3086L134.1 19.0996L134.258 19.2578L134.1 20.0488V20.6816L134.258 21.3145L134.1 21.9473V22.7559L140.463 15.4434C140.709 15.4434 140.973 14.1719 141.254 11.6289L142.203 11.3125L142.52 10.9961L143.627 11.1543H144.119L145.227 10.9961L145.385 11.1543V11.3125L145.227 11.4707L146.018 11.6289H146.176L146.65 11.3125H146.809L146.967 11.4707L147.125 11.3125H147.916L148.566 12.1035C148.883 12.1035 149.041 12.209 149.041 12.4199L147.283 16.709L146.967 18.625V21.4727L146.809 21.6309L146.967 23.2305H147.125C148.789 20.5117 150.752 17.7051 153.014 14.8105C153.225 14.0723 153.541 13.7031 153.963 13.7031L153.805 13.5449V13.3867C155.891 9.92969 157.162 8.07227 157.619 7.81445C157.619 7.39258 158.252 6.12695 159.518 4.01758C159.518 3.43164 159.992 2.95117 160.941 2.57617ZM156.969 9.73047V9.88867L157.285 9.57227V9.41406L156.969 9.73047ZM155.861 11.1543V11.6289H156.02V11.1543H155.861ZM171.339 5.44141C174.163 5.44141 175.891 6.2793 176.524 7.95508C176.887 9.44336 177.327 12.3965 177.842 16.8145L178.001 16.9727C178.059 17.6641 178.206 18.0098 178.44 18.0098L183.169 17.4121V17.7109H183.327L185.682 17.5703V17.8516L184.645 18.1504V18.3086H185.682L186.719 18.1504V18.4492C185.712 18.8477 184.926 19.0469 184.364 19.0469V19.3457L185.102 19.1875C185.782 19.3867 186.122 19.5859 186.122 19.7852L186.878 19.627C188.846 19.6855 189.831 19.8848 189.831 20.2246L189.673 20.3652L190.71 20.6641V20.9629C189.374 21.6543 186.614 22.2461 182.43 22.7383L179.776 23.1777C181.053 28.1934 181.692 31.5977 181.692 33.3906V33.9707L181.253 34.4277H181.094C180.766 34.4277 180.426 34.2754 180.075 33.9707V34.4277H179.776V34.1289L179.319 34.4277L178.739 33.9707L177.262 34.5684L176.067 33.3906C175.575 32.5938 174.837 29.6816 173.852 24.6543H173.712C167.501 26.3652 164.395 27.7012 164.395 28.6621C163.997 28.9082 162.813 30.4316 160.844 33.2324C160.165 34.0293 159.62 34.4277 159.21 34.4277L158.911 33.6895L158.77 33.8301H158.63C158.032 33.4785 157.733 33.0859 157.733 32.6523L157.592 32.793H157.294V32.4941C156.883 32.4941 156.491 32.2012 156.116 31.6152C155.717 31.6152 155.518 31.5156 155.518 31.3164V30.2793C155.518 29.1777 156.702 27.3555 159.069 24.8125C160.077 23.1367 161.706 20.8164 163.956 17.8516L168.983 8.99219L170.003 6.02148C170.53 5.63477 170.975 5.44141 171.339 5.44141ZM170.161 19.7852V19.9258C171.837 19.4922 172.674 19.1992 172.674 19.0469L172.235 16.6738C171.965 16.791 171.274 17.8281 170.161 19.7852ZM183.907 17.2715H184.206V17.5703H183.907V17.2715ZM184.065 18.3086V18.4492H184.364V18.3086H184.065ZM211.962 4.50977L212.296 5.35352H212.471L212.63 5.17773H212.805L212.964 5.35352L212.805 5.51172V5.6875L213.139 6.02148C213.139 6.44336 210.901 9.29102 206.424 14.5645C200.225 22.5566 196.147 28.3105 194.19 31.8262C193.71 33.6074 192.93 34.498 191.852 34.498H191.184C189.286 34.498 187.663 33.7773 186.315 32.3359L186.649 30.8242L183.133 12.3848L181.798 6.17969V6.02148C182.36 5.13086 183.028 4.68555 183.801 4.68555C185.29 4.68555 186.743 5.24219 188.161 6.35547C189.286 7.16406 189.848 8.61719 189.848 10.7148C189.989 10.75 190.657 14.7695 191.852 22.7734H192.028L196.036 17.5879C197.137 16.6621 197.753 15.877 197.881 15.2324H198.057L198.215 15.4082H198.391L199.903 13.8965L200.061 14.0547V13.8965L199.903 13.3867L200.395 13.0527H200.571L200.729 13.8965L201.063 13.5625L200.905 12.8945H201.063L200.905 12.3848C201.21 11.6465 201.544 11.2012 201.907 11.0488H202.083L202.241 11.207H202.417L202.751 10.873V11.207L202.575 11.3828V11.541H202.751L204.596 9.20312H204.755V9.36133L203.577 10.873V11.875L205.423 9.87109L205.598 10.0469H205.756V9.71289H205.932L205.598 8.86914L205.756 8.69336H205.932L206.09 8.86914H206.266L207.936 7.5332L208.112 7.69141V7.86719L207.268 8.69336V8.86914H207.602C210.075 5.99805 211.528 4.54492 211.962 4.50977ZM229.03 5.30078C229.03 5.69922 229.229 5.89844 229.628 5.89844V6.19727H229.171V6.35547C229.674 6.35547 229.926 6.45508 229.926 6.6543V6.8125H229.329C229.329 7.11719 229.628 7.26953 230.225 7.26953V7.56836H229.768V7.70898H231.579L232.95 8.46484L232.792 8.62305V8.76367C233.296 8.76367 233.548 8.86914 233.548 9.08008C233.548 9.44336 231.684 9.8418 227.958 10.2754C226.692 10.2754 224.284 10.9785 220.733 12.3848L219.063 15.707H219.221C219.76 15.5078 221.319 15.3555 223.897 15.25L224.196 15.707L223.739 15.8652V16.0059C224.548 16.0059 224.952 16.1055 224.952 16.3047L224.196 16.6211V16.7617H224.495L224.354 17.2188C224.354 17.7227 224.753 18.127 225.549 18.4316V18.5723L225.409 18.7305V18.8711C225.913 18.8711 226.165 18.9766 226.165 19.1875V19.3281C226.165 19.6328 222.995 20.4355 216.655 21.7363C215.87 21.7363 214.862 23.248 213.631 26.2715L224.495 24.4609V24.7598H224.653L225.409 24.6016C225.538 25.1055 225.79 25.3574 226.165 25.3574V25.8145C225.919 25.8145 225.667 25.9668 225.409 26.2715H225.092V26.4121H226.006V26.7285H225.251L225.409 26.8691V27.0273L225.251 27.168C226.739 27.168 227.542 27.4199 227.659 27.9238L227.518 28.082C228.022 28.1523 228.274 28.3047 228.274 28.5391C227.383 29.1133 224.366 29.8633 219.221 30.7891C213.186 31.8086 210.169 32.7168 210.169 33.5137C210.028 34.041 209.577 34.4922 208.815 34.8672H208.657L207.76 34.1113H207.444L206.688 34.2695C206.688 34.0117 206.19 33.7598 205.194 33.5137L204.737 33.6543L204.579 33.5137V33.3555L204.737 32.8984H204.438L204.28 33.0566H204.139L203.981 32.8984V32.7578C204.813 29.7695 208.534 21.3203 215.143 7.41016C215.143 6.40234 215.846 5.79883 217.253 5.59961L223.141 5.75781L229.03 5.30078Z" fill="white"/>
</g>
<defs>
<filter id="filter0_di_1_3" x="0.341797" y="0.576172" width="239.206" height="46.1016" filterUnits="userSpaceOnUse" color-interpolation-filters="sRGB">
<feFlood flood-opacity="0" result="BackgroundImageFix"/>
<feColorMatrix in="SourceAlpha" type="matrix" values="0 0 0 0 0 0 0 0 0 0 0 0 0 0 0 0 0 0 127 0" result="hardAlpha"/>
<feOffset dy="4"/>
<feGaussianBlur stdDeviation="3"/>
<feComposite in2="hardAlpha" operator="out"/>
<feColorMatrix type="matrix" values="0 0 0 0 0.972549 0 0 0 0 0.34902 0 0 0 0 0.968627 0 0 0 0.4 0"/>
<feBlend mode="normal" in2="BackgroundImageFix" result="effect1_dropShadow_1_3"/>
<feBlend mode="normal" in="SourceGraphic" in2="effect1_dropShadow_1_3" result="shape"/>
<feColorMatrix in="SourceAlpha" type="matrix" values="0 0 0 0 0 0 0 0 0 0 0 0 0 0 0 0 0 0 127 0" result="hardAlpha"/>
<feOffset/>
<feGaussianBlur stdDeviation="4"/>
<feComposite in2="hardAlpha" operator="arithmetic" k2="-1" k3="1"/>
<feColorMatrix type="matrix" values="0 0 0 0 0.972549 0 0 0 0 0.34902 0 0 0 0 0.968627 0 0 0 0.4 0"/>
<feBlend mode="normal" in2="shape" result="effect2_innerShadow_1_3"/>
</filter>
</defs>
</svg>
