<svg width="257" height="44" viewBox="0 0 257 44" fill="none" xmlns="http://www.w3.org/2000/svg">
<path d="M68.35 31.4C66.95 31.4 65.65 31.1833 64.45 30.75C63.2667 30.3 62.2333 29.6667 61.35 28.85C60.4833 28.0333 59.8083 27.0667 59.325 25.95C58.8417 24.8333 58.6 23.6 58.6 22.25C58.6 20.9 58.8417 19.6667 59.325 18.55C59.8083 17.4333 60.4833 16.4667 61.35 15.65C62.2333 14.8333 63.2667 14.2083 64.45 13.775C65.65 13.325 66.95 13.1 68.35 13.1C70.0667 13.1 71.5833 13.4 72.9 14C74.2333 14.6 75.3333 15.4667 76.2 16.6L72.475 19.925C71.9583 19.275 71.3833 18.775 70.75 18.425C70.1333 18.0583 69.4333 17.875 68.65 17.875C68.0333 17.875 67.475 17.975 66.975 18.175C66.475 18.375 66.0417 18.6667 65.675 19.05C65.325 19.4333 65.05 19.9 64.85 20.45C64.65 20.9833 64.55 21.5833 64.55 22.25C64.55 22.9167 64.65 23.525 64.85 24.075C65.05 24.6083 65.325 25.0667 65.675 25.45C66.0417 25.8333 66.475 26.125 66.975 26.325C67.475 26.525 68.0333 26.625 68.65 26.625C69.4333 26.625 70.1333 26.45 70.75 26.1C71.3833 25.7333 71.9583 25.225 72.475 24.575L76.2 27.9C75.3333 29.0167 74.2333 29.8833 72.9 30.5C71.5833 31.1 70.0667 31.4 68.35 31.4ZM81.8355 31V16.8L83.1105 18.075H76.7105V13.5H92.7605V18.075H86.3605L87.6355 16.8V31H81.8355ZM95.3494 26.425C96.3827 26.6917 97.1911 26.7833 97.7744 26.7C98.3577 26.6 98.8744 26.2417 99.3244 25.625L100.174 24.425L100.674 23.875L105.749 13.5H111.449L104.424 26.675C103.658 28.1083 102.733 29.225 101.649 30.025C100.583 30.8083 99.3994 31.2583 98.0994 31.375C96.7994 31.4917 95.4244 31.2583 93.9744 30.675L95.3494 26.425ZM100.599 28.5L92.4494 13.5H98.6744L103.799 24.425L100.599 28.5ZM123.834 28.5V18.075H119.809L119.759 19.325C119.725 20.2417 119.667 21.1 119.584 21.9C119.5 22.7 119.384 23.4333 119.234 24.1C119.1 24.7667 118.925 25.3583 118.709 25.875C118.492 26.375 118.225 26.7917 117.909 27.125L111.684 26.425C112.234 26.425 112.684 26.2417 113.034 25.875C113.4 25.4917 113.692 24.9667 113.909 24.3C114.125 23.6167 114.284 22.8167 114.384 21.9C114.5 20.9667 114.584 19.9417 114.634 18.825L114.834 13.5H129.634V28.5H123.834ZM111.184 34.425V26.425H131.934V34.425H126.534V31H116.584V34.425H111.184ZM136.531 31.25C135.598 31.25 134.815 30.95 134.181 30.35C133.548 29.7333 133.231 28.95 133.231 28C133.231 27.0333 133.548 26.2583 134.181 25.675C134.815 25.0917 135.598 24.8 136.531 24.8C137.465 24.8 138.248 25.0917 138.881 25.675C139.515 26.2583 139.831 27.0333 139.831 28C139.831 28.95 139.515 29.7333 138.881 30.35C138.248 30.95 137.465 31.25 136.531 31.25ZM141.874 31V13.5H146.724L153.724 24.925H151.174L157.974 13.5H162.824L162.874 31H157.499L157.449 21.6H158.299L153.649 29.425H151.049L146.199 21.6H147.249V31H141.874ZM164.471 31L172.121 13.5H177.921L185.571 31H179.471L173.821 16.3H176.121L170.471 31H164.471ZM169.021 27.95L170.521 23.7H178.571L180.071 27.95H169.021ZM187.187 31V13.5H195.612C197.245 13.5 198.653 13.7667 199.837 14.3C201.037 14.8333 201.962 15.6 202.612 16.6C203.262 17.5833 203.587 18.75 203.587 20.1C203.587 21.45 203.262 22.6167 202.612 23.6C201.962 24.5833 201.037 25.35 199.837 25.9C198.653 26.4333 197.245 26.7 195.612 26.7H190.462L193.087 24.175V31H187.187ZM193.087 24.825L190.462 22.15H195.237C196.053 22.15 196.653 21.9667 197.037 21.6C197.437 21.2333 197.637 20.7333 197.637 20.1C197.637 19.4667 197.437 18.9667 197.037 18.6C196.653 18.2333 196.053 18.05 195.237 18.05H190.462L193.087 15.375V24.825ZM216.125 31L211.775 22.8L216.475 20.05L222.775 31H216.125ZM205.225 31V13.5H211.125V31H205.225ZM209.425 24.675V20.025H216.05V24.675H209.425ZM217.05 22.875L211.625 22.325L216.65 13.5H222.8L217.05 22.875ZM229.379 20H237.179V24.25H229.379V20ZM229.779 26.55H238.529V31H223.979V13.5H238.204V17.95H229.779V26.55ZM244.897 31V16.8L246.172 18.075H239.772V13.5H255.822V18.075H249.422L250.697 16.8V31H244.897Z" fill="#333333"/>
<path d="M40.3333 14.6667C40.3511 14.5389 40.3511 14.4094 40.3333 14.2817V14.135C40.3018 14.0327 40.2588 13.9343 40.205 13.8417C40.1812 13.7889 40.1504 13.7395 40.1133 13.695L39.93 13.4567L39.7833 13.3467L39.5633 13.1817L23.0633 4.015C22.7846 3.85409 22.4685 3.76938 22.1467 3.76938C21.8248 3.76938 21.5087 3.85409 21.23 4.015L4.72999 13.1817L4.56499 13.31L4.36332 13.4567C4.31006 13.5166 4.26674 13.5847 4.23499 13.6583C4.17633 13.7109 4.12678 13.7729 4.08832 13.8417C4.04072 13.9221 4.00375 14.0084 3.97832 14.0983C3.96807 14.159 3.96807 14.221 3.97832 14.2817C3.85227 14.3904 3.74672 14.5207 3.66666 14.6667V29.3333C3.66904 29.66 3.75867 29.9801 3.92628 30.2606C4.09389 30.541 4.33338 30.7715 4.61999 30.9283L21.12 40.095C21.1957 40.1392 21.2756 40.176 21.3583 40.205H21.5417C21.8428 40.2781 22.1571 40.2781 22.4583 40.205H22.6417L22.8983 40.095L39.3983 30.9283C39.6815 30.7692 39.9173 30.5376 40.0816 30.2573C40.2459 29.9771 40.3328 29.6582 40.3333 29.3333V14.6667ZM22 21.7617L9.27666 14.6667L14.3367 11.88L26.8583 19.03L22 21.7617ZM22 7.60833L34.7233 14.6667L30.6167 16.9583L18.095 9.79L22 7.60833ZM7.33332 17.7833L20.1667 24.97V35.3833L7.33332 28.2517V17.7833ZM23.8333 35.3833V24.97L29.3333 21.89V27.5L33 25.6667V19.8367L36.6667 17.8017V28.2517L23.8333 35.3833Z" fill="#333333"/>
</svg>
