<svg width="36" height="32" viewBox="0 0 36 32" fill="none" xmlns="http://www.w3.org/2000/svg">
<path d="M12.1911 28H15.1465V24H24.0127V21.3333H15.1465V18.6667H21.7962C25.8702 18.6667 29.1847 15.676 29.1847 12C29.1847 8.32401 25.8702 5.33334 21.7962 5.33334H13.6688C13.2768 5.33334 12.901 5.47382 12.6239 5.72387C12.3467 5.97392 12.1911 6.31305 12.1911 6.66668V16H7.75793V18.6667H12.1911V21.3333H7.75793V24H12.1911V28ZM15.1465 8.00001H21.7962C24.2403 8.00001 26.2293 9.79468 26.2293 12C26.2293 14.2053 24.2403 16 21.7962 16H15.1465V8.00001Z" fill="#676767"/>
</svg>
