<svg width="41" height="40" viewBox="0 0 41 40" fill="none" xmlns="http://www.w3.org/2000/svg">
<path d="M32.4976 28.3243C31.6975 27.5784 30.9188 26.8112 30.1623 26.0234C29.5268 25.3949 29.1442 24.9377 29.1442 24.9377L24.3608 22.715C26.2759 20.6013 27.3328 17.8804 27.3333 15.0625C27.3333 8.6469 21.9692 3.42499 15.375 3.42499C8.78082 3.42499 3.41666 8.6469 3.41666 15.0625C3.41666 21.4781 8.78082 26.7 15.375 26.7C18.3868 26.7 21.1321 25.6027 23.2384 23.8089L25.5225 28.4639C25.5225 28.4639 25.9923 28.8363 26.638 29.4548C27.2992 30.0582 28.1687 30.8745 29.0024 31.7274L31.3223 34.0416L32.3541 35.1156L35.9775 31.5894L34.8739 30.5853C34.2264 29.9668 33.362 29.1455 32.4976 28.3243ZM15.375 23.375C10.6651 23.375 6.83332 19.646 6.83332 15.0625C6.83332 10.479 10.6651 6.74999 15.375 6.74999C20.0849 6.74999 23.9167 10.479 23.9167 15.0625C23.9167 19.646 20.0849 23.375 15.375 23.375Z" fill="#828282"/>
</svg>
