<svg width="61" height="39" viewBox="0 0 61 39" fill="none" xmlns="http://www.w3.org/2000/svg">
<path d="M47.2343 11.3098C47.4754 10.5541 47.2343 10 46.0945 10H42.3186C41.3578 10 40.9188 10.4794 40.6777 11.0059C40.6777 11.0059 38.7579 15.4242 36.0375 18.2891C35.1594 19.1227 34.7582 19.386 34.2796 19.386C34.0403 19.386 33.6924 19.1227 33.6924 18.3671V11.3098C33.6924 10.403 33.4152 10 32.6146 10H26.6813C26.0822 10 25.7206 10.4193 25.7206 10.819C25.7206 11.677 27.0808 11.8753 27.2203 14.2933V19.5387C27.2203 20.6876 27.0016 20.8973 26.5195 20.8973C25.2402 20.8973 22.1272 16.4626 20.2797 11.3861C19.9199 10.3998 19.5566 10.0016 18.5924 10.0016H14.8182C13.7387 10.0016 13.5234 10.481 13.5234 11.0075C13.5234 11.9533 14.8027 16.6332 19.4825 22.8229C22.6024 27.0495 26.9947 29.3407 30.9961 29.3407C33.3946 29.3407 33.6907 28.8321 33.6907 27.9546V24.7599C33.6907 23.7426 33.9197 23.5379 34.679 23.5379C35.2369 23.5379 36.1976 23.8044 38.4377 25.8405C40.9963 28.2552 41.4198 29.3391 42.8575 29.3391H46.6317C47.7095 29.3391 48.2484 28.8305 47.9385 27.8262C47.5993 26.8269 46.3769 25.3725 44.7549 23.6516C43.8734 22.6701 42.5562 21.6139 42.155 21.0857C41.5954 20.4049 41.7573 20.1042 42.155 19.4998C42.1568 19.5014 46.7556 13.3881 47.2343 11.3098Z" fill="#676767"/>
</svg>
