<svg width="61" height="39" viewBox="0 0 61 39" fill="none" xmlns="http://www.w3.org/2000/svg">
<path d="M46.7109 11.3098C46.9519 10.5541 46.7109 10 45.571 10H41.7952C40.8344 10 40.3954 10.4794 40.1543 11.0059C40.1543 11.0059 38.2345 15.4242 35.5141 18.2891C34.636 19.1227 34.2348 19.386 33.7561 19.386C33.5168 19.386 33.169 19.1227 33.169 18.3671V11.3098C33.169 10.403 32.8918 10 32.0912 10H26.1579C25.5587 10 25.1971 10.4193 25.1971 10.819C25.1971 11.677 26.5573 11.8753 26.6968 14.2933V19.5387C26.6968 20.6876 26.4781 20.8973 25.996 20.8973C24.7168 20.8973 21.6038 16.4626 19.7563 11.3861C19.3964 10.3998 19.0331 10.0016 18.0689 10.0016H14.2948C13.2152 10.0016 13 10.481 13 11.0075C13 11.9533 14.2793 16.6332 18.9591 22.8229C22.079 27.0495 26.4713 29.3407 30.4727 29.3407C32.8711 29.3407 33.1673 28.8321 33.1673 27.9546V24.7599C33.1673 23.7426 33.3963 23.5379 34.1556 23.5379C34.7135 23.5379 35.6742 23.8044 37.9143 25.8405C40.4728 28.2552 40.8964 29.3391 42.3341 29.3391H46.1082C47.1861 29.3391 47.725 28.8305 47.4151 27.8262C47.0759 26.8269 45.8534 25.3725 44.2315 23.6516C43.3499 22.6701 42.0328 21.6139 41.6316 21.0857C41.072 20.4049 41.2339 20.1042 41.6316 19.4998C41.6333 19.5014 46.2322 13.3881 46.7109 11.3098Z" fill="white"/>
</svg>
