<svg width="39" height="39" viewBox="0 0 39 39" fill="none" xmlns="http://www.w3.org/2000/svg">
<path fill-rule="evenodd" clip-rule="evenodd" d="M32.0461 7.96521C30.4778 6.38663 28.6119 5.13493 26.5564 4.28264C24.501 3.43035 22.2968 2.9944 20.0716 3.00005C10.741 3.00005 3.1452 10.5939 3.14143 19.9284C3.14143 22.9116 3.92024 25.8232 5.40055 28.3916L3 37.1622L11.9742 34.8069C14.4566 36.1582 17.2377 36.8667 20.0641 36.868H20.0716C29.4004 36.868 36.9962 29.2741 36.9999 19.9397C37.0063 17.7154 36.5718 15.5119 35.7215 13.4566C34.8713 11.4013 33.622 9.53485 32.0461 7.96521ZM20.0716 34.0111H20.066C17.5457 34.0113 15.0718 33.3333 12.9039 32.048L12.391 31.7425L7.06566 33.1399L8.48562 27.9484L8.15185 27.4166C6.7428 25.1734 5.99688 22.5774 6.00022 19.9284C6.00399 12.1704 12.3156 5.85884 20.0773 5.85884C21.9258 5.85473 23.7567 6.21728 25.4642 6.92551C27.1716 7.63374 28.7217 8.67358 30.0246 9.98484C31.3344 11.2899 32.3727 12.8415 33.0793 14.5502C33.7858 16.2589 34.1468 18.0907 34.1411 19.9397C34.1374 27.6976 27.8258 34.0111 20.0716 34.0111ZM27.79 23.4717C27.3657 23.2586 25.2876 22.2365 24.8991 22.0951C24.5125 21.9536 24.2316 21.8839 23.9487 22.3063C23.6658 22.7287 22.855 23.681 22.6079 23.9638C22.3609 24.2467 22.1139 24.2807 21.6915 24.0695C21.2691 23.8582 19.9057 23.4113 18.2896 21.9706C17.0318 20.8486 16.1832 19.4645 15.9362 19.0402C15.6892 18.6159 15.9098 18.3877 16.1229 18.1765C16.3133 17.9879 16.5453 17.6824 16.7565 17.4354C16.9677 17.1884 17.0375 17.013 17.1789 16.7301C17.3203 16.4473 17.2506 16.2002 17.1431 15.989C17.0375 15.776 16.1908 13.6941 15.8381 12.8474C15.4968 12.0271 15.148 12.1365 14.8877 12.1252C14.6182 12.1141 14.3485 12.1091 14.0787 12.1101C13.8642 12.1155 13.6532 12.1653 13.4588 12.2561C13.2644 12.347 13.0909 12.477 12.9492 12.6381C12.5607 13.0624 11.4689 14.0844 11.4689 16.1663C11.4689 18.2482 12.985 20.2603 13.1962 20.5431C13.4074 20.826 16.1795 25.0972 20.4224 26.9301C21.4331 27.3657 22.2214 27.626 22.8342 27.8221C23.8469 28.1445 24.769 28.0974 25.4988 27.9899C26.3115 27.8692 28.0012 26.9678 28.3538 25.9797C28.7064 24.9916 28.7064 24.1449 28.6008 23.9676C28.4952 23.7904 28.2105 23.6829 27.79 23.4717Z" fill="white"/>
</svg>
