<svg width="39" height="39" viewBox="0 0 39 39" fill="none" xmlns="http://www.w3.org/2000/svg">
<path d="M19.5699 11.2531C17.4246 11.2553 15.3677 12.1083 13.8506 13.6252C12.3335 15.142 11.48 17.1987 11.4774 19.344C11.4758 20.8715 11.9048 22.36 12.714 23.6486L12.9058 23.9541L12.0884 26.9392L15.1515 26.1365L15.4457 26.312C16.6929 27.0502 18.1158 27.4392 19.565 27.4381H19.5667C21.7113 27.4351 23.7673 26.5819 25.2839 25.0656C26.8005 23.5493 27.6541 21.4935 27.6575 19.3489C27.6613 18.2858 27.4541 17.2326 27.0479 16.2502C26.6418 15.2678 26.0448 14.3757 25.2915 13.6256C24.5422 12.8714 23.6506 12.2733 22.6685 11.8661C21.6863 11.4588 20.6331 11.2505 19.5699 11.2531ZM24.3279 22.8199C24.1248 23.3886 23.153 23.9054 22.6867 23.9752C22.1754 24.0634 21.6506 24.0306 21.1543 23.8794C20.6835 23.7336 20.2208 23.5627 19.7682 23.3675C17.3274 22.3145 15.7349 19.8591 15.6114 19.695C15.4912 19.5325 14.6202 18.3755 14.6202 17.1795C14.6202 15.9819 15.2474 15.3936 15.47 15.1499C15.5518 15.0575 15.6517 14.983 15.7635 14.931C15.8754 14.879 15.9967 14.8506 16.12 14.8476C16.2825 14.8476 16.4434 14.8492 16.5864 14.8557C16.7359 14.8622 16.9358 14.7989 17.1324 15.2734C17.3355 15.7609 17.823 16.9569 17.8832 17.0787C17.9433 17.199 17.9839 17.342 17.9043 17.5045C17.823 17.6686 17.784 17.7677 17.6605 17.9107C17.5403 18.0537 17.4054 18.2276 17.2965 18.3381C17.1747 18.4584 17.0479 18.59 17.1893 18.8337C17.3323 19.0759 17.8198 19.8737 18.5413 20.5189C19.4708 21.3476 20.2557 21.6027 20.4978 21.7262C20.7415 21.8465 20.8829 21.8286 21.0259 21.6645C21.1673 21.5004 21.6337 20.9544 21.7962 20.7122C21.9587 20.4685 22.1195 20.5091 22.3438 20.5887C22.5664 20.6716 23.7624 21.2582 24.0045 21.3801C24.245 21.5004 24.4092 21.5621 24.4709 21.6645C24.5294 21.7652 24.5294 22.2511 24.3279 22.8199Z" fill="#676767"/>
<path d="M32.5 4.875H6.5C6.06902 4.875 5.6557 5.0462 5.35095 5.35095C5.0462 5.6557 4.875 6.06902 4.875 6.5V32.5C4.875 32.931 5.0462 33.3443 5.35095 33.649C5.6557 33.9538 6.06902 34.125 6.5 34.125H32.5C32.931 34.125 33.3443 33.9538 33.649 33.649C33.9538 33.3443 34.125 32.931 34.125 32.5V6.5C34.125 6.06902 33.9538 5.6557 33.649 5.35095C33.3443 5.0462 32.931 4.875 32.5 4.875ZM19.565 29.081H19.5618C17.9368 29.0812 16.3378 28.6739 14.911 27.8964L9.75 29.25L11.1312 24.206C10.2781 22.726 9.8294 21.0475 9.83024 19.3392C9.83108 17.6309 10.2814 15.9529 11.136 14.4737C11.9906 12.9946 13.2194 11.7663 14.6989 10.9123C16.1785 10.0584 17.8567 9.60873 19.565 9.60863C20.8447 9.60509 22.1124 9.85563 23.2946 10.3457C24.4768 10.8359 25.5499 11.5558 26.4517 12.4637C27.3578 13.3662 28.0758 14.4394 28.5642 15.6213C29.0526 16.8031 29.3017 18.0701 29.2971 19.3489C29.2933 21.9288 28.2667 24.402 26.4424 26.2263C24.6181 28.0505 22.1449 29.0771 19.565 29.081Z" fill="#676767"/>
</svg>
