<svg width="277" height="41" viewBox="0 0 277 41" fill="none" xmlns="http://www.w3.org/2000/svg">
<g clip-path="url(#clip0_23_3658)">
<path d="M29.358 0.615601H0.612374L0 7.92153L0.612374 8.66163L8.41279 8.29158H10.2565L10.5643 28.5L10.3154 33.769L10.0109 40.2301H19.9595L19.7139 31.719L19.5927 27.5175L19.9006 8.29158H21.6198L29.358 8.66163L29.9114 1.35242L29.358 0.615601Z" fill="url(#paint0_linear_23_3658)"/>
<path d="M57.917 24.567C58.7037 24.0707 59.4494 23.5122 60.147 22.8969C61.3287 21.8588 62.3379 20.6396 63.1369 19.2848C64.355 17.2427 64.9924 14.9068 64.9806 12.5291C64.9806 8.68124 63.8235 5.72306 61.5093 3.65452C59.1974 1.58816 55.891 0.554436 51.5902 0.553345L34.8857 0.615565L35.4359 28.2871L35.4392 28.4999L34.8857 40.23H44.8966L44.5266 27.5175H49.7498C51.5509 31.3228 53.6794 35.5199 56.1355 40.1089L57.1179 40.9046C60.4806 40.6831 63.8027 40.044 67.0076 39.002L67.1321 37.8951C64.3878 34.2929 61.3161 29.8502 57.917 24.567ZM44.9588 7.86256L48.2761 7.67589C50.4047 7.76104 51.97 8.26316 52.9721 9.18227C53.9774 10.1025 54.4796 11.5248 54.4785 13.4493C54.4785 16.9303 53.0049 19.203 50.0576 20.2673L44.7132 20.0216L44.9588 7.86256Z" fill="url(#paint1_linear_23_3658)"/>
<path d="M88.4442 32.4919L81.9341 32.4296L81.8096 27.5175L81.8718 24.0758H87.8286L94.8922 24.2592L95.5078 16.891L94.9544 16.1542L90.4516 16.2819L88.5065 16.3376H82.0552L82.1797 8.41602L88.9354 8.3538L98.5763 8.72057L99.2541 1.35242L98.7007 0.615601H72.1655L72.5552 20.1887L72.719 28.5L72.1655 40.2301H98.3307L98.9463 32.8586L98.3929 32.1218L88.4442 32.4919Z" fill="url(#paint2_linear_23_3658)"/>
<path d="M127.286 8.24574L125.049 0.615601H113.073L109.35 12.159L100.295 40.2301H110.064L111.168 33.9033L111.659 32.3085L117.802 32.1218L124.925 32.2463L125.478 34.5189L126.523 40.2301H136.658L127.286 8.24574ZM118.477 24.8748L113.931 24.7537L118.392 10.1844L118.539 9.70299H119.151L119.23 10.001L123.022 24.7537L118.477 24.8748Z" fill="url(#paint3_linear_23_3658)"/>
<path d="M165.433 22.7267C164.454 21.3129 163.2 20.1112 161.746 19.1932C159.952 18.1122 158.097 17.1379 156.188 16.2754C154.528 15.5709 152.934 14.7183 151.427 13.7277C150.425 13.0105 149.924 12.1405 149.924 11.1177C149.931 10.6585 150.042 10.2068 150.25 9.79713C150.458 9.38743 150.756 9.03047 151.122 8.75337C151.921 8.0755 152.996 7.73711 154.345 7.7382C156.804 7.7382 159.712 8.82323 163.069 10.9933L164.542 10.4399L166.14 2.08929C164.702 1.53054 163.226 1.07635 161.723 0.730275C159.667 0.248613 157.563 0.00359615 155.452 5.27571e-06C152.709 -0.0521466 149.991 0.514215 147.497 1.65702C145.889 2.40322 144.442 3.45798 143.24 4.76147C142.822 5.22343 142.439 5.71601 142.094 6.2351C140.807 8.17107 140.132 10.4499 140.159 12.7747C140.159 14.9033 140.671 16.7055 141.694 18.1813C142.657 19.5971 143.901 20.7989 145.349 21.7115C147.101 22.7734 148.917 23.7271 150.785 24.5671C152.457 25.2776 154.06 26.1415 155.573 27.1476C156.598 27.8844 157.11 28.8057 157.109 29.9114C157.106 30.3842 156.997 30.8503 156.79 31.2754C156.583 31.7005 156.284 32.0737 155.913 32.3675C155.114 33.065 153.937 33.4132 152.38 33.4121C150.906 33.4121 149.157 33.0126 147.131 32.2136C145.088 31.408 143.19 30.2778 141.508 28.8668L140.466 29.4824L139.052 38.3864C142.948 39.9952 147.12 40.8305 151.335 40.8458C154.446 40.8458 157.191 40.2825 159.568 39.156C161.784 38.1617 163.685 36.5781 165.063 34.5779C166.347 32.6747 167.022 30.4259 166.998 28.13C166.998 26.0014 166.477 24.2003 165.433 22.7267Z" fill="url(#paint4_linear_23_3658)"/>
<path d="M194.945 0.615601L195.374 25.4905C195.385 26.0613 195.36 26.6323 195.299 27.1999C195.115 28.8504 194.598 30.133 193.746 31.0477C192.62 32.2561 190.869 32.8597 188.494 32.8586C186.273 32.8586 184.611 32.303 183.506 31.1918C183.446 31.1372 183.389 31.0793 183.336 31.0182C182.229 29.7902 181.696 27.8658 181.738 25.2449L182.17 0.615601H172.218L172.464 20.5751L172.343 26.5941C172.258 29.6789 172.818 32.2823 174.023 34.4043C174.611 35.4352 175.36 36.365 176.243 37.1584C178.964 39.6144 182.905 40.8435 188.065 40.8457C193.389 40.8457 197.495 39.5959 200.381 37.0961C203.266 34.6008 204.688 31.039 204.648 26.4107L204.674 24.0234L204.71 20.6996L205.08 0.615601H194.945Z" fill="url(#paint5_linear_23_3658)"/>
<path d="M235.666 24.567C237.804 23.25 239.595 21.4384 240.886 19.2848C242.103 17.2421 242.74 14.9066 242.73 12.5291C242.73 12.0575 242.714 11.599 242.678 11.1537C242.429 7.96734 241.289 5.46763 239.259 3.65452C236.947 1.58816 233.64 0.554436 229.34 0.553345L212.632 0.615565L213.041 21.1907L213.185 28.4999L212.632 40.23H222.646L222.276 27.5175H227.496C229.297 31.3228 231.427 35.5199 233.885 40.1089L234.867 40.9046C238.23 40.6828 241.552 40.0437 244.757 39.002L244.878 37.8951C242.134 34.2929 239.063 29.8502 235.666 24.567ZM227.804 20.2673L222.459 20.0216L222.502 17.988L222.705 7.86256L226.022 7.67589C228.151 7.76104 229.717 8.26316 230.721 9.18227C231.724 10.1025 232.226 11.5248 232.228 13.4493C232.229 13.8728 232.205 14.296 232.156 14.7166C231.828 17.487 230.378 19.3372 227.804 20.2673Z" fill="url(#paint6_linear_23_3658)"/>
<path d="M266.19 32.4919L259.68 32.4296L259.559 27.5175L259.621 24.0758H265.578L272.641 24.2592L273.254 16.891L272.703 16.1542L266.252 16.3376H259.804L259.925 8.41602L266.681 8.3538L276.325 8.72057L277 1.35242L276.45 0.615601H249.915L250.075 8.64853L250.468 28.5L249.915 40.2301H276.08L276.695 32.8586L276.142 32.1218L266.19 32.4919Z" fill="url(#paint7_linear_23_3658)"/>
<g style="mix-blend-mode:screen" opacity="0.36">
<path style="mix-blend-mode:screen" opacity="0.36" d="M19.7138 31.719L19.9594 40.23H10.0107L10.3153 33.769L19.7138 31.719Z" fill="url(#paint8_linear_23_3658)"/>
<path style="mix-blend-mode:screen" opacity="0.36" d="M57.917 24.567C61.3161 29.8491 64.3878 34.2918 67.1321 37.8951L67.0076 39.002C63.8027 40.044 60.4806 40.6831 57.1179 40.9046L56.1355 40.1089C53.6794 35.521 51.5509 31.3238 49.7498 27.5175H44.5266L44.8966 40.23H34.8857L35.4392 28.4999L35.4359 28.2871L60.147 22.8969C59.4494 23.5122 58.7037 24.0707 57.917 24.567Z" fill="url(#paint9_linear_23_3658)"/>
<path style="mix-blend-mode:screen" opacity="0.36" d="M98.3924 32.1218L98.9458 32.8586L98.3302 40.23H72.165L72.7185 28.4999L72.5547 20.1886L90.4512 16.2819L94.9539 16.1542L95.5073 16.891L94.8917 24.2591L87.8281 24.0758H81.8714L81.8091 27.5175L81.9336 32.4296L88.4437 32.4918L98.3924 32.1218Z" fill="url(#paint10_linear_23_3658)"/>
<path style="mix-blend-mode:screen" opacity="0.36" d="M127.286 8.24573L136.658 40.2301H126.523L125.478 34.5189L124.925 32.2463L117.802 32.1218L111.659 32.3085L111.168 33.9033L110.064 40.2301H100.295L109.35 12.159L118.392 10.1844L113.931 24.7537L118.477 24.8748L123.022 24.7537L119.23 10.001L127.286 8.24573Z" fill="url(#paint11_linear_23_3658)"/>
<path style="mix-blend-mode:screen" opacity="0.36" d="M165.433 22.7266C166.478 24.2003 166.999 26.0014 166.998 28.1299C167.022 30.4258 166.347 32.6746 165.063 34.5779C163.685 36.5781 161.784 38.1616 159.568 39.156C157.191 40.2825 154.446 40.8457 151.335 40.8457C147.12 40.8305 142.948 39.9952 139.052 38.3864L140.466 29.4824L141.508 28.8667C143.19 30.2778 145.088 31.4079 147.131 32.2135C149.154 33.0126 150.904 33.4121 152.38 33.4121C153.935 33.4121 155.113 33.0639 155.913 32.3674C156.284 32.0736 156.583 31.7004 156.79 31.2753C156.997 30.8503 157.106 30.3841 157.109 29.9114C157.109 28.8045 156.597 27.8832 155.573 27.1475C154.06 26.1415 152.457 25.2776 150.785 24.567C148.917 23.727 147.101 22.7734 145.349 21.7115C143.901 20.7989 142.657 19.597 141.694 18.1813C140.669 16.7077 140.158 14.9055 140.159 12.7747C140.132 10.4499 140.807 8.17102 142.094 6.23505C142.439 5.71596 142.822 5.22338 143.24 4.76142L161.723 0.730225C163.226 1.0763 164.702 1.53049 166.14 2.08924L164.542 10.4398L163.069 10.9932C159.709 8.82537 156.801 7.74034 154.345 7.73815C152.996 7.73815 151.921 8.07655 151.122 8.75332C150.756 9.03042 150.458 9.38738 150.25 9.79708C150.042 10.2068 149.931 10.6584 149.924 11.1177C149.924 12.1394 150.425 13.0094 151.427 13.7276C152.934 14.7182 154.528 15.5709 156.188 16.2754C158.097 17.1378 159.952 18.1121 161.746 19.1932C163.2 20.1111 164.454 21.3129 165.433 22.7266Z" fill="url(#paint12_linear_23_3658)"/>
<path style="mix-blend-mode:screen" opacity="0.36" d="M183.336 31.0182C183.389 31.0793 183.446 31.1373 183.506 31.1918L174.023 34.4043C172.821 32.2823 172.261 29.6789 172.343 26.5941L172.464 20.5751L172.218 0.615601H182.17L181.738 25.2449C181.699 27.8647 182.231 29.7891 183.336 31.0182Z" fill="url(#paint13_linear_23_3658)"/>
<path style="mix-blend-mode:screen" opacity="0.36" d="M194.945 0.615601H205.08L204.71 20.6996L204.674 24.0234L195.298 27.1999C195.36 26.6323 195.385 26.0613 195.374 25.4905L194.945 0.615601Z" fill="url(#paint14_linear_23_3658)"/>
<path style="mix-blend-mode:screen" opacity="0.36" d="M232.156 14.7166C232.205 14.296 232.229 13.8728 232.228 13.4493C232.228 11.527 231.726 10.1047 230.721 9.18227C229.719 8.26207 228.153 7.75994 226.022 7.67589L222.705 7.86255L222.502 17.988L213.041 21.1907L212.632 0.615565L229.34 0.553345C233.639 0.553345 236.946 1.58707 239.259 3.65452C241.286 5.46872 242.425 7.96843 242.678 11.1537L232.156 14.7166Z" fill="url(#paint15_linear_23_3658)"/>
<path style="mix-blend-mode:screen" opacity="0.36" d="M273.797 0.615601L250.075 8.64853L249.915 0.615601H273.797Z" fill="url(#paint16_linear_23_3658)"/>
</g>
</g>
<defs>
<linearGradient id="paint0_linear_23_3658" x1="0" y1="20.4228" x2="29.9114" y2="20.4228" gradientUnits="userSpaceOnUse">
<stop stop-color="#FFD152"/>
<stop offset="1" stop-color="#DE731F"/>
</linearGradient>
<linearGradient id="paint1_linear_23_3658" x1="34.8857" y1="20.729" x2="67.1321" y2="20.729" gradientUnits="userSpaceOnUse">
<stop stop-color="#FFD152"/>
<stop offset="1" stop-color="#DE731F"/>
</linearGradient>
<linearGradient id="paint2_linear_23_3658" x1="72.1655" y1="20.4228" x2="99.2541" y2="20.4228" gradientUnits="userSpaceOnUse">
<stop stop-color="#FFD152"/>
<stop offset="1" stop-color="#DE731F"/>
</linearGradient>
<linearGradient id="paint3_linear_23_3658" x1="100.295" y1="20.4228" x2="136.658" y2="20.4228" gradientUnits="userSpaceOnUse">
<stop stop-color="#FFD152"/>
<stop offset="1" stop-color="#DE731F"/>
</linearGradient>
<linearGradient id="paint4_linear_23_3658" x1="139.052" y1="20.4229" x2="166.998" y2="20.4229" gradientUnits="userSpaceOnUse">
<stop stop-color="#FFD152"/>
<stop offset="1" stop-color="#DE731F"/>
</linearGradient>
<linearGradient id="paint5_linear_23_3658" x1="172.218" y1="20.7307" x2="205.08" y2="20.7307" gradientUnits="userSpaceOnUse">
<stop stop-color="#FFD152"/>
<stop offset="1" stop-color="#DE731F"/>
</linearGradient>
<linearGradient id="paint6_linear_23_3658" x1="212.632" y1="20.729" x2="244.878" y2="20.729" gradientUnits="userSpaceOnUse">
<stop stop-color="#FFD152"/>
<stop offset="1" stop-color="#DE731F"/>
</linearGradient>
<linearGradient id="paint7_linear_23_3658" x1="249.915" y1="20.4228" x2="277" y2="20.4228" gradientUnits="userSpaceOnUse">
<stop stop-color="#FFD152"/>
<stop offset="1" stop-color="#DE731F"/>
</linearGradient>
<linearGradient id="paint8_linear_23_3658" x1="10.0107" y1="35.9745" x2="19.9594" y2="35.9745" gradientUnits="userSpaceOnUse">
<stop stop-color="#C4936E"/>
<stop offset="0.10675" stop-color="#B98A68"/>
<stop offset="0.29687" stop-color="#9A7456"/>
<stop offset="0.5483" stop-color="#694F3B"/>
<stop offset="0.84801" stop-color="#251C15"/>
<stop offset="1"/>
</linearGradient>
<linearGradient id="paint9_linear_23_3658" x1="34.8857" y1="31.9007" x2="67.1321" y2="31.9007" gradientUnits="userSpaceOnUse">
<stop stop-color="#C4936E"/>
<stop offset="0.10675" stop-color="#B98A68"/>
<stop offset="0.29687" stop-color="#9A7456"/>
<stop offset="0.5483" stop-color="#694F3B"/>
<stop offset="0.84801" stop-color="#251C15"/>
<stop offset="1"/>
</linearGradient>
<linearGradient id="paint10_linear_23_3658" x1="72.165" y1="28.1921" x2="98.9458" y2="28.1921" gradientUnits="userSpaceOnUse">
<stop stop-color="#C4936E"/>
<stop offset="0.10675" stop-color="#B98A68"/>
<stop offset="0.29687" stop-color="#9A7456"/>
<stop offset="0.5483" stop-color="#694F3B"/>
<stop offset="0.84801" stop-color="#251C15"/>
<stop offset="1"/>
</linearGradient>
<linearGradient id="paint11_linear_23_3658" x1="100.295" y1="24.2379" x2="136.658" y2="24.2379" gradientUnits="userSpaceOnUse">
<stop stop-color="#C4936E"/>
<stop offset="0.10675" stop-color="#B98A68"/>
<stop offset="0.29687" stop-color="#9A7456"/>
<stop offset="0.5483" stop-color="#694F3B"/>
<stop offset="0.84801" stop-color="#251C15"/>
<stop offset="1"/>
</linearGradient>
<linearGradient id="paint12_linear_23_3658" x1="139.052" y1="20.788" x2="166.998" y2="20.788" gradientUnits="userSpaceOnUse">
<stop stop-color="#C4936E"/>
<stop offset="0.10675" stop-color="#B98A68"/>
<stop offset="0.29687" stop-color="#9A7456"/>
<stop offset="0.5483" stop-color="#694F3B"/>
<stop offset="0.84801" stop-color="#251C15"/>
<stop offset="1"/>
</linearGradient>
<linearGradient id="paint13_linear_23_3658" x1="172.218" y1="17.51" x2="183.506" y2="17.51" gradientUnits="userSpaceOnUse">
<stop stop-color="#C4936E"/>
<stop offset="0.10675" stop-color="#B98A68"/>
<stop offset="0.29687" stop-color="#9A7456"/>
<stop offset="0.5483" stop-color="#694F3B"/>
<stop offset="0.84801" stop-color="#251C15"/>
<stop offset="1"/>
</linearGradient>
<linearGradient id="paint14_linear_23_3658" x1="194.945" y1="13.9077" x2="205.08" y2="13.9077" gradientUnits="userSpaceOnUse">
<stop stop-color="#C4936E"/>
<stop offset="0.10675" stop-color="#B98A68"/>
<stop offset="0.29687" stop-color="#9A7456"/>
<stop offset="0.5483" stop-color="#694F3B"/>
<stop offset="0.84801" stop-color="#251C15"/>
<stop offset="1"/>
</linearGradient>
<linearGradient id="paint15_linear_23_3658" x1="212.632" y1="10.872" x2="242.678" y2="10.872" gradientUnits="userSpaceOnUse">
<stop stop-color="#C4936E"/>
<stop offset="0.10675" stop-color="#B98A68"/>
<stop offset="0.29687" stop-color="#9A7456"/>
<stop offset="0.5483" stop-color="#694F3B"/>
<stop offset="0.84801" stop-color="#251C15"/>
<stop offset="1"/>
</linearGradient>
<linearGradient id="paint16_linear_23_3658" x1="249.915" y1="4.63206" x2="273.797" y2="4.63206" gradientUnits="userSpaceOnUse">
<stop stop-color="#C4936E"/>
<stop offset="0.10675" stop-color="#B98A68"/>
<stop offset="0.29687" stop-color="#9A7456"/>
<stop offset="0.5483" stop-color="#694F3B"/>
<stop offset="0.84801" stop-color="#251C15"/>
<stop offset="1"/>
</linearGradient>
<clipPath id="clip0_23_3658">
<rect width="277" height="40.9047" fill="white"/>
</clipPath>
</defs>
</svg>
