<svg width="61" height="39" viewBox="0 0 61 39" fill="none" xmlns="http://www.w3.org/2000/svg">
<circle cx="3" cy="3" r="3" fill="#EB6D74"/>
<circle cx="14" cy="3" r="3" fill="#EB6D74"/>
<circle cx="25" cy="3" r="3" fill="#EB6D74"/>
<circle cx="36" cy="3" r="3" fill="#EB6D74"/>
<circle cx="47" cy="3" r="3" fill="#EB6D74"/>
<circle cx="58" cy="3" r="3" fill="#EB6D74"/>
<circle cx="3" cy="14" r="3" fill="#EB6D74"/>
<circle cx="14" cy="14" r="3" fill="#EB6D74"/>
<circle cx="25" cy="14" r="3" fill="#EB6D74"/>
<circle cx="36" cy="14" r="3" fill="#EB6D74"/>
<circle cx="47" cy="14" r="3" fill="#EB6D74"/>
<circle cx="58" cy="14" r="3" fill="#EB6D74"/>
<circle cx="3" cy="25" r="3" fill="#EB6D74"/>
<circle cx="14" cy="25" r="3" fill="#EB6D74"/>
<circle cx="25" cy="25" r="3" fill="#EB6D74"/>
<circle cx="36" cy="25" r="3" fill="#EB6D74"/>
<circle cx="47" cy="25" r="3" fill="#EB6D74"/>
<circle cx="58" cy="25" r="3" fill="#EB6D74"/>
<circle cx="3" cy="36" r="3" fill="#EB6D74"/>
<circle cx="14" cy="36" r="3" fill="#EB6D74"/>
<circle cx="25" cy="36" r="3" fill="#EB6D74"/>
<circle cx="36" cy="36" r="3" fill="#EB6D74"/>
<circle cx="47" cy="36" r="3" fill="#EB6D74"/>
<circle cx="58" cy="36" r="3" fill="#EB6D74"/>
</svg>
