<svg width="71" height="70" viewBox="0 0 71 70" fill="none" xmlns="http://www.w3.org/2000/svg">
<g clip-path="url(#clip0_741:42061)">
<path d="M53.1421 16.2095L49.5984 19.6877L49.5109 19.7642L45.6609 23.6252L45.5734 23.7127L41.1984 28.0877L41.1109 28.1642L37.6874 31.5767L37.5999 31.6642L32.8531 36.3674L29.7031 39.4955C29.4994 39.7004 29.385 39.9776 29.385 40.2666C29.385 40.5555 29.4994 40.8327 29.7031 41.0377C29.8033 41.155 29.9273 41.2497 30.0668 41.3157C30.2063 41.3817 30.3582 41.4174 30.5124 41.4205C30.6681 41.429 30.8238 41.4041 30.969 41.3475C31.1143 41.2909 31.2457 41.2039 31.3546 41.0924L34.2968 38.1502L34.3734 38.0627L39.1421 33.2611L42.6749 29.6955L42.7624 29.608L47.1374 25.233L47.2249 25.1455L51.0531 21.2955L51.1406 21.197L54.6624 17.5002L63.7187 8.38923L63.7734 8.3236L64.6265 7.45954C64.7982 7.28207 64.8943 7.04478 64.8943 6.79782C64.8943 6.55086 64.7982 6.31357 64.6265 6.1361C64.4509 5.96506 64.2154 5.86935 63.9703 5.86935C63.7251 5.86935 63.4896 5.96506 63.314 6.1361L62.8437 6.61735L53.2187 16.1439L53.1421 16.2095Z" fill="#B6CC43"/>
<path d="M31.5187 36.0938C30.8361 35.7653 30.0887 35.5934 29.3312 35.5907C28.2755 35.5907 27.2435 35.9037 26.3658 36.4902C25.4881 37.0767 24.8039 37.9103 24.3999 38.8856C23.996 39.8609 23.8903 40.9341 24.0962 41.9695C24.3022 43.0049 24.8105 43.9559 25.557 44.7024C26.3034 45.4488 27.2545 45.9572 28.2899 46.1631C29.3252 46.3691 30.3984 46.2634 31.3737 45.8594C32.349 45.4554 33.1826 44.7713 33.7691 43.8935C34.3556 43.0158 34.6687 41.9838 34.6687 40.9282C34.6529 40.4295 34.5645 39.9357 34.4062 39.4626L32.0108 41.8688C31.8044 42.0795 31.5575 42.2462 31.2849 42.359C31.0124 42.4718 30.7198 42.5283 30.4249 42.5251H30.3593C29.913 42.5332 29.4749 42.4045 29.1039 42.1565C28.7328 41.9084 28.4465 41.5527 28.2834 41.1372C28.1203 40.7218 28.0882 40.2663 28.1914 39.8321C28.2947 39.3978 28.5282 39.0055 28.8608 38.7079L31.5187 36.0938Z" fill="#B6CC43"/>
<path d="M36.364 31.2921C33.9564 29.5301 30.9774 28.7311 28.0112 29.0518C25.045 29.3725 22.3056 30.7898 20.3302 33.0256C18.3549 35.2615 17.286 38.1547 17.3333 41.1378C17.3806 44.1209 18.5406 46.9787 20.5858 49.1508C22.631 51.323 25.414 52.6527 28.3888 52.8792C31.3637 53.1058 34.3159 52.2128 36.6664 50.3754C39.017 48.538 40.5964 45.8888 41.0949 42.9473C41.5933 40.0057 40.9749 36.9841 39.3609 34.4749L35.2812 38.5874C35.5798 39.3353 35.7321 40.1336 35.7296 40.9389C35.7342 42.355 35.2737 43.7334 34.4188 44.8624C33.5639 45.9913 32.362 46.8082 30.9977 47.1877C29.6334 47.5671 28.1822 47.4881 26.8672 46.9627C25.5522 46.4372 24.4461 45.4945 23.7189 44.2794C22.9917 43.0643 22.6837 41.644 22.8421 40.2368C23.0005 38.8296 23.6167 37.5134 24.5958 36.4904C25.575 35.4674 26.863 34.7942 28.2619 34.5743C29.6608 34.3545 31.0932 34.6 32.339 35.2733L36.364 31.2921Z" fill="#B6CC43"/>
<path d="M39.9515 27.7483C36.5992 25.0323 32.3384 23.6946 28.0352 24.0074C23.732 24.3201 19.7094 26.2596 16.785 29.4318C13.8605 32.604 12.2537 36.7707 12.2912 41.085C12.3286 45.3994 14.0075 49.5376 16.9866 52.6585C19.9656 55.7795 24.0213 57.6489 28.3293 57.8869C32.6372 58.1248 36.8741 56.7135 40.1788 53.9396C43.4835 51.1658 45.608 47.2377 46.1204 42.9537C46.6328 38.6697 45.4947 34.3514 42.9374 30.8764L40.1593 33.6764C41.5976 35.8244 42.3595 38.3539 42.3468 40.9389C42.3567 43.8998 41.3651 46.777 39.5332 49.1031C37.7013 51.4292 35.1366 53.0676 32.256 53.7521C29.3753 54.4365 26.3478 54.1269 23.6653 52.8734C20.9829 51.6198 18.8031 49.4962 17.4801 46.8473C16.157 44.1985 15.7685 41.1801 16.3776 38.2826C16.9867 35.385 18.5576 32.7785 20.8352 30.8866C23.1128 28.9946 25.9631 27.9283 28.9232 27.861C31.8834 27.7936 34.7793 28.7291 37.1406 30.5155L39.9515 27.7483Z" fill="#B6CC43"/>
<path d="M44.4468 23.2968C39.9088 19.3997 34.0434 17.4013 28.07 17.717C22.0965 18.0327 16.4745 20.6383 12.3726 24.9921C8.27065 29.3459 6.00433 35.1131 6.04472 41.0947C6.08512 47.0764 8.42912 52.8124 12.5895 57.1104C16.7499 61.4084 22.4065 63.9378 28.3837 64.1729C34.3609 64.4079 40.1987 62.3304 44.6837 58.3723C49.1687 54.4143 51.9558 48.88 52.4658 42.92C52.9757 36.96 51.1692 31.0327 47.4218 26.3703L43.714 30.089C46.4932 33.7749 47.7602 38.3829 47.2561 42.9715C46.7521 47.5602 44.5149 51.7832 41.0018 54.7779C37.4887 57.7725 32.9647 59.3127 28.3541 59.0839C23.7436 58.8551 19.3943 56.8745 16.195 53.5467C12.9957 50.2189 11.1877 45.7951 11.1404 41.1791C11.0931 36.5631 12.8102 32.1032 15.9407 28.7106C19.0712 25.318 23.379 23.2488 27.9839 22.9256C32.5889 22.6024 37.1434 24.0497 40.7171 26.9718L44.4468 23.2968Z" fill="#B6CC43"/>
<path d="M29.2876 69.7267C34.7715 69.7328 40.143 68.1717 44.7695 65.2275C49.396 62.2832 53.0848 58.0782 55.4017 53.1078C57.7186 48.1373 58.5669 42.6083 57.8469 37.1719C57.1269 31.7355 54.8685 26.618 51.3376 22.422L48.1985 25.5829C52.1436 30.4484 54.0587 36.6486 53.5447 42.8913C53.0307 49.1341 50.1272 54.9376 45.4395 59.0922C40.7518 63.2469 34.6416 65.4321 28.3823 65.1924C22.123 64.9528 16.1978 62.3067 11.8415 57.8057C7.48521 53.3048 5.03406 47.2962 4.99894 41.0325C4.96382 34.7688 7.34744 28.7331 11.653 24.1836C15.9585 19.6341 21.8537 16.9217 28.1099 16.6119C34.3661 16.302 40.5005 18.4186 45.2345 22.5204L48.3845 19.3923C44.898 16.2961 40.7116 14.0932 36.1854 12.973C31.6591 11.8527 26.9285 11.8487 22.4004 12.9613C17.8723 14.0739 13.6821 16.2697 10.1904 19.3599C6.6987 22.4502 4.00989 26.3424 2.35523 30.7017C0.700574 35.0611 0.129604 39.7571 0.691427 44.3859C1.25325 49.0148 2.93105 53.4379 5.58052 57.2748C8.23 61.1117 11.7718 64.2477 15.9015 66.4129C20.0311 68.5781 24.6248 69.7078 29.2876 69.7048V69.7267Z" fill="#B6CC43"/>
<path d="M62.4062 6.26719L61.5202 0.273438L52.1577 9.625L52.814 15.7719L62.4062 6.26719Z" fill="#B6CC43"/>
<path d="M55.0344 17.9156L60.9188 18.8891L70.5 9.31876L64.1563 8.71719L55.0344 17.9156Z" fill="#B6CC43"/>
</g>
<defs>
<clipPath id="clip0_741:42061">
<rect width="70" height="70" fill="white" transform="translate(0.5)"/>
</clipPath>
</defs>
</svg>
