<svg width="70" height="70" viewBox="0 0 70 70" fill="none" xmlns="http://www.w3.org/2000/svg">
<path d="M14.255 40.2247C16.6298 40.2247 18.8967 39.4691 20.7318 37.9578C20.7318 37.0942 20.9477 36.1227 21.1636 35.0432C19.5444 37.0942 17.0616 38.3896 14.3629 38.3896C9.61324 38.3896 5.72715 34.5035 5.72715 29.7538C5.72715 25.0042 9.61324 21.1181 14.3629 21.1181C19.0046 21.1181 22.7828 24.7883 22.9987 29.3221C23.3225 28.3505 23.7543 27.379 24.1861 26.4075C22.7828 22.1976 18.7887 19.283 14.3629 19.283C8.64172 19.283 4 23.9247 4 29.6459C4 35.3671 8.53377 40.2247 14.255 40.2247Z" fill="#B6CC43"/>
<path d="M42.9689 14.7489L44.5881 6.97675C43.2928 5.89728 41.8894 5.35754 40.1623 5.46549L38.5431 8.16417C38.4351 8.38006 38.2192 8.48801 38.0034 8.48801C37.7875 8.48801 37.5716 8.27211 37.5716 8.05622L36.2762 3.30655C33.4696 1.47145 31.2027 1.14761 30.0153 1.14761C29.7994 1.14761 29.6914 1.14761 29.5835 1.14761L33.1457 14.8569C33.7934 17.5555 42.3212 17.6635 42.9689 14.7489Z" fill="#B6CC43"/>
<path d="M11.1244 52.2069H4.86353V69.5864H11.1244C12.096 69.5864 12.8516 68.8307 12.8516 67.8592V67.4274V53.9341C12.8516 52.9625 12.096 52.2069 11.1244 52.2069Z" fill="#B6CC43"/>
<path d="M50.3093 46.7014C51.3887 45.2981 53.1159 42.5994 53.1159 42.5994C53.8715 41.412 54.1954 40.0087 54.1954 38.6054C54.1954 33.7478 49.5536 21.3339 43.1848 16.4763C41.2417 18.5272 34.549 18.3114 32.7139 16.4763C26.453 21.4418 21.8113 33.8557 21.8113 38.6054C21.8113 41.7358 23.4305 43.6789 25.5894 45.514C27.4245 45.1901 27.6404 45.406 40.4861 45.2981C42.645 45.2981 44.3722 47.1332 44.3722 49.2921C44.3722 49.616 44.2642 49.9398 44.2642 50.2637L50.3093 46.7014ZM42.753 30.6173C42.753 30.9411 42.5371 31.157 42.2133 31.157H39.5146C39.1907 31.157 38.9748 30.9411 38.9748 30.6173V30.4014C38.9748 29.7537 38.3272 29.3219 37.6795 29.4299C37.3556 29.5378 37.0318 29.7537 37.0318 30.0776C36.9238 30.4014 37.0318 30.7253 37.2477 30.9411C37.4636 31.157 37.6795 31.3729 38.0033 31.3729C38.1113 31.3729 38.2192 31.3729 38.3272 31.3729C39.4066 31.3729 40.3782 31.6968 41.1338 32.3445C42.5371 33.7478 43.0768 35.4749 42.753 37.2021C42.4291 38.7133 41.3497 39.9007 39.9464 40.5484C39.8384 41.52 39.0828 42.2756 38.0033 42.2756C36.9239 42.2756 36.1682 41.52 36.0603 40.5484C34.3331 39.7928 33.1457 38.0656 33.1457 36.1226V35.9067C33.1457 35.5829 33.3616 35.367 33.6854 35.367H36.3841C36.708 35.367 36.9239 35.5829 36.9239 35.9067V36.1226C36.9239 36.3385 37.0318 36.6623 37.2477 36.8782C37.4636 37.0941 37.8954 37.2021 38.2192 37.0941C38.5431 36.9862 38.8669 36.7703 38.8669 36.4464C38.9748 36.1226 38.8669 35.7988 38.651 35.5829C38.4351 35.367 38.2192 35.1511 37.8954 35.1511C37.7874 35.1511 37.6795 35.1511 37.5715 35.1511C36.4921 35.1511 35.5205 34.8272 34.7649 34.1796C33.3616 32.7762 32.8219 31.0491 33.1457 29.3219C33.4695 27.8107 34.549 26.6233 35.9523 25.9756C36.0603 25.0041 36.8159 24.2484 37.8954 24.2484C38.9748 24.2484 39.7305 25.0041 39.8384 25.9756C41.5656 26.7312 42.753 28.4584 42.753 30.4014V30.6173Z" fill="#B6CC43"/>
<path d="M39.1907 26.9471C38.9748 26.8392 38.7589 26.6233 38.7589 26.4074V26.0835C38.7589 25.6518 38.435 25.3279 38.0033 25.3279C37.5715 25.3279 37.2476 25.6518 37.2476 26.0835V26.4074C37.2476 26.6233 37.1397 26.8392 36.8158 26.9471C35.6284 27.3789 34.6569 28.3504 34.441 29.6458C34.1172 30.9412 34.549 32.3445 35.7364 33.4239C36.3841 34.0716 37.2476 34.1796 37.8953 34.0716C38.6509 34.0716 39.2986 34.3955 39.7304 34.9352C40.1622 35.4749 40.2701 36.1226 40.1622 36.7703C39.9463 37.5259 39.4066 38.0657 38.6509 38.2815C37.8953 38.4974 37.1397 38.2815 36.5999 37.7418C36.2761 37.418 36.0602 36.9862 35.9523 36.5544H34.441C34.549 37.9577 35.5205 39.2531 36.9238 39.6849C37.1397 39.7928 37.3556 40.0087 37.3556 40.2246V40.4405C37.3556 40.8723 37.6794 41.1961 38.1112 41.1961C38.543 41.1961 38.8668 40.8723 38.8668 40.4405V40.1166C38.8668 39.9008 38.9748 39.6849 39.2986 39.5769C40.486 39.1451 41.4576 38.1736 41.6735 36.8782C41.9973 35.5829 41.5655 34.1796 40.3781 33.1001C39.8384 32.5604 38.9748 32.4524 38.435 32.4524H38.2192C37.4635 32.4524 36.8158 32.1286 36.492 31.5888C36.0602 31.0491 35.9523 30.4014 36.0602 29.7537C36.2761 28.9981 36.8158 28.4584 37.5715 28.2425C38.7589 27.9186 40.0542 28.7822 40.2701 29.9696H41.7814C41.5655 28.6743 40.486 27.3789 39.1907 26.9471Z" fill="#B6CC43"/>
<path d="M14.255 22.3053C10.153 22.3053 6.69873 25.6516 6.69873 29.8616C6.69873 34.0715 10.0451 37.4178 14.255 37.4178C18.357 37.4178 21.8113 34.0715 21.8113 29.8616C21.8113 25.6516 18.4649 22.3053 14.255 22.3053ZM17.0616 28.0265H15.3345V27.9185C15.3345 27.2708 14.6868 26.7311 14.0391 26.947C13.7153 27.0549 13.3914 27.3788 13.2835 27.7026C13.0676 28.4582 13.6073 29.1059 14.363 28.998C15.0106 28.998 15.6583 29.1059 16.0901 29.5377C17.9252 31.3728 17.0616 33.8556 15.2265 34.5033V34.7192C15.2265 35.2589 14.7948 35.5827 14.363 35.5827C13.8232 35.5827 13.4994 35.151 13.4994 34.7192V34.5033C12.312 34.0715 11.5563 32.992 11.5563 31.8046V31.6966H13.2835V31.8046C13.2835 32.4523 13.9312 32.992 14.5789 32.7761C14.9027 32.6682 15.2265 32.3443 15.3345 32.0205C15.5504 31.2649 15.0106 30.6172 14.255 30.7251C13.6073 30.7251 12.9597 30.6172 12.5279 30.1854C10.6928 28.3503 11.5563 25.8675 13.3914 25.2198V25.0039C13.3914 24.4642 13.8232 24.1404 14.255 24.1404C14.7948 24.1404 15.1186 24.5722 15.1186 25.0039V25.2198C16.306 25.6516 17.0616 26.7311 17.0616 27.9185V28.0265Z" fill="#B6CC43"/>
<path d="M55.2747 0.500122C51.0648 0.500122 47.2867 2.9829 45.7754 6.86899L45.0198 10.4312C45.0198 10.5392 45.0198 10.6471 45.0198 10.7551C45.0198 16.4763 49.6615 21.118 55.3827 21.118C61.1039 21.118 65.7456 16.4763 65.7456 10.7551C65.7456 5.03389 60.9959 0.500122 55.2747 0.500122ZM55.2747 19.4988C50.5251 19.4988 46.639 15.6127 46.639 10.863C46.639 6.11336 50.5251 2.22727 55.2747 2.22727C60.0244 2.22727 63.9105 6.11336 63.9105 10.863C63.9105 15.6127 60.0244 19.4988 55.2747 19.4988Z" fill="#B6CC43"/>
<path d="M55.2748 3.30682C51.1728 3.30682 47.7185 6.65318 47.7185 10.8631C47.7185 15.073 51.0649 18.4194 55.2748 18.4194C59.3768 18.4194 62.8311 15.073 62.8311 10.8631C62.8311 6.65318 59.4847 3.30682 55.2748 3.30682ZM58.0814 9.02801H56.3543V8.92007C56.3543 8.27238 55.7066 7.73265 55.0589 7.94854C54.7351 8.05649 54.4112 8.38033 54.3033 8.70417C54.0874 9.4598 54.6271 10.1075 55.3827 9.99954C56.0304 9.99954 56.6781 10.1075 57.1099 10.5393C58.945 12.3744 58.0814 14.8571 56.2463 15.5048V15.6128C56.2463 16.1525 55.8145 16.4764 55.3827 16.4764C54.843 16.4764 54.5192 16.0446 54.5192 15.6128V15.3969C53.3317 14.9651 52.5761 13.8856 52.5761 12.6982V12.5903H54.3033V12.6982C54.3033 13.3459 54.951 13.8856 55.5986 13.6697C55.9225 13.5618 56.2463 13.2379 56.3543 12.9141C56.5702 12.1585 56.0304 11.5108 55.2748 11.6187C54.6271 11.6187 53.9794 11.5108 53.5476 11.079C51.7125 9.24391 52.5761 6.76113 54.4112 6.11344V6.0055C54.4112 5.46576 54.843 5.14192 55.2748 5.14192C55.8145 5.14192 56.1384 5.57371 56.1384 6.0055V6.22139C57.3258 6.65318 58.0814 7.73265 58.0814 8.92007V9.02801Z" fill="#B6CC43"/>
<path d="M58.2973 43.1391C41.8894 52.8543 42.4291 53.2861 40.4861 53.2861H30.0152C29.6914 53.2861 29.4755 53.0702 29.4755 52.7464C29.4755 52.4226 29.6914 52.2067 30.0152 52.2067H40.4861C40.9179 52.2067 41.3497 52.0987 41.7815 51.8828C41.8894 51.7749 43.2927 51.2351 43.2927 49.4C43.2927 47.7808 42.1053 46.5934 40.4861 46.5934H27.6404C20.8398 46.5934 19.6523 52.5305 13.9312 54.4736V66.8875H28.2881C30.2311 66.8875 32.2821 66.5636 34.2252 66.0239L39.7305 64.4047C43.2927 63.4332 46.5311 61.4901 49.2298 58.8994L61.3199 46.9173C61.7516 46.4855 62.0755 45.8378 62.0755 45.1901C62.0755 44.6504 61.8596 44.1106 61.5358 43.6789C60.7801 42.5994 59.3768 42.3835 58.2973 43.1391Z" fill="#B6CC43"/>
</svg>
