<svg width="65" height="65" viewBox="0 0 65 65" fill="none" xmlns="http://www.w3.org/2000/svg">
<g clip-path="url(#clip0_741:45488)">
<path d="M48.519 38.9607C43.4023 38.9607 39.239 43.0941 39.239 48.1755C39.239 49.8448 39.6961 51.4081 40.4802 52.7594V51.0475C40.4802 48.8091 42.5276 48.3322 44.0217 47.9832C44.8987 47.777 45.4845 47.6076 45.6341 47.3346C45.0587 46.6814 44.6632 45.8635 44.6632 44.958V43.821C44.6632 42.1736 45.7211 40.7786 47.1943 40.2406C47.2523 40.2106 47.3149 40.1922 47.3811 40.183C47.7441 40.0701 48.1211 39.9929 48.519 39.9929C50.6453 39.9929 52.3749 41.7105 52.3749 43.821V44.958C52.3749 45.8623 51.9793 46.6803 51.4039 47.3346C51.5536 47.6065 52.1394 47.777 53.0152 47.9832C54.5093 48.3322 56.5555 48.8091 56.5555 51.0475V52.7605C57.3408 51.4081 57.7967 49.8448 57.7967 48.1755C57.7967 43.0941 53.6346 38.9607 48.519 38.9607Z" fill="#B8CC51"/>
<path d="M46.9856 33.1189C46.9415 33.2007 46.8789 33.2664 46.8035 33.3194C46.6237 33.5221 46.4416 33.7237 46.2537 33.9196L47.7025 37.8513C47.9716 37.8294 48.2431 37.8099 48.518 37.8099C48.6572 37.8099 48.7929 37.826 48.9309 37.8318L47.1341 32.9576C47.0877 33.0118 47.0332 33.0636 46.9856 33.1189Z" fill="#B8CC51"/>
<path d="M52.7501 49.1041C52.6956 49.0914 52.6399 49.0776 52.5842 49.0649L51.3152 51.8528C51.3082 51.8678 51.292 51.8735 51.285 51.8873C51.2641 51.9254 51.249 51.9657 51.2177 52.0002C51.1934 52.0267 51.1597 52.0394 51.133 52.0624C51.1087 52.0809 51.089 52.0982 51.0623 52.112C50.9753 52.1592 50.8825 52.1915 50.7862 52.1915C50.7108 52.1915 50.6354 52.173 50.5658 52.1442C50.5588 52.1419 50.553 52.1431 50.5472 52.1408C50.5229 52.1293 50.5066 52.1097 50.4846 52.0959C50.4556 52.0774 50.4243 52.0682 50.3988 52.044L50.2538 51.9138L49.5647 52.5808L50.219 55.5231C50.2224 55.5392 50.2178 55.553 50.2201 55.5691C50.2259 55.6083 50.2248 55.6475 50.2224 55.6889C50.219 55.7247 50.2166 55.7592 50.2074 55.7938C50.1981 55.8272 50.183 55.8594 50.1679 55.8928C50.1505 55.9286 50.132 55.9631 50.1064 55.9954C50.0972 56.008 50.0937 56.0219 50.0832 56.0334L48.8699 57.3743C51.4555 57.2775 53.7686 56.1279 55.3926 54.3423V51.0498C55.3949 49.8114 54.3961 49.4889 52.7501 49.1041Z" fill="#B8CC51"/>
<path d="M33.3616 25.1263H30.3387L29.1218 26.2138L31.0323 28.0605H32.6668L34.5773 26.2138L33.3616 25.1263Z" fill="#B8CC51"/>
<path d="M25.9253 21.22C25.7072 21.2937 25.4845 21.364 25.2537 21.4285L27.4205 26.1839L29.2731 24.5285L25.9253 21.22Z" fill="#B8CC51"/>
<path d="M32.437 29.2125H31.2631L30.03 34.7456L31.8501 36.7558L33.6701 34.7456L32.437 29.2125Z" fill="#B8CC51"/>
<path d="M23.5713 20.6623C25.7231 20.1601 27.0571 19.7672 27.1893 18.8018C26.0247 17.5865 25.222 16.0106 25.222 14.3183V12.126C25.222 11.8288 25.2475 11.5385 25.2846 11.2516C25.2846 11.2505 25.2846 11.2505 25.2846 11.2493C25.2846 11.2436 25.2869 11.2401 25.2869 11.2344C25.628 8.64927 27.4248 6.51923 29.833 5.67711C29.8515 5.6679 29.8701 5.66329 29.8887 5.65638C30.587 5.41907 31.334 5.28428 32.1124 5.28428C35.9114 5.28428 39.0016 8.35321 39.0016 12.126V14.3183C39.0016 16.0106 38.1989 17.5865 37.0343 18.8018C37.1653 19.7672 38.5005 20.1601 40.6523 20.6623C43.5071 21.3293 47.059 22.1576 47.059 26.0479V31.1547C49.2305 28.1538 50.5251 24.4858 50.5251 20.516C50.5251 10.4314 42.2647 2.22803 32.1101 2.22803C21.9566 2.22803 13.6951 10.4326 13.6951 20.516C13.6951 24.4858 14.9896 28.1538 17.1611 31.1547V26.0479C17.1623 22.1588 20.7154 21.3293 23.5713 20.6623Z" fill="#B8CC51"/>
<path d="M37.9108 21.084L34.4285 24.5285L36.2787 26.1839L38.507 21.2902C38.3029 21.2257 38.101 21.1589 37.9108 21.084Z" fill="#B8CC51"/>
<path d="M45.8757 43.3049C46.2388 43.1516 46.6309 42.7554 46.7968 41.7808C46.3339 42.1655 45.9975 42.6931 45.8757 43.3049Z" fill="#B8CC51"/>
<path d="M48.519 47.6353C49.5839 47.6353 51.2149 46.436 51.2149 44.9592V44.3993C49.6338 44.3048 48.4053 43.7991 47.6722 42.9501C47.2337 43.9995 46.4832 44.3924 45.822 44.5145V44.9592C45.822 46.436 47.4541 47.6353 48.519 47.6353Z" fill="#B8CC51"/>
<path d="M48.4643 52.9668H48.303L47.7439 55.4828L48.3831 56.1901L49.0234 55.4828L48.4643 52.9668Z" fill="#B8CC51"/>
<path d="M47.7223 49.6951H49.0435L50.5689 48.1859C50.5503 48.1664 50.5341 48.1479 50.5167 48.1272C49.8868 48.5431 49.1781 48.7873 48.518 48.7873C47.858 48.7873 47.1492 48.5431 46.5193 48.1272C46.4613 48.1952 46.4033 48.2631 46.3337 48.3219L47.7223 49.6951Z" fill="#B8CC51"/>
<path d="M47.8814 57.3582L46.6808 56.0323C46.6703 56.0207 46.6668 56.0069 46.6576 55.9942C46.6332 55.962 46.6135 55.9274 46.5961 55.8917C46.5798 55.8583 46.5659 55.8261 46.5566 55.7926C46.5474 55.7581 46.545 55.7235 46.5416 55.6878C46.5392 55.6475 46.5381 55.6083 46.5439 55.568C46.5462 55.5519 46.5416 55.5381 46.545 55.5219L47.1993 52.5797L46.5102 51.9127L46.3652 52.0429C46.3397 52.0671 46.3084 52.0763 46.2806 52.0947C46.2574 52.1085 46.2423 52.1281 46.2168 52.1396C46.211 52.142 46.2052 52.1408 46.1982 52.1431C46.1274 52.1719 46.0532 52.1903 45.9778 52.1903C45.8815 52.1903 45.7887 52.1581 45.7017 52.1109C45.6762 52.097 45.6565 52.0797 45.631 52.0613C45.6043 52.0383 45.5706 52.0268 45.5463 51.9991C45.5161 51.9657 45.4999 51.9254 45.479 51.8862C45.4709 51.8712 45.4546 51.8655 45.4488 51.8516L44.2065 49.1226C42.6103 49.4993 41.6394 49.831 41.6394 51.0476V54.3388C43.2054 56.0611 45.4094 57.19 47.8814 57.3582Z" fill="#B8CC51"/>
<path d="M48.5199 41.146C48.3703 41.146 48.2264 41.1667 48.0837 41.1898C48.3587 42.7669 50.0871 43.162 51.1519 43.253C50.8875 42.0503 49.8087 41.146 48.5199 41.146Z" fill="#B8CC51"/>
<path d="M50.5853 50.6593L51.2998 49.0891L50.1248 50.2492L50.5853 50.6593Z" fill="#B8CC51"/>
<path d="M45.4666 49.0891L46.1811 50.6593L46.6405 50.2492L45.4666 49.0891Z" fill="#B8CC51"/>
<path d="M47.7052 50.847L47.3757 51.1408L48.0729 51.8147H48.6935L49.3907 51.1408L49.0601 50.847H47.7052Z" fill="#B8CC51"/>
<path d="M32.1108 38.8029C37.5999 38.8029 42.5229 36.3918 45.8997 32.596V26.0468C45.8997 23.0701 43.0971 22.4157 40.3862 21.7833C40.1356 21.7245 39.8851 21.6658 39.6368 21.6047L37.0083 27.3763C37.0013 27.3912 36.9839 27.3981 36.977 27.412C36.9549 27.45 36.941 27.4903 36.9097 27.5237C36.8853 27.5502 36.8528 27.5629 36.8262 27.5836C36.8018 27.602 36.7821 27.6205 36.7542 27.6343C36.6684 27.6815 36.5756 27.7138 36.4793 27.7138C36.4039 27.7138 36.3285 27.6954 36.2578 27.6654C36.252 27.6631 36.2462 27.6643 36.2404 27.662C36.2172 27.6516 36.2032 27.6332 36.1812 27.6205C36.151 27.602 36.1174 27.5905 36.0907 27.5652L35.4388 26.9834L33.5376 28.822L34.8658 34.7825C34.8692 34.7986 34.8646 34.8124 34.8669 34.8285C34.8727 34.8677 34.8716 34.9069 34.8692 34.9484C34.8658 34.9829 34.8634 35.0186 34.8542 35.052C34.8449 35.0866 34.8298 35.12 34.8147 35.1523C34.7962 35.188 34.7788 35.2225 34.7544 35.2536C34.744 35.2663 34.7405 35.2813 34.73 35.2928L32.3323 37.9424C32.2175 38.0691 32.0597 38.1336 31.9008 38.1336C31.8822 38.1336 31.866 38.1256 31.8486 38.1244C31.8312 38.1256 31.8138 38.1336 31.7964 38.1336C31.6375 38.1336 31.4797 38.0691 31.3649 37.9424L28.9672 35.2928C28.9567 35.2801 28.9532 35.2663 28.9428 35.2525C28.9184 35.2225 28.901 35.188 28.8836 35.1534C28.8674 35.12 28.8523 35.0866 28.843 35.052C28.8338 35.0175 28.8314 34.9829 28.8291 34.9472C28.8268 34.908 28.8256 34.87 28.8303 34.8285C28.8326 34.8124 28.828 34.7986 28.8314 34.7825L30.1596 28.8232L28.2561 26.9834L27.6042 27.5652C27.5775 27.5894 27.545 27.6009 27.516 27.6182C27.494 27.632 27.4789 27.6504 27.4557 27.662C27.4499 27.6643 27.4441 27.6631 27.4383 27.6654C27.3675 27.6942 27.2944 27.7115 27.2202 27.7126C27.219 27.7126 27.219 27.7126 27.2179 27.7126C27.1216 27.7126 27.0276 27.6804 26.9418 27.6332C26.9163 27.6193 26.8966 27.602 26.8734 27.5848C26.8455 27.5629 26.8119 27.5502 26.7875 27.5226C26.7562 27.488 26.7411 27.4477 26.7191 27.4085C26.7121 27.3947 26.6959 27.3889 26.6901 27.3751L24.1126 21.7165C24.0198 21.7384 23.9281 21.7614 23.8365 21.7821C21.1267 22.4146 18.323 23.0689 18.323 26.0457V32.5948C21.6986 36.393 26.6216 38.8029 32.1108 38.8029Z" fill="#B8CC51"/>
<path d="M12.6511 49.0867L13.3668 50.6592L13.825 50.249L12.6511 49.0867Z" fill="#B8CC51"/>
<path d="M15.7037 37.8087C15.9787 37.8087 16.2489 37.8294 16.5192 37.849L17.9681 33.9184C17.779 33.7214 17.5969 33.5186 17.4159 33.3159C17.3428 33.2652 17.2813 33.2007 17.2396 33.1224C17.1909 33.0648 17.1352 33.0129 17.0865 32.9553L15.2908 37.8306C15.4288 37.8248 15.5645 37.8087 15.7037 37.8087Z" fill="#B8CC51"/>
<path d="M15.0677 57.3582L13.8671 56.0323C13.8567 56.0196 13.8532 56.0058 13.8439 55.9931C13.8195 55.962 13.801 55.9274 13.7836 55.8917C13.7673 55.8595 13.7534 55.8261 13.7441 55.7915C13.7349 55.7581 13.7314 55.7224 13.7291 55.6867C13.7267 55.6463 13.7256 55.6095 13.7302 55.5692C13.7325 55.553 13.7279 55.5381 13.7314 55.5219L14.3868 52.5797L13.6977 51.9139L13.5527 52.0429C13.5261 52.0671 13.4947 52.0774 13.4646 52.0959C13.4425 52.1097 13.4275 52.1281 13.4031 52.1396C13.3973 52.142 13.3915 52.1408 13.3857 52.1431C13.3149 52.1719 13.2419 52.1892 13.1676 52.1892C13.1676 52.1892 13.1665 52.1903 13.1653 52.1903C13.069 52.1903 12.9751 52.1581 12.8892 52.1109C12.8637 52.097 12.844 52.0797 12.8196 52.0613C12.7918 52.0394 12.7581 52.0268 12.7338 51.9991C12.7036 51.9657 12.6874 51.9254 12.6665 51.8862C12.6584 51.8712 12.6421 51.8655 12.6363 51.8516L11.394 49.1226C9.79666 49.4993 8.8269 49.8322 8.8269 51.0476V54.3388C10.3929 56.0611 12.5957 57.19 15.0677 57.3582Z" fill="#B8CC51"/>
<path d="M30.3563 23.9743H33.3468L36.8453 20.5137C36.5194 20.2764 36.2688 19.9884 36.0971 19.6462C34.8733 20.5863 33.4314 21.1611 32.1125 21.1611C32.1125 21.1611 32.1125 21.1611 32.1114 21.1611C32.1102 21.1611 32.1114 21.1611 32.1102 21.1611C30.7913 21.1611 29.3506 20.5863 28.1279 19.6474C27.904 20.0944 27.5386 20.4446 27.0642 20.7211L30.3563 23.9743Z" fill="#B8CC51"/>
<path d="M37.557 10.4465C36.8297 8.13209 34.6791 6.4375 32.112 6.4375C31.619 6.4375 31.1492 6.51929 30.6921 6.63564C31.0227 9.24147 34.2719 10.3059 37.557 10.4465Z" fill="#B8CC51"/>
<path d="M15.6498 52.9668H15.4886L14.9294 55.4828L15.5698 56.1901L16.2101 55.4828L15.6498 52.9668Z" fill="#B8CC51"/>
<path d="M14.9096 49.6951H16.2297L17.7551 48.1848C17.7365 48.1664 17.7191 48.1479 17.7029 48.1272C17.0741 48.5431 16.3642 48.7873 15.7053 48.7873C15.0465 48.7873 14.3377 48.5431 13.7078 48.1272C13.6498 48.1963 13.593 48.2631 13.5222 48.3219L14.9096 49.6951Z" fill="#B8CC51"/>
<path d="M15.7042 47.6353C16.7691 47.6353 18.4 46.436 18.4 44.9592V44.3993C16.819 44.3037 15.5905 43.7991 14.8574 42.9501C14.4201 43.9984 13.6696 44.3912 13.0095 44.5133V44.9592C13.0095 46.436 14.6405 47.6353 15.7042 47.6353Z" fill="#B8CC51"/>
<path d="M15.7034 38.9607C10.5866 38.9607 6.42456 43.0941 6.42456 48.1755C6.42456 49.8448 6.8816 51.4092 7.66576 52.7605V51.0475C7.66576 48.8091 9.712 48.3322 11.2072 47.9832C12.083 47.777 12.6688 47.6076 12.8196 47.3357C12.2443 46.6814 11.8487 45.8635 11.8487 44.9592V43.8221C11.8487 42.1759 12.9066 40.7809 14.3775 40.2429C14.4367 40.2118 14.4993 40.1933 14.5689 40.183C14.9308 40.0712 15.3067 39.994 15.7046 39.994C17.8308 39.994 19.5592 41.7117 19.5592 43.8221V44.9592C19.5592 45.8635 19.1637 46.6814 18.5883 47.3357C18.738 47.6065 19.3238 47.777 20.1996 47.9832C21.6936 48.3322 23.7399 48.8091 23.7399 51.0475V52.7605C24.5252 51.4081 24.9811 49.8448 24.9811 48.1755C24.9822 43.0941 20.8202 38.9607 15.7034 38.9607Z" fill="#B8CC51"/>
<path d="M15.7047 41.146C15.555 41.146 15.41 41.1667 15.2673 41.1898C15.5423 42.7669 17.2695 43.162 18.3355 43.253C18.0722 42.0503 16.9946 41.146 15.7047 41.146Z" fill="#B8CC51"/>
<path d="M26.613 10.6135C28.3101 10.3623 29.2451 9.21147 29.4492 7.11829C28.0735 7.84289 27.0388 9.09512 26.613 10.6135Z" fill="#B8CC51"/>
<path d="M19.936 49.1041C19.8815 49.0914 19.8247 49.0776 19.7702 49.0649L18.5011 51.8528C18.4953 51.8678 18.4791 51.8735 18.4721 51.8862C18.4501 51.9242 18.435 51.9657 18.4037 52.0014C18.3793 52.0279 18.3457 52.0417 18.3167 52.0636C18.2935 52.082 18.2749 52.0982 18.2494 52.112C18.1624 52.1592 18.0696 52.1915 17.9722 52.1915C17.971 52.1915 17.9698 52.1903 17.9698 52.1903C17.8956 52.1903 17.8225 52.173 17.7518 52.1442C17.746 52.1419 17.7402 52.1431 17.7344 52.1408C17.7088 52.1293 17.6914 52.1085 17.6682 52.0936C17.6416 52.0751 17.6102 52.0659 17.5859 52.0429L17.442 51.915L16.753 52.5808L17.4084 55.5231C17.4119 55.5392 17.4072 55.5542 17.4096 55.5703C17.4142 55.6095 17.4142 55.6463 17.4107 55.6878C17.4084 55.7235 17.4061 55.7592 17.3956 55.7926C17.3864 55.8272 17.3713 55.8606 17.3562 55.8928C17.3388 55.9286 17.3202 55.9631 17.2959 55.9942C17.2866 56.0069 17.2831 56.0207 17.2727 56.0334L16.0593 57.3743C18.645 57.2764 20.9568 56.1279 22.582 54.3411V51.0498C22.582 49.8114 21.5821 49.4889 19.936 49.1041Z" fill="#B8CC51"/>
<path d="M13.0632 43.3038C13.4275 43.1506 13.8172 42.7543 13.9831 41.782C13.5203 42.1656 13.1839 42.6932 13.0632 43.3038Z" fill="#B8CC51"/>
<path d="M17.7716 50.6593L18.4862 49.0891L17.3123 50.2503L17.7716 50.6593Z" fill="#B8CC51"/>
<path d="M32.1099 20.0091C32.111 20.0091 32.111 20.0091 32.1099 20.0091C32.111 20.0091 32.111 20.0091 32.1122 20.0091C34.6387 20.0091 37.8414 17.3296 37.8414 14.3194V12.1271C37.8414 11.9474 37.8043 11.7781 37.7881 11.603C34.177 11.5085 31.5438 10.466 30.3026 8.72644C29.5613 11.0374 27.7958 11.679 26.4143 11.8C26.4073 11.9106 26.3806 12.0154 26.3806 12.1271V14.3194C26.3818 17.3296 29.5845 20.0091 32.1099 20.0091ZM35.9587 14.1454H34.924C34.6039 14.1454 34.344 13.8874 34.344 13.5694C34.344 13.2515 34.6039 12.9934 34.924 12.9934H35.9587C36.2789 12.9934 36.5387 13.2515 36.5387 13.5694C36.5387 13.8874 36.2801 14.1454 35.9587 14.1454ZM33.6666 12.1905C34.6294 11.2332 36.2 11.2332 37.1628 12.1905C37.389 12.4151 37.389 12.7803 37.1628 13.005C37.0491 13.1179 36.9007 13.1732 36.7522 13.1732C36.6037 13.1732 36.4552 13.1167 36.3415 13.005C35.83 12.4969 34.9983 12.4969 34.4855 13.005C34.2593 13.2296 33.8916 13.2296 33.6654 13.005C33.4392 12.7803 33.4404 12.4163 33.6666 12.1905ZM30.8895 15.5221L31.5101 13.4082C31.5995 13.1029 31.9185 12.9255 32.2293 13.0165C32.5367 13.1052 32.7131 13.4254 32.6237 13.7307L32.2978 14.839L32.6145 14.7479C32.923 14.6604 33.2432 14.8355 33.3325 15.1419C33.4207 15.4472 33.2443 15.7663 32.9358 15.855L31.6064 16.2375C31.5531 16.2525 31.4985 16.2605 31.4452 16.2605C31.3918 16.2605 31.3373 16.2536 31.2828 16.2375C31.2236 16.2202 31.1737 16.1879 31.125 16.1557C31.1146 16.1488 31.1041 16.1476 31.0937 16.1396C31.0044 16.0716 30.9452 15.9783 30.9081 15.8746C30.9046 15.8631 30.8907 15.8573 30.8872 15.8458C30.8826 15.8297 30.8872 15.8147 30.8837 15.7986C30.8768 15.7617 30.8745 15.7248 30.8745 15.6857C30.8745 15.6454 30.8756 15.6073 30.8837 15.5682C30.8884 15.552 30.8849 15.5371 30.8895 15.5221ZM33.8568 16.7743C34.17 16.6937 34.4832 16.8814 34.5633 17.189C34.6421 17.4978 34.4554 17.8111 34.1468 17.8906C33.481 18.0599 32.7954 18.1452 32.111 18.1452C31.4266 18.1452 30.7422 18.0599 30.0775 17.8906C29.7667 17.8111 29.5799 17.4966 29.6599 17.189C29.74 16.8803 30.0601 16.6948 30.3664 16.7743C31.509 17.0681 32.7165 17.0681 33.8568 16.7743ZM27.0581 13.005C26.8319 12.7792 26.8319 12.4151 27.0581 12.1894C28.022 11.2343 29.5915 11.2343 30.5555 12.1894C30.7817 12.414 30.7817 12.7792 30.5555 13.005C30.4418 13.1179 30.2933 13.1732 30.1448 13.1732C29.9963 13.1732 29.8479 13.1167 29.7342 13.005C29.2226 12.4969 28.3897 12.4969 27.877 13.005C27.652 13.2296 27.2843 13.2308 27.0581 13.005ZM27.5963 13.5694C27.5963 13.2515 27.8561 12.9934 28.1763 12.9934H29.211C29.5312 12.9934 29.791 13.2515 29.791 13.5694C29.791 13.8874 29.5312 14.1454 29.211 14.1454H28.1763C27.8561 14.1454 27.5963 13.8886 27.5963 13.5694Z" fill="#B8CC51"/>
<path d="M14.8917 50.847L14.5623 51.1408L15.2583 51.8147H15.8789L16.576 51.1408L16.2466 50.847H14.8917Z" fill="#B8CC51"/>
</g>
<g clip-path="url(#clip1_741:45488)">
<path d="M50.5687 10.7266L50.9498 10.3406L50.5341 9.99211C45.3773 5.66913 38.7462 3.06154 31.5202 3.06154C15.1482 3.06154 1.81509 16.4695 1.78971 32.9435C1.77941 40.0913 4.23164 47.0427 8.59896 52.4371L8.95064 52.8715L9.34334 52.4738L50.5687 10.7266ZM10.7413 54.7979C16.2743 60.2684 23.6371 63.1499 31.4769 62.8227C48.1537 62.135 61.2507 49.026 61.2507 32.9419C61.2507 24.8729 58.0462 17.5458 52.8582 12.1654L52.5026 11.7965L52.1425 12.1611L10.737 54.091L10.3859 54.4466L10.7413 54.7979ZM-0.330289 32.9403C-0.303405 15.2846 13.9886 0.925537 31.5202 0.925537C49.0803 0.925537 63.3707 15.2856 63.3707 32.9419C63.3707 50.1445 49.4162 64.2212 31.5645 64.9572C31.1316 64.9749 30.7008 64.9834 30.273 64.9834C22.2621 64.9834 14.7292 61.8407 9.05604 56.1299C3.08138 50.1154 -0.342589 41.6627 -0.330289 32.9403Z" fill="#B8CC51" stroke="#3C3B3B"/>
</g>
<defs>
<clipPath id="clip0_741:45488">
<rect width="51" height="64" fill="white" transform="translate(6.11108 1)"/>
</clipPath>
<clipPath id="clip1_741:45488">
<rect width="64" height="65" fill="white" transform="translate(0.111084)"/>
</clipPath>
</defs>
</svg>
