<svg width="50" height="51" viewBox="0 0 50 51" fill="none" xmlns="http://www.w3.org/2000/svg">
<g clip-path="url(#clip0_741:45304)">
<path d="M49.9938 7.1971C49.9938 3.3569 46.8909 0.232666 43.0768 0.232666C39.7632 0.232666 36.9877 2.59118 36.316 5.72819H26.7217C25.4177 5.72819 24.1918 6.23936 23.2694 7.1677L1.43847 29.1427C0.516144 30.0712 0.00805665 31.3058 0.00805665 32.6189C0.007959 33.9322 0.515851 35.1668 1.43818 36.0955L14.3887 49.1345C15.3109 50.063 16.5371 50.5744 17.8412 50.5744C19.1454 50.5744 20.3715 50.0631 21.2937 49.1345L28.8466 41.53C29.2279 41.1461 29.2279 40.5235 28.8466 40.1395C28.4652 39.7556 27.847 39.7556 27.4655 40.1395L19.9126 47.744C18.7704 48.894 16.9119 48.894 15.7696 47.744L2.81909 34.705C2.26569 34.1478 1.96092 33.4071 1.96102 32.619C1.96102 31.8311 2.26579 31.0905 2.81929 30.5334L24.6504 8.55835C25.2037 8.00136 25.9393 7.6946 26.7217 7.6946H36.179C36.2956 9.36723 36.9964 10.9242 38.1855 12.1215C38.567 12.5055 39.1852 12.5055 39.5665 12.1216C39.948 11.7376 39.948 11.1152 39.5666 10.7311C38.7465 9.90534 38.2488 8.84151 38.137 7.6945H39.6729C41.2882 7.6945 42.6025 9.0177 42.6025 10.6441V23.6775C42.6025 24.4653 42.2978 25.2061 41.7444 25.7632L33.6801 33.8826C33.2988 34.2665 33.2988 34.8891 33.6801 35.2731C34.0615 35.657 34.6797 35.657 35.0612 35.2731L43.1255 27.1537C44.0476 26.2252 44.5556 24.9907 44.5556 23.6776V14.0009C47.7046 13.3163 49.9938 10.5186 49.9938 7.1971ZM44.5555 11.9705V10.6441C44.5555 7.93342 42.3652 5.72809 39.6729 5.72809H38.3319C38.9566 3.68686 40.8472 2.19908 43.0768 2.19908C45.8139 2.19908 48.0407 4.44118 48.0407 7.1971C48.0407 9.43202 46.5974 11.3365 44.5555 11.9705Z" fill="#B6CC43"/>
<path d="M13.4744 32.5656C13.8558 32.1817 13.8558 31.5591 13.4744 31.1751C13.093 30.7912 12.4749 30.7912 12.0933 31.1751L9.74254 33.542C9.36121 33.9259 9.36121 34.5485 9.74254 34.9325L15.5427 40.7725C15.7334 40.9644 15.9833 41.0604 16.2332 41.0604C16.4831 41.0604 16.733 40.9644 16.9237 40.7725C17.3051 40.3885 17.3051 39.766 16.9237 39.3819L14.6592 37.1019L16.1327 35.6182C16.5141 35.2343 16.5141 34.6117 16.1327 34.2276C15.7513 33.8438 15.1332 33.8438 14.7516 34.2276L13.2781 35.7113L11.8139 34.2371L13.4744 32.5656Z" fill="#B6CC43"/>
<path d="M25.0012 32.233C25.5121 32.233 25.9419 31.833 25.9748 31.3124C26.0092 30.7705 25.6007 30.3032 25.0624 30.2686L21.8341 30.0614C22.1055 29.5917 22.2594 29.0603 22.2765 28.5076C22.3033 27.638 21.9913 26.83 21.3979 26.2324C20.186 25.0122 18.1758 25.0506 16.9166 26.3182L15.3753 27.8701C15.375 27.8704 15.3747 27.8708 15.3744 27.8711C15.3741 27.8714 15.3737 27.8717 15.3734 27.872C14.9921 28.2559 14.9921 28.8785 15.3734 29.2625L21.1737 35.1024C21.3644 35.2943 21.6143 35.3904 21.8642 35.3904C22.1141 35.3904 22.364 35.2943 22.5547 35.1024C22.936 34.7184 22.936 34.0959 22.5547 33.7118L20.8213 31.9666L24.9379 32.2309C24.9593 32.2323 24.9804 32.233 25.0012 32.233ZM18.2978 27.7087C18.7869 27.2163 19.574 27.177 20.0169 27.6228C20.2252 27.8326 20.3344 28.1249 20.3244 28.4462C20.3141 28.782 20.1708 29.1127 19.9315 29.3536C19.7358 29.5507 19.3985 29.8932 19.0905 30.2063C18.7863 29.9032 18.4561 29.5735 18.2677 29.384C18.1066 29.2218 17.7662 28.8808 17.449 28.5632L18.2978 27.7087Z" fill="#B6CC43"/>
<path d="M34.5119 23.064L36.9559 20.6033C37.3372 20.2193 37.3372 19.5968 36.9559 19.2127C36.5744 18.8289 35.9563 18.8289 35.5748 19.2127L33.8213 20.9782L32.3022 19.4487L33.8754 17.8647C34.2568 17.4807 34.2568 16.8582 33.8754 16.4741C33.494 16.0903 32.8758 16.0903 32.4943 16.4741L30.9211 18.0582L29.4019 16.5286L31.1555 14.7631C31.5368 14.3792 31.5368 13.7566 31.1555 13.3726C30.7741 12.9888 30.1559 12.9888 29.7744 13.3726L27.3304 15.8333C26.9491 16.2172 26.9491 16.8398 27.3304 17.2238L30.2301 20.1433L30.2306 20.1438C30.2306 20.1438 30.2309 20.1441 30.2311 20.1443L33.1307 23.0639C33.3139 23.2482 33.5622 23.3518 33.8212 23.3518C34.0802 23.3518 34.3287 23.2483 34.5119 23.064Z" fill="#B6CC43"/>
<path d="M28.1581 29.054C28.4171 29.054 28.6654 28.9504 28.8486 28.766L31.2926 26.3053C31.6739 25.9214 31.6739 25.2988 31.2926 24.9148C30.9112 24.5309 30.293 24.5309 29.9115 24.9148L28.158 26.6802L26.6389 25.1508L28.2123 23.5667C28.5937 23.1828 28.5937 22.5602 28.2123 22.1762C27.831 21.7925 27.2129 21.7923 26.8312 22.1762L25.2579 23.7602L23.7389 22.2307L25.4924 20.4653C25.8737 20.0814 25.8737 19.4588 25.4924 19.0747C25.111 18.6909 24.4928 18.6909 24.1113 19.0747L21.6673 21.5354C21.286 21.9194 21.286 22.5419 21.6673 22.926L27.4675 28.7659C27.6507 28.9504 27.8991 29.054 28.1581 29.054Z" fill="#B6CC43"/>
<path d="M31.2632 36.7227C31.0063 36.7227 30.7544 36.8279 30.5728 37.0107C30.3912 37.1936 30.2866 37.4473 30.2866 37.7059C30.2866 37.9645 30.3911 38.2182 30.5728 38.401C30.7544 38.5838 31.0063 38.6891 31.2632 38.6891C31.52 38.6891 31.772 38.5839 31.9536 38.401C32.1352 38.2182 32.2397 37.9645 32.2397 37.7059C32.2397 37.4473 32.1353 37.1936 31.9536 37.0107C31.772 36.8279 31.52 36.7227 31.2632 36.7227Z" fill="#B6CC43"/>
</g>
<defs>
<clipPath id="clip0_741:45304">
<rect width="50" height="50.3419" fill="white" transform="translate(0 0.232422)"/>
</clipPath>
</defs>
</svg>
