<svg width="70" height="70" viewBox="0 0 70 70" fill="none" xmlns="http://www.w3.org/2000/svg">
<g clip-path="url(#clip0_741:42067)">
<path d="M39.529 10.408C35.1818 14.7108 29.3549 17.2094 23.2278 17.3984V24.4762C23.2266 26.3333 23.714 28.1586 24.639 29.7713C25.6465 31.5245 27.0129 33.0472 28.65 34.2402C30.2871 35.4333 32.1581 36.27 34.1412 36.6962C34.563 36.7866 34.999 36.7866 35.4208 36.6962C37.4039 36.27 39.2749 35.4333 40.912 34.2402C42.5491 33.0472 43.9155 31.5245 44.923 29.7713C45.8486 28.1587 46.3349 26.3335 46.3342 24.4762V17.1486C43.2952 15.8336 40.8651 13.4268 39.529 10.408ZM28.7002 20.1895C28.8814 20.191 29.0608 20.2288 29.2271 20.3004C29.3933 20.372 29.5441 20.4759 29.6692 20.6063C29.7944 20.7368 29.8903 20.891 29.9546 21.0596C30.0189 21.2283 30.0492 21.408 30.0424 21.5883C30.0424 21.9461 29.9014 22.2892 29.6473 22.5423C29.3931 22.7953 29.0471 22.9374 28.6877 22.9374C28.3282 22.9374 27.9822 22.7953 27.728 22.5423C27.4739 22.2892 27.3329 21.9461 27.3329 21.5883C27.326 21.4058 27.3548 21.2239 27.4207 21.0536C27.4865 20.8832 27.5876 20.7279 27.7155 20.5972C27.8434 20.4664 27.9978 20.3628 28.1671 20.2928C28.3364 20.2227 28.5169 20.1876 28.7002 20.1895ZM40.8869 20.1895C41.0681 20.191 41.2475 20.2288 41.4137 20.3004C41.58 20.372 41.7308 20.4759 41.8559 20.6063C41.9811 20.7368 42.077 20.891 42.1413 21.0596C42.2056 21.2283 42.2359 21.408 42.2291 21.5883C42.2291 21.7654 42.1937 21.9409 42.1256 22.1046C42.0575 22.2683 41.9598 22.417 41.834 22.5423C41.7081 22.6675 41.5562 22.767 41.3918 22.8348C41.2274 22.9026 41.0523 22.9374 40.8743 22.9374C40.6964 22.9374 40.5213 22.9026 40.3569 22.8348C40.1925 22.767 40.0437 22.6675 39.9179 22.5423C39.792 22.417 39.6912 22.2683 39.6231 22.1046C39.555 21.9409 39.5196 21.7654 39.5196 21.5883C39.5127 21.4058 39.5447 21.2239 39.6105 21.0536C39.6764 20.8832 39.7743 20.7279 39.9022 20.5972C40.0301 20.4664 40.1845 20.3628 40.3538 20.2928C40.5231 20.2227 40.7036 20.1876 40.8869 20.1895ZM31.4662 29.5715C31.6275 29.5593 31.7873 29.5962 31.9272 29.6771C32.795 30.1748 33.7795 30.4369 34.781 30.4369C35.7825 30.4369 36.767 30.1748 37.6348 29.6771C37.7607 29.6051 37.9036 29.5686 38.0488 29.5715C38.2237 29.5745 38.3912 29.6346 38.5286 29.7424C38.666 29.8503 38.7671 30 38.8108 30.1686C38.8546 30.3372 38.841 30.5156 38.7732 30.6761C38.7054 30.8367 38.5861 30.9707 38.4345 31.0576C37.3234 31.6955 36.0636 32.0311 34.781 32.0311C33.4984 32.0311 32.2386 31.6955 31.1275 31.0576C30.9789 30.9728 30.8608 30.8427 30.7919 30.6865C30.7231 30.5303 30.707 30.3562 30.7449 30.1899C30.7828 30.0235 30.8722 29.8736 31.0021 29.7623C31.1319 29.651 31.2954 29.5842 31.4662 29.5715Z" fill="#B6CC43"/>
<path d="M52.5377 40.4272C51.7461 39.817 51.1056 39.0343 50.665 38.1394C50.2243 37.2445 49.9949 36.2609 49.9953 35.2642V25.6752C49.5493 25.8232 49.0815 25.8983 48.6115 25.8979H47.8559C47.6622 27.5394 47.1371 29.1251 46.312 30.5593C45.2626 32.3874 43.8609 33.9909 42.1873 35.2783V39.4201C42.1871 40.0212 42.366 40.6086 42.7029 41.1075C43.0397 41.6064 43.5186 41.9942 44.0778 42.2211L53.6489 46.0979V42.6755C53.6485 42.241 53.5484 41.8122 53.3556 41.4224C53.1627 41.0327 52.8834 40.692 52.5377 40.4268V40.4272Z" fill="#B6CC43"/>
<path d="M23.251 30.5593C22.4259 29.1251 21.9008 27.5397 21.7072 25.8983H20.9515C20.4815 25.8986 20.0137 25.8232 19.5677 25.6752V35.2642C19.5681 36.261 19.3388 37.2448 18.898 38.1398C18.4573 39.0347 17.817 39.8171 17.0253 40.4272C16.6796 40.6923 16.4003 41.033 16.2075 41.4228C16.0146 41.8126 15.9116 42.241 15.9111 42.6755V46.0979L25.4852 42.2215C26.0444 41.9946 26.5233 41.6068 26.8602 41.1079C27.197 40.6089 27.3759 40.0212 27.3758 39.4201V35.2786C25.7024 33.9912 24.3003 32.3873 23.251 30.5593Z" fill="#B6CC43"/>
<path d="M41.0735 41.4794C40.2947 42.3819 39.3296 43.1058 38.2436 43.6024C37.1576 44.0989 35.9777 44.3561 34.7826 44.3561C33.5876 44.3561 32.4076 44.0989 31.3216 43.6024C30.2356 43.1058 29.2676 42.3819 28.4888 41.4794C28.8084 40.84 28.975 40.1353 28.9747 39.4211V36.3622C30.47 37.2487 32.1007 37.8874 33.8018 38.2532C34.4471 38.392 35.1151 38.392 35.7605 38.2532C37.4617 37.8874 39.0921 37.2488 40.5875 36.3622V39.4211C40.5872 40.1353 40.7539 40.84 41.0735 41.4794Z" fill="#B6CC43"/>
<path d="M42.0464 42.7831C42.4624 43.1725 42.9456 43.482 43.4746 43.6961L56.7765 49.0847C58.0429 49.5974 59.1245 50.4744 59.8878 51.6037C60.6511 52.7329 61.0611 54.0632 61.0612 55.4243V68.8857C61.0612 69.0322 61.0317 69.1774 60.9753 69.3127C60.9189 69.448 60.8365 69.571 60.7323 69.6744C60.6282 69.7779 60.5039 69.8601 60.3678 69.916C60.2318 69.9718 60.0854 70.0004 59.9382 70.0001H9.62305C9.47594 70.0003 9.32937 69.9715 9.19339 69.9156C9.05741 69.8597 8.93302 69.7776 8.82892 69.6741C8.72481 69.5706 8.64228 69.448 8.58593 69.3127C8.52958 69.1774 8.5 69.0321 8.5 68.8857V55.4243C8.50012 54.0632 8.91014 52.7329 9.67343 51.6037C10.4367 50.4744 11.5183 49.5974 12.7848 49.0847L26.0866 43.6961C26.6156 43.482 27.0988 43.1725 27.5149 42.7831C28.4413 43.7806 29.5656 44.5766 30.8159 45.121C32.0661 45.6654 33.416 45.9466 34.7806 45.9466C36.1452 45.9466 37.4951 45.6654 38.7454 45.121C39.9956 44.5766 41.12 43.7806 42.0464 42.7831Z" fill="#B6CC43"/>
<path d="M38.4343 9.24834C34.3636 13.2935 28.8962 15.64 23.1472 15.8088C22.7671 15.8206 22.4028 15.9694 22.1249 16.2277C21.847 16.4861 21.6737 16.8364 21.6359 17.2131H20.9514C20.4814 17.2127 20.0136 17.2881 19.5676 17.4361V15.0835C19.5842 11.0774 21.1937 7.24091 24.045 4.41398C26.8963 1.58705 30.7567 0 34.7807 0C38.8047 0 42.6651 1.58705 45.5164 4.41398C48.3676 7.24091 49.9772 11.0774 49.9937 15.0835V17.4361C49.5478 17.2881 49.08 17.2127 48.6099 17.2131H47.9343V17.1275C47.9345 16.8233 47.8441 16.5256 47.6765 16.2713C47.509 16.0169 47.2723 15.8167 46.992 15.6956C44.3001 14.5369 42.1502 12.4043 40.9767 9.72846C40.8746 9.4959 40.7168 9.2915 40.5174 9.13329C40.3181 8.97508 40.0834 8.86785 39.8329 8.82059C39.5825 8.77332 39.3239 8.78764 39.0803 8.86226C38.8366 8.93687 38.6148 9.06948 38.4343 9.24871V9.24834Z" fill="#B6CC43"/>
<path d="M48.6107 18.8044C49.3424 18.8063 50.0437 19.0967 50.5605 19.6124C51.0772 20.1281 51.3694 20.8269 51.3694 21.5553C51.3694 22.2838 51.0772 22.9826 50.5605 23.4983C50.0437 24.014 49.3424 24.3044 48.6107 24.3062H47.9351V18.8044H48.6107Z" fill="#B6CC43"/>
<path d="M20.9523 24.3062H21.628V18.8044H20.9523C20.2207 18.8063 19.5193 19.0967 19.0026 19.6124C18.4858 20.1281 18.1936 20.8269 18.1936 21.5553C18.1936 22.2838 18.4858 22.9826 19.0026 23.4983C19.5193 24.014 20.2207 24.3044 20.9523 24.3062Z" fill="#B6CC43"/>
</g>
<defs>
<clipPath id="clip0_741:42067">
<rect width="70" height="70" fill="white"/>
</clipPath>
</defs>
</svg>
