<svg width="82" height="62" viewBox="0 0 82 62" fill="none" xmlns="http://www.w3.org/2000/svg">
<mask id="mask0_741:45556" style="mask-type:alpha" maskUnits="userSpaceOnUse" x="4" y="-1" width="74" height="61">
<path d="M34.9896 0H5.21179V59.4445H42.7098L36.6439 38.6003L38.2983 27.7922L31.681 17.7561L34.9896 0Z" fill="white"/>
<path d="M46.0184 59.4445H76.8991V0H38.2983L35.5411 17.7561L41.6069 27.0202L39.4011 38.6003L46.0184 59.4445Z" fill="white"/>
<path d="M34.9896 0H5.21179V59.4445H42.7098L36.6439 38.6003L38.2983 27.7922L31.681 17.7561L34.9896 0Z" stroke="white"/>
<path d="M46.0184 59.4445H76.8991V0H38.2983L35.5411 17.7561L41.6069 27.0202L39.4011 38.6003L46.0184 59.4445Z" stroke="white"/>
</mask>
<g mask="url(#mask0_741:45556)">
<path d="M46.0067 48.5633L47.7612 46.4723H34.3486L36.1031 48.5633H46.0067Z" fill="#B8CC51"/>
<path d="M75.6323 46.4723H69.7207H49.5564L46.8387 49.7117C46.7094 49.866 46.5201 49.9553 46.3208 49.9553H35.7894C35.5901 49.9553 35.4008 49.866 35.2715 49.7117L32.5539 46.4723H12.3895H6.47793C5.77977 46.4723 5.21191 47.0518 5.21191 47.7644V51.7483C5.21191 53.0093 6.21683 54.0344 7.45194 54.0344H74.6583C75.8934 54.0344 76.8983 53.0093 76.8983 51.7483V47.7644C76.8983 47.0518 76.3305 46.4723 75.6323 46.4723ZM11.2871 50.9494H9.21732C8.84065 50.9494 8.53533 50.6378 8.53533 50.2534C8.53533 49.8689 8.84065 49.5573 9.21732 49.5573H11.2871C11.6637 49.5573 11.9691 49.8689 11.9691 50.2534C11.9691 50.6378 11.6637 50.9494 11.2871 50.9494ZM17.6181 50.9494H15.5484C15.1717 50.9494 14.8664 50.6378 14.8664 50.2534C14.8664 49.8689 15.1717 49.5573 15.5484 49.5573H17.6181C17.9948 49.5573 18.3001 49.8689 18.3001 50.2534C18.3001 50.6378 17.9948 50.9494 17.6181 50.9494Z" fill="#B8CC51"/>
<path d="M12.3896 45.0803H69.7208C70.419 45.0803 70.9868 44.5008 70.9868 43.7882V5.17769C70.9868 4.46516 70.419 3.88562 69.7208 3.88562H12.3896C11.6914 3.88562 11.1235 4.46516 11.1235 5.17769V43.7882C11.1235 44.5008 11.6914 45.0803 12.3896 45.0803ZM42.0901 42.9476H40.0203C39.6436 42.9476 39.3383 42.636 39.3383 42.2515C39.3383 41.8671 39.6436 41.5555 40.0203 41.5555H42.0901C42.4667 41.5555 42.7721 41.8671 42.7721 42.2515C42.7721 42.636 42.4667 42.9476 42.0901 42.9476ZM40.8968 6.01932H41.2136C41.5902 6.01932 41.8955 6.33094 41.8955 6.71535C41.8955 7.09977 41.5902 7.41138 41.2136 7.41138H40.8968C40.5201 7.41138 40.2148 7.09977 40.2148 6.71535C40.2148 6.33094 40.5201 6.01932 40.8968 6.01932ZM15.2112 10.2411C15.2112 9.85669 15.5165 9.54508 15.8932 9.54508H66.2172C66.5938 9.54508 66.8991 9.85669 66.8991 10.2411V38.7258C66.8991 39.1102 66.5938 39.4218 66.2172 39.4218H15.8932C15.5165 39.4218 15.2112 39.1102 15.2112 38.7258V10.2411Z" fill="#B8CC51"/>
<path d="M44.5126 17.0722C44.5126 16.3597 43.9448 15.7802 43.2466 15.7802H38.8636C38.1654 15.7802 37.5975 16.3597 37.5975 17.0722V17.778H44.5126V17.0722Z" fill="#B8CC51"/>
<path d="M48.4684 28.8319C48.4684 29.9502 47.5815 30.8598 46.4909 30.8598C45.4004 30.8598 44.5134 29.9502 44.5134 28.8319V27.2691C43.3753 27.5587 42.2178 27.7097 41.0592 27.7097C39.8983 27.7097 38.7387 27.5579 37.5984 27.2672V28.8319C37.5984 29.9502 36.7071 30.8598 35.6114 30.8598C34.5208 30.8598 33.6339 29.9502 33.6339 28.8319V25.7842L31.3453 24.819V31.8937C31.3453 32.6062 31.9132 33.1857 32.6114 33.1857H49.5005C50.1986 33.1857 50.7665 32.6062 50.7665 31.8937V24.8177L48.4684 25.787V28.8319Z" fill="#B8CC51"/>
<path d="M49.5005 19.17H45.1954H36.9164H32.6114C31.9132 19.17 31.3453 19.7496 31.3453 20.4621V23.3138L34.5798 24.6781C34.5836 24.6797 34.5858 24.6831 34.5896 24.6848L36.066 25.3062C36.4508 25.4712 36.7894 25.5954 37.1052 25.6877C37.1067 25.6881 37.1077 25.6892 37.1092 25.6897C37.1149 25.6914 37.1205 25.6897 37.1261 25.6915C39.699 26.5264 42.4194 26.5264 44.9923 25.6915C44.9951 25.6906 44.9978 25.6915 45.0006 25.6906C45.0028 25.69 45.0044 25.6883 45.0066 25.6877C45.3224 25.5954 45.661 25.4712 46.0429 25.3081L47.5249 24.68C47.5255 24.6798 47.5261 24.68 47.5267 24.6797C47.5277 24.6793 47.5282 24.6784 47.5291 24.6781L50.7665 23.3126V20.4621C50.7665 19.7496 50.1986 19.17 49.5005 19.17ZM42.1326 23.4443H39.9792C39.6025 23.4443 39.2972 23.1326 39.2972 22.7482C39.2972 22.3638 39.6025 22.0522 39.9792 22.0522H42.1326C42.5093 22.0522 42.8146 22.3638 42.8146 22.7482C42.8146 23.1326 42.5093 23.4443 42.1326 23.4443Z" fill="#B8CC51"/>
<path d="M65.5345 10.9371H16.5746V38.0298H65.5345V10.9371ZM52.1291 31.8937C52.1291 33.374 50.9492 34.5778 49.4991 34.5778H32.61C31.1599 34.5778 29.98 33.374 29.98 31.8937V20.4621C29.98 18.9817 31.1599 17.778 32.61 17.778H36.233V17.0723C36.233 15.5919 37.413 14.3881 38.863 14.3881H43.2461C44.6961 14.3881 45.8761 15.5919 45.8761 17.0723V17.778H49.4991C50.9492 17.778 52.1291 18.9817 52.1291 20.4621V31.8937Z" fill="#B8CC51"/>
<path d="M47.1036 28.8319V26.3652L46.5667 26.5924C46.3246 26.6953 46.0958 26.7856 45.8766 26.8642V28.8319C45.8766 29.1882 46.1458 29.4677 46.4901 29.4677C46.8344 29.4677 47.1036 29.1882 47.1036 28.8319Z" fill="#B8CC51"/>
<path d="M36.2343 28.832V26.8643C36.0151 26.7857 35.7859 26.6954 35.5428 26.5915L34.9978 26.3624V28.832C34.9978 29.1825 35.2727 29.4679 35.6113 29.4679C35.9552 29.4679 36.2343 29.1825 36.2343 28.832Z" fill="#B8CC51"/>
</g>
</svg>
