<svg width="70" height="70" viewBox="0 0 70 70" fill="none" xmlns="http://www.w3.org/2000/svg">
<path d="M24.0197 30.2726H45.9808C46.0858 30.269 46.1892 30.2447 46.2848 30.201C46.3805 30.1574 46.4665 30.0953 46.5381 30.0183C46.6097 29.9413 46.6653 29.8509 46.7018 29.7524C46.7383 29.6539 46.7549 29.5491 46.7508 29.4441V22.338C46.7538 22.2367 46.7359 22.1358 46.6981 22.0418C46.6603 21.9477 46.6035 21.8625 46.5312 21.7914C46.4589 21.7203 46.3727 21.6648 46.278 21.6286C46.1833 21.5923 46.0821 21.576 45.9808 21.5806H24.0197C23.9184 21.5759 23.8172 21.5922 23.7225 21.6285C23.6277 21.6648 23.5415 21.7202 23.4693 21.7913C23.397 21.8623 23.3401 21.9476 23.3024 22.0416C23.2646 22.1357 23.2466 22.2365 23.2496 22.3378V29.444C23.2455 29.549 23.2621 29.6537 23.2986 29.7523C23.3351 29.8508 23.3907 29.9412 23.4623 30.0182C23.5339 30.0952 23.6199 30.1573 23.7156 30.201C23.8112 30.2446 23.9146 30.269 24.0197 30.2726ZM33.0164 24.4779H36.9841C37.3079 24.4779 37.6184 24.6064 37.8474 24.8352C38.0763 25.064 38.2049 25.3743 38.2049 25.6978C38.2049 26.0214 38.0763 26.3317 37.8474 26.5605C37.6184 26.7893 37.3079 26.9178 36.9841 26.9178H33.0164C32.6926 26.9178 32.382 26.7893 32.1531 26.5605C31.9241 26.3317 31.7955 26.0214 31.7955 25.6978C31.7955 25.3743 31.9241 25.064 32.1531 24.8352C32.382 24.6064 32.6926 24.4779 33.0164 24.4779Z" fill="#B6CC43"/>
<path d="M24.0196 37.2875H45.9806C46.3983 37.2875 46.7507 36.8246 46.7507 36.3543V32.6402C46.4974 32.6926 46.2392 32.717 45.9806 32.7128H24.0196C23.761 32.7169 23.5027 32.6925 23.2495 32.64V36.3543C23.2495 36.8246 23.6019 37.2875 24.0196 37.2875Z" fill="#B6CC43"/>
<path d="M38.8153 18.6416C38.8153 18.1712 38.4846 17.7688 38.0675 17.7688H31.9343C31.5165 17.7688 31.1858 18.1712 31.1858 18.6416V19.1412H38.8161L38.8153 18.6416Z" fill="#B6CC43"/>
<path d="M35.0002 50.8142C46.856 50.8142 56.5012 41.1767 56.5012 29.3292C56.5012 17.4817 46.856 7.84424 35.0002 7.84424C23.1445 7.84424 13.4993 17.4817 13.4993 29.3292C13.4993 41.1767 23.1445 50.8142 35.0002 50.8142ZM20.808 29.4436V22.3375C20.8054 21.9159 20.8867 21.498 21.0474 21.1081C21.208 20.7182 21.4447 20.3642 21.7436 20.0666C22.0425 19.7691 22.3977 19.5339 22.7885 19.3749C23.1792 19.2159 23.5978 19.1361 24.0197 19.1403H28.7434V18.6408C28.7434 16.8249 30.1695 15.3281 31.9336 15.3281H38.0676C39.8317 15.3281 41.257 16.8249 41.257 18.6408V19.1403H45.9808C46.4027 19.1362 46.8212 19.2159 47.212 19.3749C47.6027 19.534 47.9579 19.7691 48.2568 20.0667C48.5557 20.3642 48.7924 20.7182 48.953 21.1081C49.1137 21.498 49.1951 21.9159 49.1925 22.3375V36.3536C49.1925 38.1693 47.7447 39.7267 45.9808 39.7267H24.0197C22.2556 39.7267 20.808 38.1693 20.808 36.3536V29.4436Z" fill="#B6CC43"/>
<path d="M20.2736 57.7478C24.7923 62.2785 29.7223 66.3802 35 70C40.2778 66.3802 45.2077 62.2786 49.7264 57.7478C54.1603 53.267 57.6878 48.7523 60.2103 44.3296C63.3235 38.8733 64.9007 33.5513 64.9007 28.5104C64.9007 12.7898 51.4867 0 35 0C18.5133 0 5.09937 12.7898 5.09937 28.5104C5.09937 33.5518 6.6773 38.874 9.78922 44.3296C12.3121 48.7523 15.8394 53.267 20.2736 57.7478ZM35 5.40491C48.202 5.40491 58.9427 16.1376 58.9427 29.3298C58.9427 42.5219 48.202 53.2546 35 53.2546C21.798 53.2546 11.0574 42.5219 11.0574 29.3298C11.0574 16.1376 21.798 5.40491 35 5.40491Z" fill="#B6CC43"/>
</svg>
