<svg width="70" height="70" viewBox="0 0 70 70" fill="none" xmlns="http://www.w3.org/2000/svg">
<path d="M51.0075 15.5691L51.0751 16.0888L50.2963 16.2501L50.1927 17.3571H51.1255L52.3665 17.2376L53.0071 16.4761L52.3261 16.2112L51.9533 15.7822L51.3933 14.8753L51.1255 13.5926L50.0732 13.8071L49.7781 14.2591V14.7687L50.2848 15.1157L51.0075 15.5691Z" fill="#B6CC43"/>
<path d="M50.1106 15.9953L50.1668 15.3014L49.5492 15.0351L48.6854 15.2352L48.0448 16.263V16.9296H48.7919L50.1106 15.9953Z" fill="#B6CC43"/>
<path d="M32.3317 18.9421L32.1417 19.4316H31.2218V19.9066H31.4406C31.4406 19.9066 31.4536 20.0074 31.4723 20.1398L32.0366 20.0923L32.3893 19.8735L32.4814 19.4316L32.9378 19.3927L33.1177 19.0213L32.6988 18.9349L32.3317 18.9421Z" fill="#B6CC43"/>
<path d="M29.9607 19.8044L29.9247 20.2694L30.5912 20.2133L30.6603 19.7468L30.2601 19.4316L29.9607 19.8044Z" fill="#B6CC43"/>
<path d="M69.9914 34.6379C69.9813 33.6144 69.9295 32.598 69.833 31.5975C69.5091 28.262 68.7116 25.0647 67.5167 22.0675C67.4275 21.8443 67.3454 21.6183 67.2504 21.398C65.6582 17.6364 63.4225 14.2116 60.6859 11.2561C60.5059 11.0632 60.3231 10.8732 60.1403 10.6861C59.6234 10.1491 59.0922 9.62509 58.5423 9.12267C52.3204 3.45789 44.0572 0 34.9993 0C25.8651 0 17.5428 3.51979 11.3037 9.27095C9.84967 10.6112 8.51373 12.0738 7.30159 13.6401C2.72946 19.5539 0 26.9621 0 34.9993C0 54.2998 15.7016 70 35.0007 70C48.576 70 60.362 62.2262 66.1635 50.8995C67.4044 48.4781 68.3704 45.897 69.0211 43.192C69.1866 42.5053 69.3291 41.8157 69.453 41.1175C69.8057 39.1295 69.9986 37.0852 69.9986 34.9993C70 34.8784 69.9928 34.7589 69.9914 34.6379ZM63.4038 20.6495L63.6068 20.422C63.8731 20.9388 64.1222 21.4643 64.3597 21.9969L64.0286 21.984L63.4038 22.0703V20.6495V20.6495ZM58.3465 14.5427L58.3523 12.9793C58.9022 13.5624 59.432 14.1627 59.9387 14.7846L59.3082 15.7232L57.1042 15.703L56.966 15.2438L58.3465 14.5427ZM16.1263 10.6573V10.5983H16.8274L16.8878 10.3578H18.0352V10.8588L17.7055 11.2993H16.1248L16.1263 10.6573ZM17.2463 12.2192C17.2463 12.2192 17.9474 12.0997 18.0078 12.0997C18.0683 12.0997 18.0078 12.7994 18.0078 12.7994L16.4271 12.8987L16.1263 12.5388L17.2463 12.2192ZM65.6337 26.1127H63.0727L61.5122 24.951L59.8696 25.1107V26.1127H59.3499L58.7885 25.7125L55.9439 24.9913V23.1486L52.3391 23.4293L51.222 24.0296H49.7911L49.09 23.9591L47.3524 24.9236V26.7389L43.8009 29.3014L44.096 30.3955H44.8158L44.6272 31.4377L44.1205 31.6234L44.0932 34.3471L47.1624 37.8425H48.4983L48.5789 37.6294H50.9802L51.6726 36.9888H53.0344L53.7816 37.7374L55.8114 37.9476L55.5422 40.6468L57.7952 44.6244L56.6089 46.8917L56.6896 47.9599L57.6239 48.8913V51.4595L58.8504 53.1093V55.2428H59.9099C54.0134 62.4825 45.039 67.1194 34.9978 67.1194C17.288 67.1208 2.87918 52.7105 2.87918 34.9993C2.87918 30.5409 3.79476 26.2912 5.44308 22.4288V21.4268L6.59188 20.0319C6.99064 19.279 7.4182 18.5448 7.87455 17.8293L7.92638 18.4123L6.59332 20.0319C6.18015 20.8121 5.79434 21.6097 5.44452 22.4288V24.2571L6.77902 24.8991V27.44L8.05882 29.6239L9.09964 29.7836L9.23352 29.0351L8.00555 27.1406L7.76514 25.2993H8.48494L8.78869 27.1938L10.5637 29.7836L10.1059 30.6201L11.2345 32.3461L14.0374 33.04V32.5865L15.1589 32.7463L15.0523 33.5467L15.9334 33.708L17.2938 34.0794L19.2156 36.269L21.6701 36.4547L21.9105 38.4572L20.2305 39.6319L20.1514 41.4198L19.911 42.5139L22.341 45.5558L22.5267 46.598C22.5267 46.598 23.4077 46.837 23.5157 46.837C23.6222 46.837 25.4908 48.2521 25.4908 48.2521V53.7499L26.1573 53.9371L25.7039 56.4736L26.8253 57.9694L26.618 60.4829L28.0993 63.0871L30.001 64.7484L31.9128 64.7829L32.0999 64.1682L30.6949 62.9849L30.7755 62.3975L31.0275 61.6777L31.0807 60.9435L30.1306 60.9148L29.6512 60.313L30.4401 59.5543L30.5466 58.9814L29.6656 58.7295L29.7174 58.1968L30.9727 58.0068L32.8816 57.0898L33.5223 55.9151L35.5247 53.3526L35.0698 51.3487L35.6845 50.282L37.5258 50.3381L38.7652 49.3563L39.1654 45.4896L40.5403 43.7433L40.7807 42.6219L39.5268 42.2203L38.699 40.8627L35.8702 40.8339L33.6274 39.9788L33.5208 38.3794L32.7722 37.0708L30.7439 37.0406L29.572 35.2008L28.5312 34.6926L28.4779 35.2541L26.5834 35.3664L25.8896 34.4004L23.913 33.9988L22.2848 35.8803L19.7224 35.4456L19.5367 32.5577L17.6666 32.2381L18.4167 30.8216L18.2022 30.0082L15.7448 31.6508L14.1987 31.4622L13.6473 30.2544L13.9842 29.0091L14.8364 27.4386L16.7986 26.4452L20.5876 26.4438L20.5775 27.5998L21.9393 28.2332L21.8314 26.2581L22.8132 25.2705L24.794 23.9692L24.9294 23.0536L26.9045 20.9978L29.0048 19.8347L28.8191 19.6821L30.2414 18.3432L30.7626 18.4814L31.0015 18.7809L31.5414 18.182L31.6738 18.123L31.0822 18.0395L30.4819 17.8394V17.2635L30.8 17.003H31.5011L31.8221 17.1441L32.0999 17.7055L32.4397 17.6537V17.6047L32.5376 17.6378L33.5223 17.4867L33.6619 17.0059L34.2233 17.1469V17.6681L33.7022 18.0265H33.7037L33.7799 18.598L35.5636 19.148C35.5636 19.148 35.565 19.1552 35.5679 19.1696L35.9782 19.135L36.0056 18.362L34.5919 17.7185L34.5113 17.347L35.6845 16.9468L35.7363 15.824L34.5098 15.0768L34.4292 13.1838L32.7478 14.0101H32.1345L32.2957 12.569L30.0068 12.0292L29.0595 12.7447V14.9271L27.3565 15.4669L26.6741 16.8893L25.9342 17.0087V15.1891L24.3334 14.9674L23.533 14.4463L23.2105 13.2672L26.0738 11.5916L27.4745 11.1654L27.6156 12.1069L28.3959 12.0666L28.4563 11.593L29.2726 11.4764L29.287 11.3108L28.9357 11.1654L28.8551 10.6645L29.8585 10.5795L30.4646 9.949L30.4977 9.90293L30.5049 9.90581L30.6892 9.71578L32.7981 9.44946L33.731 10.2412L31.2851 11.5441L34.3975 12.2783L34.8006 11.2374H36.161L36.6418 10.3305L35.6802 10.0901V8.94272L32.6643 7.60679L30.5826 7.8472L29.4079 8.4619L29.4885 9.9562L28.2606 9.76905L28.072 8.94272L29.2481 7.87455L27.1132 7.76802L26.4999 7.95373L26.2336 8.67352L27.034 8.80884L26.8742 9.60925L25.5138 9.68987L25.3008 10.2225L23.3271 10.2772C23.3271 10.2772 23.2724 9.15722 23.1932 9.15722C23.114 9.15722 24.7408 9.12987 24.7408 9.12987L25.9169 7.98108L25.2749 7.66005L24.4212 8.48925L23.0046 8.40864L22.151 7.23393H20.3356L18.4411 8.64905H20.1773L20.3356 9.15722L19.885 9.57614L21.8069 9.62941L22.1006 10.3233L19.9369 10.2427L19.8318 9.70859L18.4714 9.41491L17.7501 9.0147L16.1306 9.02766C21.4326 5.16524 27.9525 2.87918 34.9993 2.87918C43.1214 2.87918 50.5425 5.91527 56.2044 10.9034L55.8229 11.5858L54.3416 12.166L53.7168 12.844L53.8608 13.6343L54.6252 13.7409L55.0859 14.8925L56.4045 14.3613L56.6219 15.9017H56.2246L55.142 15.7419L53.9414 15.9434L52.7796 17.5846L51.1184 17.8451L50.8779 19.2675L51.579 19.433L51.376 20.3471L49.7263 20.016L48.2133 20.3471L47.8922 21.1893L48.1542 22.9571L49.0425 23.3732L50.5324 23.3645L51.5387 23.2738L51.8453 22.4734L53.4174 20.4306L54.4524 20.6423L55.4717 19.7209L55.6617 20.4407L58.1695 22.1322L57.8628 22.544L56.7328 22.4835L57.1675 23.0996L57.8628 23.2522L58.6776 22.9125L58.6604 21.9307L59.0217 21.7493L58.7309 21.4412L57.0581 20.5084L56.6176 19.2689H58.0082L58.4531 19.7094L59.6508 20.7416L59.7012 21.9897L60.9421 23.3113L61.4042 21.5003L62.2636 21.031L62.4249 22.5123L63.2642 23.4336L64.9384 23.4048C65.2623 24.2384 65.5531 25.0863 65.8079 25.9515L65.6337 26.1127ZM19.0904 15.9017L19.9311 15.5015L20.6912 15.6829L20.4292 16.7035L19.6086 16.9641L19.0904 15.9017ZM23.5517 18.3044V18.9651H21.6313L20.9115 18.765L21.0914 18.3044L22.0142 17.9229H23.2753V18.3044H23.5517ZM24.4356 19.2257V19.8663L23.9548 20.1758L23.3559 20.2867C23.3559 20.2867 23.3559 19.3265 23.3559 19.2257H24.4356ZM23.8943 18.9651V18.2036L24.5551 18.8053L23.8943 18.9651ZM24.1952 20.5055V21.1288L23.7359 21.5895H22.7153L22.8751 20.8899L23.3573 20.8481L23.4567 20.6077L24.1952 20.5055ZM21.6529 19.2257H22.7138L21.3534 21.1274L20.792 20.8265L20.9129 20.0261L21.6529 19.2257ZM25.9975 20.2867V20.9086H24.9769L24.6976 20.5055V19.9268H24.7782L25.9975 20.2867ZM25.0546 19.4316L25.3454 19.1264L25.8363 19.4316L25.4433 19.7555L25.0546 19.4316ZM66.1549 27.7337L66.2556 27.6156C66.2974 27.797 66.342 27.9784 66.3823 28.1627L66.1549 27.7337Z" fill="#B6CC43"/>
<path d="M5.44458 21.4268V22.4288C5.7944 21.6111 6.18021 20.8136 6.59337 20.0319L5.44458 21.4268Z" fill="#B6CC43"/>
</svg>
