<svg width="50" height="50" viewBox="0 0 50 50" fill="none" xmlns="http://www.w3.org/2000/svg">
<g clip-path="url(#clip0_741:45337)">
<path d="M44.0901 26.2569C42.8144 24.2692 41.0172 22.6785 38.8927 21.6572C38.4064 21.4235 37.8229 21.6281 37.5893 22.1143C37.3556 22.6004 37.5602 23.1838 38.0464 23.4175C41.7486 25.1972 44.1407 28.9998 44.1407 33.1051C44.1407 34.8617 43.7077 36.6038 42.8886 38.1433C42.6353 38.6193 42.8159 39.2107 43.2921 39.4641C43.4382 39.5418 43.5952 39.5787 43.7499 39.5787C44.0993 39.5787 44.4373 39.3906 44.6129 39.0606C45.5817 37.2399 46.0938 35.1805 46.0938 33.1051C46.0938 30.6676 45.4009 28.2995 44.0901 26.2569Z" fill="#B6CC43"/>
<path d="M34.929 20.41L34.8633 20.4099C34.324 20.4099 33.8867 20.8471 33.8867 21.3865C33.8867 21.9258 34.324 22.363 34.8633 22.363L34.9198 22.3631C34.9214 22.3631 34.9229 22.3631 34.9245 22.3631C35.4617 22.3631 35.8984 21.929 35.901 21.3912C35.9034 20.8518 35.4683 20.4125 34.929 20.41Z" fill="#B6CC43"/>
<path d="M28.7505 42.7925C25.0483 41.0127 22.6562 37.2101 22.6562 33.1049C22.6562 31.3483 23.0893 29.6062 23.9083 28.0668C24.1616 27.5907 23.981 26.9993 23.5049 26.746C23.0289 26.4927 22.4373 26.6732 22.1841 27.1494C21.2152 28.9702 20.7031 31.0296 20.7031 33.1049C20.7031 35.5424 21.396 37.9104 22.7068 39.9531C23.9825 41.9409 25.7798 43.5315 27.9043 44.5529C28.0407 44.6185 28.1848 44.6495 28.3267 44.6495C28.6904 44.6495 29.0394 44.4454 29.2076 44.0958C29.4411 43.6097 29.2366 43.0262 28.7505 42.7925Z" fill="#B6CC43"/>
<path d="M31.9337 43.8476L31.8772 43.8474C31.3354 43.8464 30.8987 44.2799 30.8963 44.8194C30.8937 45.3587 31.3291 45.798 31.8683 45.8005L31.9337 45.8007C32.473 45.8007 32.9103 45.3634 32.9103 44.8242C32.9103 44.2849 32.473 43.8476 31.9337 43.8476Z" fill="#B6CC43"/>
<path d="M37.8328 17.106C37.714 16.8228 37.5684 16.5559 37.399 16.3083H39.9413C42.4183 16.3083 44.4335 14.2931 44.4335 11.8161C44.4335 9.33919 42.4183 7.32396 39.9413 7.32396H32.121C32.6182 6.60111 32.9101 5.7266 32.9101 4.7849C32.9101 2.30796 30.8949 0.292725 28.4179 0.292725H4.49218C2.01523 0.292725 0 2.30796 0 4.7849C0 7.26185 2.01523 9.27708 4.49218 9.27708H12.3125C11.8153 9.99993 11.5234 10.8744 11.5234 11.8161C11.5234 12.7578 11.8152 13.6323 12.3125 14.3552H9.76561C7.28866 14.3552 5.27343 16.3704 5.27343 18.8474C5.27343 20.2699 5.93886 21.5394 6.97411 22.363C5.93886 23.1866 5.27343 24.4561 5.27343 25.8786C5.27343 27.3012 5.93886 28.5706 6.97411 29.3942C5.93886 30.2179 5.27343 31.4873 5.27343 32.9098C5.27343 34.3324 5.93886 35.6018 6.97411 36.4255C5.93886 37.2491 5.27343 38.5185 5.27343 39.9411C5.27343 42.418 7.28866 44.4333 9.76561 44.4333H21.2744C24.3062 47.6761 28.6193 49.7068 33.3985 49.7068C42.5526 49.7068 50 42.2593 50 33.1053C50 25.4864 44.8408 19.0508 37.8328 17.106ZM39.9413 9.27708C41.3414 9.27708 42.4804 10.4161 42.4804 11.8161C42.4804 13.2161 41.3414 14.3552 39.9413 14.3552H33.6913H16.0156C14.6155 14.3552 13.4765 13.2161 13.4765 11.8161C13.4765 10.4161 14.6155 9.27708 16.0156 9.27708H39.9413ZM4.49218 7.32396C3.09208 7.32396 1.95312 6.1849 1.95312 4.7849C1.95312 3.38491 3.09208 2.24585 4.49218 2.24585H28.4179C29.818 2.24585 30.957 3.38491 30.957 4.7849C30.957 6.1849 29.818 7.32396 28.4179 7.32396H4.49218ZM9.76561 16.3083H33.6913C34.0847 16.3083 34.4614 16.3997 34.7993 16.5634C34.3373 16.5246 33.8703 16.5037 33.3985 16.5037C28.814 16.5037 24.6578 18.3718 21.6505 21.3864H9.76561C8.36561 21.3864 7.22655 20.2474 7.22655 18.8474C7.22655 17.4474 8.36561 16.3083 9.76561 16.3083ZM9.76561 23.3396H19.9819C18.8733 24.8584 18.0162 26.5715 17.4718 28.4177H9.76561C8.36551 28.4177 7.22655 27.2787 7.22655 25.8786C7.22655 24.4786 8.36551 23.3396 9.76561 23.3396ZM9.76561 30.3708H17.0234C16.8753 31.2607 16.7969 32.1739 16.7969 33.1053C16.7969 33.9008 16.8545 34.683 16.9632 35.4489H9.76561C8.36551 35.4489 7.22655 34.3099 7.22655 32.9098C7.22655 31.5098 8.36551 30.3708 9.76561 30.3708ZM9.76561 42.4801C8.36551 42.4801 7.22655 41.3412 7.22655 39.9411C7.22655 38.541 8.36551 37.402 9.76561 37.402H17.3619C17.8547 39.2392 18.6551 40.9514 19.7049 42.4801H9.76561ZM33.3985 47.7537C25.3213 47.7537 18.7501 41.1824 18.7501 33.1053C18.7501 25.0281 25.3213 18.4569 33.3985 18.4569C41.4756 18.4569 48.0469 25.0281 48.0469 33.1053C48.0469 41.1824 41.4756 47.7537 33.3985 47.7537Z" fill="#B6CC43"/>
</g>
<defs>
<clipPath id="clip0_741:45337">
<rect width="50" height="50" fill="white"/>
</clipPath>
</defs>
</svg>
