<svg width="71" height="70" viewBox="0 0 71 70" fill="none" xmlns="http://www.w3.org/2000/svg">
<g clip-path="url(#clip0_741:42048)">
<path d="M54.1229 15.7095H70.5V69.665H54.1229V15.7095Z" fill="#B6CC43"/>
<path d="M36.1766 39.1431H52.5508V69.666H36.1766V39.1431Z" fill="#B6CC43"/>
<path d="M18.3426 29.5899H34.7197V69.6649H18.3426V29.5899Z" fill="#B6CC43"/>
<path d="M0.49987 49.6273H16.8813V69.6648H0.49987V49.6273Z" fill="#B6CC43"/>
<path d="M61.7791 12.8189C61.6872 12.8189 61.5968 12.8102 61.5035 12.7927C60.7116 12.641 60.1924 11.8768 60.3441 11.0849L61.3387 5.86411L39.8326 21.2452C39.312 21.617 38.6062 21.6054 38.0943 21.2145L27.1203 12.7854L5.48742 25.4408C5.25701 25.5779 5.0018 25.6406 4.75243 25.6406C4.2493 25.6406 3.76076 25.3824 3.49097 24.9187C3.08409 24.2231 3.31743 23.3291 4.01305 22.9222L26.4933 9.76807C27.0066 9.46911 27.6497 9.50849 28.1193 9.87015L39.016 18.2381L59.5945 3.52057L53.853 3.25224C53.0466 3.21432 52.4253 2.53036 52.4633 1.72536C52.5012 0.920361 53.1735 0.310777 53.9916 0.335569L63.5845 0.784735C64.0074 0.805152 64.4012 1.00786 64.6622 1.34036C64.9233 1.6714 65.0283 2.10015 64.9495 2.51724L63.2112 11.6333C63.077 12.3318 62.4645 12.8189 61.7791 12.8189Z" fill="#B6CC43"/>
</g>
<defs>
<clipPath id="clip0_741:42048">
<rect width="70" height="70" fill="white" transform="matrix(-1 0 0 1 70.5 0)"/>
</clipPath>
</defs>
</svg>
