<svg width="70" height="70" viewBox="0 0 70 70" fill="none" xmlns="http://www.w3.org/2000/svg">
<path d="M69.15 10.5355C68.614 10.0926 67.9081 9.92161 67.2342 10.069C67.2135 10.0735 65.1219 10.5227 61.8458 10.5227C55.2443 10.5227 45.4922 8.80026 36.5227 0.594728C35.6557 -0.198243 34.3444 -0.198243 33.4773 0.594728C24.5081 8.79995 14.7558 10.5226 8.15424 10.5227C4.87733 10.5227 2.78676 10.0735 2.77124 10.0701C2.09574 9.91881 1.39026 10.0884 0.851717 10.5313C0.313174 10.9739 0 11.6422 0 12.3484C0 34.6268 6.74191 48.3471 12.3978 55.9339C20.1288 66.3048 29.1425 70 35 70C40.8575 70 49.8713 66.3048 57.6022 55.9339C63.2581 48.3471 70 34.6267 70 12.3484C70 11.6441 69.6861 10.9781 69.15 10.5355ZM53.5772 28.5522L33.163 49.4106C32.7172 49.866 32.133 50.0938 31.549 50.0938C30.965 50.0938 30.3806 49.8662 29.935 49.4106L18.249 37.4703C17.3576 36.5595 17.3576 35.0829 18.249 34.172C19.1403 33.2612 20.5856 33.2612 21.4771 34.172L31.5492 44.4631L50.3495 25.2539C51.2408 24.3433 52.6861 24.3431 53.5775 25.2539C54.4688 26.1648 54.4688 27.6414 53.5772 28.5522Z" fill="#B6CC43"/>
</svg>
