<svg width="47" height="67" viewBox="0 0 47 67" fill="none" xmlns="http://www.w3.org/2000/svg">
<g clip-path="url(#clip0_741:45475)">
<path d="M46.6288 23.3144C46.6327 19.4914 45.6966 15.7262 43.9027 12.3502C42.1088 8.97423 39.5123 6.0912 36.3419 3.95502C33.1714 1.81885 29.5243 0.495084 25.7218 0.100336C21.9192 -0.294412 18.078 0.251966 14.5363 1.69134C10.9947 3.13072 7.86133 5.41893 5.41226 8.35443C2.96319 11.2899 1.27355 14.7826 0.492176 18.5249C-0.289198 22.2671 -0.138335 26.1441 0.931478 29.8144C2.00129 33.4846 3.95723 36.8354 6.627 39.5717L0.394789 51.6766L10.5116 52.6213L17.1597 60.3058L22.3767 50.1749L27.5726 64.0071L34.7777 56.3508L45.2329 57.366L38.9372 40.6081C41.3595 38.4254 43.296 35.758 44.6211 32.7788C45.9461 29.7995 46.6301 26.575 46.6288 23.3144ZM23.3144 2.82003C27.3678 2.82003 31.3302 4.022 34.7004 6.27395C38.0707 8.52591 40.6975 11.7267 42.2487 15.4715C43.7999 19.2164 44.2057 23.3371 43.415 27.3127C42.6242 31.2882 40.6723 34.9399 37.8061 37.8061C34.9399 40.6723 31.2882 42.6242 27.3126 43.415C23.3371 44.2058 19.2164 43.7999 15.4715 42.2487C11.7267 40.6976 8.52587 38.0708 6.27392 34.7005C4.02197 31.3302 2.81999 27.3678 2.81999 23.3144C2.82559 17.8807 4.98661 12.6711 8.82884 8.82888C12.6711 4.98665 17.8806 2.82563 23.3144 2.82003Z" fill="#B8CC51"/>
<path d="M23.3149 42.5609C27.1215 42.5609 30.8426 41.4321 34.0077 39.3173C37.1728 37.2025 39.6396 34.1966 41.0964 30.6797C42.5531 27.1629 42.9342 23.2931 42.1916 19.5596C41.449 15.8261 39.6159 12.3967 36.9242 9.70506C34.2326 7.01338 30.8032 5.18033 27.0697 4.4377C23.3362 3.69506 19.4664 4.07621 15.9496 5.53293C12.4327 6.98966 9.42682 9.45653 7.31198 12.6216C5.19715 15.7867 4.06836 19.5078 4.06836 23.3144C4.06836 28.4189 6.09611 33.3143 9.70554 36.9238C13.315 40.5332 18.2104 42.5609 23.3149 42.5609ZM18.9157 17.0892L23.3149 10.145L27.7141 17.0892L35.6806 19.1267L30.4354 25.4717L30.9571 33.6779L23.3149 30.6464L15.6727 33.6779L16.2155 25.4576L10.9703 19.1126L18.9157 17.0892Z" fill="#B8CC51"/>
</g>
<defs>
<clipPath id="clip0_741:45475">
<rect width="47" height="67" fill="white"/>
</clipPath>
</defs>
</svg>
