<svg width="63" height="64" viewBox="0 0 63 64" fill="none" xmlns="http://www.w3.org/2000/svg">
<g clip-path="url(#clip0_741:45537)">
<path d="M57.693 23.1724H33.7593C33.6424 23.1724 33.5476 23.2668 33.5476 23.3834V33.9958C33.5476 34.1124 33.6424 34.2068 33.7593 34.2068H57.693C57.81 34.2068 57.9048 34.1124 57.9048 33.9958V23.3834C57.9048 23.2668 57.81 23.1724 57.693 23.1724Z" fill="#B8CC51"/>
<path d="M26.9047 39.7241H18.0476V46.3448H26.9047V39.7241Z" fill="#B8CC51"/>
<path d="M44.6189 14.3448H22.4761V16.5517H44.6189V14.3448Z" fill="#B8CC51"/>
<path d="M20.2619 14.3448H18.0476V16.5517H20.2619V14.3448Z" fill="#B8CC51"/>
<path d="M39.3158 44.1628L49.5347 46.3448H57.9048V41.931H33.5476V46.3448H38.1879L38.0011 45.4731C37.9623 45.2929 37.9694 45.106 38.0218 44.9293C38.0741 44.7525 38.17 44.5917 38.3007 44.4614C38.4315 44.3311 38.5928 44.2355 38.7702 44.1834C38.9475 44.1312 39.1351 44.1241 39.3158 44.1628Z" fill="#B8CC51"/>
<path d="M48.1584 52.6455C48.0474 52.5336 47.9619 52.399 47.9079 52.2511C47.8824 52.1212 47.8561 51.9916 47.829 51.8621C47.829 51.8345 47.8429 51.8124 47.8443 51.7862C47.8456 51.76 47.8359 51.7462 47.8443 51.7269C47.8552 51.6888 47.8686 51.6515 47.8844 51.6152C47.9057 51.5188 47.9407 51.4259 47.9882 51.3393C48.0159 51.2907 48.0479 51.2445 48.0837 51.2014C48.1465 51.1217 48.2207 51.0516 48.3037 50.9931C48.3328 50.9711 48.3494 50.938 48.3812 50.92L51.5767 49.0455L40.5288 46.6855L42.8912 57.6717L44.6571 54.6207C44.742 54.4751 44.8592 54.3508 44.9998 54.2573C45.1404 54.1638 45.3005 54.1037 45.4681 54.0814C45.5167 54.0748 45.5657 54.0715 45.6147 54.0717C45.9058 54.0715 46.1852 54.1855 46.3925 54.389L53.4755 61.3421L55.2261 59.5862L48.1598 52.6483L48.1584 52.6455Z" fill="#B8CC51"/>
<path d="M62.3332 2.20691H0.333252V6.6207H62.3332V2.20691Z" fill="#B8CC51"/>
<path d="M9.19029 32C11.6361 32 13.6189 30.0238 13.6189 27.5862C13.6189 25.1485 11.6361 23.1724 9.19029 23.1724C6.74446 23.1724 4.76172 25.1485 4.76172 27.5862C4.76172 30.0238 6.74446 32 9.19029 32Z" fill="#B8CC51"/>
<path d="M0.333252 50.7587H39.1372L38.6681 48.5518H32.4404C32.1468 48.5518 31.8652 48.4355 31.6575 48.2286C31.4499 48.0216 31.3333 47.741 31.3333 47.4483V40.8276C31.3333 40.535 31.4499 40.2543 31.6575 40.0474C31.8652 39.8404 32.1468 39.7242 32.4404 39.7242H59.0118C59.3055 39.7242 59.5871 39.8404 59.7947 40.0474C60.0023 40.2543 60.119 40.535 60.119 40.8276V47.4483C60.119 47.741 60.0023 48.0216 59.7947 48.2286C59.5871 48.4355 59.3055 48.5518 59.0118 48.5518H55.6779C55.6802 48.7429 55.6321 48.9314 55.5384 49.0981C55.4446 49.2649 55.3085 49.4042 55.1437 49.5021L53.0028 50.7587H62.3332V8.82764H0.333252V50.7587ZM10.2975 48.5518H5.86897C5.57533 48.5518 5.29373 48.4355 5.0861 48.2286C4.87847 48.0216 4.76182 47.741 4.76182 47.4483C4.76182 47.1557 4.87847 46.875 5.0861 46.6681C5.29373 46.4611 5.57533 46.3449 5.86897 46.3449H10.2975C10.5912 46.3449 10.8728 46.4611 11.0804 46.6681C11.288 46.875 11.4047 47.1557 11.4047 47.4483C11.4047 47.741 11.288 48.0216 11.0804 48.2286C10.8728 48.4355 10.5912 48.5518 10.2975 48.5518ZM29.119 47.4483C29.119 47.741 29.0023 48.0216 28.7947 48.2286C28.5871 48.4355 28.3055 48.5518 28.0118 48.5518H16.9404C16.6468 48.5518 16.3652 48.4355 16.1575 48.2286C15.9499 48.0216 15.8333 47.741 15.8333 47.4483V38.6207C15.8333 38.3281 15.9499 38.0474 16.1575 37.8405C16.3652 37.6335 16.6468 37.5173 16.9404 37.5173H28.0118C28.3055 37.5173 28.5871 37.6335 28.7947 37.8405C29.0023 38.0474 29.119 38.3281 29.119 38.6207V47.4483ZM28.0118 32H19.1547C18.861 32 18.5794 31.8838 18.3718 31.6769C18.1642 31.4699 18.0475 31.1893 18.0475 30.8966C18.0475 30.6039 18.1642 30.3233 18.3718 30.1163C18.5794 29.9094 18.861 29.7932 19.1547 29.7932H28.0118C28.3055 29.7932 28.5871 29.9094 28.7947 30.1163C29.0023 30.3233 29.119 30.6039 29.119 30.8966C29.119 31.1893 29.0023 31.4699 28.7947 31.6769C28.5871 31.8838 28.3055 32 28.0118 32ZM28.0118 27.5863H19.1547C18.861 27.5863 18.5794 27.47 18.3718 27.2631C18.1642 27.0561 18.0475 26.7755 18.0475 26.4828C18.0475 26.1902 18.1642 25.9095 18.3718 25.7026C18.5794 25.4956 18.861 25.3794 19.1547 25.3794H28.0118C28.3055 25.3794 28.5871 25.4956 28.7947 25.7026C29.0023 25.9095 29.119 26.1902 29.119 26.4828C29.119 26.7755 29.0023 27.0561 28.7947 27.2631C28.5871 27.47 28.3055 27.5863 28.0118 27.5863ZM28.0118 23.1725H23.5833C23.2896 23.1725 23.008 23.0562 22.8004 22.8493C22.5928 22.6423 22.4761 22.3617 22.4761 22.069C22.4761 21.7764 22.5928 21.4957 22.8004 21.2888C23.008 21.0818 23.2896 20.9656 23.5833 20.9656H28.0118C28.3055 20.9656 28.5871 21.0818 28.7947 21.2888C29.0023 21.4957 29.119 21.7764 29.119 22.069C29.119 22.3617 29.0023 22.6423 28.7947 22.8493C28.5871 23.0562 28.3055 23.1725 28.0118 23.1725ZM60.119 23.3835V33.9959C60.1186 34.6371 59.8629 35.2519 59.408 35.7052C58.9531 36.1586 58.3362 36.4135 57.6929 36.4138H33.7593C33.116 36.4135 32.4991 36.1586 32.0442 35.7052C31.5893 35.2519 31.3336 34.6371 31.3333 33.9959V23.3835C31.3336 22.7423 31.5893 22.1275 32.0442 21.6742C32.4991 21.2208 33.116 20.9659 33.7593 20.9656H57.6929C58.3362 20.9659 58.9531 21.2208 59.408 21.6742C59.8629 22.1275 60.1186 22.7423 60.119 23.3835ZM15.8333 13.2414C15.8333 12.9488 15.9499 12.6681 16.1575 12.4612C16.3652 12.2542 16.6468 12.138 16.9404 12.138H45.7261C46.0197 12.138 46.3013 12.2542 46.509 12.4612C46.7166 12.6681 46.8332 12.9488 46.8332 13.2414V17.6552C46.8332 17.9479 46.7166 18.2285 46.509 18.4355C46.3013 18.6424 46.0197 18.7587 45.7261 18.7587H16.9404C16.6468 18.7587 16.3652 18.6424 16.1575 18.4355C15.9499 18.2285 15.8333 17.9479 15.8333 17.6552V13.2414ZM9.19039 20.9656C10.5042 20.9656 11.7886 21.3539 12.881 22.0814C13.9734 22.8088 14.8248 23.8429 15.3276 25.0526C15.8304 26.2624 15.9619 27.5936 15.7056 28.8779C15.4493 30.1622 14.8166 31.3419 13.8876 32.2678C12.9586 33.1937 11.7749 33.8243 10.4864 34.0797C9.19776 34.3352 7.86211 34.2041 6.64828 33.703C5.43446 33.2019 4.39699 32.3533 3.66706 31.2645C2.93713 30.1757 2.54754 28.8957 2.54754 27.5863C2.54937 25.8309 3.24983 24.148 4.49521 22.9067C5.74059 21.6655 7.42916 20.9674 9.19039 20.9656ZM13.619 38.6207C13.619 38.9134 13.5023 39.1941 13.2947 39.401C13.0871 39.6079 12.8055 39.7242 12.5118 39.7242H8.08325C7.78962 39.7242 7.50801 39.6079 7.30038 39.401C7.09275 39.1941 6.97611 38.9134 6.97611 38.6207C6.97611 38.3281 7.09275 38.0474 7.30038 37.8405C7.50801 37.6335 7.78962 37.5173 8.08325 37.5173H12.5118C12.8055 37.5173 13.0871 37.6335 13.2947 37.8405C13.5023 38.0474 13.619 38.3281 13.619 38.6207ZM3.65468 41.9311H12.5118C12.8055 41.9311 13.0871 42.0473 13.2947 42.2543C13.5023 42.4612 13.619 42.7419 13.619 43.0345C13.619 43.3272 13.5023 43.6079 13.2947 43.8148C13.0871 44.0217 12.8055 44.138 12.5118 44.138H3.65468C3.36105 44.138 3.07944 44.0217 2.87181 43.8148C2.66418 43.6079 2.54754 43.3272 2.54754 43.0345C2.54754 42.7419 2.66418 42.4612 2.87181 42.2543C3.07944 42.0473 3.36105 41.9311 3.65468 41.9311Z" fill="#B8CC51"/>
</g>
<defs>
<clipPath id="clip0_741:45537">
<rect width="62" height="64" fill="white" transform="translate(0.333252)"/>
</clipPath>
</defs>
</svg>
