<svg width="40" height="40" viewBox="0 0 40 40" fill="none" xmlns="http://www.w3.org/2000/svg">
<path d="M20.005 0H19.995C8.9675 0 0 8.97 0 20C0 24.375 1.41 28.43 3.8075 31.7225L1.315 39.1525L9.0025 36.695C12.165 38.79 15.9375 40 20.005 40C31.0325 40 40 31.0275 40 20C40 8.9725 31.0325 0 20.005 0Z" fill="#F6F8FC"/>
<path d="M31.6426 28.242C31.1601 29.6045 29.2451 30.7345 27.7176 31.0645C26.6726 31.287 25.3076 31.4645 20.7126 29.5595C14.8351 27.1245 11.0501 21.152 10.7551 20.7645C10.4726 20.377 8.38013 17.602 8.38013 14.732C8.38013 11.862 9.83763 10.4645 10.4251 9.86447C10.9076 9.37197 11.7051 9.14697 12.4701 9.14697C12.7176 9.14697 12.9401 9.15947 13.1401 9.16947C13.7276 9.19447 14.0226 9.22947 14.4101 10.157C14.8926 11.3195 16.0676 14.1895 16.2076 14.4845C16.3501 14.7795 16.4926 15.1795 16.2926 15.567C16.1051 15.967 15.9401 16.1445 15.6451 16.4845C15.3501 16.8245 15.0701 17.0845 14.7751 17.4495C14.5051 17.767 14.2001 18.107 14.5401 18.6945C14.8801 19.2695 16.0551 21.187 17.7851 22.727C20.0176 24.7145 21.8276 25.3495 22.4751 25.6195C22.9576 25.8195 23.5326 25.772 23.8851 25.397C24.3326 24.9145 24.8851 24.1145 25.4476 23.327C25.8476 22.762 26.3526 22.692 26.8826 22.892C27.4226 23.0795 30.2801 24.492 30.8676 24.7845C31.4551 25.0795 31.8426 25.2195 31.9851 25.467C32.1251 25.7145 32.1251 26.877 31.6426 28.242Z" fill="#333333"/>
</svg>
