<svg width="156" height="50" viewBox="0 0 156 50" fill="none" xmlns="http://www.w3.org/2000/svg">
<path d="M11.523 37.2931H40.25V8.28735C40.25 6.00212 38.5308 4.14368 36.4167 4.14368H11.5C9.1885 4.14368 5.75 5.79908 5.75 10.3592V39.3649C5.75 43.9251 9.1885 45.5805 11.5 45.5805H40.25V41.4368H11.523C10.6375 41.4119 9.58333 41.0348 9.58333 39.3649C9.58333 39.1557 9.60058 38.9692 9.62933 38.7993C9.844 37.6059 10.7487 37.3138 11.523 37.2931ZM16.5753 15.833C17.3731 14.9816 18.4491 14.5042 19.5701 14.5042C20.6912 14.5042 21.7671 14.9816 22.5649 15.833L22.9942 16.2867L23.4217 15.833C24.2198 14.9815 25.296 14.504 26.4174 14.504C27.5388 14.504 28.6151 14.9815 29.4132 15.833C29.8091 16.2446 30.124 16.7383 30.3391 17.2846C30.5543 17.8309 30.6652 18.4185 30.6652 19.0122C30.6652 19.606 30.5543 20.1936 30.3391 20.7399C30.124 21.2862 29.8091 21.7799 29.4132 22.1915L22.9962 29.0057L16.5773 22.1915C16.181 21.7802 15.8657 21.2866 15.6502 20.7404C15.4348 20.1941 15.3236 19.6065 15.3235 19.0127C15.3233 18.4189 15.4341 17.8311 15.6492 17.2847C15.8643 16.7383 16.1793 16.2445 16.5753 15.833Z" fill="#3A3F58"/>
<path d="M49.102 20.4189C48.6473 20.4189 48.2953 20.2942 48.046 20.0449C47.8113 19.7809 47.694 19.4216 47.694 18.9669V5.98689C47.694 5.51756 47.8113 5.16556 48.046 4.93089C48.2953 4.68155 48.6473 4.55689 49.102 4.55689C49.5567 4.55689 49.9013 4.68155 50.136 4.93089C50.3853 5.16556 50.51 5.51756 50.51 5.98689V11.3109H53.018L52.468 11.6849L56.516 5.28289C56.7213 4.97489 56.956 4.76956 57.22 4.66689C57.4987 4.56422 57.77 4.54222 58.034 4.60089C58.298 4.65956 58.5253 4.78422 58.716 4.97489C58.9067 5.16556 59.0093 5.40022 59.024 5.67889C59.0533 5.95756 58.9653 6.25822 58.76 6.58089L55.064 12.2349L53.964 11.4209C54.9173 11.5676 55.724 11.9122 56.384 12.4549C57.044 12.9976 57.6087 13.7529 58.078 14.7209L59.882 18.4169C60.0727 18.7836 60.1313 19.1136 60.058 19.4069C59.9993 19.7002 59.8527 19.9349 59.618 20.1109C59.398 20.2722 59.1413 20.3676 58.848 20.3969C58.5693 20.4262 58.2907 20.3749 58.012 20.2429C57.748 20.0962 57.5353 19.8542 57.374 19.5169L55.636 15.7769C55.284 15.0142 54.8587 14.4716 54.36 14.1489C53.876 13.8262 53.2673 13.6649 52.534 13.6649H50.51V18.9669C50.51 19.4216 50.3927 19.7809 50.158 20.0449C49.9233 20.2942 49.5713 20.4189 49.102 20.4189ZM63.7937 20.4189C63.3537 20.4189 63.009 20.3016 62.7597 20.0669C62.525 19.8176 62.4077 19.4656 62.4077 19.0109V10.6949C62.4077 10.2256 62.525 9.88089 62.7597 9.66089C63.009 9.42622 63.3537 9.30889 63.7937 9.30889C64.2337 9.30889 64.571 9.42622 64.8057 9.66089C65.0404 9.88089 65.1577 10.2256 65.1577 10.6949V13.6429H69.9097V10.6949C69.9097 10.2256 70.027 9.88089 70.2617 9.66089C70.4964 9.42622 70.8337 9.30889 71.2737 9.30889C71.7137 9.30889 72.051 9.42622 72.2857 9.66089C72.535 9.88089 72.6597 10.2256 72.6597 10.6949V19.0109C72.6597 19.4656 72.535 19.8176 72.2857 20.0669C72.051 20.3016 71.7137 20.4189 71.2737 20.4189C70.8337 20.4189 70.4964 20.3016 70.2617 20.0669C70.027 19.8176 69.9097 19.4656 69.9097 19.0109V15.7989H65.1577V19.0109C65.1577 19.4656 65.0404 19.8176 64.8057 20.0669C64.5857 20.3016 64.2484 20.4189 63.7937 20.4189ZM77.0685 20.4189C76.7898 20.4189 76.5551 20.3676 76.3645 20.2649C76.1738 20.1622 76.0271 20.0009 75.9245 19.7809C75.8365 19.5609 75.7925 19.2822 75.7925 18.9449V10.6289C75.7925 10.2036 75.9025 9.88089 76.1225 9.66089C76.3425 9.42622 76.6505 9.30889 77.0465 9.30889C77.4425 9.30889 77.7431 9.42622 77.9485 9.66089C78.1685 9.88089 78.2785 10.2036 78.2785 10.6289V17.4269H77.7065L83.1405 10.1889C83.3018 9.98356 83.4998 9.78556 83.7345 9.59489C83.9691 9.40422 84.2918 9.30889 84.7025 9.30889C84.9811 9.30889 85.2085 9.36022 85.3845 9.46289C85.5751 9.56556 85.7145 9.72689 85.8025 9.94689C85.9051 10.1522 85.9565 10.4236 85.9565 10.7609V19.0989C85.9565 19.5096 85.8465 19.8322 85.6265 20.0669C85.4211 20.3016 85.1205 20.4189 84.7245 20.4189C84.3138 20.4189 83.9985 20.3016 83.7785 20.0669C83.5731 19.8322 83.4705 19.5096 83.4705 19.0989V12.2789H84.0645L78.6085 19.5389C78.4618 19.7442 78.2711 19.9422 78.0365 20.1329C77.8165 20.3236 77.4938 20.4189 77.0685 20.4189ZM96.5938 20.4189C96.1538 20.4189 95.8165 20.3016 95.5818 20.0669C95.3471 19.8176 95.2298 19.4656 95.2298 19.0109V15.7989H94.1298C93.8071 15.7989 93.5285 15.8356 93.2938 15.9089C93.0738 15.9822 92.8685 16.1142 92.6778 16.3049C92.5018 16.4809 92.3185 16.7376 92.1278 17.0749L90.6538 19.6489C90.4778 19.9569 90.2578 20.1622 89.9938 20.2649C89.7298 20.3822 89.4658 20.4116 89.2018 20.3529C88.9378 20.3089 88.7031 20.2062 88.4978 20.0449C88.3071 19.8689 88.1825 19.6562 88.1238 19.4069C88.0798 19.1429 88.1458 18.8569 88.3218 18.5489L89.6418 16.2389C89.9058 15.7696 90.1698 15.3809 90.4338 15.0729C90.7125 14.7502 91.0058 14.5009 91.3138 14.3249C91.6365 14.1489 91.9958 14.0389 92.3918 13.9949L91.8858 14.8749L89.2238 11.3109C89.0185 11.0322 88.9158 10.7682 88.9158 10.5189C88.9158 10.2549 88.9891 10.0276 89.1358 9.83689C89.2971 9.64622 89.4951 9.51422 89.7298 9.44089C89.9645 9.36756 90.2065 9.36756 90.4558 9.44089C90.7198 9.51422 90.9545 9.69022 91.1598 9.96889L93.9318 13.6649H95.2298V10.7389C95.2298 10.2842 95.3471 9.93956 95.5818 9.70489C95.8165 9.45556 96.1538 9.33089 96.5938 9.33089C97.0338 9.33089 97.3711 9.45556 97.6058 9.70489C97.8551 9.93956 97.9798 10.2842 97.9798 10.7389V13.6649H99.2778L102.028 9.96889C102.233 9.69022 102.468 9.51422 102.732 9.44089C102.996 9.35289 103.245 9.34556 103.48 9.41889C103.714 9.49222 103.905 9.62422 104.052 9.81489C104.213 10.0056 104.294 10.2329 104.294 10.4969C104.294 10.7462 104.191 11.0102 103.986 11.2889L101.324 14.8749L100.796 13.9949C101.192 14.0389 101.544 14.1489 101.852 14.3249C102.174 14.5009 102.475 14.7502 102.754 15.0729C103.032 15.3809 103.304 15.7696 103.568 16.2389L104.866 18.5489C105.042 18.8569 105.1 19.1429 105.042 19.4069C104.998 19.6562 104.873 19.8689 104.668 20.0449C104.477 20.2062 104.25 20.3089 103.986 20.3529C103.722 20.4116 103.458 20.3822 103.194 20.2649C102.944 20.1622 102.732 19.9569 102.556 19.6489L101.082 17.0749C100.891 16.7376 100.7 16.4809 100.51 16.3049C100.334 16.1142 100.128 15.9822 99.8938 15.9089C99.6738 15.8356 99.4025 15.7989 99.0798 15.7989H97.9798V19.0109C97.9798 19.4656 97.8551 19.8176 97.6058 20.0669C97.3711 20.3016 97.0338 20.4189 96.5938 20.4189ZM108.632 20.4189C108.192 20.4189 107.847 20.3016 107.598 20.0669C107.363 19.8176 107.246 19.4656 107.246 19.0109V10.6949C107.246 10.2256 107.363 9.88089 107.598 9.66089C107.847 9.42622 108.192 9.30889 108.632 9.30889C109.072 9.30889 109.409 9.42622 109.644 9.66089C109.878 9.88089 109.996 10.2256 109.996 10.6949V13.6429H114.748V10.6949C114.748 10.2256 114.865 9.88089 115.1 9.66089C115.334 9.42622 115.672 9.30889 116.112 9.30889C116.552 9.30889 116.889 9.42622 117.124 9.66089C117.373 9.88089 117.498 10.2256 117.498 10.6949V19.0109C117.498 19.4656 117.373 19.8176 117.124 20.0669C116.889 20.3016 116.552 20.4189 116.112 20.4189C115.672 20.4189 115.334 20.3016 115.1 20.0669C114.865 19.8176 114.748 19.4656 114.748 19.0109V15.7989H109.996V19.0109C109.996 19.4656 109.878 19.8176 109.644 20.0669C109.424 20.3016 109.086 20.4189 108.632 20.4189ZM121.994 20.2429C121.554 20.2429 121.217 20.1256 120.982 19.8909C120.748 19.6562 120.63 19.3189 120.63 18.8789V10.6949C120.63 10.2256 120.748 9.88089 120.982 9.66089C121.232 9.42622 121.576 9.30889 122.016 9.30889C122.456 9.30889 122.794 9.42622 123.028 9.66089C123.263 9.88089 123.38 10.2256 123.38 10.6949V13.0489H126.218C127.641 13.0489 128.712 13.3496 129.43 13.9509C130.164 14.5522 130.53 15.4322 130.53 16.5909C130.53 17.3242 130.354 17.9696 130.002 18.5269C129.65 19.0696 129.152 19.4949 128.506 19.8029C127.876 20.0962 127.113 20.2429 126.218 20.2429H121.994ZM123.38 18.4389H125.8C126.49 18.4389 127.025 18.2922 127.406 17.9989C127.788 17.6909 127.978 17.2289 127.978 16.6129C127.978 16.0116 127.788 15.5716 127.406 15.2929C127.025 14.9996 126.49 14.8529 125.8 14.8529H123.38V18.4389ZM133.192 20.4189C132.752 20.4189 132.415 20.3016 132.18 20.0669C131.946 19.8176 131.828 19.4656 131.828 19.0109V10.6949C131.828 10.2256 131.946 9.88089 132.18 9.66089C132.415 9.42622 132.752 9.30889 133.192 9.30889C133.632 9.30889 133.97 9.42622 134.204 9.66089C134.454 9.88089 134.578 10.2256 134.578 10.6949V19.0109C134.578 19.9496 134.116 20.4189 133.192 20.4189ZM138.986 20.4189C138.708 20.4189 138.473 20.3676 138.282 20.2649C138.092 20.1622 137.945 20.0009 137.842 19.7809C137.754 19.5609 137.71 19.2822 137.71 18.9449V10.6289C137.71 10.2036 137.82 9.88089 138.04 9.66089C138.26 9.42622 138.568 9.30889 138.964 9.30889C139.36 9.30889 139.661 9.42622 139.866 9.66089C140.086 9.88089 140.196 10.2036 140.196 10.6289V17.4269H139.624L145.058 10.1889C145.22 9.98356 145.418 9.78556 145.652 9.59489C145.887 9.40422 146.21 9.30889 146.62 9.30889C146.899 9.30889 147.126 9.36022 147.302 9.46289C147.493 9.56556 147.632 9.72689 147.72 9.94689C147.823 10.1522 147.874 10.4236 147.874 10.7609V19.0989C147.874 19.5096 147.764 19.8322 147.544 20.0669C147.339 20.3016 147.038 20.4189 146.642 20.4189C146.232 20.4189 145.916 20.3016 145.696 20.0669C145.491 19.8322 145.388 19.5096 145.388 19.0989V12.2789H145.982L140.526 19.5389C140.38 19.7442 140.189 19.9422 139.954 20.1329C139.734 20.3236 139.412 20.4189 138.986 20.4189ZM142.792 8.12089C141.883 8.12089 141.091 7.91556 140.416 7.50489C139.742 7.07956 139.265 6.48556 138.986 5.72289C138.884 5.44422 138.869 5.21689 138.942 5.04089C139.03 4.85022 139.184 4.71822 139.404 4.64489C139.624 4.57156 139.815 4.57889 139.976 4.66689C140.152 4.75489 140.306 4.93089 140.438 5.19489C140.688 5.66422 141.003 6.01622 141.384 6.25089C141.78 6.48556 142.25 6.60289 142.792 6.60289C143.35 6.60289 143.819 6.48556 144.2 6.25089C144.596 6.01622 144.912 5.66422 145.146 5.19489C145.278 4.93089 145.425 4.75489 145.586 4.66689C145.762 4.57889 145.96 4.57156 146.18 4.64489C146.4 4.71822 146.547 4.85022 146.62 5.04089C146.708 5.21689 146.686 5.44422 146.554 5.72289C146.188 6.48556 145.696 7.07956 145.08 7.50489C144.464 7.91556 143.702 8.12089 142.792 8.12089ZM52.6 40.4629C51.456 40.4629 50.4587 40.2282 49.608 39.7589C48.772 39.2896 48.1267 38.5929 47.672 37.6689C47.2173 36.7302 46.99 35.5789 46.99 34.2149V32.6089C46.99 31.1569 47.2027 29.9469 47.628 28.9789C48.068 27.9962 48.7133 27.2116 49.564 26.6249C50.4293 26.0236 51.4927 25.5689 52.754 25.2609L55.614 24.5569C55.9953 24.4542 56.318 24.4762 56.582 24.6229C56.846 24.7549 57.0147 25.0042 57.088 25.3709C57.1613 25.7376 57.1027 26.0529 56.912 26.3169C56.7213 26.5662 56.428 26.7349 56.032 26.8229L52.952 27.5489C52.2187 27.7249 51.6027 28.0036 51.104 28.3849C50.6053 28.7516 50.224 29.2136 49.96 29.7709C49.7107 30.3282 49.586 30.9736 49.586 31.7069V32.8949H49.212C49.3587 32.2642 49.608 31.6996 49.96 31.2009C50.3267 30.7022 50.796 30.3136 51.368 30.0349C51.94 29.7416 52.6073 29.5949 53.37 29.5949C54.2647 29.5949 55.0567 29.8149 55.746 30.2549C56.45 30.6802 57 31.2889 57.396 32.0809C57.792 32.8729 57.99 33.8189 57.99 34.9189C57.99 36.0482 57.7627 37.0309 57.308 37.8669C56.868 38.6882 56.2447 39.3262 55.438 39.7809C54.6313 40.2356 53.6853 40.4629 52.6 40.4629ZM52.49 38.3729C53.0767 38.3729 53.568 38.2482 53.964 37.9989C54.3747 37.7349 54.6827 37.3536 54.888 36.8549C55.108 36.3562 55.218 35.7476 55.218 35.0289C55.218 33.9582 54.976 33.1369 54.492 32.5649C54.0227 31.9782 53.3553 31.6849 52.49 31.6849C51.918 31.6849 51.4267 31.8169 51.016 32.0809C50.6053 32.3302 50.29 32.6969 50.07 33.1809C49.8647 33.6649 49.762 34.2442 49.762 34.9189C49.762 36.0482 49.9967 36.9062 50.466 37.4929C50.95 38.0796 51.6247 38.3729 52.49 38.3729ZM63.1167 44.3789C62.794 44.3789 62.53 44.2909 62.3247 44.1149C62.1194 43.9536 61.9947 43.7336 61.9507 43.4549C61.9214 43.1762 61.9727 42.8829 62.1047 42.5749L63.6007 39.2529V40.3969L59.5967 31.1349C59.4647 30.8122 59.4207 30.5116 59.4647 30.2329C59.5087 29.9542 59.6407 29.7342 59.8607 29.5729C60.0954 29.3969 60.4107 29.3089 60.8067 29.3089C61.144 29.3089 61.4154 29.3896 61.6207 29.5509C61.826 29.6976 62.0094 29.9836 62.1707 30.4089L65.1407 37.8229H64.4807L67.5167 30.3869C67.678 29.9762 67.8687 29.6976 68.0887 29.5509C68.3087 29.3896 68.602 29.3089 68.9687 29.3089C69.2914 29.3089 69.548 29.3969 69.7387 29.5729C69.9294 29.7342 70.0467 29.9542 70.0907 30.2329C70.1347 30.4969 70.0834 30.7902 69.9367 31.1129L64.5907 43.3229C64.4 43.7336 64.1947 44.0122 63.9747 44.1589C63.7547 44.3056 63.4687 44.3789 63.1167 44.3789ZM73.6335 40.4189C73.1935 40.4189 72.8489 40.3016 72.5995 40.0669C72.3649 39.8176 72.2475 39.4656 72.2475 39.0109V30.6949C72.2475 30.2256 72.3649 29.8809 72.5995 29.6609C72.8489 29.4262 73.1935 29.3089 73.6335 29.3089C74.0735 29.3089 74.4109 29.4262 74.6455 29.6609C74.8802 29.8809 74.9975 30.2256 74.9975 30.6949V33.6429H79.7495V30.6949C79.7495 30.2256 79.8669 29.8809 80.1015 29.6609C80.3362 29.4262 80.6735 29.3089 81.1135 29.3089C81.5535 29.3089 81.8909 29.4262 82.1255 29.6609C82.3749 29.8809 82.4995 30.2256 82.4995 30.6949V39.0109C82.4995 39.4656 82.3749 39.8176 82.1255 40.0669C81.8909 40.3016 81.5535 40.4189 81.1135 40.4189C80.6735 40.4189 80.3362 40.3016 80.1015 40.0669C79.8669 39.8176 79.7495 39.4656 79.7495 39.0109V35.7989H74.9975V39.0109C74.9975 39.4656 74.8802 39.8176 74.6455 40.0669C74.4255 40.3016 74.0882 40.4189 73.6335 40.4189ZM87.0183 40.4189C86.5783 40.4189 86.2336 40.3016 85.9843 40.0669C85.7496 39.8176 85.6323 39.4656 85.6323 39.0109V30.7389C85.6323 30.2842 85.7496 29.9396 85.9843 29.7049C86.2336 29.4556 86.5783 29.3309 87.0183 29.3309C87.4583 29.3309 87.7956 29.4556 88.0303 29.7049C88.265 29.9396 88.3823 30.2842 88.3823 30.7389V33.6649H89.9443L92.6943 29.9689C92.8996 29.6902 93.1343 29.5142 93.3983 29.4409C93.6623 29.3529 93.9116 29.3456 94.1463 29.4189C94.3956 29.4922 94.5936 29.6242 94.7403 29.8149C94.9016 30.0056 94.9823 30.2329 94.9823 30.4969C94.997 30.7462 94.9016 31.0102 94.6963 31.2889L92.0783 34.8749L91.4843 33.9949C91.8803 34.0389 92.2323 34.1489 92.5403 34.3249C92.863 34.5009 93.1563 34.7502 93.4203 35.0729C93.699 35.3809 93.9703 35.7696 94.2343 36.2389L95.5323 38.5489C95.7083 38.8569 95.767 39.1429 95.7083 39.4069C95.6643 39.6562 95.5396 39.8689 95.3343 40.0449C95.1436 40.2209 94.9163 40.3309 94.6523 40.3749C94.3883 40.4189 94.1243 40.3822 93.8603 40.2649C93.611 40.1622 93.3983 39.9569 93.2223 39.6489L91.7483 37.0749C91.5576 36.7376 91.367 36.4809 91.1763 36.3049C91.0003 36.1142 90.795 35.9822 90.5603 35.9089C90.3403 35.8356 90.069 35.7989 89.7463 35.7989H88.3823V39.0109C88.3823 39.4656 88.265 39.8176 88.0303 40.0669C87.7956 40.3016 87.4583 40.4189 87.0183 40.4189ZM103.245 40.4629C102.028 40.4629 100.979 40.2356 100.099 39.7809C99.2194 39.3262 98.5374 38.6809 98.0534 37.8449C97.584 37.0089 97.3494 36.0189 97.3494 34.8749C97.3494 33.7602 97.5767 32.7849 98.0314 31.9489C98.5007 31.1129 99.1387 30.4602 99.9454 29.9909C100.767 29.5069 101.698 29.2649 102.739 29.2649C103.502 29.2649 104.184 29.3896 104.785 29.6389C105.401 29.8882 105.922 30.2476 106.347 30.7169C106.787 31.1862 107.117 31.7582 107.337 32.4329C107.572 33.0929 107.689 33.8409 107.689 34.6769C107.689 34.9409 107.594 35.1462 107.403 35.2929C107.227 35.4249 106.971 35.4909 106.633 35.4909H99.5714V33.9069H105.753L105.401 34.2369C105.401 33.5622 105.299 32.9976 105.093 32.5429C104.903 32.0882 104.617 31.7436 104.235 31.5089C103.869 31.2596 103.407 31.1349 102.849 31.1349C102.233 31.1349 101.705 31.2816 101.265 31.5749C100.84 31.8536 100.51 32.2569 100.275 32.7849C100.055 33.2982 99.9454 33.9142 99.9454 34.6329V34.7869C99.9454 35.9896 100.224 36.8916 100.781 37.4929C101.353 38.0796 102.189 38.3729 103.289 38.3729C103.671 38.3729 104.096 38.3289 104.565 38.2409C105.049 38.1382 105.504 37.9696 105.929 37.7349C106.237 37.5589 106.509 37.4856 106.743 37.5149C106.978 37.5296 107.161 37.6102 107.293 37.7569C107.44 37.9036 107.528 38.0869 107.557 38.3069C107.587 38.5122 107.543 38.7249 107.425 38.9449C107.323 39.1649 107.139 39.3556 106.875 39.5169C106.362 39.8396 105.768 40.0816 105.093 40.2429C104.433 40.3896 103.817 40.4629 103.245 40.4629ZM111.532 44.3789C111.092 44.3789 110.755 44.2616 110.52 44.0269C110.285 43.7922 110.168 43.4476 110.168 42.9929V30.6949C110.168 30.2402 110.285 29.8956 110.52 29.6609C110.755 29.4262 111.085 29.3089 111.51 29.3089C111.95 29.3089 112.287 29.4262 112.522 29.6609C112.757 29.8956 112.874 30.2402 112.874 30.6949V32.4109L112.632 31.7509C112.852 31.0029 113.299 30.4016 113.974 29.9469C114.663 29.4922 115.463 29.2649 116.372 29.2649C117.311 29.2649 118.132 29.4922 118.836 29.9469C119.555 30.4016 120.112 31.0469 120.508 31.8829C120.904 32.7042 121.102 33.6942 121.102 34.8529C121.102 35.9969 120.904 36.9942 120.508 37.8449C120.112 38.6809 119.562 39.3262 118.858 39.7809C118.154 40.2356 117.325 40.4629 116.372 40.4629C115.477 40.4629 114.693 40.2429 114.018 39.8029C113.343 39.3482 112.889 38.7616 112.654 38.0429H112.918V42.9929C112.918 43.4476 112.793 43.7922 112.544 44.0269C112.309 44.2616 111.972 44.3789 111.532 44.3789ZM115.602 38.3729C116.145 38.3729 116.621 38.2409 117.032 37.9769C117.443 37.7129 117.758 37.3242 117.978 36.8109C118.213 36.2829 118.33 35.6302 118.33 34.8529C118.33 33.6796 118.081 32.8069 117.582 32.2349C117.083 31.6482 116.423 31.3549 115.602 31.3549C115.059 31.3549 114.583 31.4869 114.172 31.7509C113.761 32.0002 113.439 32.3889 113.204 32.9169C112.984 33.4302 112.874 34.0756 112.874 34.8529C112.874 36.0116 113.123 36.8916 113.622 37.4929C114.121 38.0796 114.781 38.3729 115.602 38.3729Z" fill="#3A3F58"/>
</svg>
