<?xml version="1.0" encoding="utf-8"?>
<!-- Generator: Adobe Illustrator 22.0.0, SVG Export Plug-In . SVG Version: 6.00 Build 0)  -->
<svg version="1.1" id="Layer_1" xmlns="http://www.w3.org/2000/svg" xmlns:xlink="http://www.w3.org/1999/xlink" x="0px" y="0px"
	 viewBox="0 0 595.3 841.9" style="enable-background:new 0 0 595.3 841.9;" xml:space="preserve">
<style type="text/css">
	.st0{fill:#55C18F;}
	.st1{fill:#EE379D;}
	.st2{fill:#00B5E2;}
</style>
<g>
	<path class="st0" d="M266.8,464.9c-5.6,0-8.8-3-8.8-7.3c0-4.1,3.2-7.9,9.4-7.9c2.2,0,4.5,0.3,6.5,1.1v-2.4c0-2.6-2.5-3.9-5.3-3.9
		c-3.1,0-5.9,0.8-7.5,1.4l-1.2-4.4c2.8-1.4,5.9-2,9.2-2c6.2,0,11.6,1.9,11.6,8.9v8.8c0,2.1-0.1,3.3,2.3,3.1l0.1,3.9
		c-3.7,0.8-7.7,0.6-7.7-3.7C273.8,463.7,269.9,464.9,266.8,464.9z M268.8,454.1c-2.5,0-3.8,1.3-3.8,3.1c0,1.2,1.1,2.5,3.3,2.5
		c2.3,0,5.4-1.4,5.6-4.7C272.8,454.5,270.7,454.1,268.8,454.1z"/>
	<path class="st0" d="M303.5,463.3c-2.2,1-4.3,1.5-6.2,1.5c-6.4,0.1-11.1-4.3-11.1-12.2c0-9.2,6.4-13.2,13.8-13
		c3.6,0,7.1,0.9,10.3,2.2v22.8c0,8.7-5.4,12.4-11.9,12.4c-3.4,0-7.1-0.9-10.5-2.7l0.9-5.4c2.6,1.4,5.9,2.5,8.8,2.5
		c3.3-0.1,5.9-1.7,5.9-6.5V463.3z M303.4,445.9c-1.4-0.4-2.8-0.5-4.1-0.5c-3.7,0-6.1,2-6.1,6.8c0,4.5,2.4,6.6,5.7,6.6
		c1.4,0,3-0.4,4.5-1.3V445.9z"/>
	<path class="st0" d="M338.8,454.5h-16.4c0.5,4,3.8,4.6,6.5,4.8c3,0.2,6.1-0.3,9-1.5l0.8,5c-2.9,1.4-6.2,2.1-9.4,2.1
		c-8.4,0-13.9-4.7-13.9-13c0-8.2,6.5-12.3,12.8-12.3C336.9,439.6,340.7,446.2,338.8,454.5z M322.4,450.1h10.8
		c0.4-3.2-1.8-5.3-5.1-5.3C324.5,444.7,323,447.2,322.4,450.1z"/>
</g>
<path class="st1" d="M231.7,376.3L212.2,410c-3.9,6.8,1,15.2,8.8,15.2h38.9c7.8,0,12.7-8.4,8.8-15.2l-19.5-33.7
	C245.3,369.6,235.6,369.6,231.7,376.3z"/>
<path class="st2" d="M358.7,403.7c-4,0-6.5-4.3-4.5-7.8l14.7-25.5c0,0,0.8-1.3,0.1-2.2c-0.5-0.7-1.2-0.8-2.4-1.1
	c-2.8-0.6-5.6-0.8-8.6-0.5c-14.8,1.3-26.6,13.6-27.1,28.5c-0.6,16.9,12.9,30.9,29.7,30.9c13,0,24-8.3,28.1-19.9
	c0.3-0.8,0.3-1.4-0.1-1.9c-0.5-0.6-2-0.5-2-0.5H358.7z"/>
<path class="st0" d="M246.3,453.4h-33.2c-1.4,0-2.6-1.2-2.6-2.6l0,0c0-1.4,1.2-2.6,2.6-2.6h33.2c1.4,0,2.6,1.2,2.6,2.6l0,0
	C248.8,452.2,247.7,453.4,246.3,453.4z"/>
<path class="st0" d="M386,453.4h-33.2c-1.4,0-2.6-1.2-2.6-2.6l0,0c0-1.4,1.2-2.6,2.6-2.6H386c1.4,0,2.6,1.2,2.6,2.6l0,0
	C388.5,452.2,387.4,453.4,386,453.4z"/>
<path class="st0" d="M308.5,388.5c5.3-0.9,9.4-5.6,9.4-11.2c0-6.3-5.1-11.3-11.3-11.3c-0.6,0-3.1,0-3.9,0h-15.5
	c-2.4,0-4.4,2-4.4,4.4v50.2c0,2.4,2,4.4,4.4,4.4h15.5c0.8,0,3.9,0,4.7,0c10.1,0,18.2-8.2,18.2-18.2C325.6,397,318,389.1,308.5,388.5
	z"/>
</svg>
