<svg width="261" height="59" viewBox="0 0 261 59" fill="none" xmlns="http://www.w3.org/2000/svg">
<path d="M179.895 22.9523C177.364 22.9523 176.156 21.5144 176.156 20.134C176.156 18.0064 177.652 16.5685 180.527 16.5685C182.77 16.5685 185.128 17.0286 186.336 17.603C186.049 21.3991 182.54 22.9523 179.895 22.9523ZM194.043 20.2493V10.1846C194.043 2.18986 187.946 0.0612564 180.814 0.0612564C177.077 0.0612564 173.511 0.694271 170.348 2.30513L171.728 7.36631C173.568 6.67566 176.789 5.75545 180.297 5.75545C183.518 5.75545 186.336 7.19341 186.336 10.1846V12.8876C184.094 11.9664 181.505 11.6216 178.975 11.6216C171.9 11.6216 168.22 15.9354 168.22 20.5942C168.22 25.4824 171.843 28.8751 178.285 28.8751C181.851 28.8751 186.221 27.4958 187.89 24.0454C187.89 28.9904 192.491 29.2209 196.688 28.3007L196.631 23.8149C193.985 23.9868 194.043 22.6065 194.043 20.2493Z" fill="#55C18F"/>
<path d="M220.094 20.4791C218.311 21.456 216.528 21.917 214.917 21.917C211.18 21.917 208.418 19.5589 208.418 14.3824C208.418 8.91877 211.18 6.61823 215.377 6.61823C216.931 6.61823 218.54 6.79016 220.094 7.19263V20.4791ZM200.423 14.8425C200.423 23.9294 205.774 28.9329 213.077 28.8187C215.32 28.761 217.736 28.2433 220.209 27.0935V28.8187C220.209 34.339 217.218 36.1804 213.422 36.237C210.202 36.237 206.405 34.972 203.416 33.3621L202.379 39.573C206.29 41.644 210.489 42.6795 214.399 42.6795C221.82 42.6795 227.973 38.4233 227.973 28.5305V2.5349C224.292 0.982651 220.323 0.0048027 216.182 0.0048027C207.671 -0.168102 200.423 4.3177 200.423 14.8425Z" fill="#55C18F"/>
<path d="M254.082 11.9668H241.716C242.406 8.63078 244.189 5.87112 248.215 5.87112C252.011 5.87112 254.483 8.34456 254.082 11.9668ZM248.215 0.00401878C241.084 0.00401878 233.664 4.72036 233.664 14.0954C233.664 23.4695 239.991 28.8755 249.538 28.8755C253.218 28.8755 257.014 28.0129 260.292 26.4597L259.373 20.7665C256.037 22.1468 252.528 22.6645 249.077 22.4916C246.087 22.2044 242.233 21.5138 241.716 16.9704H260.466C262.593 7.53864 258.337 0.00401878 248.215 0.00401878Z" fill="#55C18F"/>
<path d="M169.035 37.4971C168.582 36.9344 167.133 37.036 167.133 37.036H140.089C136.218 37.036 133.798 32.8452 135.733 29.4926L149.969 4.83533C149.969 4.83533 150.735 3.53218 150.095 2.74482C149.565 2.09129 148.954 1.94965 147.774 1.70543C145.115 1.15546 142.321 0.971802 139.446 1.2209C125.094 2.46153 113.765 14.3735 113.231 28.7687C112.624 45.145 125.72 58.6122 141.962 58.6122C154.506 58.6122 165.173 50.5784 169.099 39.3756C169.368 38.6097 169.423 37.9777 169.035 37.4971Z" fill="#00B5E2"/>
<path d="M85.8337 57.6194H90.4103C100.152 57.6194 108.048 49.7224 108.048 39.981C108.048 30.5981 100.72 22.9297 91.4761 22.3778C96.631 21.48 100.551 16.9874 100.551 11.5755C100.551 5.51692 95.6405 0.606178 89.5819 0.606178H85.8337H70.8572C68.5362 0.606178 66.6371 2.50522 66.6371 4.82725V53.3993C66.6371 55.7204 68.5362 57.6194 70.8572 57.6194H85.8337Z" fill="#55C18F"/>
<path d="M55.9451 43.1848L37.1207 10.5806C33.35 4.04829 23.9222 4.04829 20.1505 10.5806L1.32712 43.1848C-2.44361 49.7161 2.2698 57.8808 9.81126 57.8808H23.4162H25.5917H47.4599C55.0024 57.8808 59.7158 49.7161 55.9451 43.1848Z" fill="#EE379D"/>
</svg>
