<svg width="50" height="50" viewBox="0 0 50 50" fill="none" xmlns="http://www.w3.org/2000/svg">
<path fill-rule="evenodd" clip-rule="evenodd" d="M25 0C11.1929 0 0 11.1929 0 25C0 38.8071 11.1929 50 25 50C38.8071 50 50 38.8071 50 25C50 11.1929 38.8071 0 25 0ZM19.5036 11.7474C20.9259 11.6827 21.3803 11.6669 25.0015 11.6669H24.9973C28.6196 11.6669 29.0724 11.6827 30.4946 11.7474C31.9141 11.8124 32.8835 12.0372 33.7335 12.3669C34.6113 12.7072 35.353 13.1627 36.0947 13.9044C36.8363 14.6455 37.2919 15.3894 37.6336 16.2664C37.9613 17.1141 38.1863 18.083 38.253 19.5025C38.3169 20.9247 38.3336 21.3792 38.3336 25.0003C38.3336 28.6215 38.3169 29.0748 38.253 30.4971C38.1863 31.916 37.9613 32.8851 37.6336 33.7332C37.2919 34.6099 36.8363 35.3538 36.0947 36.0949C35.3538 36.8366 34.611 37.2932 33.7344 37.6338C32.886 37.9635 31.916 38.1883 30.4965 38.2533C29.0743 38.318 28.6212 38.3338 24.9998 38.3338C21.3789 38.3338 20.9248 38.318 19.5025 38.2533C18.0834 38.1883 17.1142 37.9635 16.2658 37.6338C15.3894 37.2932 14.6455 36.8366 13.9047 36.0949C13.1633 35.3538 12.7077 34.6099 12.3669 33.7329C12.0375 32.8851 11.8127 31.9162 11.7475 30.4968C11.683 29.0746 11.6669 28.6215 11.6669 25.0003C11.6669 21.3792 11.6836 20.9245 11.7472 19.5022C11.8111 18.0833 12.0361 17.1141 12.3666 16.2661C12.7083 15.3894 13.1639 14.6455 13.9055 13.9044C14.6467 13.163 15.3905 12.7074 16.2675 12.3669C17.1153 12.0372 18.0842 11.8124 19.5036 11.7474Z" fill="#878787" fill-opacity="0.4"/>
<path fill-rule="evenodd" clip-rule="evenodd" d="M23.8055 14.0689C24.0377 14.0685 24.2876 14.0686 24.5572 14.0688L25.0016 14.0689C28.5616 14.0689 28.9836 14.0817 30.3894 14.1456C31.6894 14.205 32.395 14.4222 32.865 14.6047C33.4872 14.8464 33.9309 15.1353 34.3972 15.602C34.8639 16.0686 35.1528 16.5131 35.395 17.1353C35.5775 17.6048 35.795 18.3103 35.8542 19.6103C35.9181 21.0159 35.932 21.4381 35.932 24.9965C35.932 28.5549 35.9181 28.9771 35.8542 30.3827C35.7948 31.6827 35.5775 32.3882 35.395 32.8577C35.1534 33.4799 34.8639 33.923 34.3972 34.3894C33.9306 34.856 33.4875 35.1449 32.865 35.3866C32.3956 35.5699 31.6894 35.7866 30.3894 35.8461C28.9839 35.9099 28.5616 35.9238 25.0016 35.9238C21.4413 35.9238 21.0193 35.9099 19.6138 35.8461C18.3137 35.7861 17.6082 35.5688 17.1379 35.3863C16.5157 35.1447 16.0712 34.8558 15.6045 34.3891C15.1379 33.9224 14.849 33.4791 14.6068 32.8566C14.4243 32.3871 14.2068 31.6816 14.1476 30.3816C14.0837 28.976 14.0709 28.5538 14.0709 24.9932C14.0709 21.4326 14.0837 21.0126 14.1476 19.607C14.207 18.307 14.4243 17.6014 14.6068 17.1314C14.8484 16.5092 15.1379 16.0647 15.6045 15.5981C16.0712 15.1314 16.5157 14.8425 17.1379 14.6003C17.6079 14.4169 18.3137 14.2003 19.6138 14.1406C20.8438 14.085 21.3204 14.0683 23.8055 14.0656V14.0689ZM32.1186 16.2826C31.2353 16.2826 30.5186 16.9984 30.5186 17.882C30.5186 18.7654 31.2353 19.482 32.1186 19.482C33.002 19.482 33.7186 18.7654 33.7186 17.882C33.7186 16.9987 33.002 16.282 32.1186 16.282V16.2826ZM18.1544 24.9985C18.1544 21.2172 21.2201 18.1514 25.0014 18.1512C28.7829 18.1512 31.8479 21.2171 31.8479 24.9985C31.8479 28.7799 28.7831 31.8444 25.0017 31.8444C21.2203 31.8444 18.1544 28.7799 18.1544 24.9985Z" fill="#878787" fill-opacity="0.4"/>
<path fill-rule="evenodd" clip-rule="evenodd" d="M25.0011 20.5551C27.4556 20.5551 29.4456 22.5449 29.4456 24.9996C29.4456 27.4541 27.4556 29.4441 25.0011 29.4441C22.5464 29.4441 20.5566 27.4541 20.5566 24.9996C20.5566 22.5449 22.5464 20.5551 25.0011 20.5551V20.5551Z" fill="#878787" fill-opacity="0.4"/>
</svg>
