<svg width="16" height="16" viewBox="0 0 16 16" fill="none" xmlns="http://www.w3.org/2000/svg">
<path fill-rule="evenodd" clip-rule="evenodd" d="M11.2438 10.1743L15.2788 14.2093C15.4206 14.3512 15.5002 14.5436 15.5001 14.7443C15.5001 14.9449 15.4203 15.1373 15.2784 15.2791C15.1365 15.421 14.944 15.5006 14.7434 15.5005C14.5427 15.5005 14.3503 15.4207 14.2085 15.2788L10.1735 11.2438C8.96729 12.178 7.45047 12.6177 5.9316 12.4733C4.41274 12.3289 3.00593 11.6113 1.99737 10.4665C0.988808 9.32165 0.454252 7.83562 0.502448 6.31067C0.550644 4.78572 1.17797 3.3364 2.25681 2.25756C3.33565 1.17872 4.78497 0.551392 6.30992 0.503196C7.83487 0.455 9.3209 0.989556 10.4657 1.99812C11.6105 3.00668 12.3281 4.41349 12.4725 5.93235C12.6169 7.45122 12.1773 8.96804 11.243 10.1743H11.2438ZM6.50001 11C7.69348 11 8.83808 10.5259 9.68199 9.68199C10.5259 8.83807 11 7.69348 11 6.50001C11 5.30653 10.5259 4.16194 9.68199 3.31803C8.83808 2.47411 7.69348 2.00001 6.50001 2.00001C5.30653 2.00001 4.16194 2.47411 3.31803 3.31803C2.47411 4.16194 2.00001 5.30653 2.00001 6.50001C2.00001 7.69348 2.47411 8.83807 3.31803 9.68199C4.16194 10.5259 5.30653 11 6.50001 11Z" fill="#848282"/>
</svg>
