<svg width="109" height="12" viewBox="0 0 109 12" fill="none" xmlns="http://www.w3.org/2000/svg">
<path d="M1 7V11H5" stroke="black"/>
<path d="M1 5V1H5" stroke="black"/>
<path d="M7 1H11V5" stroke="black"/>
<path d="M11 7V11H7" stroke="black"/>
<path d="M1 1L11 11" stroke="black"/>
<path d="M11 1L1 11" stroke="black" stroke-width="1.4"/>
<path d="M27.3853 0.897461V10H26.4077V1.81152H21.3423V10H20.3647V0.897461H27.3853ZM30.1147 0.897461H33.5615C34.4036 0.897461 35.1019 1.17041 35.6562 1.71631C36.2106 2.26221 36.4878 2.94352 36.4878 3.76025C36.4878 4.57275 36.2085 5.25407 35.6499 5.8042C35.0955 6.3501 34.3994 6.62305 33.5615 6.62305H31.0923V10H30.1147V0.897461ZM33.5615 1.81152H31.0923V5.70898H33.5615C34.1497 5.70898 34.6216 5.53125 34.9771 5.17578C35.3325 4.82031 35.5103 4.34847 35.5103 3.76025C35.5103 3.17204 35.3325 2.7002 34.9771 2.34473C34.6216 1.98926 34.1497 1.81152 33.5615 1.81152ZM45.9775 10H45.0063V2.65576L39.4141 10H38.5698V0.897461H39.5474V8.24805L45.1333 0.897461H45.9775V10ZM49.6909 1.81152V4.54102H52.2236C53.0277 4.54102 53.7048 4.80762 54.2549 5.34082C54.8092 5.87402 55.0864 6.51725 55.0864 7.27051C55.0864 8.02376 54.8092 8.66699 54.2549 9.2002C53.7048 9.7334 53.0277 10 52.2236 10H48.7134V0.897461H54.3691V1.81152H49.6909ZM49.6909 9.09229H52.2236C52.7695 9.09229 53.2202 8.91878 53.5757 8.57178C53.9312 8.22477 54.1089 7.79102 54.1089 7.27051C54.1089 6.75 53.9312 6.31624 53.5757 5.96924C53.2202 5.62223 52.7695 5.44873 52.2236 5.44873H49.6909V9.09229ZM64.0557 0.897461V10H63.0845V1.81152H59.1807V3.62695C59.1807 4.96842 59.1235 6.08138 59.0093 6.96582C58.8993 7.84603 58.7257 8.51253 58.4888 8.96533C58.256 9.4139 57.9958 9.7207 57.708 9.88574C57.4245 10.0465 57.0711 10.127 56.6479 10.127C56.5083 10.127 56.3687 10.1164 56.229 10.0952C56.0936 10.0741 55.9899 10.0508 55.918 10.0254L55.8037 10V9.02246C56.0618 9.1071 56.2988 9.15153 56.5146 9.15576C56.7812 9.15576 57.0076 9.09017 57.1938 8.95898C57.3843 8.8278 57.562 8.57601 57.7271 8.20361C57.8921 7.83122 58.0127 7.26628 58.0889 6.50879C58.1693 5.7513 58.2095 4.79069 58.2095 3.62695V0.897461H64.0557ZM74.1992 10H73.228V2.65576L67.6357 10H66.7915V0.897461H67.769V8.24805L73.355 0.897461H74.1992V10ZM80.6421 5.18848C80.6929 5.19694 80.7585 5.2181 80.8389 5.25195C80.9235 5.28158 81.0737 5.35563 81.2896 5.47412C81.5054 5.58838 81.6979 5.7238 81.8672 5.88037C82.0365 6.03695 82.1888 6.257 82.3242 6.54053C82.4596 6.81982 82.5273 7.12874 82.5273 7.46729C82.5273 8.17822 82.2163 8.80029 81.5942 9.3335C80.9764 9.86247 80.1808 10.127 79.2075 10.127C78.8097 10.127 78.4246 10.0783 78.0522 9.98096C77.6799 9.87939 77.3709 9.7609 77.1255 9.62549C76.8843 9.48584 76.6706 9.34619 76.4844 9.20654C76.2982 9.06689 76.167 8.95052 76.0908 8.85742L75.9575 8.69873L76.6113 8.05127C76.6367 8.08512 76.6727 8.12956 76.7192 8.18457C76.77 8.23535 76.8758 8.32845 77.0366 8.46387C77.2017 8.59505 77.3773 8.71354 77.5635 8.81934C77.7497 8.9209 77.993 9.014 78.2935 9.09863C78.5939 9.17904 78.8986 9.21924 79.2075 9.21924C79.9269 9.21924 80.4961 9.04574 80.915 8.69873C81.3382 8.35173 81.5498 7.94124 81.5498 7.46729C81.5498 6.95524 81.3382 6.5236 80.915 6.17236C80.4961 5.82113 79.9269 5.64551 79.2075 5.64551H78.1729V4.73779H79.2075C79.8296 4.73779 80.3205 4.5918 80.6802 4.2998C81.0441 4.00781 81.2261 3.65446 81.2261 3.23975C81.2261 2.79964 81.0462 2.42936 80.6865 2.12891C80.3268 1.82845 79.8338 1.67822 79.2075 1.67822C78.7843 1.67822 78.3844 1.76497 78.0078 1.93848C77.6312 2.11198 77.3561 2.28548 77.1826 2.45898L76.9351 2.71924L76.2876 2.07178C76.313 2.03792 76.3532 1.99137 76.4082 1.93213C76.4632 1.86865 76.5838 1.76286 76.77 1.61475C76.9562 1.46663 77.153 1.33757 77.3604 1.22754C77.5719 1.11328 77.8428 1.0096 78.1729 0.916504C78.5072 0.819173 78.8521 0.770508 79.2075 0.770508C80.1174 0.770508 80.8431 1.00326 81.3848 1.46875C81.9264 1.93001 82.1973 2.49919 82.1973 3.17627C82.1973 3.47249 82.1423 3.74121 82.0322 3.98242C81.9264 4.22363 81.7974 4.41618 81.645 4.56006C81.4969 4.70394 81.3467 4.82666 81.1943 4.92822C81.042 5.02555 80.9087 5.09538 80.7944 5.1377L80.6421 5.18848ZM92.0742 10H91.103V2.65576L85.5107 10H84.6665V0.897461H85.644V8.24805L91.23 0.897461H92.0742V10ZM93.7056 0.897461H100.402V1.81152H97.5396V10H96.5684V1.81152H93.7056V0.897461ZM105.468 10H102.021V0.897461H102.999V4.28076H105.468C106.31 4.28076 107.008 4.55371 107.562 5.09961C108.117 5.64551 108.394 6.32682 108.394 7.14355C108.394 7.95605 108.117 8.63525 107.562 9.18115C107.008 9.72705 106.31 10 105.468 10ZM102.999 9.09229H105.468C106.056 9.09229 106.528 8.91455 106.883 8.55908C107.239 8.20361 107.417 7.73177 107.417 7.14355C107.417 6.55111 107.239 6.07715 106.883 5.72168C106.528 5.36621 106.056 5.18848 105.468 5.18848H102.999V9.09229Z" fill="black"/>
</svg>
