<svg width="30" height="31" viewBox="0 0 30 31" fill="none" xmlns="http://www.w3.org/2000/svg">
<path fill-rule="evenodd" clip-rule="evenodd" d="M9.85714 3.81689H20.1429C21.9615 3.81689 23.7056 4.53944 24.9916 5.8254C26.2776 7.11137 27 8.85541 27 10.674V20.9598C27 22.7784 26.2776 24.5224 24.9916 25.8084C23.7056 27.0943 21.9615 27.8169 20.1429 27.8169H9.85714C8.03852 27.8169 6.29437 27.0943 5.00841 25.8084C3.72244 24.5224 3 22.7784 3 20.9598V10.674C3 8.85541 3.72244 7.11137 5.00841 5.8254C6.29437 4.53944 8.03852 3.81689 9.85714 3.81689ZM15 10.2199C16.107 10.2199 17.1892 10.5479 18.1097 11.1629C19.0301 11.7779 19.7475 12.6521 20.1711 13.6749C20.5947 14.6976 20.7056 15.8231 20.4896 16.9088C20.2736 17.9946 19.7406 18.9917 18.9578 19.7745C18.175 20.5573 17.1777 21.0903 16.0919 21.3063C15.0062 21.5223 13.8808 21.4114 12.8581 20.9878C11.8353 20.5642 10.9612 19.847 10.3462 18.9265C9.73117 18.0061 9.40283 16.9239 9.40283 15.8169C9.40227 15.0817 9.54666 14.3538 9.82774 13.6745C10.1088 12.9951 10.5211 12.3779 11.0409 11.858C11.5608 11.3382 12.178 10.9258 12.8574 10.6447C13.5367 10.3637 14.2648 10.2194 15 10.2199ZM21.4028 7.00565C21.7207 7.0065 22.0312 7.10123 22.295 7.27853C22.5588 7.45583 22.7642 7.70775 22.885 8.00174C23.0059 8.29573 23.0368 8.61887 22.974 8.93045C22.9111 9.24204 22.7573 9.52786 22.5319 9.75202C22.3066 9.97619 22.0199 10.1286 21.7079 10.1898C21.396 10.251 21.0729 10.2181 20.7795 10.0956C20.4862 9.97321 20.2358 9.76651 20.0599 9.50174C19.884 9.23698 19.7906 8.92605 19.7914 8.60819C19.7918 8.3971 19.8339 8.1882 19.9152 7.99337C19.9964 7.79855 20.1153 7.62159 20.265 7.47273C20.4146 7.32386 20.5921 7.20597 20.7874 7.12577C20.9826 7.04556 21.1917 7.00497 21.4028 7.00565Z" fill="url(#paint0_radial_96_360)"/>
<defs>
<radialGradient id="paint0_radial_96_360" cx="0" cy="0" r="1" gradientUnits="userSpaceOnUse" gradientTransform="translate(7.35556 25.2073) rotate(-44.9795) scale(26.1222 14.3232)">
<stop stop-color="#F16B11"/>
<stop offset="1" stop-color="#F8DA45"/>
</radialGradient>
</defs>
</svg>
