<svg width="50" height="51" viewBox="0 0 50 51" fill="none" xmlns="http://www.w3.org/2000/svg">
<g filter="url(#filter0_b_96_236)">
<path d="M25.0002 11.1504C26.8696 11.1504 28.6624 11.8709 29.9843 13.1535C31.3062 14.4361 32.0488 16.1756 32.0488 17.9895C32.0488 19.8033 31.3062 21.5429 29.9843 22.8254C28.6624 24.108 26.8696 24.8286 25.0002 24.8286C23.1308 24.8286 21.3379 24.108 20.016 22.8254C18.6942 21.5429 17.9516 19.8033 17.9516 17.9895C17.9516 16.1756 18.6942 14.4361 20.016 13.1535C21.3379 11.8709 23.1308 11.1504 25.0002 11.1504ZM10.9029 16.0354C12.0307 16.0354 13.0779 16.3286 13.9842 16.8561C13.6821 19.6504 14.5279 22.4251 16.2599 24.5941C15.2529 26.4699 13.2391 27.7596 10.9029 27.7596C9.30059 27.7596 7.76387 27.142 6.63084 26.0426C5.49781 24.9433 4.86127 23.4522 4.86127 21.8975C4.86127 20.3428 5.49781 18.8518 6.63084 17.7524C7.76387 16.6531 9.30059 16.0354 10.9029 16.0354ZM39.0974 16.0354C40.6997 16.0354 42.2365 16.6531 43.3695 17.7524C44.5025 18.8518 45.1391 20.3428 45.1391 21.8975C45.1391 23.4522 44.5025 24.9433 43.3695 26.0426C42.2365 27.142 40.6997 27.7596 39.0974 27.7596C36.7613 27.7596 34.7474 26.4699 33.7404 24.5941C35.4724 22.4251 36.3182 19.6504 36.0161 16.8561C36.9224 16.3286 37.9696 16.0354 39.0974 16.0354ZM11.9099 36.0642C11.9099 32.0194 17.7703 28.7366 25.0002 28.7366C32.23 28.7366 38.0904 32.0194 38.0904 36.0642V39.4837H11.9099V36.0642ZM0.833496 39.4837V36.5527C0.833496 33.8366 4.63975 31.5504 9.7953 30.886C8.60711 32.2148 7.88211 34.0515 7.88211 36.0642V39.4837H0.833496ZM49.1668 39.4837H42.1182V36.0642C42.1182 34.0515 41.3932 32.2148 40.205 30.886C45.3606 31.5504 49.1668 33.8366 49.1668 36.5527V39.4837Z" fill="url(#paint0_radial_96_236)"/>
</g>
<defs>
<filter id="filter0_b_96_236" x="-33.3333" y="-33.0164" width="116.667" height="116.667" filterUnits="userSpaceOnUse" color-interpolation-filters="sRGB">
<feFlood flood-opacity="0" result="BackgroundImageFix"/>
<feGaussianBlur in="BackgroundImageFix" stdDeviation="16.6667"/>
<feComposite in2="SourceAlpha" operator="in" result="effect1_backgroundBlur_96_236"/>
<feBlend mode="normal" in="SourceGraphic" in2="effect1_backgroundBlur_96_236" result="shape"/>
</filter>
<radialGradient id="paint0_radial_96_236" cx="0" cy="0" r="1" gradientUnits="userSpaceOnUse" gradientTransform="translate(9.6051 36.403) rotate(-30.3613) scale(43.1268 20.6264)">
<stop stop-color="#F16B11"/>
<stop offset="1" stop-color="#F8DA45"/>
</radialGradient>
</defs>
</svg>
