<svg width="30" height="30" viewBox="0 0 30 30" fill="none" xmlns="http://www.w3.org/2000/svg">
<path fill-rule="evenodd" clip-rule="evenodd" d="M1.93257 14.9514C1.3804 15.3412 1.35686 15.7165 1.86194 16.0773C3.17496 16.9198 5.42669 17.6942 7.23475 18.0323C8.0121 18.1663 8.97828 18.1482 9.68153 17.7845C12.1706 16.4974 15.6506 13.8988 19.6533 11.118C20.1754 10.7651 20.7091 10.4647 20.8687 10.385C21.6139 10.0134 21.8627 10.3186 21.4761 10.9211C21.1141 11.3752 20.5231 11.9333 20.5231 11.9333C19.7045 12.7582 18.874 13.5482 18.0372 14.32C17.9253 14.3766 14.6442 17.4274 13.9583 18.1383C13.0723 19.2443 12.9127 20.1595 13.76 20.7929C16.9302 23.0113 22.2635 26.6078 22.2635 26.6078C22.8363 27.0087 23.214 27.0754 23.944 26.9286C24.7536 26.6972 25.2722 26.2049 25.4928 25.4457C26.6886 18.8654 27.7442 12.4144 28.4637 6.27367C28.6743 4.8244 27.9875 4.14625 25.8951 4.6829C14.6625 9.03359 6.64541 12.4649 1.93257 14.9514Z" fill="url(#paint0_radial_96_372)"/>
<defs>
<radialGradient id="paint0_radial_96_372" cx="0" cy="0" r="1" gradientUnits="userSpaceOnUse" gradientTransform="translate(6.4 24.5535) rotate(-39.7854) scale(27.0513 14.5876)">
<stop stop-color="#F16B11"/>
<stop offset="1" stop-color="#F8DA45"/>
</radialGradient>
</defs>
</svg>
