<svg width="30" height="31" viewBox="0 0 30 31" fill="none" xmlns="http://www.w3.org/2000/svg">
<path fill-rule="evenodd" clip-rule="evenodd" d="M23.9211 14.9169C23.9211 14.9169 27.475 9.68097 27.8349 7.95511C27.8774 7.83539 27.8891 7.70552 27.8688 7.57921C27.8485 7.4529 27.797 7.33473 27.7196 7.23739C27.6422 7.14006 27.5418 7.06718 27.4291 7.02624C27.3164 6.98531 27.1955 6.97795 27.0792 7.00494H23.9931C23.7436 6.9761 23.4923 7.03789 23.2789 7.18011C23.0654 7.32233 22.9019 7.53692 22.8144 7.79036C21.8218 9.96304 20.5794 11.9925 19.1165 13.8308C18.9688 14.0858 18.7733 14.3046 18.5425 14.4733C18.3116 14.6419 18.0504 14.7569 17.776 14.8104C17.4881 14.8104 17.3531 14.5583 17.3531 13.8796V7.90682C17.3531 7.07298 17.2542 6.83072 16.5974 6.83072H11.6489C11.5752 6.81989 11.5001 6.82537 11.4285 6.84729C11.3569 6.86921 11.2903 6.90708 11.2329 6.95807C11.1754 7.00906 11.1283 7.07213 11.0946 7.14366C11.0609 7.21518 11.0413 7.29319 11.0371 7.37327C11.0371 8.15863 12.1887 8.33357 12.1887 10.4666V14.8586C12.1887 15.7507 12.1437 16.09 11.7479 16.09C10.6862 16.09 8.16693 12.2794 6.75436 7.95511C6.73154 7.78248 6.67738 7.61655 6.59489 7.46653C6.5124 7.31651 6.4033 7.18564 6.27375 7.08116C6.1442 6.97668 5.99674 6.90069 5.83992 6.8577C5.6831 6.81472 5.51999 6.80563 5.35986 6.83072H2.27376C2.17425 6.82366 2.07448 6.83842 1.98063 6.87475C1.88677 6.91108 1.80083 6.96818 1.72824 7.04187C1.65564 7.11555 1.59793 7.20441 1.55866 7.3032C1.51939 7.40199 1.49943 7.50819 1.50001 7.61566C1.50001 8.47859 2.46275 12.4541 6.25958 17.7868C8.80579 21.3742 12.1438 23.3136 15.1578 23.3136C17.0023 23.3136 17.4431 22.9932 17.4431 22.1788V19.4353C17.4431 18.7469 17.7041 18.4463 18.0819 18.4463C18.5048 18.4463 19.2516 18.5917 21.006 20.3854C23.0754 22.4507 23.2193 23.3136 24.344 23.3136H27.8079C27.904 23.3239 28.001 23.3099 28.0915 23.2734C28.1819 23.2368 28.2634 23.1784 28.3295 23.1024C28.3956 23.0265 28.4446 22.935 28.4727 22.8354C28.5008 22.7358 28.5073 22.6309 28.4917 22.5282C28.4917 21.7137 27.475 20.2687 25.9275 18.5429C25.2887 17.6605 24.254 16.701 23.9211 16.2647C23.4533 15.7508 23.5972 15.4501 23.9211 14.9169Z" fill="url(#paint0_radial_96_357)"/>
<defs>
<radialGradient id="paint0_radial_96_357" cx="0" cy="0" r="1" gradientUnits="userSpaceOnUse" gradientTransform="translate(6.4 21.5228) rotate(-31.4114) scale(24.3571 11.8809)">
<stop stop-color="#F16B11"/>
<stop offset="1" stop-color="#F8DA45"/>
</radialGradient>
</defs>
</svg>
