<svg width="30" height="30" viewBox="0 0 30 30" fill="none" xmlns="http://www.w3.org/2000/svg">
<path fill-rule="evenodd" clip-rule="evenodd" d="M1.60251 14.4355C1.60251 7.47404 7.30477 1.80029 14.3013 1.80029C17.697 1.80029 20.8877 3.11354 23.2839 5.51054C25.6801 7.89479 27 11.0695 27 14.4483C27 21.4098 21.2977 27.0835 14.3013 27.0835C12.1741 27.0835 10.0854 26.548 8.22739 25.5408L1.5 27.3003L3.29397 20.7468C2.19196 18.8343 1.60251 16.6668 1.60251 14.4355ZM9.80351 8.5957C9.59848 8.5957 9.2525 8.6722 8.95778 8.99095C8.9357 9.01592 8.91024 9.0437 8.88207 9.07444C8.55051 9.43622 7.84296 10.2083 7.84296 11.6302C7.84296 13.0506 8.79385 14.4178 9.06639 14.8096C9.09233 14.8469 9.11212 14.8754 9.12436 14.8942C9.14093 14.9142 9.17365 14.9595 9.22193 15.0264C9.69657 15.6839 11.6742 18.4232 14.5703 19.65C15.3264 19.9942 15.9158 20.1855 16.3771 20.3257C17.1332 20.568 17.8251 20.5297 18.3761 20.4532C18.9912 20.364 20.247 19.6882 20.5161 18.9487C20.7852 18.2092 20.7852 17.5845 20.7083 17.4442C20.6294 17.3321 20.4614 17.2594 20.2043 17.1482C20.1689 17.1329 20.1319 17.1169 20.0932 17.1C19.7729 16.9215 18.2095 16.1565 17.9276 16.0545C17.6329 15.9525 17.4535 15.9015 17.21 16.2075C17.005 16.5262 16.3899 17.2402 16.2105 17.4442C16.1633 17.4975 16.1231 17.5562 16.0847 17.6122C15.9669 17.7842 15.8666 17.9306 15.6347 17.8152C13.8071 16.906 12.3753 15.8314 11.3035 14.054C11.1497 13.748 11.1874 13.275 11.3412 13.1347C11.4822 12.9945 11.6872 12.765 11.8153 12.5737C11.953 12.4262 12.0119 12.3048 12.0861 12.1519C12.1016 12.1198 12.1179 12.0864 12.1357 12.051C12.2382 11.8342 12.1869 11.6557 12.11 11.5027C12.0659 11.4223 11.8363 10.8677 11.5977 10.2916C11.4204 9.8633 11.2381 9.42308 11.1234 9.1567C10.8967 8.61535 10.67 8.61272 10.4787 8.6105C10.4538 8.61021 10.4294 8.60993 10.4058 8.60845C10.3204 8.60845 10.2293 8.60557 10.1337 8.60254C10.0284 8.59921 9.91771 8.5957 9.80351 8.5957Z" fill="url(#paint0_radial_96_373)"/>
<defs>
<radialGradient id="paint0_radial_96_373" cx="0" cy="0" r="1" gradientUnits="userSpaceOnUse" gradientTransform="translate(6.12778 24.5276) rotate(-44.9795) scale(27.7548 15.2184)">
<stop stop-color="#F16B11"/>
<stop offset="1" stop-color="#F8DA45"/>
</radialGradient>
</defs>
</svg>
