<svg width="57" height="63" viewBox="0 0 57 63" fill="none" xmlns="http://www.w3.org/2000/svg">
<path fill-rule="evenodd" clip-rule="evenodd" d="M17.1764 21.3994L17.5537 21.2154L17.9742 20.934L18.4916 20.6525L19.0522 20.3278L20.3136 19.4835L21.6288 18.4984L22.9872 17.2753L24.2485 15.814L24.8091 15.0129L25.3265 14.1686L25.8009 13.2702L26.2213 12.2852L26.5447 11.246L26.6849 10.261L26.7819 9.22184L26.7388 8.28012L26.5555 7.33838L26.3183 6.39665L25.941 5.55234L25.5206 4.75133L25.0031 4.00444L24.4425 3.30085L23.7849 2.64055L23.0842 2.12097L22.3834 1.64469L21.5857 1.22254L20.7879 0.941102L19.9901 0.757091L19.1924 0.659668H18.3946L17.5537 0.702969L16.6589 0.800385L15.818 0.984403L14.9233 1.26584L14.0824 1.64469L13.2846 2.06685L12.5407 2.58643L11.84 3.20342L11.2255 3.86372L10.6649 4.66473L10.1906 5.50904L9.86713 6.49407L9.68387 7.53322L9.58685 8.7131L9.62996 9.65482L9.77012 10.5533L10.0504 11.4517L10.3738 12.3393L11.2578 14.082L12.379 15.7274L13.5972 17.2753L14.8586 18.7799L16.0768 20.1438L17.1764 21.3994ZM28.7979 0.659668L31.7518 1.98026L34.6086 3.44156L37.3685 5.04359L39.945 6.82963L42.4246 8.75639L44.764 10.7806L46.9201 12.9455L48.8929 15.2511L50.7149 17.6L52.3104 20.0896L53.6687 22.6767L54.8438 25.3612L55.7817 28.1322L56.4393 30.9574L56.8598 33.8259L56.9568 35.2872L57 36.7485L56.8598 40.0392L56.4825 43.3298L55.8249 46.5772L54.9301 49.7704L53.8089 52.877L52.4505 55.8862L50.855 58.7547L49.0762 61.5258L47.7178 60.6274L46.3164 59.5449L44.958 58.3651L43.6428 57.0445L41.1093 54.3167L39.9343 52.9528L38.8562 51.6863L38.716 51.5023L39.9774 49.24L41.1956 46.8911L42.2736 44.4448L43.2547 42.0958L44.1495 39.8876L44.5268 38.8593L44.8502 37.9176L45.1736 37.0733L45.4539 36.2723L45.6372 35.612L45.8204 35.0491H36.2149L35.8376 37.1166L35.3201 39L34.8027 40.6021L34.2421 41.9659L33.9618 42.5288L33.7246 43.0484L33.4874 43.4705L33.3042 43.7953L33.164 44.0767L33.0239 44.3149L32.9808 44.4123L32.9376 44.4556L26.8035 36.597L20.8094 28.7925H20.8526L20.9496 28.7492L21.3701 28.5652L21.9845 28.2405L22.8254 27.775L23.7633 27.2122L24.8414 26.5086L26.0165 25.6643L27.1916 24.7225L28.4098 23.6401L29.531 22.4169L30.609 21.0963L31.59 19.635L32.3878 18.0871L33.0454 16.3444L33.4659 14.5042L33.5629 13.5625L33.606 12.5774L33.5629 11.4517L33.5198 10.3692L33.3365 9.38421L33.1532 8.39918L32.9161 7.55487L32.6358 6.71056L31.9351 5.20596L31.0942 3.93949L30.1994 2.85704L29.2183 1.96943L28.2804 1.21171L28.7979 0.659668ZM30.1023 53.2342L13.3385 32.3105L10.7619 33.8151L8.32553 35.4604L7.15043 36.348L6.07237 37.2898L5.03744 38.2748L4.09951 39.3139L3.25864 40.3964L2.51477 41.5221L1.90028 42.7453L1.3828 44.0118L1.05938 45.3324L0.87612 46.7937L0.833008 48.255L0.973135 49.857L1.25344 51.3616L1.57686 52.7255L2.04043 54.0461L2.5579 55.2259L3.1616 56.3517L3.81923 57.3367L4.57387 58.2785L5.31772 59.0795L6.15862 59.8264L7.09652 60.4434L8.03443 61.0062L9.01548 61.4717L10.0396 61.8505L11.0746 62.132L12.1526 62.316L13.2738 62.4134L14.395 62.4567L15.5162 62.4134L16.6374 62.2727L17.8125 62.0346L18.9336 61.7531L20.0548 61.331L21.176 60.8655L22.2972 60.3459L23.3752 59.7289L24.4533 59.0253L25.4882 58.2243L26.5124 57.38L27.4503 56.4383L28.3882 55.4533L29.283 54.3708L30.1023 53.2342Z" fill="#B6CC43"/>
</svg>
