<?xml version="1.0" standalone="no"?>
  <!DOCTYPE svg PUBLIC "-//W3C//DTD SVG 1.1//EN" "http://www.w3.org/Graphics/SVG/1.1/DTD/svg11.dtd" >
  <svg>
  <metadata>
  Created by font-carrier
  </metadata>
  <defs>
  <font id="MuseoSansCyrl-500Italic" horiz-adv-x="1130" vert-adv-y="1130" >
    <font-face
      
      font-family="Museo Sans Cyrl 500"
      
      font-weight="400"
      
      font-stretch="normal"
      
      units-per-em="1000"
      
      ascent="940"
      
      descent="-260"
      
    />
      <missing-glyph />

      

      
      <glyph glyph-name="uni21" unicode="&#x21;" d="M74 194L167 706L267 706L161 194L74 194M30 0L50 99L150 99L131 0L30 0Z"  horiz-adv-x="275" vert-adv-y="1000"  />

      
      <glyph glyph-name="uni22" unicode="&#x22;" d="M260 530L297 718L373 718L336 530L260 530M119 530L156 718L232 718L195 530L119 530Z"  horiz-adv-x="366" vert-adv-y="1000"  />

      
      <glyph glyph-name="uni23" unicode="&#x23;" d="M82 0L153 191L25 191L51 264L180 264L242 433L114 433L141 506L269 506L343 706L426 706L352 506L507 506L581 706L664 706L590 506L718 506L692 433L563 433L501 264L628 264L602 191L474 191L403 0L320 0L390 191L236 191L165 0L82 0M262 264L418 264L480 433L325 433L262 264Z"  horiz-adv-x="722" vert-adv-y="1000"  />

      
      <glyph glyph-name="uni24" unicode="&#x24;" d="M18 81L79 151Q146 80 249 80Q309 80 353 111Q397 142 397 197Q397 234 367.50 262Q338 290 296.50 310.50Q255 331 213.50 354.50Q172 378 142.50 418Q113 458 113 513Q113 600 179 655Q245 710 337 717L356 809L426 809L408 715Q509 702 566 644L510 571Q485 597 443.50 612Q402 627 362 627Q305 627 259 596.50Q213 566 213 514Q213 479 242.50 452.50Q272 426 313.50 406Q355 386 396.50 362Q438 338 467.50 296.50Q497 255 497 199Q497 112 432 53Q367-6 267-11L249-102L179-102L197-8Q87 6 18 81Z"  horiz-adv-x="577" vert-adv-y="1000"  />

      
      <glyph glyph-name="uni25" unicode="&#x25;" d="M240 422Q178 422 140.50 459Q103 496 103 556Q103 618 155.50 668Q208 718 274 718Q335 718 373 680.50Q411 643 411 584Q411 521 358.50 471.50Q306 422 240 422M18 0L684 706L784 706L116 0L18 0M245 496Q279 496 306 522.50Q333 549 333 584Q333 611 315.50 628Q298 645 270 645Q236 645 208.50 618Q181 591 181 555Q181 529 198.50 512.50Q216 496 245 496M388 121Q388 183 440.50 233.50Q493 284 560 284Q621 284 659 246.50Q697 209 697 150Q697 87 644.50 37.50Q592-12 526-12Q464-12 426 25Q388 62 388 121M467 121Q467 95 484.50 78.50Q502 62 530 62Q565 62 591.50 88.50Q618 115 618 151Q618 176 601 193.50Q584 211 555 211Q522 211 494.50 183.50Q467 156 467 121Z"  horiz-adv-x="777" vert-adv-y="1000"  />

      
      <glyph glyph-name="uni26" unicode="&#x26;" d="M35 174Q35 241 81.50 300.50Q128 360 200 380L200 382Q197 383 192.50 385.50Q188 388 176 397.50Q164 407 155 419Q146 431 138.50 453.50Q131 476 131 503Q131 601 203 659.50Q275 718 377 718Q422 718 469 704L431 628Q409 634 379 634Q319 634 274.50 597.50Q230 561 230 501Q230 415 341 415L472 415L491 511L588 511L570 415L663 415L646 329L553 329L535 235Q510 110 439 49Q368-12 258-12Q154-12 94.50 39.50Q35 91 35 174M138 179Q138 135 170.50 107Q203 79 260 79Q330 79 376.50 119Q423 159 438 240L455 329L321 329Q246 329 192 290.50Q138 252 138 179Z"  horiz-adv-x="674" vert-adv-y="1000"  />

      
      <glyph glyph-name="uni27" unicode="&#x27;" d="M119 530L156 718L234 718L197 530L119 530Z"  horiz-adv-x="226" vert-adv-y="1000"  />

      
      <glyph glyph-name="uni28" unicode="&#x28;" d="M97-95Q46 33 46 173Q46 490 252 735L341 735Q133 477 133 171Q133 31 179-95L97-95Z"  horiz-adv-x="294" vert-adv-y="1000"  />

      
      <glyph glyph-name="uni29" unicode="&#x29;" d="M-37-95Q171 167 171 469Q171 610 124 735L206 735Q258 606 258 467Q258 149 51-95L-37-95Z"  horiz-adv-x="294" vert-adv-y="1000"  />

      
      <glyph glyph-name="uni2a" unicode="&#x2a;" d="M175 329L110 382L221 496L95 532L138 615L261 564L281 706L372 706L336 564L480 614L492 529L343 489L410 380L334 328L276 448L175 329Z"  horiz-adv-x="497" vert-adv-y="1000"  />

      
      <glyph glyph-name="uni2b" unicode="&#x2b;" d="M190 0L238 246L14 246L29 324L252 324L301 570L383 570L335 324L557 324L543 246L320 246L272 0L190 0Z"  horiz-adv-x="577" vert-adv-y="1000"  />

      
      <glyph glyph-name="uni2c" unicode="&#x2c;" d="M-39-101L63 105L166 105L40-101L-39-101Z"  horiz-adv-x="275" vert-adv-y="1000"  />

      
      <glyph glyph-name="uni2d" unicode="&#x2d;" d="M60 242L76 328L367 328L351 242L60 242Z"  horiz-adv-x="433" vert-adv-y="1000"  />

      
      <glyph glyph-name="uni2e" unicode="&#x2e;" d="M14 0L34 105L138 105L118 0L14 0Z"  horiz-adv-x="245" vert-adv-y="1000"  />

      
      <glyph glyph-name="uni2f" unicode="&#x2f;" d="M-20-42L386 744L478 744L71-42L-20-42Z"  horiz-adv-x="436" vert-adv-y="1000"  />

      
      <glyph glyph-name="uni30" unicode="&#x30;" d="M60 221Q60 279 70 342.50Q80 406 104 474Q128 542 163 595.50Q198 649 254.50 683.50Q311 718 380 718Q588 718 588 485Q588 427 578 363.50Q568 300 544 232Q520 164 485 110.50Q450 57 393.50 22.50Q337-12 268-12Q60-12 60 221M161 223Q161 79 271 79Q316 79 353.50 107.50Q391 136 415 180Q439 224 455.50 279Q472 334 479 385Q486 436 486 481Q486 627 377 627Q323 627 279.50 586.50Q236 546 211.50 482.50Q187 419 174 352Q161 285 161 223Z"  horiz-adv-x="626" vert-adv-y="1000"  />

      
      <glyph glyph-name="uni31" unicode="&#x31;" d="M3 0L18 86L174 86L262 534L272 577L270 577Q259 561 228 536L151 473L100 541L304 706L392 706L271 86L425 86L408 0L3 0Z"  horiz-adv-x="491" vert-adv-y="1000"  />

      
      <glyph glyph-name="uni32" unicode="&#x32;" d="M7 0Q8 48 23 91Q38 134 59 164.50Q80 195 117 227Q154 259 181.50 277.50Q209 296 254 324Q361 389 389 412Q452 465 452 526Q452 572 421.50 598.50Q391 625 343 625Q296 625 253.50 600.50Q211 576 181 535L111 591Q209 718 352 718Q439 718 496.50 669Q554 620 554 536Q554 507 545.50 479.50Q537 452 526.50 431.50Q516 411 492 387Q468 363 453.50 349.50Q439 336 405.50 313.50Q372 291 358 282.50Q344 274 307 252Q265 227 243.50 212.50Q222 198 194 176Q166 154 151.50 132Q137 110 132 86L478 86L461 0L7 0Z"  horiz-adv-x="574" vert-adv-y="1000"  />

      
      <glyph glyph-name="uni33" unicode="&#x33;" d="M1 84L62 153Q125 82 226 82Q296 82 347.50 127Q399 172 399 236Q399 288 360 314.50Q321 341 258 341L203 341L191 394L376 575L430 621L430 623Q408 620 369 620L137 620L153 706L575 706L563 643L328 417Q392 411 445.50 368Q499 325 499 240Q499 139 420.50 63.50Q342-12 226-12Q160-12 100.50 12.50Q41 37 1 84Z"  horiz-adv-x="569" vert-adv-y="1000"  />

      
      <glyph glyph-name="uni34" unicode="&#x34;" d="M14 189L26 251L431 706L553 706L469 272L565 272L548 189L453 189L416 0L318 0L355 189L14 189M146 272L372 272L422 530L439 601L437 601Q414 568 391 542L146 274L146 272Z"  horiz-adv-x="609" vert-adv-y="1000"  />

      
      <glyph glyph-name="uni35" unicode="&#x35;" d="M11 86L75 153Q130 82 222 82Q296 82 351.50 131.50Q407 181 407 249Q407 304 369 337Q331 370 270 370Q238 370 206.50 361Q175 352 160 344L144 335L87 357L191 706L550 706L534 620L263 620L218 473L206 437L208 437Q246 456 301 456Q392 456 450.50 399.50Q509 343 509 253Q509 144 424 66Q339-12 220-12Q157-12 101 13.50Q45 39 11 86Z"  horiz-adv-x="568" vert-adv-y="1000"  />

      
      <glyph glyph-name="uni36" unicode="&#x36;" d="M55 246Q55 316 81.50 396Q108 476 155 549Q202 622 278.50 670Q355 718 444 718Q526 718 589 688L544 607Q498 627 445 627Q355 627 287 557.50Q219 488 187 390L189 390Q215 421 258.50 438.50Q302 456 346 456Q437 456 488 403Q539 350 539 263Q539 196 508 133.50Q477 71 416.50 29.50Q356-12 280-12Q178-12 116.50 58Q55 128 55 246M155 237Q155 173 189.50 126Q224 79 280 79Q348 79 394.50 132.50Q441 186 441 260Q441 312 409.50 342.50Q378 373 320 373Q260 373 207.50 333.50Q155 294 155 237Z"  horiz-adv-x="599" vert-adv-y="1000"  />

      
      <glyph glyph-name="uni37" unicode="&#x37;" d="M26 0L409 555Q421 574 434.50 590Q448 606 456 613L463 620L463 622Q447 620 411 620L103 620L120 706L592 706L579 638L136 0L26 0Z"  horiz-adv-x="538" vert-adv-y="1000"  />

      
      <glyph glyph-name="uni38" unicode="&#x38;" d="M36 180Q36 222 55.50 261.50Q75 301 106.50 330.50Q138 360 154.50 372.50Q171 385 189 396Q128 443 128 513Q128 593 195.50 655.50Q263 718 373 718Q468 718 522 674Q576 630 576 552Q576 516 560.50 479Q545 442 520 411.50Q495 381 481 366.50Q467 352 454 340Q529 288 529 214Q529 122 450.50 55Q372-12 259-12Q158-12 97 40Q36 92 36 180M380 381Q476 463 476 545Q476 584 447.50 606.50Q419 629 369 629Q307 629 267 595Q227 561 227 514Q227 498 234.50 483Q242 468 250 458.50Q258 449 277.50 436Q297 423 307.50 417.50Q318 412 344.50 399Q371 386 380 381M139 185Q139 136 174 106.50Q209 77 261 77Q326 77 376 115Q426 153 426 213Q426 232 417 248.50Q408 265 388 279.50Q368 294 352 303Q336 312 305 327.50Q274 343 259 351Q139 274 139 185Z"  horiz-adv-x="606" vert-adv-y="1000"  />

      
      <glyph glyph-name="uni39" unicode="&#x39;" d="M32 18L77 99Q123 79 176 79Q266 79 334 148.50Q402 218 434 316L432 316Q410 289 366 269.50Q322 250 275 250Q184 250 133 303Q82 356 82 443Q82 548 155.50 633Q229 718 342 718Q445 718 506 648.50Q567 579 567 460Q567 405 551 342Q535 279 501.50 216.50Q468 154 423 103Q378 52 313.50 20Q249-12 177-12Q91-12 32 18M300 333Q359 333 412.50 373Q466 413 466 470Q466 534 432 580.50Q398 627 341 627Q273 627 226.50 574Q180 521 180 446Q180 395 211.50 364Q243 333 300 333Z"  horiz-adv-x="599" vert-adv-y="1000"  />

      
      <glyph glyph-name="uni3a" unicode="&#x3a;" d="M90 401L111 506L215 506L195 401L90 401M12 0L33 105L136 105L116 0L12 0Z"  horiz-adv-x="244" vert-adv-y="1000"  />

      
      <glyph glyph-name="uni3b" unicode="&#x3b;" d="M130 401L150 506L252 506L232 401L130 401M-28-101L73 105L176 105L51-101L-28-101Z"  horiz-adv-x="297" vert-adv-y="1000"  />

      
      <glyph glyph-name="uni3c" unicode="&#x3c;" d="M31 252L31 318L497 526L497 437L140 286L140 284L497 133L497 44L31 252Z"  horiz-adv-x="577" vert-adv-y="1000"  />

      
      <glyph glyph-name="uni3d" unicode="&#x3d;" d="M45 340L45 418L522 418L522 340L45 340M45 151L45 229L522 229L522 151L45 151Z"  horiz-adv-x="577" vert-adv-y="1000"  />

      
      <glyph glyph-name="uni3e" unicode="&#x3e;" d="M72 44L72 133L429 284L429 286L72 437L72 526L538 318L538 252L72 44Z"  horiz-adv-x="577" vert-adv-y="1000"  />

      
      <glyph glyph-name="uni3f" unicode="&#x3f;" d="M133 194L142 241Q151 285 177.50 322Q204 359 235.50 383.50Q267 408 297.50 432Q328 456 348.50 485Q369 514 369 548Q369 584 342.50 606.50Q316 629 272 629Q212 629 151 587L108 662Q141 686 190 703Q239 720 285 720Q367 720 419.50 676Q472 632 472 560Q472 511 450 470.50Q428 430 395.50 402.50Q363 375 329.50 350.50Q296 326 268.50 296.50Q241 267 235 235L227 194L133 194M93 0L113 99L213 99L194 0L93 0Z"  horiz-adv-x="469" vert-adv-y="1000"  />

      
      <glyph glyph-name="uni40" unicode="&#x40;" d="M41 175Q41 261 77 341.50Q113 422 172.50 481Q232 540 311.50 575.50Q391 611 474 611Q597 611 652 564.50Q707 518 707 440Q707 415 703 394L651 125L723 125L708 52L447 52Q361 52 311.50 98.50Q262 145 262 216Q262 299 330.50 363.50Q399 428 497 428L616 428Q618 436 618 444Q618 483 580.50 507Q543 531 475 531Q341 531 240 423.50Q139 316 139 180Q139 80 202 16Q265-48 373-48L358-125Q220-125 130.50-40Q41 45 41 175M360 218Q360 177 386.50 151Q413 125 457 125L558 125L603 361L504 361Q446 361 403 318Q360 275 360 218Z"  horiz-adv-x="797" vert-adv-y="1000"  />

      
      <glyph glyph-name="uni41" unicode="&#x41;" d="M-39 0L348 706L458 706L574 0L475 0L443 203L177 203L68 0L-39 0M219 285L433 285L398 508L389 609L387 609Q360 545 341 508L219 285Z"  horiz-adv-x="643" vert-adv-y="1000"  />

      
      <glyph glyph-name="uni42" unicode="&#x42;" d="M36 0L174 706L401 706Q457 706 496 693Q592 656 592 552Q592 492 559.50 444Q527 396 473 373L473 371Q513 356 536 319Q559 282 559 232Q559 156 518 100Q477 44 410 18Q366 0 307 0L36 0M214 409L362 409Q416 409 453.50 447Q491 485 491 541Q491 577 468 598.50Q445 620 402 620L255 620L214 409M151 86L310 86Q349 86 376 100Q413 118 435.50 153.50Q458 189 458 234Q458 277 431 302Q404 327 357 327L198 327L151 86Z"  horiz-adv-x="625" vert-adv-y="1000"  />

      
      <glyph glyph-name="uni43" unicode="&#x43;" d="M57 294Q57 407 115 505.50Q173 604 269.50 661Q366 718 475 718Q548 718 617 695Q686 672 730 624L671 555Q596 628 477 628Q345 628 252 529Q159 430 159 299Q159 203 216.50 141Q274 79 374 79Q499 79 609 170L652 92Q602 47 523 17.50Q444-12 369-12Q226-12 141.50 73Q57 158 57 294Z"  horiz-adv-x="718" vert-adv-y="1000"  />

      
      <glyph glyph-name="uni44" unicode="&#x44;" d="M37 0L174 706L391 706Q537 706 620.50 633.50Q704 561 704 431Q704 250 586 125Q468 0 286 0L37 0M151 86L280 86Q420 86 511 183Q602 280 602 423Q602 518 544 569Q486 620 384 620L256 620L151 86Z"  horiz-adv-x="738" vert-adv-y="1000"  />

      
      <glyph glyph-name="uni45" unicode="&#x45;" d="M36 0L174 706L584 706L566 620L255 620L212 399L465 399L448 313L196 313L151 86L479 86L463 0L36 0Z"  horiz-adv-x="562" vert-adv-y="1000"  />

      
      <glyph glyph-name="uni46" unicode="&#x46;" d="M37 0L174 706L562 706L546 620L255 620L210 387L457 387L440 301L194 301L134 0L37 0Z"  horiz-adv-x="517" vert-adv-y="1000"  />

      
      <glyph glyph-name="uni47" unicode="&#x47;" d="M55 288Q55 463 181 590.50Q307 718 479 718Q640 718 733 635L673 565Q641 593 588 610.50Q535 628 481 628Q345 628 251.50 527.50Q158 427 158 293Q158 195 216.50 137Q275 79 369 79Q484 79 588 172L607 269L493 269L509 355L714 355L645 0L559 0L567 45L574 75L572 75Q548 50 487 19Q426-12 352-12Q225-12 140 71Q55 154 55 288Z"  horiz-adv-x="762" vert-adv-y="1000"  />

      
      <glyph glyph-name="uni48" unicode="&#x48;" d="M36 0L174 706L272 706L212 396L579 396L639 706L737 706L600 0L501 0L561 310L195 310L134 0L36 0Z"  horiz-adv-x="751" vert-adv-y="1000"  />

      
      <glyph glyph-name="uni49" unicode="&#x49;" d="M36 0L174 706L272 706L134 0L36 0Z"  horiz-adv-x="286" vert-adv-y="1000"  />

      
      <glyph glyph-name="uni4a" unicode="&#x4a;" d="M3 155Q3 181 8 207L14 238L112 238L107 209Q103 181 103 169Q103 79 192 79Q239 79 276.50 109.50Q314 140 326 205L406 620L230 620L247 706L522 706L423 195Q409 124 371.50 76Q334 28 288.50 8Q243-12 190-12Q110-12 56.50 30.50Q3 73 3 155Z"  horiz-adv-x="530" vert-adv-y="1000"  />

      
      <glyph glyph-name="uni4b" unicode="&#x4b;" d="M36 0L174 706L272 706L214 409L315 409L555 706L671 706L393 367L393 365L540 0L435 0L309 323L198 323L134 0L36 0Z"  horiz-adv-x="615" vert-adv-y="1000"  />

      
      <glyph glyph-name="uni4c" unicode="&#x4c;" d="M36 0L174 706L272 706L151 86L468 86L450 0L36 0Z"  horiz-adv-x="519" vert-adv-y="1000"  />

      
      <glyph glyph-name="uni4d" unicode="&#x4d;" d="M10 0L202 706L306 706L394 324L409 229L411 229Q441 284 465 324L702 706L808 706L727 0L630 0L683 445L702 549L700 549Q665 483 642 445L439 127L350 127L271 445L253 551L251 551Q241 488 230 445L108 0L10 0Z"  horiz-adv-x="853" vert-adv-y="1000"  />

      
      <glyph glyph-name="uni4e" unicode="&#x4e;" d="M36 0L174 706L266 706L491 248Q499 231 508.50 205Q518 179 524 162L529 145L531 145Q536 208 544 248L633 706L732 706L594 0L503 0L277 458L239 561L237 561Q231 498 224 458L134 0L36 0Z"  horiz-adv-x="746" vert-adv-y="1000"  />

      
      <glyph glyph-name="uni4f" unicode="&#x4f;" d="M56 296Q56 407 116 505Q176 603 273.50 660.50Q371 718 477 718Q617 718 704 634Q791 550 791 418Q791 305 730.50 204.50Q670 104 572.50 46Q475-12 370-12Q229-12 142.50 74.50Q56 161 56 296M157 300Q157 202 216.50 140.50Q276 79 370 79Q492 79 590.50 178.50Q689 278 689 413Q689 508 629.50 568Q570 628 476 628Q353 628 255 530.50Q157 433 157 300Z"  horiz-adv-x="823" vert-adv-y="1000"  />

      
      <glyph glyph-name="uni50" unicode="&#x50;" d="M36 0L174 706L415 706Q483 706 526 683Q568 661 591.50 620Q615 579 615 526Q615 443 572 377.50Q529 312 461 282Q410 261 356 261L185 261L134 0L36 0M202 347L345 347Q389 347 421 363Q463 383 488 424Q513 465 513 519Q513 567 483.50 593.50Q454 620 399 620L255 620L202 347Z"  horiz-adv-x="608" vert-adv-y="1000"  />

      
      <glyph glyph-name="uni51" unicode="&#x51;" d="M56 296Q56 407 116 505Q176 603 273.50 660.50Q371 718 477 718Q617 718 704 634Q791 550 791 418Q791 246 660 118L725 40L662-18L596 65Q494-12 370-12Q229-12 142.50 74.50Q56 161 56 296M157 300Q157 202 216.50 140.50Q276 79 370 79Q457 79 537 135L470 219L533 276L600 191Q689 288 689 413Q689 508 629.50 568Q570 628 476 628Q353 628 255 530.50Q157 433 157 300Z"  horiz-adv-x="823" vert-adv-y="1000"  />

      
      <glyph glyph-name="uni52" unicode="&#x52;" d="M36 0L174 706L414 706Q475 706 515 688Q557 668 580.50 629.50Q604 591 604 540Q604 460 558 394.50Q512 329 435 307L435 305Q440 296 448 273L545 0L440 0L344 281L189 281L135 0L36 0M206 367L345 367Q412 367 457.50 411Q503 455 503 526Q503 571 475 595.50Q447 620 397 620L255 620L206 367Z"  horiz-adv-x="625" vert-adv-y="1000"  />

      
      <glyph glyph-name="uni53" unicode="&#x53;" d="M4 81L66 151Q141 80 236 80Q295 80 339 111Q383 142 383 197Q383 234 354 262Q325 290 283.50 310.50Q242 331 200 354.50Q158 378 129 418Q100 458 100 513Q100 606 174.50 662Q249 718 349 718Q419 718 471.50 694.50Q524 671 552 644L496 571Q435 627 348 627Q291 627 245 596.50Q199 566 199 514Q199 479 228.50 452.50Q258 426 299.50 406Q341 386 382.50 362Q424 338 453.50 296.50Q483 255 483 199Q483 108 412.50 48Q342-12 235-12Q157-12 94.50 19Q32 50 4 81Z"  horiz-adv-x="549" vert-adv-y="1000"  />

      
      <glyph glyph-name="uni54" unicode="&#x54;" d="M197 0L318 620L76 620L92 706L675 706L659 620L416 620L296 0L197 0Z"  horiz-adv-x="610" vert-adv-y="1000"  />

      
      <glyph glyph-name="uni55" unicode="&#x55;" d="M72 197Q72 224 78 254L167 706L265 706L176 251Q172 232 172 209Q172 147 211.50 113Q251 79 322 79Q404 79 461 125Q518 171 534 253L623 706L721 706L630 245Q607 126 523.50 57Q440-12 319-12Q209-12 140.50 43.50Q72 99 72 197Z"  horiz-adv-x="726" vert-adv-y="1000"  />

      
      <glyph glyph-name="uni56" unicode="&#x56;" d="M210 0L90 706L193 706L271 207L279 110L281 110Q308 169 327 207L600 706L712 706L316 0L210 0Z"  horiz-adv-x="648" vert-adv-y="1000"  />

      
      <glyph glyph-name="uni57" unicode="&#x57;" d="M152 0L104 706L206 706L231 188L231 113L233 113Q247 149 264 188L508 706L598 706L630 188L630 113L632 113Q645 151 660 188L886 706L993 706L675 0L559 0L529 458Q528 485 527.50 518Q527 551 528 557L526 557Q505 504 484 458L266 0L152 0Z"  horiz-adv-x="944" vert-adv-y="1000"  />

      
      <glyph glyph-name="uni58" unicode="&#x58;" d="M-41 0L252 368L109 706L216 706L291 518L321 434L323 434Q348 474 381 517L530 706L647 706L368 360L522 0L417 0L328 214L300 295L298 295Q275 259 241 216L71 0L-41 0Z"  horiz-adv-x="594" vert-adv-y="1000"  />

      
      <glyph glyph-name="uni59" unicode="&#x59;" d="M183 0L242 299L87 706L193 706L277 474L304 385L306 385Q337 432 366 474L539 706L658 706L340 296L282 0L183 0Z"  horiz-adv-x="592" vert-adv-y="1000"  />

      
      <glyph glyph-name="uni5a" unicode="&#x5a;" d="M-23 0L-9 66L417 556Q433 574 449 590Q465 606 473 613L481 620L481 622Q463 620 429 620L115 620L132 706L627 706L615 641L186 150Q170 132 154 116Q138 100 130 93L122 86L122 84Q140 86 174 86L510 86L493 0L-23 0Z"  horiz-adv-x="591" vert-adv-y="1000"  />

      
      <glyph glyph-name="uni5b" unicode="&#x5b;" d="M11-95L172 735L338 735L323 662L243 662L111-21L191-21L177-95L11-95Z"  horiz-adv-x="302" vert-adv-y="1000"  />

      
      <glyph glyph-name="uni5c" unicode="&#x5c;" d="M225-42L123 744L205 744L307-42L225-42Z"  horiz-adv-x="410" vert-adv-y="1000"  />

      
      <glyph glyph-name="uni5d" unicode="&#x5d;" d="M-12-21L68-21L201 662L120 662L135 735L301 735L139-95L-26-95L-12-21Z"  horiz-adv-x="302" vert-adv-y="1000"  />

      
      <glyph glyph-name="uni5e" unicode="&#x5e;" d="M73 247L272 706L336 706L536 247L448 247L304 599L160 247L73 247Z"  horiz-adv-x="612" vert-adv-y="1000"  />

      
      <glyph glyph-name="uni5f" unicode="&#x5f;" d="M-25 0L514 0L499-78L-39-78L-25 0Z"  horiz-adv-x="593" vert-adv-y="1000"  />

      
      <glyph glyph-name="uni60" unicode="&#x60;" d="M191 755L121 882L220 882L268 755L191 755Z"  horiz-adv-x="499" vert-adv-y="1000"  />

      
      <glyph glyph-name="uni61" unicode="&#x61;" d="M1 118Q1 164 23 199.50Q45 235 79 256.50Q113 278 159 291.50Q205 305 248 310Q291 315 336 315L362 315Q366 337 366 358Q366 436 274 436Q198 436 123 388L97 465Q128 486 181.50 502Q235 518 288 518Q366 518 415 482Q464 446 464 370Q464 349 459 316L398 0L307 0L317 51L327 91L325 91Q304 54 257 21Q210-12 150-12Q87-12 44 23Q1 58 1 118M97 132Q97 103 117.50 84Q138 65 179 65Q236 65 284 115.50Q332 166 346 227L349 245L324 245Q97 245 97 132Z"  horiz-adv-x="524" vert-adv-y="1000"  />

      
      <glyph glyph-name="uni62" unicode="&#x62;" d="M18 0L155 706L251 706L207 477L194 431L196 431Q223 470 269 494Q315 518 365 518Q455 518 504.50 462Q554 406 554 310Q554 171 471 79.50Q388-12 278-12Q225-12 183.50 12Q142 36 124 80L122 80Q121 61 117 40L110 0L18 0M155 200Q155 143 183.50 107.50Q212 72 269 72Q340 72 397.50 136Q455 200 455 303Q455 364 424.50 398.50Q394 433 341 433Q264 433 209.50 362.50Q155 292 155 200Z"  horiz-adv-x="601" vert-adv-y="1000"  />

      
      <glyph glyph-name="uni63" unicode="&#x63;" d="M30 208Q30 337 123 427.50Q216 518 342 518Q466 518 533 445L479 382Q456 406 419.50 420Q383 434 347 434Q260 434 194.50 369.50Q129 305 129 215Q129 151 169.50 111.50Q210 72 277 72Q364 72 446 140L474 63Q436 30 380 9Q324-12 268-12Q159-12 94.50 49Q30 110 30 208Z"  horiz-adv-x="546" vert-adv-y="1000"  />

      
      <glyph glyph-name="uni64" unicode="&#x64;" d="M31 195Q31 335 114.50 426.50Q198 518 310 518Q360 518 401 496.50Q442 475 458 433L460 433Q460 452 464 470L511 706L607 706L470 0L378 0L387 48L397 85L395 85Q369 43 322.50 15.50Q276-12 221-12Q131-12 81 43.50Q31 99 31 195M130 202Q130 141 160.50 106.50Q191 72 245 72Q322 72 376 143.50Q430 215 430 305Q430 361 401 397Q372 433 316 433Q245 433 187.50 369Q130 305 130 202Z"  horiz-adv-x="603" vert-adv-y="1000"  />

      
      <glyph glyph-name="uni65" unicode="&#x65;" d="M31 203Q31 332 115 425Q199 518 324 518Q419 518 468.50 467Q518 416 518 331Q518 298 502 240L133 240Q129 216 129 205Q129 150 167.50 111Q206 72 274 72Q355 72 435 131L462 55Q430 29 376 8.50Q322-12 269-12Q160-12 95.50 48Q31 108 31 203M148 310L418 310Q421 323 421 339Q421 389 394 416Q367 443 323 443Q266 443 218.50 408Q171 373 148 310Z"  horiz-adv-x="556" vert-adv-y="1000"  />

      
      <glyph glyph-name="uni66" unicode="&#x66;" d="M42 0L124 422L61 422L76 501L139 501L144 525Q153 572 173.50 607.50Q194 643 217.50 662Q241 681 270 693Q299 705 320.50 708Q342 711 363 711Q388 711 407 708L389 624Q383 626 366 626Q260 626 240 522L236 501L355 501L340 422L221 422L139 0L42 0Z"  horiz-adv-x="342" vert-adv-y="1000"  />

      
      <glyph glyph-name="uni67" unicode="&#x67;" d="M44-93Q97-126 179-126Q249-126 300.50-91.50Q352-57 367 15L374 53L384 88L382 88Q322 6 226 6Q136 6 84.50 62.50Q33 119 33 211Q33 284 63 353Q93 422 155.50 470Q218 518 300 518Q422 518 454 439L457 439Q456 449 458 459L467 506L559 506L464 14Q441-102 363-156Q285-210 184-210Q76-210 2-165L44-93M132 218Q132 159 162.50 124.50Q193 90 249 90Q305 90 346 128.50Q387 167 405.50 219Q424 271 424 325Q424 434 308 434Q228 434 180 369Q132 304 132 218Z"  horiz-adv-x="593" vert-adv-y="1000"  />

      
      <glyph glyph-name="uni68" unicode="&#x68;" d="M18 0L155 706L252 706L202 447L190 402L192 402Q216 446 272.50 482Q329 518 396 518Q466 518 505.50 484.50Q545 451 545 384Q545 360 538 320L476 0L379 0L437 299Q444 336 444 356Q444 429 368 429Q295 429 235 370.50Q175 312 159 231L115 0L18 0Z"  horiz-adv-x="602" vert-adv-y="1000"  />

      
      <glyph glyph-name="uni69" unicode="&#x69;" d="M134 608L154 706L254 706L234 608L134 608M18 0L116 506L213 506L114 0L18 0Z"  horiz-adv-x="246" vert-adv-y="1000"  />

      
      <glyph glyph-name="uni6a" unicode="&#x6a;" d="M133 608L153 706L252 706L233 608L133 608M16-11L116 506L212 506L111-16Q102-64 81.50-100.50Q61-137 38-156.50Q15-176-13.50-188Q-42-200-63-203Q-84-206-106-206Q-137-206-152-204L-136-121Q-128-123-114-123Q-97-123-80.50-119Q-64-115-43.50-104.50Q-23-94-7-70Q9-46 16-11Z"  horiz-adv-x="247" vert-adv-y="1000"  />

      
      <glyph glyph-name="uni6b" unicode="&#x6b;" d="M18 0L156 706L252 706L177 320L246 320L421 506L538 506L322 279L322 277L453 0L348 0L241 237L162 237L115 0L18 0Z"  horiz-adv-x="523" vert-adv-y="1000"  />

      
      <glyph glyph-name="uni6c" unicode="&#x6c;" d="M41 102Q41 123 45 146L154 706L251 706L145 158Q141 132 141 124Q141 83 186 83Q194 83 202 84L185-2Q167-5 155-5Q107-5 74 19Q41 43 41 102Z"  horiz-adv-x="271" vert-adv-y="1000"  />

      
      <glyph glyph-name="uni6d" unicode="&#x6d;" d="M18 0L116 506L210 506L198 442L186 399L188 399Q215 447 268.50 482.50Q322 518 381 518Q503 518 515 403L517 403Q546 452 600.50 485Q655 518 714 518Q783 518 819.50 484.50Q856 451 856 384Q856 356 848 316L787 0L690 0L748 301Q755 332 755 356Q755 430 683 430Q616 430 563.50 369.50Q511 309 496 231L451 0L354 0L413 301Q419 334 419 358Q419 430 349 430Q282 430 228.50 370Q175 310 160 231L115 0L18 0Z"  horiz-adv-x="914" vert-adv-y="1000"  />

      
      <glyph glyph-name="uni6e" unicode="&#x6e;" d="M18 0L116 506L210 506L200 447L186 399L188 399Q212 442 270 480Q328 518 396 518Q466 518 505.50 484.50Q545 451 545 384Q545 360 538 320L476 0L379 0L437 299Q444 336 444 356Q444 429 368 429Q294 429 234.50 370.50Q175 312 159 231L115 0L18 0Z"  horiz-adv-x="602" vert-adv-y="1000"  />

      
      <glyph glyph-name="uni6f" unicode="&#x6f;" d="M30 211Q30 338 125 428Q220 518 342 518Q449 518 515.50 456.50Q582 395 582 297Q582 168 486.50 78Q391-12 270-12Q163-12 96.50 49.50Q30 111 30 211M129 215Q129 151 168.50 111.50Q208 72 271 72Q352 72 417.50 136Q483 200 483 292Q483 355 443 394.50Q403 434 341 434Q259 434 194 370Q129 306 129 215Z"  horiz-adv-x="628" vert-adv-y="1000"  />

      
      <glyph glyph-name="uni70" unicode="&#x70;" d="M120 29L75-200L-21-200L116 506L205 506L198 463L187 423L189 423Q217 465 263 491.50Q309 518 365 518Q454 518 504.50 462Q555 406 555 310Q555 171 472 79.50Q389-12 280-12Q228-12 187.50 10.50Q147 33 128 76L126 76Q125 55 120 29M156 202Q156 145 185 108.50Q214 72 269 72Q340 72 398 136Q456 200 456 303Q456 364 425.50 398.50Q395 433 341 433Q265 433 210.50 362.50Q156 292 156 202Z"  horiz-adv-x="601" vert-adv-y="1000"  />

      
      <glyph glyph-name="uni71" unicode="&#x71;" d="M30 194Q30 334 113.50 426Q197 518 310 518Q424 518 461 430L463 430Q464 445 468 465L475 506L568 506L431-200L334-200L379 31L391 78L389 78Q365 41 321 14.50Q277-12 220-12Q130-12 80 43.50Q30 99 30 194M129 202Q129 141 160 106.50Q191 72 244 72Q321 72 375.50 143.50Q430 215 430 305Q430 361 401 397Q372 433 316 433Q245 433 187 369Q129 305 129 202Z"  horiz-adv-x="602" vert-adv-y="1000"  />

      
      <glyph glyph-name="uni72" unicode="&#x72;" d="M18 0L116 506L210 506L192 418L181 378L183 378Q210 434 259.50 473Q309 512 366 512Q374 512 396 510L377 414Q359 416 350 416Q283 416 226 346.50Q169 277 150 185L115 0L18 0Z"  horiz-adv-x="377" vert-adv-y="1000"  />

      
      <glyph glyph-name="uni73" unicode="&#x73;" d="M-7 60L42 126Q65 101 103.50 85.50Q142 70 181 70Q224 70 254 88.50Q284 107 284 141Q284 166 261.50 184Q239 202 206.50 215.50Q174 229 141.50 245Q109 261 86.50 291.50Q64 322 64 366Q64 436 121.50 477Q179 518 261 518Q360 518 424 462L379 394Q334 436 259 436Q217 436 187 418.50Q157 401 157 367Q157 342 179.50 324Q202 306 234.50 293Q267 280 299.50 263.50Q332 247 354.50 216.50Q377 186 377 142Q377 73 322.50 30.50Q268-12 183-12Q65-12-7 60Z"  horiz-adv-x="446" vert-adv-y="1000"  />

      
      <glyph glyph-name="uni74" unicode="&#x74;" d="M67 144Q67 166 73 195L117 422L52 422L66 501L134 501L163 645L257 645L228 501L350 501L335 422L213 422L171 201Q167 181 167 161Q167 82 250 82Q259 82 279 84L262-2Q238-5 230-5Q198-5 171 1.50Q144 8 119.50 24Q95 40 81 70.50Q67 101 67 144Z"  horiz-adv-x="343" vert-adv-y="1000"  />

      
      <glyph glyph-name="uni75" unicode="&#x75;" d="M41 122Q41 146 48 186L110 506L207 506L149 208Q143 175 143 150Q143 78 220 78Q292 78 349.50 138Q407 198 421 276L466 506L563 506L465 0L370 0L382 59L395 107L393 107Q367 63 312 25.50Q257-12 187-12Q122-12 81.50 20.50Q41 53 41 122Z"  horiz-adv-x="597" vert-adv-y="1000"  />

      
      <glyph glyph-name="uni76" unicode="&#x76;" d="M149 0L58 506L155 506L210 162L215 93L217 93Q234 134 249 162L438 506L542 506L256 0L149 0Z"  horiz-adv-x="524" vert-adv-y="1000"  />

      
      <glyph glyph-name="uni77" unicode="&#x77;" d="M127 0L63 506L160 506L196 150L198 96L200 96Q212 124 224 150L403 505L492 505L531 150L534 96L536 96Q546 123 559 150L735 506L839 506L577 0L471 0L429 327L425 382L423 382Q412 353 399 327L232 0L127 0Z"  horiz-adv-x="824" vert-adv-y="1000"  />

      
      <glyph glyph-name="uni78" unicode="&#x78;" d="M-40 0L186 263L65 506L169 506L238 356L251 324L252 324Q263 341 273 354L397 506L511 506L298 256L425 0L323 0L244 164L233 194L231 194Q222 178 212 166L73 0L-40 0Z"  horiz-adv-x="498" vert-adv-y="1000"  />

      
      <glyph glyph-name="uni79" unicode="&#x79;" d="M-30-108Q-8-127 26-127Q85-127 132-53L169 7L53 506L154 506L223 163L230 105L231 105Q246 137 260 162L450 506L559 506L204-93Q134-210 29-210Q-28-210-75-177L-30-108Z"  horiz-adv-x="539" vert-adv-y="1000"  />

      
      <glyph glyph-name="uni7a" unicode="&#x7a;" d="M-21 0L-11 56L302 376L352 423L352 425Q337 423 305 423L71 423L87 506L504 506L493 450L179 130L128 83L128 81Q145 84 178 84L430 84L414 0L-21 0Z"  horiz-adv-x="508" vert-adv-y="1000"  />

      
      <glyph glyph-name="uni7b" unicode="&#x7b;" d="M79 32Q79 53 84 83L102 173Q105 189 105 202Q105 271 38 282L55 368Q95 373 123.50 403Q152 433 161 479L179 569Q212 737 374 737Q377 737 384.50 736.50Q392 736 396 736L382 662L369 662Q282 662 262 557L240 447Q232 404 203.50 371.50Q175 339 134 326L134 324Q161 311 177.50 283.50Q194 256 194 222Q194 207 191 192L169 83Q166 70 166 48Q166-22 236-22L250-22L235-96Q225-98 211-98Q198-98 184-95.50Q170-93 150-85Q130-77 115-63.50Q100-50 89.50-25.50Q79-1 79 32Z"  horiz-adv-x="354" vert-adv-y="1000"  />

      
      <glyph glyph-name="uni7c" unicode="&#x7c;" d="M120-159L120 792L205 792L205-159L120-159Z"  horiz-adv-x="320" vert-adv-y="1000"  />

      
      <glyph glyph-name="uni7d" unicode="&#x7d;" d="M-2-22Q9-22 20-19Q31-16 49-7Q67 2 81 25Q95 48 102 83L125 202Q134 248 162 281Q190 314 231 326L231 328Q173 357 173 428Q173 442 176 458L194 557Q199 579 199 592Q199 662 127 662L114 662L129 736Q134 737 152 737Q169 737 188 732.50Q207 728 230.50 716Q254 704 269.50 676Q285 648 285 607Q285 584 279 557L264 477Q261 460 261 448Q261 416 279 394Q297 372 328 368L311 282Q274 275 244 247.50Q214 220 205 171L185 71Q151-98-11-98Q-14-98-21-97.50Q-28-97-33-97L-19-22L-2-22Z"  horiz-adv-x="354" vert-adv-y="1000"  />

      
      <glyph glyph-name="uni7e" unicode="&#x7e;" d="M58 204Q58 289 94.50 331Q131 373 197 373Q232 373 260.50 357.50Q289 342 304 324Q319 306 341.50 290.50Q364 275 389 275Q424 275 440 303Q456 331 456 369L534 369Q534 200 395 200Q360 200 331.50 215Q303 230 288 248.50Q273 267 250.50 282Q228 297 203 297Q168 297 152.50 269Q137 241 137 204L58 204Z"  horiz-adv-x="594" vert-adv-y="1000"  />

      
      <glyph glyph-name="unia1" unicode="&#xa1;" d="M97 408L117 506L217 506L198 408L97 408M-20-200L87 312L173 312L80-200L-20-200Z"  horiz-adv-x="253" vert-adv-y="1000"  />

      
      <glyph glyph-name="unia2" unicode="&#xa2;" d="M202-12L220 75Q144 90 100 147.50Q56 205 56 294Q56 422 135 523Q214 624 329 634L345 718L415 718L398 630Q436 624 467.50 604.50Q499 585 516 560Q533 535 542.50 514.50Q552 494 554 479L466 446Q465 455 459.50 469Q454 483 442 501Q430 519 405.50 531.50Q381 544 349 544Q267 544 211.50 470.50Q156 397 156 294Q156 233 186 198Q216 163 275 163Q306 163 334.50 175Q363 187 383 206Q403 225 413 237Q423 249 430 260L517 224Q506 206 489 185.50Q472 165 443.50 138Q415 111 374.50 92Q334 73 290 70L274-12L202-12Z"  horiz-adv-x="577" vert-adv-y="1000"  />

      
      <glyph glyph-name="unia3" unicode="&#xa3;" d="M-7 0L10 86L70 86L115 319L71 319L85 389L128 389L156 532Q172 612 239 665Q306 718 396 718Q497 718 562 650L497 588Q454 628 394 628Q340 628 302 597.50Q264 567 255 521L229 389L413 389L399 319L215 319L170 86L495 86L478 0L-7 0Z"  horiz-adv-x="577" vert-adv-y="1000"  />

      
      <glyph glyph-name="unia4" unicode="&#xa4;" d="M66 0L100 170L29 170L43 240L113 240L127 310L57 310L72 390L142 390L204 706L429 706Q521 706 571.50 661.50Q622 617 622 539Q622 441 547 375Q472 309 363 309L225 309L211 240L461 240L448 170L198 170L165 0L66 0M241 390L358 390Q426 390 473.50 430Q521 470 521 532Q521 626 406 626L287 626L241 390Z"  horiz-adv-x="611" vert-adv-y="1000"  />

      
      <glyph glyph-name="unia5" unicode="&#xa5;" d="M179 0L219 199L56 199L67 263L230 263L238 299L221 347L84 347L97 410L199 410L92 706L199 706L275 486L302 385L304 385Q333 438 364 485L524 706L642 706L420 410L521 410L509 347L374 347L338 299L330 263L492 263L481 199L319 199L279 0L179 0Z"  horiz-adv-x="577" vert-adv-y="1000"  />

      
      <glyph glyph-name="unia7" unicode="&#xa7;" d="M108 111L114 501Q112 590 168.50 654Q225 718 321 718Q405 718 465 664L412 606Q378 637 321 637Q260 637 225.50 597.50Q191 558 193 496L185 111L108 111M-5-8L48 51Q81 20 138 20Q199 20 233.50 59Q268 98 267 160L274 545L351 545L345 156Q347 65 290.50 1.50Q234-62 137-62Q50-62-5-8Z"  horiz-adv-x="447" vert-adv-y="1000"  />

      
      <glyph glyph-name="unia8" unicode="&#xa8;" d="M232 781L251 882L331 882L311 781L232 781M64 781L84 882L164 882L144 781L64 781Z"  horiz-adv-x="499" vert-adv-y="1000"  />

      
      <glyph glyph-name="unia9" unicode="&#xa9;" d="M175 94.50Q175 94.50 123 147.75Q71 201 71 353Q71 505 175 611.50Q279 718 426 718Q575 718 680 611.50Q785 505 785 353Q785 201 680 94.50Q575-12 426-12Q279-12 175 94.50M225.50 564.50Q225.50 564.50 184.75 521.25Q144 478 144 353Q144 228 225.50 141.50Q307 55 426 55Q547 55 629.50 141Q712 227 712 353Q712 479 629.50 565Q547 651 426 651Q307 651 225.50 564.50M237 352Q237 434 291.50 493Q346 552 434 552Q485 552 529 525.50Q573 499 596 453L535 420Q521 447 493.50 465Q466 483 436 483Q379 483 345.50 445Q312 407 312 352Q312 296 345 258.50Q378 221 436 221Q498 221 535 284L596 251Q573 209 530.50 180.50Q488 152 434 152Q345 152 291 210.50Q237 269 237 352Z"  horiz-adv-x="832" vert-adv-y="1000"  />

      
      <glyph glyph-name="uniaa" unicode="&#xaa;" d="M202 383Q165 383 136.50 405Q108 427 108 467Q108 495 119.50 517Q131 539 151 551.50Q171 564 191.50 572Q212 580 238.50 583.50Q265 587 280.50 588Q296 589 314 589L330 589Q333 597 333 599Q341 658 280 658Q241 658 191 631L171 682Q220 716 296 716Q406 716 406 619Q406 604 401 582L363 389L296 389L305 435L303 435Q263 383 202 383M227 441Q258 441 285.50 471Q313 501 319 530L320 538L308 538Q183 538 183 475Q183 441 227 441M69 265L79 322L354 322L343 265L69 265Z"  horiz-adv-x="426" vert-adv-y="1000"  />

      
      <glyph glyph-name="uniab" unicode="&#xab;" d="M369 77L240 284L448 488L551 488L334 278L461 77L369 77M170 77L41 284L233 488L335 488L135 278L262 77L170 77Z"  horiz-adv-x="562" vert-adv-y="1000"  />

      
      <glyph glyph-name="uniac" unicode="&#xac;" d="M91 340L91 418L568 418L568 150L487 150L487 340L91 340Z"  horiz-adv-x="662" vert-adv-y="1000"  />

      
      <glyph glyph-name="uniad" unicode="&#xad;" d="M60 242L76 328L367 328L351 242L60 242Z"  horiz-adv-x="433" vert-adv-y="1000"  />

      
      <glyph glyph-name="uniae" unicode="&#xae;" d="M175 94.50Q175 94.50 123 147.75Q71 201 71 353Q71 505 175 611.50Q279 718 426 718Q575 718 680 611.50Q785 505 785 353Q785 201 680 94.50Q575-12 426-12Q279-12 175 94.50M225.50 564.50Q225.50 564.50 184.75 521.25Q144 478 144 353Q144 228 225.50 141.50Q307 55 426 55Q547 55 629.50 141Q712 227 712 353Q712 479 629.50 565Q547 651 426 651Q307 651 225.50 564.50M304 166L304 544L450 544Q503 544 535.50 512Q568 480 568 428Q568 388 547 361.50Q526 335 499 328L499 326Q503 322 512 305L584 166L506 166L436 312L375 312L375 166L304 166M375 364L435 364Q463 364 479.50 381Q496 398 496 428Q496 457 479.50 473Q463 489 436 489L375 489L375 364Z"  horiz-adv-x="832" vert-adv-y="1000"  />

      
      <glyph glyph-name="uniaf" unicode="&#xaf;" d="M64 784L77 855L331 855L318 784L64 784Z"  horiz-adv-x="499" vert-adv-y="1000"  />

      
      <glyph glyph-name="unib0" unicode="&#xb0;" d="M240 422Q180 422 141.50 458.50Q103 495 103 552Q103 617 155.50 667.50Q208 718 274 718Q334 718 372 681Q410 644 410 588Q410 523 357 472.50Q304 422 240 422M244 495Q278 495 305.50 521.50Q333 548 333 583Q333 610 315 627.50Q297 645 269 645Q234 645 207.50 618Q181 591 181 556Q181 529 198 512Q215 495 244 495Z"  horiz-adv-x="409" vert-adv-y="1000"  />

      
      <glyph glyph-name="unib1" unicode="&#xb1;" d="M218 0L218 246L-6 246L-6 324L218 324L218 570L300 570L300 324L523 324L523 246L300 246L300 0L218 0M11-95L507-95L507-172L11-172L11-95Z"  horiz-adv-x="577" vert-adv-y="1000"  />

      
      <glyph glyph-name="unib2" unicode="&#xb2;" d="M73 423Q74 472 94.50 511.50Q115 551 145 574.50Q175 598 210 620.50Q245 643 274.50 659.50Q304 676 324 699Q344 722 344 749Q344 772 327 786.50Q310 801 283 801Q241 801 189 753L146 802Q212 870 288 870Q347 870 384 839Q421 808 421 755Q421 712 397.50 678Q374 644 339.50 621.50Q305 599 269.50 580Q234 561 204.50 538Q175 515 167 489L378 489L364 423L73 423Z"  horiz-adv-x="386" vert-adv-y="1000"  />

      
      <glyph glyph-name="unib3" unicode="&#xb3;" d="M218 413Q129 413 69 479L117 528Q157 482 219 482Q257 482 285 507.50Q313 533 313 570Q313 597 291 613Q269 629 237 629L203 629L192 667L299 770L329 794L329 796Q309 793 293 793L154 793L167 860L438 860L429 812L296 686Q333 678 361.50 649Q390 620 390 572Q390 510 340.50 461.50Q291 413 218 413Z"  horiz-adv-x="386" vert-adv-y="1000"  />

      
      <glyph glyph-name="unib4" unicode="&#xb4;" d="M91 755L189 882L299 882L178 755L91 755Z"  horiz-adv-x="499" vert-adv-y="1000"  />

      
      <glyph glyph-name="unib5" unicode="&#xb5;" d="M101-60L73-200L-12-200L125 506L222 506L164 208Q157 170 157 150Q157 78 234 78Q307 78 364 137.50Q421 197 436 276L480 506L577 506L479 0L385 0L396 59L409 107L407 107Q382 63 327 25.50Q272-12 203-12Q142-12 112 21L110 21Q107-30 101-60Z"  horiz-adv-x="602" vert-adv-y="1000"  />

      
      <glyph glyph-name="uni03BC" unicode="&#x03BC;" d="M101-60L73-200L-12-200L125 506L222 506L164 208Q157 170 157 150Q157 78 234 78Q307 78 364 137.50Q421 197 436 276L480 506L577 506L479 0L385 0L396 59L409 107L407 107Q382 63 327 25.50Q272-12 203-12Q142-12 112 21L110 21Q107-30 101-60Z"  horiz-adv-x="602" vert-adv-y="1000"  />

      
      <glyph glyph-name="unib6" unicode="&#xb6;" d="M210-50L266 241Q187 241 128.50 299.50Q70 358 70 444Q70 549 154.50 627.50Q239 706 344 706L627 706L611 620L414 620L284-50L210-50M346-50L465 563L540 563L421-50L346-50Z"  horiz-adv-x="599" vert-adv-y="1000"  />

      
      <glyph glyph-name="unib7" unicode="&#xb7;" d="M59 237L79 342L181 342L160 237L59 237Z"  horiz-adv-x="242" vert-adv-y="1000"  />

      
      <glyph glyph-name="unib8" unicode="&#xb8;" d="M131-88L181 23L230 12L204-50Q229-54 246.50-70.50Q264-87 264-115Q264-161 228.50-184Q193-207 149-207Q117-207 90-200L101-143Q117-149 142-149Q196-149 196-113Q196-87 149-87Q137-87 131-88Z"  horiz-adv-x="499" vert-adv-y="1000"  />

      
      <glyph glyph-name="unib9" unicode="&#xb9;" d="M98 423L111 489L204 489L251 733L259 760L257 760Q251 750 235 737L194 705L157 757L284 860L351 860L279 489L371 489L358 423L98 423Z"  horiz-adv-x="386" vert-adv-y="1000"  />

      
      <glyph glyph-name="uniba" unicode="&#xba;" d="M266 384Q201 384 159 423Q117 462 117 523Q117 603 177.50 660Q238 717 314 717Q380 717 422 678Q464 639 464 577Q464 497 403.50 440.50Q343 384 266 384M271 449Q317 449 354 485Q391 521 391 573Q391 608 368.50 630.50Q346 653 311 653Q264 653 227.50 616.50Q191 580 191 529Q191 492 213 470.50Q235 449 271 449M80 265L91 322L404 322L392 265L80 265Z"  horiz-adv-x="483" vert-adv-y="1000"  />

      
      <glyph glyph-name="unibb" unicode="&#xbb;" d="M222 77L423 287L295 488L387 488L515 281L324 77L222 77M6 77L223 287L96 488L188 488L317 281L109 77L6 77Z"  horiz-adv-x="562" vert-adv-y="1000"  />

      
      <glyph glyph-name="unibc" unicode="&#xbc;" d="M715 0L736 107L527 107L536 157L789 437L874 437L822 173L884 173L872 107L810 107L789 0L715 0M626 173L749 173L772 296L788 354L786 354Q767 327 747 306L626 175L626 173M277 0L197 0L670 706L750 706L277 0M54 270L67 336L160 336L207 580L215 607L213 607Q207 597 191 584L150 552L113 604L240 707L307 707L235 336L327 336L314 270L54 270Z"  horiz-adv-x="948" vert-adv-y="1000"  />

      
      <glyph glyph-name="unibd" unicode="&#xbd;" d="M544 0Q545 49 565.50 88.50Q586 128 616 151.50Q646 175 681 197.50Q716 220 745.50 236.50Q775 253 795 276Q815 299 815 326Q815 349 798 363.50Q781 378 754 378Q712 378 660 330L617 379Q683 447 759 447Q818 447 855 416Q892 385 892 332Q892 289 868.50 255Q845 221 810.50 198.50Q776 176 740.50 157Q705 138 675.50 115Q646 92 638 66L849 66L835 0L544 0M277 0L197 0L670 706L750 706L277 0M53 270L66 336L159 336L206 580L214 607L212 607Q206 597 190 584L149 552L112 604L239 707L306 707L234 336L326 336L313 270L53 270Z"  horiz-adv-x="941" vert-adv-y="1000"  />

      
      <glyph glyph-name="unibe" unicode="&#xbe;" d="M737 0L758 107L549 107L558 157L811 437L896 437L844 173L906 173L894 107L832 107L811 0L737 0M648 173L771 173L794 296L810 354L808 354Q789 327 769 306L648 175L648 173M198 260Q109 260 49 326L97 375Q137 329 199 329Q237 329 265 354.50Q293 380 293 417Q293 444 271 460Q249 476 217 476L183 476L172 514L279 617L309 641L309 643Q289 640 273 640L134 640L147 707L418 707L409 659L276 533Q313 525 341.50 496Q370 467 370 419Q370 357 320.50 308.50Q271 260 198 260M298 0L218 0L691 706L771 706L298 0Z"  horiz-adv-x="970" vert-adv-y="1000"  />

      
      <glyph glyph-name="unibf" unicode="&#xbf;" d="M237 408L257 506L357 506L338 408L237 408M-21-50Q-21-1 1 39.50Q23 80 55.50 107.50Q88 135 121 159.50Q154 184 181 213.50Q208 243 215 275L223 312L318 312L309 269Q300 225 273.50 188Q247 151 215 126Q183 101 153 77.50Q123 54 102.50 25Q82-4 82-38Q82-74 108-97Q134-120 178-120Q236-120 300-77L343-152Q311-175 262-192.50Q213-210 165-210Q83-210 31-166.50Q-21-123-21-50Z"  horiz-adv-x="464" vert-adv-y="1000"  />

      
      <glyph glyph-name="unic0" unicode="&#xc0;" d="M-39 0L348 706L458 706L574 0L475 0L443 203L177 203L68 0L-39 0M219 285L433 285L398 508L389 609L387 609Q360 545 341 508L219 285M371 755L301 882L400 882L448 755L371 755Z"  horiz-adv-x="643" vert-adv-y="1000"  />

      
      <glyph glyph-name="unic1" unicode="&#xc1;" d="M-39 0L348 706L458 706L574 0L475 0L443 203L177 203L68 0L-39 0M219 285L433 285L398 508L389 609L387 609Q360 545 341 508L219 285M367 755L465 882L575 882L454 755L367 755Z"  horiz-adv-x="643" vert-adv-y="1000"  />

      
      <glyph glyph-name="unic2" unicode="&#xc2;" d="M-39 0L348 706L458 706L574 0L475 0L443 203L177 203L68 0L-39 0M219 285L433 285L398 508L389 609L387 609Q360 545 341 508L219 285M271 755L384 882L485 882L547 755L466 755L430 835L428 835L360 755L271 755Z"  horiz-adv-x="643" vert-adv-y="1000"  />

      
      <glyph glyph-name="unic3" unicode="&#xc3;" d="M-39 0L348 706L458 706L574 0L475 0L443 203L177 203L68 0L-39 0M219 285L433 285L398 508L389 609L387 609Q360 545 341 508L219 285M253 756Q276 883 371 883Q398 883 417 866Q436 849 450 832Q464 815 480 815Q518 815 529 880L599 880Q576 753 481 753Q455 753 436 770Q417 787 402 804Q387 821 371 821Q336 821 323 756L253 756Z"  horiz-adv-x="643" vert-adv-y="1000"  />

      
      <glyph glyph-name="unic4" unicode="&#xc4;" d="M-39 0L348 706L458 706L574 0L475 0L443 203L177 203L68 0L-39 0M219 285L433 285L398 508L389 609L387 609Q360 545 341 508L219 285M463 781L482 882L562 882L542 781L463 781M295 781L315 882L395 882L375 781L295 781Z"  horiz-adv-x="643" vert-adv-y="1000"  />

      
      <glyph glyph-name="unic5" unicode="&#xc5;" d="M-39 0L348 706L458 706L574 0L475 0L443 203L177 203L68 0L-39 0M219 285L433 285L398 508L389 609L387 609Q360 545 341 508L219 285M416 743Q382 743 360.50 760Q339 777 339 808Q339 845 368 868.50Q397 892 433 892Q468 892 489.50 874.50Q511 857 511 826Q511 790 481.50 766.50Q452 743 416 743M419 784Q435 784 447 796Q459 808 459 825Q459 837 451.50 844.50Q444 852 431 852Q415 852 403 839.50Q391 827 391 809Q391 784 419 784Z"  horiz-adv-x="643" vert-adv-y="1000"  />

      
      <glyph glyph-name="unic6" unicode="&#xc6;" d="M-45 0L382 706L907 706L890 620L578 620L535 399L788 399L771 313L518 313L474 86L802 86L786 0L359 0L420 314L251 314L65 0L-45 0M299 396L436 396L480 620L434 620L299 396Z"  horiz-adv-x="884" vert-adv-y="1000"  />

      
      <glyph glyph-name="unic7" unicode="&#xc7;" d="M278-88L314-8Q194 8 125.50 90Q57 172 57 294Q57 407 115 505.50Q173 604 269.50 661Q366 718 475 718Q548 718 617 695Q686 672 730 624L671 555Q596 628 477 628Q345 628 252 529Q159 430 159 299Q159 203 216.50 141Q274 79 374 79Q499 79 609 170L652 92Q602 47 523 17.50Q444-12 369-12L367-12L351-50Q376-54 393.50-70.50Q411-87 411-115Q411-161 375.50-184Q340-207 296-207Q264-207 237-200L248-143Q264-149 289-149Q343-149 343-113Q343-87 296-87Q284-87 278-88Z"  horiz-adv-x="718" vert-adv-y="1000"  />

      
      <glyph glyph-name="unic8" unicode="&#xc8;" d="M36 0L174 706L584 706L566 620L255 620L212 399L465 399L448 313L196 313L151 86L479 86L463 0L36 0M356 755L286 882L385 882L433 755L356 755Z"  horiz-adv-x="562" vert-adv-y="1000"  />

      
      <glyph glyph-name="unic9" unicode="&#xc9;" d="M352 755L450 882L560 882L439 755L352 755M36 0L174 706L584 706L566 620L255 620L212 399L465 399L448 313L196 313L151 86L479 86L463 0L36 0Z"  horiz-adv-x="562" vert-adv-y="1000"  />

      
      <glyph glyph-name="unica" unicode="&#xca;" d="M256 755L369 882L470 882L532 755L451 755L415 835L413 835L345 755L256 755M36 0L174 706L584 706L566 620L255 620L212 399L465 399L448 313L196 313L151 86L479 86L463 0L36 0Z"  horiz-adv-x="562" vert-adv-y="1000"  />

      
      <glyph glyph-name="unicb" unicode="&#xcb;" d="M448 781L467 882L547 882L527 781L448 781M280 781L300 882L380 882L360 781L280 781M36 0L174 706L584 706L566 620L255 620L212 399L465 399L448 313L196 313L151 86L479 86L463 0L36 0Z"  horiz-adv-x="562" vert-adv-y="1000"  />

      
      <glyph glyph-name="unicc" unicode="&#xcc;" d="M36 0L174 706L272 706L134 0L36 0M191 755L121 882L220 882L268 755L191 755Z"  horiz-adv-x="286" vert-adv-y="1000"  />

      
      <glyph glyph-name="unicd" unicode="&#xcd;" d="M36 0L174 706L272 706L134 0L36 0M185 755L283 882L393 882L272 755L185 755Z"  horiz-adv-x="286" vert-adv-y="1000"  />

      
      <glyph glyph-name="unice" unicode="&#xce;" d="M36 0L174 706L272 706L134 0L36 0M89 755L202 882L303 882L365 755L284 755L248 835L246 835L178 755L89 755Z"  horiz-adv-x="286" vert-adv-y="1000"  />

      
      <glyph glyph-name="unicf" unicode="&#xcf;" d="M36 0L174 706L272 706L134 0L36 0M282 781L301 882L381 882L361 781L282 781M114 781L134 882L214 882L194 781L114 781Z"  horiz-adv-x="286" vert-adv-y="1000"  />

      
      <glyph glyph-name="unid0" unicode="&#xd0;" d="M43 0L104 312L45 312L61 394L120 394L180 706L398 706Q544 706 627 634Q710 562 710 431Q710 250 592 125Q474 0 292 0L43 0M158 86L286 86Q426 86 517 183Q608 280 608 423Q608 518 550.50 569Q493 620 390 620L262 620L217 394L368 394L352 312L202 312L158 86Z"  horiz-adv-x="744" vert-adv-y="1000"  />

      
      <glyph glyph-name="unid1" unicode="&#xd1;" d="M36 0L174 706L266 706L491 248Q499 231 508.50 205Q518 179 524 162L529 145L531 145Q536 208 544 248L633 706L732 706L594 0L503 0L277 458L239 561L237 561Q231 498 224 458L134 0L36 0M300 756Q323 883 418 883Q445 883 464 866Q483 849 497 832Q511 815 527 815Q565 815 576 880L646 880Q623 753 528 753Q502 753 483 770Q464 787 449 804Q434 821 418 821Q383 821 370 756L300 756Z"  horiz-adv-x="746" vert-adv-y="1000"  />

      
      <glyph glyph-name="unid2" unicode="&#xd2;" d="M56 296Q56 407 116 505Q176 603 273.50 660.50Q371 718 477 718Q617 718 704 634Q791 550 791 418Q791 305 730.50 204.50Q670 104 572.50 46Q475-12 370-12Q229-12 142.50 74.50Q56 161 56 296M157 300Q157 202 216.50 140.50Q276 79 370 79Q492 79 590.50 178.50Q689 278 689 413Q689 508 629.50 568Q570 628 476 628Q353 628 255 530.50Q157 433 157 300M457 755L387 882L486 882L534 755L457 755Z"  horiz-adv-x="823" vert-adv-y="1000"  />

      
      <glyph glyph-name="unid3" unicode="&#xd3;" d="M453 755L551 882L661 882L540 755L453 755M56 296Q56 407 116 505Q176 603 273.50 660.50Q371 718 477 718Q617 718 704 634Q791 550 791 418Q791 305 730.50 204.50Q670 104 572.50 46Q475-12 370-12Q229-12 142.50 74.50Q56 161 56 296M157 300Q157 202 216.50 140.50Q276 79 370 79Q492 79 590.50 178.50Q689 278 689 413Q689 508 629.50 568Q570 628 476 628Q353 628 255 530.50Q157 433 157 300Z"  horiz-adv-x="823" vert-adv-y="1000"  />

      
      <glyph glyph-name="unid4" unicode="&#xd4;" d="M357 755L470 882L571 882L633 755L552 755L516 835L514 835L446 755L357 755M56 296Q56 407 116 505Q176 603 273.50 660.50Q371 718 477 718Q617 718 704 634Q791 550 791 418Q791 305 730.50 204.50Q670 104 572.50 46Q475-12 370-12Q229-12 142.50 74.50Q56 161 56 296M157 300Q157 202 216.50 140.50Q276 79 370 79Q492 79 590.50 178.50Q689 278 689 413Q689 508 629.50 568Q570 628 476 628Q353 628 255 530.50Q157 433 157 300Z"  horiz-adv-x="823" vert-adv-y="1000"  />

      
      <glyph glyph-name="unid5" unicode="&#xd5;" d="M56 296Q56 407 116 505Q176 603 273.50 660.50Q371 718 477 718Q617 718 704 634Q791 550 791 418Q791 305 730.50 204.50Q670 104 572.50 46Q475-12 370-12Q229-12 142.50 74.50Q56 161 56 296M157 300Q157 202 216.50 140.50Q276 79 370 79Q492 79 590.50 178.50Q689 278 689 413Q689 508 629.50 568Q570 628 476 628Q353 628 255 530.50Q157 433 157 300M339 756Q362 883 457 883Q484 883 503 866Q522 849 536 832Q550 815 566 815Q604 815 615 880L685 880Q662 753 567 753Q541 753 522 770Q503 787 488 804Q473 821 457 821Q422 821 409 756L339 756Z"  horiz-adv-x="823" vert-adv-y="1000"  />

      
      <glyph glyph-name="unid6" unicode="&#xd6;" d="M550 781L569 882L649 882L629 781L550 781M382 781L402 882L482 882L462 781L382 781M56 296Q56 407 116 505Q176 603 273.50 660.50Q371 718 477 718Q617 718 704 634Q791 550 791 418Q791 305 730.50 204.50Q670 104 572.50 46Q475-12 370-12Q229-12 142.50 74.50Q56 161 56 296M157 300Q157 202 216.50 140.50Q276 79 370 79Q492 79 590.50 178.50Q689 278 689 413Q689 508 629.50 568Q570 628 476 628Q353 628 255 530.50Q157 433 157 300Z"  horiz-adv-x="823" vert-adv-y="1000"  />

      
      <glyph glyph-name="unid7" unicode="&#xd7;" d="M29 55L236 285L29 515L85 570L289 342L494 570L549 515L341 285L549 55L494 0L289 228L85 0L29 55Z"  horiz-adv-x="577" vert-adv-y="1000"  />

      
      <glyph glyph-name="unid8" unicode="&#xd8;" d="M64 12L132 85Q56 169 56 296Q56 407 116 505Q176 603 273.50 660.50Q371 718 477 718Q586 718 665 664L727 732L773 694L711 627Q791 542 791 418Q791 305 730.50 204.50Q670 104 572.50 46Q475-12 370-12Q254-12 176 46L111-25L64 12M202 161L598 592Q542 628 476 628Q353 628 255 530.50Q157 433 157 300Q157 217 202 161M243 118Q296 79 370 79Q492 79 590.50 178.50Q689 278 689 413Q689 494 642 552L243 118Z"  horiz-adv-x="823" vert-adv-y="1000"  />

      
      <glyph glyph-name="unid9" unicode="&#xd9;" d="M72 197Q72 224 78 254L167 706L265 706L176 251Q172 232 172 209Q172 147 211.50 113Q251 79 322 79Q404 79 461 125Q518 171 534 253L623 706L721 706L630 245Q607 126 523.50 57Q440-12 319-12Q209-12 140.50 43.50Q72 99 72 197M410 755L340 882L439 882L487 755L410 755Z"  horiz-adv-x="726" vert-adv-y="1000"  />

      
      <glyph glyph-name="unida" unicode="&#xda;" d="M406 755L504 882L614 882L493 755L406 755M72 197Q72 224 78 254L167 706L265 706L176 251Q172 232 172 209Q172 147 211.50 113Q251 79 322 79Q404 79 461 125Q518 171 534 253L623 706L721 706L630 245Q607 126 523.50 57Q440-12 319-12Q209-12 140.50 43.50Q72 99 72 197Z"  horiz-adv-x="726" vert-adv-y="1000"  />

      
      <glyph glyph-name="unidb" unicode="&#xdb;" d="M310 755L423 882L524 882L586 755L505 755L469 835L467 835L399 755L310 755M72 197Q72 224 78 254L167 706L265 706L176 251Q172 232 172 209Q172 147 211.50 113Q251 79 322 79Q404 79 461 125Q518 171 534 253L623 706L721 706L630 245Q607 126 523.50 57Q440-12 319-12Q209-12 140.50 43.50Q72 99 72 197Z"  horiz-adv-x="726" vert-adv-y="1000"  />

      
      <glyph glyph-name="unidc" unicode="&#xdc;" d="M502 781L521 882L601 882L581 781L502 781M334 781L354 882L434 882L414 781L334 781M72 197Q72 224 78 254L167 706L265 706L176 251Q172 232 172 209Q172 147 211.50 113Q251 79 322 79Q404 79 461 125Q518 171 534 253L623 706L721 706L630 245Q607 126 523.50 57Q440-12 319-12Q209-12 140.50 43.50Q72 99 72 197Z"  horiz-adv-x="726" vert-adv-y="1000"  />

      
      <glyph glyph-name="unidd" unicode="&#xdd;" d="M183 0L242 299L87 706L193 706L277 474L304 385L306 385Q337 432 366 474L539 706L658 706L340 296L282 0L183 0M327 755L425 882L535 882L414 755L327 755Z"  horiz-adv-x="592" vert-adv-y="1000"  />

      
      <glyph glyph-name="unide" unicode="&#xde;" d="M36 0L174 706L272 706L248 586L392 586Q486 586 539 538Q592 490 592 406Q592 292 515.50 216.50Q439 141 333 141L162 141L134 0L36 0M179 227L322 227Q395 227 442.50 274Q490 321 490 400Q490 447 460.50 473.50Q431 500 376 500L231 500L179 227Z"  horiz-adv-x="609" vert-adv-y="1000"  />

      
      <glyph glyph-name="unidf" unicode="&#xdf;" d="M18 0L122 538Q138 622 206.50 670Q275 718 357 718Q437 718 485.50 678Q534 638 534 576Q534 543 519.50 515.50Q505 488 484.50 469Q464 450 444 433.50Q424 417 409.50 399.50Q395 382 395 364Q395 344 416.50 320.50Q438 297 463.50 278Q489 259 510.50 227Q532 195 532 160Q532 91 475 42Q418-7 342-7Q255-7 194 22L211 106Q258 77 335 77Q372 77 403 98Q434 119 434 159Q434 185 412 210.50Q390 236 364 254.50Q338 273 316 301Q294 329 294 358Q294 386 308.50 410.50Q323 435 343.50 453.50Q364 472 385 489.50Q406 507 420.50 527.50Q435 548 435 569Q435 596 414 615Q393 634 354 634Q306 634 266.50 605Q227 576 216 523L115 0L18 0Z"  horiz-adv-x="588" vert-adv-y="1000"  />

      
      <glyph glyph-name="unie0" unicode="&#xe0;" d="M1 118Q1 164 23 199.50Q45 235 79 256.50Q113 278 159 291.50Q205 305 248 310Q291 315 336 315L362 315Q366 337 366 358Q366 436 274 436Q198 436 123 388L97 465Q128 486 181.50 502Q235 518 288 518Q366 518 415 482Q464 446 464 370Q464 349 459 316L398 0L307 0L317 51L327 91L325 91Q304 54 257 21Q210-12 150-12Q87-12 44 23Q1 58 1 118M97 132Q97 103 117.50 84Q138 65 179 65Q236 65 284 115.50Q332 166 346 227L349 245L324 245Q97 245 97 132M268 580L198 707L297 707L345 580L268 580Z"  horiz-adv-x="524" vert-adv-y="1000"  />

      
      <glyph glyph-name="unie1" unicode="&#xe1;" d="M1 118Q1 164 23 199.50Q45 235 79 256.50Q113 278 159 291.50Q205 305 248 310Q291 315 336 315L362 315Q366 337 366 358Q366 436 274 436Q198 436 123 388L97 465Q128 486 181.50 502Q235 518 288 518Q366 518 415 482Q464 446 464 370Q464 349 459 316L398 0L307 0L317 51L327 91L325 91Q304 54 257 21Q210-12 150-12Q87-12 44 23Q1 58 1 118M97 132Q97 103 117.50 84Q138 65 179 65Q236 65 284 115.50Q332 166 346 227L349 245L324 245Q97 245 97 132M265 580L363 707L473 707L352 580L265 580Z"  horiz-adv-x="524" vert-adv-y="1000"  />

      
      <glyph glyph-name="unie2" unicode="&#xe2;" d="M1 118Q1 164 23 199.50Q45 235 79 256.50Q113 278 159 291.50Q205 305 248 310Q291 315 336 315L362 315Q366 337 366 358Q366 436 274 436Q198 436 123 388L97 465Q128 486 181.50 502Q235 518 288 518Q366 518 415 482Q464 446 464 370Q464 349 459 316L398 0L307 0L317 51L327 91L325 91Q304 54 257 21Q210-12 150-12Q87-12 44 23Q1 58 1 118M97 132Q97 103 117.50 84Q138 65 179 65Q236 65 284 115.50Q332 166 346 227L349 245L324 245Q97 245 97 132M168 580L281 707L382 707L444 580L363 580L327 660L325 660L257 580L168 580Z"  horiz-adv-x="524" vert-adv-y="1000"  />

      
      <glyph glyph-name="unie3" unicode="&#xe3;" d="M1 118Q1 164 23 199.50Q45 235 79 256.50Q113 278 159 291.50Q205 305 248 310Q291 315 336 315L362 315Q366 337 366 358Q366 436 274 436Q198 436 123 388L97 465Q128 486 181.50 502Q235 518 288 518Q366 518 415 482Q464 446 464 370Q464 349 459 316L398 0L307 0L317 51L327 91L325 91Q304 54 257 21Q210-12 150-12Q87-12 44 23Q1 58 1 118M97 132Q97 103 117.50 84Q138 65 179 65Q236 65 284 115.50Q332 166 346 227L349 245L324 245Q97 245 97 132M150 581Q173 708 268 708Q295 708 314 691Q333 674 347 657Q361 640 377 640Q415 640 426 705L496 705Q473 578 378 578Q352 578 333 595Q314 612 299 629Q284 646 268 646Q233 646 220 581L150 581Z"  horiz-adv-x="524" vert-adv-y="1000"  />

      
      <glyph glyph-name="unie4" unicode="&#xe4;" d="M1 118Q1 164 23 199.50Q45 235 79 256.50Q113 278 159 291.50Q205 305 248 310Q291 315 336 315L362 315Q366 337 366 358Q366 436 274 436Q198 436 123 388L97 465Q128 486 181.50 502Q235 518 288 518Q366 518 415 482Q464 446 464 370Q464 349 459 316L398 0L307 0L317 51L327 91L325 91Q304 54 257 21Q210-12 150-12Q87-12 44 23Q1 58 1 118M97 132Q97 103 117.50 84Q138 65 179 65Q236 65 284 115.50Q332 166 346 227L349 245L324 245Q97 245 97 132M360 606L379 707L459 707L439 606L360 606M192 606L212 707L292 707L272 606L192 606Z"  horiz-adv-x="524" vert-adv-y="1000"  />

      
      <glyph glyph-name="unie5" unicode="&#xe5;" d="M1 118Q1 164 23 199.50Q45 235 79 256.50Q113 278 159 291.50Q205 305 248 310Q291 315 336 315L362 315Q366 337 366 358Q366 436 274 436Q198 436 123 388L97 465Q128 486 181.50 502Q235 518 288 518Q366 518 415 482Q464 446 464 370Q464 349 459 316L398 0L307 0L317 51L327 91L325 91Q304 54 257 21Q210-12 150-12Q87-12 44 23Q1 58 1 118M97 132Q97 103 117.50 84Q138 65 179 65Q236 65 284 115.50Q332 166 346 227L349 245L324 245Q97 245 97 132M313 568Q279 568 257.50 585Q236 602 236 633Q236 670 265 693.50Q294 717 330 717Q365 717 386.50 699.50Q408 682 408 651Q408 615 378.50 591.50Q349 568 313 568M316 609Q332 609 344 621Q356 633 356 650Q356 662 348.50 669.50Q341 677 328 677Q312 677 300 664.50Q288 652 288 634Q288 609 316 609Z"  horiz-adv-x="524" vert-adv-y="1000"  />

      
      <glyph glyph-name="unie6" unicode="&#xe6;" d="M1 116Q1 163 22.50 199Q44 235 77 256Q110 277 156 290.50Q202 304 245 308.50Q288 313 335 313L361 313Q367 343 367 358Q367 436 272 436Q197 436 124 388L98 465Q186 518 287 518Q407 518 439 433L441 433Q517 518 629 518Q724 518 773.50 467.50Q823 417 823 330Q823 287 807 242L444 242Q439 216 442 196Q445 136 482 104Q519 72 578 72Q660 72 740 131L768 55Q735 28 680 8Q625-12 575-12Q496-12 441.50 21Q387 54 365 112L363 112Q357 99 344 82Q331 65 307 42Q283 19 243.50 3.50Q204-12 158-12Q91-12 46 22Q1 56 1 116M460 313L724 313Q726 327 726 341Q726 390 698.50 415.50Q671 441 628 441Q571 441 526.50 407.50Q482 374 460 313M100 132Q100 103 121 84.50Q142 66 181 66Q239 66 286.50 116.50Q334 167 346 227L349 242L303 242Q100 242 100 132Z"  horiz-adv-x="862" vert-adv-y="1000"  />

      
      <glyph glyph-name="unie7" unicode="&#xe7;" d="M178-88L214-7Q129 7 79.50 65Q30 123 30 208Q30 337 123 427.50Q216 518 342 518Q466 518 533 445L479 382Q456 406 419.50 420Q383 434 347 434Q260 434 194.50 369.50Q129 305 129 215Q129 151 169.50 111.50Q210 72 277 72Q364 72 446 140L474 63Q436 30 380 9Q324-12 268-12L267-12L251-50Q276-54 293.50-70.50Q311-87 311-115Q311-161 275.50-184Q240-207 196-207Q164-207 137-200L148-143Q164-149 189-149Q243-149 243-113Q243-87 196-87Q184-87 178-88Z"  horiz-adv-x="547" vert-adv-y="1000"  />

      
      <glyph glyph-name="unie8" unicode="&#xe8;" d="M31 203Q31 332 115 425Q199 518 324 518Q419 518 468.50 467Q518 416 518 331Q518 298 502 240L133 240Q129 216 129 205Q129 150 167.50 111Q206 72 274 72Q355 72 435 131L462 55Q430 29 376 8.50Q322-12 269-12Q160-12 95.50 48Q31 108 31 203M148 310L418 310Q421 323 421 339Q421 389 394 416Q367 443 323 443Q266 443 218.50 408Q171 373 148 310M307 580L237 707L336 707L384 580L307 580Z"  horiz-adv-x="556" vert-adv-y="1000"  />

      
      <glyph glyph-name="unie9" unicode="&#xe9;" d="M303 580L401 707L511 707L390 580L303 580M31 203Q31 332 115 425Q199 518 324 518Q419 518 468.50 467Q518 416 518 331Q518 298 502 240L133 240Q129 216 129 205Q129 150 167.50 111Q206 72 274 72Q355 72 435 131L462 55Q430 29 376 8.50Q322-12 269-12Q160-12 95.50 48Q31 108 31 203M148 310L418 310Q421 323 421 339Q421 389 394 416Q367 443 323 443Q266 443 218.50 408Q171 373 148 310Z"  horiz-adv-x="556" vert-adv-y="1000"  />

      
      <glyph glyph-name="uniea" unicode="&#xea;" d="M207 580L320 707L421 707L483 580L402 580L366 660L364 660L296 580L207 580M31 203Q31 332 115 425Q199 518 324 518Q419 518 468.50 467Q518 416 518 331Q518 298 502 240L133 240Q129 216 129 205Q129 150 167.50 111Q206 72 274 72Q355 72 435 131L462 55Q430 29 376 8.50Q322-12 269-12Q160-12 95.50 48Q31 108 31 203M148 310L418 310Q421 323 421 339Q421 389 394 416Q367 443 323 443Q266 443 218.50 408Q171 373 148 310Z"  horiz-adv-x="556" vert-adv-y="1000"  />

      
      <glyph glyph-name="unieb" unicode="&#xeb;" d="M399 606L418 707L498 707L478 606L399 606M231 606L251 707L331 707L311 606L231 606M31 203Q31 332 115 425Q199 518 324 518Q419 518 468.50 467Q518 416 518 331Q518 298 502 240L133 240Q129 216 129 205Q129 150 167.50 111Q206 72 274 72Q355 72 435 131L462 55Q430 29 376 8.50Q322-12 269-12Q160-12 95.50 48Q31 108 31 203M148 310L418 310Q421 323 421 339Q421 389 394 416Q367 443 323 443Q266 443 218.50 408Q171 373 148 310Z"  horiz-adv-x="556" vert-adv-y="1000"  />

      
      <glyph glyph-name="uniec" unicode="&#xec;" d="M18 0L116 506L212 506L114 0L18 0M137 580L67 707L166 707L214 580L137 580Z"  horiz-adv-x="246" vert-adv-y="1000"  />

      
      <glyph glyph-name="unied" unicode="&#xed;" d="M131 580L229 707L339 707L218 580L131 580M18 0L116 506L212 506L114 0L18 0Z"  horiz-adv-x="246" vert-adv-y="1000"  />

      
      <glyph glyph-name="uniee" unicode="&#xee;" d="M36 580L149 707L250 707L312 580L231 580L195 660L193 660L125 580L36 580M18 0L116 506L212 506L114 0L18 0Z"  horiz-adv-x="246" vert-adv-y="1000"  />

      
      <glyph glyph-name="unief" unicode="&#xef;" d="M228 606L247 707L327 707L307 606L228 606M60 606L80 707L160 707L140 606L60 606M18 0L116 506L212 506L114 0L18 0Z"  horiz-adv-x="246" vert-adv-y="1000"  />

      
      <glyph glyph-name="unif0" unicode="&#xf0;" d="M27 191Q27 297 105.50 381.50Q184 466 309 466Q346 466 377 454.50Q408 443 420 432L433 420L435 420Q418 503 350 560L151 480L154 542L291 599Q238 629 171 647L211 719Q321 689 392 638L552 701L551 639L442 595Q540 499 540 351Q540 307 529.50 259.50Q519 212 495.50 163Q472 114 438.50 75.50Q405 37 353 12.50Q301-12 240-12Q138-12 82.50 46Q27 104 27 191M126 193Q126 141 155 106Q184 71 240 71Q321 71 376.50 140.50Q432 210 432 285Q432 331 400 359.50Q368 388 313 388Q234 388 180 330Q126 272 126 193Z"  horiz-adv-x="581" vert-adv-y="1000"  />

      
      <glyph glyph-name="unif1" unicode="&#xf1;" d="M18 0L116 506L210 506L200 447L186 399L188 399Q212 442 270 480Q328 518 396 518Q466 518 505.50 484.50Q545 451 545 384Q545 360 538 320L476 0L379 0L437 299Q444 336 444 356Q444 429 368 429Q294 429 234.50 370.50Q175 312 159 231L115 0L18 0M206 581Q229 708 324 708Q351 708 370 691Q389 674 403 657Q417 640 433 640Q471 640 482 705L552 705Q529 578 434 578Q408 578 389 595Q370 612 355 629Q340 646 324 646Q289 646 276 581L206 581Z"  horiz-adv-x="602" vert-adv-y="1000"  />

      
      <glyph glyph-name="unif2" unicode="&#xf2;" d="M30 211Q30 338 125 428Q220 518 342 518Q449 518 515.50 456.50Q582 395 582 297Q582 168 486.50 78Q391-12 270-12Q163-12 96.50 49.50Q30 111 30 211M129 215Q129 151 168.50 111.50Q208 72 271 72Q352 72 417.50 136Q483 200 483 292Q483 355 443 394.50Q403 434 341 434Q259 434 194 370Q129 306 129 215M326 580L256 707L355 707L403 580L326 580Z"  horiz-adv-x="628" vert-adv-y="1000"  />

      
      <glyph glyph-name="unif3" unicode="&#xf3;" d="M322 580L420 707L530 707L409 580L322 580M30 211Q30 338 125 428Q220 518 342 518Q449 518 515.50 456.50Q582 395 582 297Q582 168 486.50 78Q391-12 270-12Q163-12 96.50 49.50Q30 111 30 211M129 215Q129 151 168.50 111.50Q208 72 271 72Q352 72 417.50 136Q483 200 483 292Q483 355 443 394.50Q403 434 341 434Q259 434 194 370Q129 306 129 215Z"  horiz-adv-x="628" vert-adv-y="1000"  />

      
      <glyph glyph-name="unif4" unicode="&#xf4;" d="M226 580L339 707L440 707L502 580L421 580L385 660L383 660L315 580L226 580M30 211Q30 338 125 428Q220 518 342 518Q449 518 515.50 456.50Q582 395 582 297Q582 168 486.50 78Q391-12 270-12Q163-12 96.50 49.50Q30 111 30 211M129 215Q129 151 168.50 111.50Q208 72 271 72Q352 72 417.50 136Q483 200 483 292Q483 355 443 394.50Q403 434 341 434Q259 434 194 370Q129 306 129 215Z"  horiz-adv-x="628" vert-adv-y="1000"  />

      
      <glyph glyph-name="unif5" unicode="&#xf5;" d="M30 211Q30 338 125 428Q220 518 342 518Q449 518 515.50 456.50Q582 395 582 297Q582 168 486.50 78Q391-12 270-12Q163-12 96.50 49.50Q30 111 30 211M129 215Q129 151 168.50 111.50Q208 72 271 72Q352 72 417.50 136Q483 200 483 292Q483 355 443 394.50Q403 434 341 434Q259 434 194 370Q129 306 129 215M208 581Q231 708 326 708Q353 708 372 691Q391 674 405 657Q419 640 435 640Q473 640 484 705L554 705Q531 578 436 578Q410 578 391 595Q372 612 357 629Q342 646 326 646Q291 646 278 581L208 581Z"  horiz-adv-x="628" vert-adv-y="1000"  />

      
      <glyph glyph-name="unif6" unicode="&#xf6;" d="M418 606L437 707L517 707L497 606L418 606M250 606L270 707L350 707L330 606L250 606M30 211Q30 338 125 428Q220 518 342 518Q449 518 515.50 456.50Q582 395 582 297Q582 168 486.50 78Q391-12 270-12Q163-12 96.50 49.50Q30 111 30 211M129 215Q129 151 168.50 111.50Q208 72 271 72Q352 72 417.50 136Q483 200 483 292Q483 355 443 394.50Q403 434 341 434Q259 434 194 370Q129 306 129 215Z"  horiz-adv-x="628" vert-adv-y="1000"  />

      
      <glyph glyph-name="unif7" unicode="&#xf7;" d="M238 435L238 526L333 526L333 435L238 435M33 246L33 324L538 324L538 246L33 246M238 44L238 135L333 135L333 44L238 44Z"  horiz-adv-x="577" vert-adv-y="1000"  />

      
      <glyph glyph-name="unif8" unicode="&#xf8;" d="M38 0L90 56Q30 116 30 211Q30 338 125 428Q220 518 342 518Q422 518 482 481L536 540L581 503L527 444Q582 383 582 297Q582 168 486.50 78Q391-12 270-12Q195-12 137 21L83-38L38 0M156 128L419 412Q387 434 341 434Q259 434 194 370Q129 306 129 215Q129 163 156 128M200 89Q236 72 271 72Q352 72 417.50 136Q483 200 483 292Q483 340 459 371L200 89Z"  horiz-adv-x="628" vert-adv-y="1000"  />

      
      <glyph glyph-name="unif9" unicode="&#xf9;" d="M41 122Q41 146 48 186L110 506L207 506L149 208Q143 175 143 150Q143 78 220 78Q292 78 349.50 138Q407 198 421 276L466 506L563 506L465 0L370 0L382 59L395 107L393 107Q367 63 312 25.50Q257-12 187-12Q122-12 81.50 20.50Q41 53 41 122M307 580L237 707L336 707L384 580L307 580Z"  horiz-adv-x="597" vert-adv-y="1000"  />

      
      <glyph glyph-name="unifa" unicode="&#xfa;" d="M303 580L401 707L511 707L390 580L303 580M41 122Q41 146 48 186L110 506L207 506L149 208Q143 175 143 150Q143 78 220 78Q292 78 349.50 138Q407 198 421 276L466 506L563 506L465 0L370 0L382 59L395 107L393 107Q367 63 312 25.50Q257-12 187-12Q122-12 81.50 20.50Q41 53 41 122Z"  horiz-adv-x="597" vert-adv-y="1000"  />

      
      <glyph glyph-name="unifb" unicode="&#xfb;" d="M207 580L320 707L421 707L483 580L402 580L366 660L364 660L296 580L207 580M41 122Q41 146 48 186L110 506L207 506L149 208Q143 175 143 150Q143 78 220 78Q292 78 349.50 138Q407 198 421 276L466 506L563 506L465 0L370 0L382 59L395 107L393 107Q367 63 312 25.50Q257-12 187-12Q122-12 81.50 20.50Q41 53 41 122Z"  horiz-adv-x="597" vert-adv-y="1000"  />

      
      <glyph glyph-name="unifc" unicode="&#xfc;" d="M400 606L419 707L499 707L479 606L400 606M232 606L252 707L332 707L312 606L232 606M41 122Q41 146 48 186L110 506L207 506L149 208Q143 175 143 150Q143 78 220 78Q292 78 349.50 138Q407 198 421 276L466 506L563 506L465 0L370 0L382 59L395 107L393 107Q367 63 312 25.50Q257-12 187-12Q122-12 81.50 20.50Q41 53 41 122Z"  horiz-adv-x="597" vert-adv-y="1000"  />

      
      <glyph glyph-name="unifd" unicode="&#xfd;" d="M-30-108Q-8-127 26-127Q85-127 132-53L169 7L53 506L154 506L223 163L230 105L231 105Q246 137 260 162L450 506L559 506L204-93Q134-210 29-210Q-28-210-75-177L-30-108M277 580L375 707L485 707L364 580L277 580Z"  horiz-adv-x="539" vert-adv-y="1000"  />

      
      <glyph glyph-name="unife" unicode="&#xfe;" d="M121 29L76-200L-20-200L155 706L250 706L205 471L194 431L196 431Q224 469 268 493.50Q312 518 366 518Q455 518 505 462Q555 406 555 310Q555 171 472 79.50Q389-12 280-12Q230-12 188.50 10.50Q147 33 129 76L127 76Q126 55 121 29M156 202Q156 145 185 108.50Q214 72 269 72Q340 72 398 136Q456 200 456 303Q456 364 425.50 398.50Q395 433 342 433Q266 433 211 362.50Q156 292 156 202Z"  horiz-adv-x="602" vert-adv-y="1000"  />

      
      <glyph glyph-name="uniff" unicode="&#xff;" d="M-30-108Q-8-127 26-127Q85-127 132-53L169 7L53 506L154 506L223 163L230 105L231 105Q246 137 260 162L450 506L559 506L204-93Q134-210 29-210Q-28-210-75-177L-30-108M373 606L392 707L472 707L452 606L373 606M205 606L225 707L305 707L285 606L205 606Z"  horiz-adv-x="539" vert-adv-y="1000"  />

      
      <glyph glyph-name="uni0100" unicode="&#x0100;" d="M-39 0L348 706L458 706L574 0L475 0L443 203L177 203L68 0L-39 0M219 285L433 285L398 508L389 609L387 609Q360 545 341 508L219 285M292 784L305 855L559 855L546 784L292 784Z"  horiz-adv-x="643" vert-adv-y="1000"  />

      
      <glyph glyph-name="uni0101" unicode="&#x0101;" d="M1 118Q1 164 23 199.50Q45 235 79 256.50Q113 278 159 291.50Q205 305 248 310Q291 315 336 315L362 315Q366 337 366 358Q366 436 274 436Q198 436 123 388L97 465Q128 486 181.50 502Q235 518 288 518Q366 518 415 482Q464 446 464 370Q464 349 459 316L398 0L307 0L317 51L327 91L325 91Q304 54 257 21Q210-12 150-12Q87-12 44 23Q1 58 1 118M97 132Q97 103 117.50 84Q138 65 179 65Q236 65 284 115.50Q332 166 346 227L349 245L324 245Q97 245 97 132M190 609L203 680L457 680L444 609L190 609Z"  horiz-adv-x="524" vert-adv-y="1000"  />

      
      <glyph glyph-name="uni0102" unicode="&#x0102;" d="M-39 0L348 706L458 706L574 0L475 0L443 203L177 203L68 0L-39 0M219 285L433 285L398 508L389 609L387 609Q360 545 341 508L219 285M419 751Q369 751 334.50 776.50Q300 802 300 848Q300 860 305 882L377 882Q373 869 373 854Q373 809 422 809Q448 809 469.50 826.50Q491 844 496 882L569 882Q559 815 517.50 783Q476 751 419 751Z"  horiz-adv-x="643" vert-adv-y="1000"  />

      
      <glyph glyph-name="uni0103" unicode="&#x0103;" d="M1 118Q1 164 23 199.50Q45 235 79 256.50Q113 278 159 291.50Q205 305 248 310Q291 315 336 315L362 315Q366 337 366 358Q366 436 274 436Q198 436 123 388L97 465Q128 486 181.50 502Q235 518 288 518Q366 518 415 482Q464 446 464 370Q464 349 459 316L398 0L307 0L317 51L327 91L325 91Q304 54 257 21Q210-12 150-12Q87-12 44 23Q1 58 1 118M97 132Q97 103 117.50 84Q138 65 179 65Q236 65 284 115.50Q332 166 346 227L349 245L324 245Q97 245 97 132M316 576Q266 576 231.50 601.50Q197 627 197 673Q197 685 202 707L274 707Q270 694 270 679Q270 634 319 634Q345 634 366.50 651.50Q388 669 393 707L466 707Q456 640 414.50 608Q373 576 316 576Z"  horiz-adv-x="524" vert-adv-y="1000"  />

      
      <glyph glyph-name="uni0104" unicode="&#x0104;" d="M-39 0L348 706L458 706L574 0L572 0Q489-59 489-96Q489-110 500.50-119Q512-128 524-130L536-132L500-207Q496-207 489.50-206Q483-205 465.50-199.50Q448-194 435-186Q422-178 411.50-162Q401-146 401-126Q401-60 488 0L475 0L443 203L177 203L68 0L-39 0M219 285L433 285L398 508L389 609L387 609Q360 545 341 508L219 285Z"  horiz-adv-x="643" vert-adv-y="1000"  />

      
      <glyph glyph-name="uni0105" unicode="&#x0105;" d="M1 118Q1 164 23 199.50Q45 235 79 256.50Q113 278 159 291.50Q205 305 248 310Q291 315 336 315L362 315Q366 337 366 358Q366 436 274 436Q198 436 123 388L97 465Q128 486 181.50 502Q235 518 288 518Q366 518 415 482Q464 446 464 370Q464 349 459 316L398 0Q314-57 314-96Q314-110 326-119Q338-128 350-130L362-132L324-207Q320-207 313.50-206Q307-205 289.50-199.50Q272-194 259-186Q246-178 235.50-162Q225-146 225-126Q225-61 313 0L307 0L317 51L327 91L325 91Q304 54 257 21Q210-12 150-12Q87-12 44 23Q1 58 1 118M97 132Q97 103 117.50 84Q138 65 179 65Q236 65 284 115.50Q332 166 346 227L349 245L324 245Q97 245 97 132Z"  horiz-adv-x="524" vert-adv-y="1000"  />

      
      <glyph glyph-name="uni0106" unicode="&#x0106;" d="M445 755L543 882L653 882L532 755L445 755M57 294Q57 407 115 505.50Q173 604 269.50 661Q366 718 475 718Q548 718 617 695Q686 672 730 624L671 555Q596 628 477 628Q345 628 252 529Q159 430 159 299Q159 203 216.50 141Q274 79 374 79Q499 79 609 170L652 92Q602 47 523 17.50Q444-12 369-12Q226-12 141.50 73Q57 158 57 294Z"  horiz-adv-x="718" vert-adv-y="1000"  />

      
      <glyph glyph-name="uni0107" unicode="&#x0107;" d="M304 580L402 707L512 707L391 580L304 580M30 208Q30 337 123 427.50Q216 518 342 518Q466 518 533 445L479 382Q456 406 419.50 420Q383 434 347 434Q260 434 194.50 369.50Q129 305 129 215Q129 151 169.50 111.50Q210 72 277 72Q364 72 446 140L474 63Q436 30 380 9Q324-12 268-12Q159-12 94.50 49Q30 110 30 208Z"  horiz-adv-x="546" vert-adv-y="1000"  />

      
      <glyph glyph-name="uni0108" unicode="&#x0108;" d="M349 755L462 882L563 882L625 755L544 755L508 835L506 835L438 755L349 755M57 294Q57 407 115 505.50Q173 604 269.50 661Q366 718 475 718Q548 718 617 695Q686 672 730 624L671 555Q596 628 477 628Q345 628 252 529Q159 430 159 299Q159 203 216.50 141Q274 79 374 79Q499 79 609 170L652 92Q602 47 523 17.50Q444-12 369-12Q226-12 141.50 73Q57 158 57 294Z"  horiz-adv-x="718" vert-adv-y="1000"  />

      
      <glyph glyph-name="uni0109" unicode="&#x0109;" d="M207 580L320 707L421 707L483 580L402 580L366 660L364 660L296 580L207 580M30 208Q30 337 123 427.50Q216 518 342 518Q466 518 533 445L479 382Q456 406 419.50 420Q383 434 347 434Q260 434 194.50 369.50Q129 305 129 215Q129 151 169.50 111.50Q210 72 277 72Q364 72 446 140L474 63Q436 30 380 9Q324-12 268-12Q159-12 94.50 49Q30 110 30 208Z"  horiz-adv-x="546" vert-adv-y="1000"  />

      
      <glyph glyph-name="uni010A" unicode="&#x010A;" d="M57 294Q57 407 115 505.50Q173 604 269.50 661Q366 718 475 718Q548 718 617 695Q686 672 730 624L671 555Q596 628 477 628Q345 628 252 529Q159 430 159 299Q159 203 216.50 141Q274 79 374 79Q499 79 609 170L652 92Q602 47 523 17.50Q444-12 369-12Q226-12 141.50 73Q57 158 57 294M455 784L474 882L560 882L541 784L455 784Z"  horiz-adv-x="718" vert-adv-y="1000"  />

      
      <glyph glyph-name="uni010B" unicode="&#x010B;" d="M30 208Q30 337 123 427.50Q216 518 342 518Q466 518 533 445L479 382Q456 406 419.50 420Q383 434 347 434Q260 434 194.50 369.50Q129 305 129 215Q129 151 169.50 111.50Q210 72 277 72Q364 72 446 140L474 63Q436 30 380 9Q324-12 268-12Q159-12 94.50 49Q30 110 30 208M313 609L332 707L418 707L399 609L313 609Z"  horiz-adv-x="546" vert-adv-y="1000"  />

      
      <glyph glyph-name="uni010C" unicode="&#x010C;" d="M445 755L382 882L463 882L499 801L501 801L570 882L658 882L545 755L445 755M57 294Q57 407 115 505.50Q173 604 269.50 661Q366 718 475 718Q548 718 617 695Q686 672 730 624L671 555Q596 628 477 628Q345 628 252 529Q159 430 159 299Q159 203 216.50 141Q274 79 374 79Q499 79 609 170L652 92Q602 47 523 17.50Q444-12 369-12Q226-12 141.50 73Q57 158 57 294Z"  horiz-adv-x="718" vert-adv-y="1000"  />

      
      <glyph glyph-name="uni010D" unicode="&#x010D;" d="M303 580L240 707L321 707L357 626L359 626L428 707L516 707L403 580L303 580M30 208Q30 337 123 427.50Q216 518 342 518Q466 518 533 445L479 382Q456 406 419.50 420Q383 434 347 434Q260 434 194.50 369.50Q129 305 129 215Q129 151 169.50 111.50Q210 72 277 72Q364 72 446 140L474 63Q436 30 380 9Q324-12 268-12Q159-12 94.50 49Q30 110 30 208Z"  horiz-adv-x="546" vert-adv-y="1000"  />

      
      <glyph glyph-name="uni010E" unicode="&#x010E;" d="M386 755L323 882L404 882L440 801L442 801L511 882L599 882L486 755L386 755M37 0L174 706L391 706Q537 706 620.50 633.50Q704 561 704 431Q704 250 586 125Q468 0 286 0L37 0M151 86L280 86Q420 86 511 183Q602 280 602 423Q602 518 544 569Q486 620 384 620L256 620L151 86Z"  horiz-adv-x="738" vert-adv-y="1000"  />

      
      <glyph glyph-name="uni010F" unicode="&#x010F;" d="M665 705L750 705L750 690Q750 631 704 560L630 560Q668 628 668 676Q668 688 665 705M31 195Q31 335 114.50 426.50Q198 518 310 518Q360 518 401 496.50Q442 475 458 433L460 433Q460 452 464 470L511 706L607 706L470 0L378 0L387 48L397 85L395 85Q369 43 322.50 15.50Q276-12 221-12Q131-12 81 43.50Q31 99 31 195M130 202Q130 141 160.50 106.50Q191 72 245 72Q322 72 376 143.50Q430 215 430 305Q430 361 401 397Q372 433 316 433Q245 433 187.50 369Q130 305 130 202Z"  horiz-adv-x="611" vert-adv-y="1000"  />

      
      <glyph glyph-name="uni0110" unicode="&#x0110;" d="M43 0L104 312L45 312L61 394L120 394L180 706L398 706Q544 706 627 634Q710 562 710 431Q710 250 592 125Q474 0 292 0L43 0M158 86L286 86Q426 86 517 183Q608 280 608 423Q608 518 550.50 569Q493 620 390 620L262 620L217 394L368 394L352 312L202 312L158 86Z"  horiz-adv-x="744" vert-adv-y="1000"  />

      
      <glyph glyph-name="uni0111" unicode="&#x0111;" d="M31 195Q31 335 114.50 426.50Q198 518 310 518Q360 518 401 496.50Q442 475 458 433L460 433Q460 452 464 470L482 563L353 563L365 626L495 626L511 706L607 706L592 626L668 626L655 563L579 563L470 0L378 0L387 48L397 85L395 85Q368 43 322 15.50Q276-12 221-12Q131-12 81 43.50Q31 99 31 195M130 202Q130 141 160.50 106.50Q191 72 245 72Q322 72 376 143.50Q430 215 430 305Q430 361 401 397Q372 433 316 433Q245 433 187.50 369Q130 305 130 202Z"  horiz-adv-x="602" vert-adv-y="1000"  />

      
      <glyph glyph-name="uni0112" unicode="&#x0112;" d="M36 0L174 706L584 706L566 620L255 620L212 399L465 399L448 313L196 313L151 86L479 86L463 0L36 0M277 784L290 855L544 855L531 784L277 784Z"  horiz-adv-x="562" vert-adv-y="1000"  />

      
      <glyph glyph-name="uni0113" unicode="&#x0113;" d="M31 203Q31 332 115 425Q199 518 324 518Q419 518 468.50 467Q518 416 518 331Q518 298 502 240L133 240Q129 216 129 205Q129 150 167.50 111Q206 72 274 72Q355 72 435 131L462 55Q430 29 376 8.50Q322-12 269-12Q160-12 95.50 48Q31 108 31 203M148 310L418 310Q421 323 421 339Q421 389 394 416Q367 443 323 443Q266 443 218.50 408Q171 373 148 310M228 609L241 680L495 680L482 609L228 609Z"  horiz-adv-x="556" vert-adv-y="1000"  />

      
      <glyph glyph-name="uni0114" unicode="&#x0114;" d="M36 0L174 706L584 706L566 620L255 620L212 399L465 399L448 313L196 313L151 86L479 86L463 0L36 0M404 751Q354 751 319.50 776.50Q285 802 285 848Q285 860 290 882L362 882Q358 869 358 854Q358 809 407 809Q433 809 454.50 826.50Q476 844 481 882L554 882Q544 815 502.50 783Q461 751 404 751Z"  horiz-adv-x="562" vert-adv-y="1000"  />

      
      <glyph glyph-name="uni0115" unicode="&#x0115;" d="M31 203Q31 332 115 425Q199 518 324 518Q419 518 468.50 467Q518 416 518 331Q518 298 502 240L133 240Q129 216 129 205Q129 150 167.50 111Q206 72 274 72Q355 72 435 131L462 55Q430 29 376 8.50Q322-12 269-12Q160-12 95.50 48Q31 108 31 203M148 310L418 310Q421 323 421 339Q421 389 394 416Q367 443 323 443Q266 443 218.50 408Q171 373 148 310M355 576Q305 576 270.50 601.50Q236 627 236 673Q236 685 241 707L313 707Q309 694 309 679Q309 634 358 634Q384 634 405.50 651.50Q427 669 432 707L505 707Q495 640 453.50 608Q412 576 355 576Z"  horiz-adv-x="556" vert-adv-y="1000"  />

      
      <glyph glyph-name="uni0116" unicode="&#x0116;" d="M36 0L174 706L584 706L566 620L255 620L212 399L465 399L448 313L196 313L151 86L479 86L463 0L36 0M361 784L380 882L466 882L447 784L361 784Z"  horiz-adv-x="562" vert-adv-y="1000"  />

      
      <glyph glyph-name="uni0117" unicode="&#x0117;" d="M31 203Q31 332 115 425Q199 518 324 518Q419 518 468.50 467Q518 416 518 331Q518 298 502 240L133 240Q129 216 129 205Q129 150 167.50 111Q206 72 274 72Q355 72 435 131L462 55Q430 29 376 8.50Q322-12 269-12Q160-12 95.50 48Q31 108 31 203M148 310L418 310Q421 323 421 339Q421 389 394 416Q367 443 323 443Q266 443 218.50 408Q171 373 148 310M312 609L331 707L417 707L398 609L312 609Z"  horiz-adv-x="556" vert-adv-y="1000"  />

      
      <glyph glyph-name="uni0118" unicode="&#x0118;" d="M36 0L174 706L584 706L566 620L255 620L212 399L465 399L448 313L196 313L151 86L479 86L463 0Q382-55 382-96Q382-110 394-119Q406-128 418-130L431-132L394-207Q390-207 383.50-206Q377-205 359.50-199.50Q342-194 329-186Q316-178 305.50-162Q295-146 295-126Q295-65 379-2L379 0L36 0Z"  horiz-adv-x="562" vert-adv-y="1000"  />

      
      <glyph glyph-name="uni0119" unicode="&#x0119;" d="M31 203Q31 332 115 425Q199 518 324 518Q419 518 468.50 467Q518 416 518 331Q518 312 514 289Q510 266 506 253L502 240L133 240Q133 239 132.50 233Q132 227 131 218Q130 209 130 203Q130 142 169.50 107Q209 72 274 72Q312 72 352.50 87Q393 102 414 116L435 131L462 55Q454 48 405.50 19Q357-10 325-39.50Q293-69 293-96Q293-110 305.50-119Q318-128 330-130L343-132L306-207Q302-207 295.50-206Q289-205 271.50-199.50Q254-194 241-186Q228-178 217.50-162Q207-146 207-126Q207-69 280-13L280-11Q168-16 99.50 44.50Q31 105 31 203M149 310L418 310Q421 327 421 343Q421 390 394 415.50Q367 441 323 441Q266 441 219 406.50Q172 372 149 310Z"  horiz-adv-x="557" vert-adv-y="1000"  />

      
      <glyph glyph-name="uni011A" unicode="&#x011A;" d="M352 755L289 882L370 882L406 801L408 801L477 882L565 882L452 755L352 755M36 0L174 706L584 706L566 620L255 620L212 399L465 399L448 313L196 313L151 86L479 86L463 0L36 0Z"  horiz-adv-x="562" vert-adv-y="1000"  />

      
      <glyph glyph-name="uni011B" unicode="&#x011B;" d="M303 580L240 707L321 707L357 626L359 626L428 707L516 707L403 580L303 580M31 203Q31 332 115 425Q199 518 324 518Q419 518 468.50 467Q518 416 518 331Q518 298 502 240L133 240Q129 216 129 205Q129 150 167.50 111Q206 72 274 72Q355 72 435 131L462 55Q430 29 376 8.50Q322-12 269-12Q160-12 95.50 48Q31 108 31 203M148 310L418 310Q421 323 421 339Q421 389 394 416Q367 443 323 443Q266 443 218.50 408Q171 373 148 310Z"  horiz-adv-x="556" vert-adv-y="1000"  />

      
      <glyph glyph-name="uni011C" unicode="&#x011C;" d="M347 755L460 882L561 882L623 755L542 755L506 835L504 835L436 755L347 755M55 288Q55 463 181 590.50Q307 718 479 718Q640 718 733 635L673 565Q641 593 588 610.50Q535 628 481 628Q345 628 251.50 527.50Q158 427 158 293Q158 195 216.50 137Q275 79 369 79Q484 79 588 172L607 269L493 269L509 355L714 355L645 0L559 0L567 45L574 75L572 75Q548 50 487 19Q426-12 352-12Q225-12 140 71Q55 154 55 288Z"  horiz-adv-x="762" vert-adv-y="1000"  />

      
      <glyph glyph-name="uni011D" unicode="&#x011D;" d="M204 580L317 707L418 707L480 580L399 580L363 660L361 660L293 580L204 580M44-93Q97-126 179-126Q249-126 300.50-91.50Q352-57 367 15L374 53L384 88L382 88Q322 6 226 6Q136 6 84.50 62.50Q33 119 33 211Q33 284 63 353Q93 422 155.50 470Q218 518 300 518Q422 518 454 439L457 439Q456 449 458 459L467 506L559 506L464 14Q441-102 363-156Q285-210 184-210Q76-210 2-165L44-93M132 218Q132 159 162.50 124.50Q193 90 249 90Q305 90 346 128.50Q387 167 405.50 219Q424 271 424 325Q424 434 308 434Q228 434 180 369Q132 304 132 218Z"  horiz-adv-x="593" vert-adv-y="1000"  />

      
      <glyph glyph-name="uni011E" unicode="&#x011E;" d="M55 288Q55 463 181 590.50Q307 718 479 718Q640 718 733 635L673 565Q641 593 588 610.50Q535 628 481 628Q345 628 251.50 527.50Q158 427 158 293Q158 195 216.50 137Q275 79 369 79Q484 79 588 172L607 269L493 269L509 355L714 355L645 0L559 0L567 45L574 75L572 75Q548 50 487 19Q426-12 352-12Q225-12 140 71Q55 154 55 288M493 751Q443 751 408.50 776.50Q374 802 374 848Q374 860 379 882L451 882Q447 869 447 854Q447 809 496 809Q522 809 543.50 826.50Q565 844 570 882L643 882Q633 815 591.50 783Q550 751 493 751Z"  horiz-adv-x="762" vert-adv-y="1000"  />

      
      <glyph glyph-name="uni011F" unicode="&#x011F;" d="M44-93Q97-126 179-126Q249-126 300.50-91.50Q352-57 367 15L374 53L384 88L382 88Q322 6 226 6Q136 6 84.50 62.50Q33 119 33 211Q33 284 63 353Q93 422 155.50 470Q218 518 300 518Q422 518 454 439L457 439Q456 449 458 459L467 506L559 506L464 14Q441-102 363-156Q285-210 184-210Q76-210 2-165L44-93M132 218Q132 159 162.50 124.50Q193 90 249 90Q305 90 346 128.50Q387 167 405.50 219Q424 271 424 325Q424 434 308 434Q228 434 180 369Q132 304 132 218M351 576Q301 576 266.50 601.50Q232 627 232 673Q232 685 237 707L309 707Q305 694 305 679Q305 634 354 634Q380 634 401.50 651.50Q423 669 428 707L501 707Q491 640 449.50 608Q408 576 351 576Z"  horiz-adv-x="593" vert-adv-y="1000"  />

      
      <glyph glyph-name="uni0120" unicode="&#x0120;" d="M55 288Q55 463 181 590.50Q307 718 479 718Q640 718 733 635L673 565Q641 593 588 610.50Q535 628 481 628Q345 628 251.50 527.50Q158 427 158 293Q158 195 216.50 137Q275 79 369 79Q484 79 588 172L607 269L493 269L509 355L714 355L645 0L559 0L567 45L574 75L572 75Q548 50 487 19Q426-12 352-12Q225-12 140 71Q55 154 55 288M452 784L471 882L557 882L538 784L452 784Z"  horiz-adv-x="762" vert-adv-y="1000"  />

      
      <glyph glyph-name="uni0121" unicode="&#x0121;" d="M44-93Q97-126 179-126Q249-126 300.50-91.50Q352-57 367 15L374 53L384 88L382 88Q322 6 226 6Q136 6 84.50 62.50Q33 119 33 211Q33 284 63 353Q93 422 155.50 470Q218 518 300 518Q422 518 454 439L457 439Q456 449 458 459L467 506L559 506L464 14Q441-102 363-156Q285-210 184-210Q76-210 2-165L44-93M132 218Q132 159 162.50 124.50Q193 90 249 90Q305 90 346 128.50Q387 167 405.50 219Q424 271 424 325Q424 434 308 434Q228 434 180 369Q132 304 132 218M310 609L329 707L415 707L396 609L310 609Z"  horiz-adv-x="593" vert-adv-y="1000"  />

      
      <glyph glyph-name="uni0122" unicode="&#x0122;" d="M284-59L369-59L369-74Q369-133 323-204L249-204Q287-136 287-88Q287-76 284-59M55 288Q55 463 181 590.50Q307 718 479 718Q640 718 733 635L673 565Q641 593 588 610.50Q535 628 481 628Q345 628 251.50 527.50Q158 427 158 293Q158 195 216.50 137Q275 79 369 79Q484 79 588 172L607 269L493 269L509 355L714 355L645 0L559 0L567 45L574 75L572 75Q548 50 487 19Q426-12 352-12Q225-12 140 71Q55 154 55 288Z"  horiz-adv-x="762" vert-adv-y="1000"  />

      
      <glyph glyph-name="uni0123" unicode="&#x0123;" d="M384 563L299 563L299 578Q299 636 345 706L419 706Q381 638 381 592Q381 580 384 563M44-93Q97-126 179-126Q249-126 300.50-91.50Q352-57 367 15L374 53L384 88L382 88Q322 6 226 6Q136 6 84.50 62.50Q33 119 33 211Q33 284 63 353Q93 422 155.50 470Q218 518 300 518Q422 518 454 439L457 439Q456 449 458 459L467 506L559 506L464 14Q441-102 363-156Q285-210 184-210Q76-210 2-165L44-93M132 218Q132 159 162.50 124.50Q193 90 249 90Q305 90 346 128.50Q387 167 405.50 219Q424 271 424 325Q424 434 308 434Q228 434 180 369Q132 304 132 218Z"  horiz-adv-x="593" vert-adv-y="1000"  />

      
      <glyph glyph-name="uni0124" unicode="&#x0124;" d="M324 755L437 882L538 882L600 755L519 755L483 835L481 835L413 755L324 755M36 0L174 706L272 706L212 396L579 396L639 706L737 706L600 0L501 0L561 310L195 310L134 0L36 0Z"  horiz-adv-x="751" vert-adv-y="1000"  />

      
      <glyph glyph-name="uni0125" unicode="&#x0125;" d="M73 755L186 882L287 882L349 755L268 755L232 835L230 835L162 755L73 755M18 0L155 706L252 706L202 447L190 402L192 402Q216 446 272.50 482Q329 518 396 518Q466 518 505.50 484.50Q545 451 545 384Q545 360 538 320L476 0L379 0L437 299Q444 336 444 356Q444 429 368 429Q295 429 235 370.50Q175 312 159 231L115 0L18 0Z"  horiz-adv-x="602" vert-adv-y="1000"  />

      
      <glyph glyph-name="uni0126" unicode="&#x0126;" d="M43 0L143 514L81 514L94 581L157 581L181 706L279 706L255 581L622 581L646 706L745 706L720 581L783 581L770 514L706 514L606 0L508 0L569 310L202 310L141 0L43 0M219 396L585 396L608 514L241 514L219 396Z"  horiz-adv-x="763" vert-adv-y="1000"  />

      
      <glyph glyph-name="uni0127" unicode="&#x0127;" d="M18 0L126 563L56 563L69 626L139 626L155 706L252 706L236 626L370 626L358 563L224 563L202 447L190 402L192 402Q216 446 272.50 482Q329 518 396 518Q466 518 505.50 484.50Q545 451 545 384Q545 360 538 320L476 0L379 0L437 299Q444 336 444 356Q444 429 368 429Q295 429 235 370.50Q175 312 159 231L115 0L18 0Z"  horiz-adv-x="602" vert-adv-y="1000"  />

      
      <glyph glyph-name="uni0128" unicode="&#x0128;" d="M36 0L174 706L272 706L134 0L36 0M71 756Q94 883 189 883Q216 883 235 866Q254 849 268 832Q282 815 298 815Q336 815 347 880L417 880Q394 753 299 753Q273 753 254 770Q235 787 220 804Q205 821 189 821Q154 821 141 756L71 756Z"  horiz-adv-x="286" vert-adv-y="1000"  />

      
      <glyph glyph-name="uni0129" unicode="&#x0129;" d="M18 0L116 506L212 506L114 0L18 0M18 581Q41 708 136 708Q163 708 182 691Q201 674 215 657Q229 640 245 640Q283 640 294 705L364 705Q341 578 246 578Q220 578 201 595Q182 612 167 629Q152 646 136 646Q101 646 88 581L18 581Z"  horiz-adv-x="246" vert-adv-y="1000"  />

      
      <glyph glyph-name="uni012A" unicode="&#x012A;" d="M36 0L174 706L272 706L134 0L36 0M111 784L124 855L378 855L365 784L111 784Z"  horiz-adv-x="286" vert-adv-y="1000"  />

      
      <glyph glyph-name="uni012B" unicode="&#x012B;" d="M18 0L116 506L212 506L114 0L18 0M58 609L71 680L325 680L312 609L58 609Z"  horiz-adv-x="246" vert-adv-y="1000"  />

      
      <glyph glyph-name="uni012C" unicode="&#x012C;" d="M36 0L174 706L272 706L134 0L36 0M237 751Q187 751 152.50 776.50Q118 802 118 848Q118 860 123 882L195 882Q191 869 191 854Q191 809 240 809Q266 809 287.50 826.50Q309 844 314 882L387 882Q377 815 335.50 783Q294 751 237 751Z"  horiz-adv-x="286" vert-adv-y="1000"  />

      
      <glyph glyph-name="uni012D" unicode="&#x012D;" d="M18 0L116 506L212 506L114 0L18 0M184 576Q134 576 99.50 601.50Q65 627 65 673Q65 685 70 707L142 707Q138 694 138 679Q138 634 187 634Q213 634 234.50 651.50Q256 669 261 707L334 707Q324 640 282.50 608Q241 576 184 576Z"  horiz-adv-x="246" vert-adv-y="1000"  />

      
      <glyph glyph-name="uni012E" unicode="&#x012E;" d="M36 0L174 706L272 706L134 1L135 0Q51-60 51-96Q51-110 63-119Q75-128 87-130L99-132L62-207Q58-207 51.50-206Q45-205 27.50-199.50Q10-194-3-186Q-16-178-26.50-162Q-37-146-37-126Q-37-61 50 0L36 0Z"  horiz-adv-x="287" vert-adv-y="1000"  />

      
      <glyph glyph-name="uni012F" unicode="&#x012F;" d="M18 0L116 506L213 506L114 0Q30-60 30-96Q30-110 42-119Q54-128 66-130L78-132L41-207Q37-207 30.50-206Q24-205 7-199.50Q-10-194-23-186Q-36-178-46.50-162Q-57-146-57-126Q-57-61 30 0L18 0M134 608L154 706L254 706L234 608L134 608Z"  horiz-adv-x="246" vert-adv-y="1000"  />

      
      <glyph glyph-name="uni0130" unicode="&#x0130;" d="M36 0L174 706L272 706L134 0L36 0M195 784L214 882L300 882L281 784L195 784Z"  horiz-adv-x="286" vert-adv-y="1000"  />

      
      <glyph glyph-name="uni0131" unicode="&#x0131;" d="M18 0L116 506L212 506L114 0L18 0Z"  horiz-adv-x="246" vert-adv-y="1000"  />

      
      <glyph glyph-name="uni0132" unicode="&#x0132;" d="M226-4L243 85Q268 85 291 91Q314 97 339 112.50Q364 128 383.50 160.50Q403 193 412 240L503 706L601 706L510 239Q496 165 467 114.50Q438 64 398 39.50Q358 15 317.50 5.50Q277-4 226-4M36 0L174 706L272 706L134 0L36 0Z"  horiz-adv-x="608" vert-adv-y="1000"  />

      
      <glyph glyph-name="uni0133" unicode="&#x0133;" d="M134 608L154 706L254 706L234 608L134 608M18 0L116 506L213 506L114 0L18 0M379 608L399 706L498 706L479 608L379 608M262-11L362 506L458 506L357-16Q348-64 327.50-100.50Q307-137 284-156.50Q261-176 232.50-188Q204-200 183-203Q162-206 140-206Q109-206 94-204L110-121Q118-123 132-123Q149-123 165.50-119Q182-115 202.50-104.50Q223-94 239-70Q255-46 262-11Z"  horiz-adv-x="494" vert-adv-y="1000"  />

      
      <glyph glyph-name="uni0134" unicode="&#x0134;" d="M248 755L361 882L462 882L524 755L443 755L407 835L405 835L337 755L248 755M3 155Q3 181 8 207L14 238L112 238L107 209Q103 181 103 169Q103 79 192 79Q239 79 276.50 109.50Q314 140 326 205L406 620L230 620L247 706L522 706L423 195Q409 124 371.50 76Q334 28 288.50 8Q243-12 190-12Q110-12 56.50 30.50Q3 73 3 155Z"  horiz-adv-x="530" vert-adv-y="1000"  />

      
      <glyph glyph-name="uni0135" unicode="&#x0135;" d="M35 579L148 706L249 706L312 579L230 579L194 660L192 660L124 579L35 579M16-11L116 506L213 506L112-16Q103-64 82.50-100.50Q62-137 39-156.50Q16-176-13-188Q-42-200-63-203Q-84-206-106-206L-152-204L-136-121Q-127-123-114-123Q-7-123 16-11Z"  horiz-adv-x="247" vert-adv-y="1000"  />

      
      <glyph glyph-name="uni0136" unicode="&#x0136;" d="M211-59L296-59L296-74Q296-133 250-204L176-204Q214-136 214-88Q214-76 211-59M36 0L174 706L272 706L214 409L315 409L555 706L671 706L393 367L393 365L540 0L435 0L309 323L198 323L134 0L36 0Z"  horiz-adv-x="615" vert-adv-y="1000"  />

      
      <glyph glyph-name="uni0137" unicode="&#x0137;" d="M177-59L262-59L262-74Q262-133 216-204L142-204Q180-136 180-88Q180-76 177-59M18 0L156 706L252 706L177 320L246 320L421 506L538 506L322 279L322 277L453 0L348 0L241 237L162 237L115 0L18 0Z"  horiz-adv-x="523" vert-adv-y="1000"  />

      
      <glyph glyph-name="uni0138" unicode="&#x0138;" d="M18 0L116 506L213 506L175 307L245 307L428 506L547 506L319 265L319 263L445 0L338 0L238 225L159 225L114 0L18 0Z"  horiz-adv-x="523" vert-adv-y="1000"  />

      
      <glyph glyph-name="uni0139" unicode="&#x0139;" d="M187 755L285 882L395 882L274 755L187 755M36 0L174 706L272 706L151 86L468 86L450 0L36 0Z"  horiz-adv-x="519" vert-adv-y="1000"  />

      
      <glyph glyph-name="uni013A" unicode="&#x013A;" d="M164 755L262 882L372 882L251 755L164 755M41 102Q41 123 45 146L154 706L251 706L145 158Q141 132 141 124Q141 83 186 83Q194 83 202 84L185-2Q167-5 155-5Q107-5 74 19Q41 43 41 102Z"  horiz-adv-x="271" vert-adv-y="1000"  />

      
      <glyph glyph-name="uni013B" unicode="&#x013B;" d="M196-59L281-59L281-74Q281-133 235-204L161-204Q199-136 199-88Q199-76 196-59M36 0L174 706L272 706L151 86L468 86L450 0L36 0Z"  horiz-adv-x="519" vert-adv-y="1000"  />

      
      <glyph glyph-name="uni013C" unicode="&#x013C;" d="M49-59L134-59L134-74Q134-133 88-204L14-204Q52-136 52-88Q52-76 49-59M41 102Q41 123 45 146L154 706L251 706L145 158Q141 132 141 124Q141 83 186 83Q194 83 202 84L185-2Q167-5 155-5Q107-5 74 19Q41 43 41 102Z"  horiz-adv-x="271" vert-adv-y="1000"  />

      
      <glyph glyph-name="uni013D" unicode="&#x013D;" d="M358 705L443 705L443 690Q443 631 397 560L323 560Q361 628 361 676Q361 688 358 705M36 0L174 706L272 706L151 86L468 86L450 0L36 0Z"  horiz-adv-x="520" vert-adv-y="1000"  />

      
      <glyph glyph-name="uni013E" unicode="&#x013E;" d="M308 705L393 705L393 690Q393 631 347 560L273 560Q311 628 311 676Q311 688 308 705M41 102Q41 123 45 146L154 706L251 706L145 158Q141 132 141 124Q141 83 186 83Q194 83 202 84L185-2Q167-5 155-5Q107-5 74 19Q41 43 41 102Z"  horiz-adv-x="279" vert-adv-y="1000"  />

      
      <glyph glyph-name="uni013F" unicode="&#x013F;" d="M36 0L174 706L272 706L151 86L468 86L450 0L36 0M298 325L318 430L420 430L399 325L298 325Z"  horiz-adv-x="521" vert-adv-y="1000"  />

      
      <glyph glyph-name="uni0140" unicode="&#x0140;" d="M41 102Q41 123 45 146L154 706L251 706L145 158Q141 132 141 124Q141 83 186 83Q194 83 202 84L185-2Q167-5 155-5Q107-5 74 19Q41 43 41 102M249 325L269 430L371 430L350 325L249 325Z"  horiz-adv-x="345" vert-adv-y="1000"  />

      
      <glyph glyph-name="uni0141" unicode="&#x0141;" d="M43 0L101 301L36 267L54 364L121 399L180 706L279 706L229 455L351 517L332 420L211 357L158 86L474 86L457 0L43 0Z"  horiz-adv-x="525" vert-adv-y="1000"  />

      
      <glyph glyph-name="uni0142" unicode="&#x0142;" d="M51 102Q51 118 56 146L89 316L10 275L28 372L108 414L166 706L262 706L216 469L308 517L289 420L197 372L156 158Q152 141 152 124Q152 83 197 83Q206 83 213 84L196-2Q186-5 166-5Q118-5 84.50 19Q51 43 51 102Z"  horiz-adv-x="284" vert-adv-y="1000"  />

      
      <glyph glyph-name="uni0143" unicode="&#x0143;" d="M417 755L515 882L625 882L504 755L417 755M36 0L174 706L266 706L491 248Q499 231 508.50 205Q518 179 524 162L529 145L531 145Q536 208 544 248L633 706L732 706L594 0L503 0L277 458L239 561L237 561Q231 498 224 458L134 0L36 0Z"  horiz-adv-x="746" vert-adv-y="1000"  />

      
      <glyph glyph-name="uni0144" unicode="&#x0144;" d="M322 580L420 707L530 707L409 580L322 580M18 0L116 506L210 506L200 447L186 399L188 399Q212 442 270 480Q328 518 396 518Q466 518 505.50 484.50Q545 451 545 384Q545 360 538 320L476 0L379 0L437 299Q444 336 444 356Q444 429 368 429Q294 429 234.50 370.50Q175 312 159 231L115 0L18 0Z"  horiz-adv-x="602" vert-adv-y="1000"  />

      
      <glyph glyph-name="uni0145" unicode="&#x0145;" d="M267-59L352-59L352-74Q352-133 306-204L232-204Q270-136 270-88Q270-76 267-59M36 0L174 706L266 706L491 248Q499 231 508.50 205Q518 179 524 162L529 145L531 145Q536 208 544 248L633 706L732 706L594 0L503 0L277 458L239 561L237 561Q231 498 224 458L134 0L36 0Z"  horiz-adv-x="746" vert-adv-y="1000"  />

      
      <glyph glyph-name="uni0146" unicode="&#x0146;" d="M201-59L286-59L286-74Q286-133 240-204L166-204Q204-136 204-88Q204-76 201-59M18 0L116 506L210 506L200 447L186 399L188 399Q212 442 270 480Q328 518 396 518Q466 518 505.50 484.50Q545 451 545 384Q545 360 538 320L476 0L379 0L437 299Q444 336 444 356Q444 429 368 429Q294 429 234.50 370.50Q175 312 159 231L115 0L18 0Z"  horiz-adv-x="602" vert-adv-y="1000"  />

      
      <glyph glyph-name="uni0147" unicode="&#x0147;" d="M417 755L354 882L435 882L471 801L473 801L542 882L630 882L517 755L417 755M36 0L174 706L266 706L491 248Q499 231 508.50 205Q518 179 524 162L529 145L531 145Q536 208 544 248L633 706L732 706L594 0L503 0L277 458L239 561L237 561Q231 498 224 458L134 0L36 0Z"  horiz-adv-x="746" vert-adv-y="1000"  />

      
      <glyph glyph-name="uni0148" unicode="&#x0148;" d="M322 580L259 707L340 707L376 626L378 626L447 707L535 707L422 580L322 580M18 0L116 506L210 506L200 447L186 399L188 399Q212 442 270 480Q328 518 396 518Q466 518 505.50 484.50Q545 451 545 384Q545 360 538 320L476 0L379 0L437 299Q444 336 444 356Q444 429 368 429Q294 429 234.50 370.50Q175 312 159 231L115 0L18 0Z"  horiz-adv-x="602" vert-adv-y="1000"  />

      
      <glyph glyph-name="uni0149" unicode="&#x0149;" d="M83 705L168 705L168 690Q168 631 122 560L48 560Q86 628 86 676Q86 688 83 705M18 0L116 506L210 506L200 447L186 399L188 399Q212 442 270 480Q328 518 396 518Q466 518 505.50 484.50Q545 451 545 384Q545 360 538 320L476 0L379 0L437 299Q444 336 444 356Q444 429 368 429Q294 429 234.50 370.50Q175 312 159 231L115 0L18 0Z"  horiz-adv-x="602" vert-adv-y="1000"  />

      
      <glyph glyph-name="uni014A" unicode="&#x014A;" d="M36 0L174 706L266 706L491 248Q499 231 508.50 205Q518 179 524 162L529 145L531 145Q536 208 544 248L633 706L732 706L601 39Q586-37 556.50-88Q527-139 486-163Q445-187 406-195.50Q367-204 318-204L335-115Q459-115 497 11L277 458L239 561L237 561Q231 498 224 458L134 0L36 0Z"  horiz-adv-x="746" vert-adv-y="1000"  />

      
      <glyph glyph-name="uni014B" unicode="&#x014B;" d="M18 0L116 506L210 506L200 447L186 399L188 399Q212 442 270 480Q328 518 396 518Q466 518 505.50 484.50Q545 451 545 384Q545 360 538 320L472-19Q463-67 442.50-103.50Q422-140 399-159.50Q376-179 347.50-191Q319-203 298-206Q277-209 255-209L209-207L225-124Q234-125 247-125Q264-125 280.50-121Q297-117 318-107Q339-97 354.50-73Q370-49 377-14L437 299Q444 336 444 356Q444 429 368 429Q294 429 234.50 370.50Q175 312 159 231L115 0L18 0Z"  horiz-adv-x="602" vert-adv-y="1000"  />

      
      <glyph glyph-name="uni014C" unicode="&#x014C;" d="M378 784L391 855L645 855L632 784L378 784M56 296Q56 407 116 505Q176 603 273.50 660.50Q371 718 477 718Q617 718 704 634Q791 550 791 418Q791 305 730.50 204.50Q670 104 572.50 46Q475-12 370-12Q229-12 142.50 74.50Q56 161 56 296M157 300Q157 202 216.50 140.50Q276 79 370 79Q492 79 590.50 178.50Q689 278 689 413Q689 508 629.50 568Q570 628 476 628Q353 628 255 530.50Q157 433 157 300Z"  horiz-adv-x="823" vert-adv-y="1000"  />

      
      <glyph glyph-name="uni014D" unicode="&#x014D;" d="M248 609L261 680L515 680L502 609L248 609M30 211Q30 338 125 428Q220 518 342 518Q449 518 515.50 456.50Q582 395 582 297Q582 168 486.50 78Q391-12 270-12Q163-12 96.50 49.50Q30 111 30 211M129 215Q129 151 168.50 111.50Q208 72 271 72Q352 72 417.50 136Q483 200 483 292Q483 355 443 394.50Q403 434 341 434Q259 434 194 370Q129 306 129 215Z"  horiz-adv-x="628" vert-adv-y="1000"  />

      
      <glyph glyph-name="uni014E" unicode="&#x014E;" d="M56 296Q56 407 116 505Q176 603 273.50 660.50Q371 718 477 718Q617 718 704 634Q791 550 791 418Q791 305 730.50 204.50Q670 104 572.50 46Q475-12 370-12Q229-12 142.50 74.50Q56 161 56 296M157 300Q157 202 216.50 140.50Q276 79 370 79Q492 79 590.50 178.50Q689 278 689 413Q689 508 629.50 568Q570 628 476 628Q353 628 255 530.50Q157 433 157 300M505 751Q455 751 420.50 776.50Q386 802 386 848Q386 860 391 882L463 882Q459 869 459 854Q459 809 508 809Q534 809 555.50 826.50Q577 844 582 882L655 882Q645 815 603.50 783Q562 751 505 751Z"  horiz-adv-x="823" vert-adv-y="1000"  />

      
      <glyph glyph-name="uni014F" unicode="&#x014F;" d="M30 211Q30 338 125 428Q220 518 342 518Q449 518 515.50 456.50Q582 395 582 297Q582 168 486.50 78Q391-12 270-12Q163-12 96.50 49.50Q30 111 30 211M129 215Q129 151 168.50 111.50Q208 72 271 72Q352 72 417.50 136Q483 200 483 292Q483 355 443 394.50Q403 434 341 434Q259 434 194 370Q129 306 129 215M374 576Q324 576 289.50 601.50Q255 627 255 673Q255 685 260 707L332 707Q328 694 328 679Q328 634 377 634Q403 634 424.50 651.50Q446 669 451 707L524 707Q514 640 472.50 608Q431 576 374 576Z"  horiz-adv-x="628" vert-adv-y="1000"  />

      
      </font>
</defs>
</svg>
