<svg width="40" height="40" viewBox="0 0 40 40" fill="none" xmlns="http://www.w3.org/2000/svg">
<path d="M9.71339 7C7.79617 7 6.23729 8.55943 6.23729 10.4761C6.23729 11.3014 6.52678 12.0601 7.00854 12.6571C5.8877 13.2345 5.11864 14.4039 5.11864 15.7498C5.11864 16.5751 5.40814 17.3338 5.88989 17.9308C4.76906 18.5082 4 19.6776 4 21.0235C4 22.0771 4.47084 23.0226 5.21368 23.6606C4.47084 24.2986 4 25.2441 4 26.2972C4 28.2138 5.55889 29.7733 7.4761 29.7733H13.8449L12.7984 34.1823C12.4991 35.4396 12.7241 36.7325 13.4308 37.8227C14.1884 38.9912 15.6763 40 17.1102 40C18.1895 40 19.1738 39.3151 19.5081 38.2701L20.6857 34.5947C21.5541 31.8844 23.6894 29.8335 26.3729 29.0401V8.33611C25.0226 7.46974 23.4539 7 21.8109 7H9.71339Z" fill="#039BE5"/>
<path d="M34.2034 7H30.8475C29.3029 7 28.0508 8.25209 28.0508 9.79661V28.2542C28.0508 29.7988 29.3029 31.0508 30.8475 31.0508H34.2034C35.7479 31.0508 37 29.7988 37 28.2542V9.79661C37 8.25209 35.7479 7 34.2034 7Z" fill="#039BE5"/>
</svg>
