<svg width="40" height="40" viewBox="0 0 40 40" fill="none" xmlns="http://www.w3.org/2000/svg">
<g clip-path="url(#clip0_567_276)">
<path d="M37.098 18.3595C38.2851 17.2025 37.6301 15.1865 35.9897 14.9481L27.2205 13.6734C26.5691 13.5787 26.006 13.1696 25.7147 12.5793L21.7935 4.634C21.0598 3.1475 18.9401 3.14751 18.2065 4.634L14.2853 12.5793C13.994 13.1696 13.4309 13.5787 12.7795 13.6734L4.01027 14.9481C2.36985 15.1865 1.71492 17.2025 2.902 18.3595L9.24733 24.5441C9.71875 25.0036 9.93387 25.6657 9.82258 26.3145L8.3244 35.0486C8.04415 36.6824 9.75904 37.9284 11.2263 37.157L19.0693 33.0336C19.652 32.7273 20.348 32.7273 20.9307 33.0336L28.7737 37.157C30.2409 37.9284 31.9558 36.6824 31.6756 35.0486L30.1774 26.3145C30.0661 25.6657 30.2812 25.0036 30.7527 24.5441L37.098 18.3595ZM19.9449 24.8109C19.1638 25.5919 17.8975 25.5919 17.1165 24.8109L15.5921 23.2865C15.1618 22.8562 15.1618 22.1585 15.5921 21.7282C16.0224 21.2979 16.72 21.2979 17.1503 21.7282L17.4509 22.0288C18.0473 22.6251 19.0141 22.6251 19.6104 22.0288L22.8497 18.7896C23.28 18.3593 23.9776 18.3593 24.4079 18.7896C24.8382 19.2199 24.8382 19.9175 24.4079 20.3478L19.9449 24.8109Z" fill="#039BE5"/>
</g>
<defs>
<clipPath id="clip0_567_276">
<rect width="40" height="40" fill="white"/>
</clipPath>
</defs>
</svg>
