<svg width="40" height="41" viewBox="0 0 40 41" fill="none" xmlns="http://www.w3.org/2000/svg">
<path d="M21.1182 16.0523L23.6182 11.0523C23.927 10.4346 23.6768 9.68391 23.0591 9.37507C22.4402 9.06867 21.6907 9.31769 21.3818 9.93416L19.2273 14.2432H11.25C10.7764 14.2432 10.3436 14.5106 10.1318 14.9341L7.9773 19.2432H1.25C0.559687 19.2432 0 19.8023 0 20.4932C0 21.1841 0.559687 21.7432 1.25 21.7432H8.75C9.22364 21.7432 9.65637 21.4759 9.86816 21.0523L12.0227 16.7432H20C20.4736 16.7432 20.9064 16.4759 21.1182 16.0523Z" fill="#039BE5"/>
<path d="M7.5 26.7432H3.75C1.68213 26.7432 0 28.4254 0 30.4932V36.7432C0 38.8111 1.68213 40.4932 3.75 40.4932H7.5C9.56787 40.4932 11.25 38.8111 11.25 36.7432V30.4932C11.25 28.4254 9.56787 26.7432 7.5 26.7432Z" fill="#039BE5"/>
<path d="M36.25 16.7432H32.5C30.4321 16.7432 28.75 18.4254 28.75 20.4932V36.7432C28.75 38.8111 30.4321 40.4932 32.5 40.4932H36.25C38.3179 40.4932 40 38.8111 40 36.7432V20.4932C40 18.4254 38.3179 16.7432 36.25 16.7432Z" fill="#039BE5"/>
<path d="M30.9442 7.43293C31.1499 7.58308 31.2353 7.84553 31.1566 8.08723C31.1566 8.08723 30.5699 9.89298 30.5688 9.89631C30.2041 11.0188 31.5352 11.9916 32.4927 11.2928L34.0301 10.1759C34.2358 10.0269 34.5129 10.0282 34.7186 10.1746L36.2573 11.2928C37.2007 11.9783 38.551 11.0354 38.1811 9.89631L37.5934 8.08723C37.5147 7.84553 37.6001 7.58308 37.8058 7.43293C37.8058 7.43293 39.3423 6.31633 39.3445 6.31477C40.3015 5.61931 39.7929 4.05402 38.6096 4.05402H36.7078C36.4533 4.05402 36.2299 3.89167 36.1517 3.65118L35.564 1.84211C35.2041 0.734543 33.5555 0.704156 33.1861 1.84211L32.5983 3.65119C32.5202 3.89167 32.2968 4.05403 32.0423 4.05403C32.0423 4.05403 30.1451 4.05403 30.1404 4.05403C28.9664 4.05403 28.4525 5.62454 29.4056 6.31477L30.9442 7.43293Z" fill="#039BE5"/>
<path d="M21.875 21.7432H18.125C16.0571 21.7432 14.375 23.4254 14.375 25.4932V36.7432C14.375 38.8111 16.0571 40.4932 18.125 40.4932H21.875C23.9429 40.4932 25.625 38.8111 25.625 36.7432V25.4932C25.625 23.4254 23.9429 21.7432 21.875 21.7432Z" fill="#039BE5"/>
</svg>
