<svg width="30" height="31" viewBox="0 0 30 31" fill="none" xmlns="http://www.w3.org/2000/svg">
<path fill-rule="evenodd" clip-rule="evenodd" d="M9.85714 3.69824H20.1429C21.9615 3.69824 23.7056 4.42079 24.9916 5.70675C26.2776 6.99272 27 8.73676 27 10.5554V20.8411C27 22.6597 26.2776 24.4038 24.9916 25.6897C23.7056 26.9757 21.9615 27.6982 20.1429 27.6982H9.85714C8.03852 27.6982 6.29437 26.9757 5.00841 25.6897C3.72244 24.4038 3 22.6597 3 20.8411V10.5554C3 8.73676 3.72244 6.99272 5.00841 5.70675C6.29437 4.42079 8.03852 3.69824 9.85714 3.69824ZM15 10.1013C16.107 10.1013 17.1892 10.4292 18.1097 11.0442C19.0301 11.6592 19.7475 12.5335 20.1711 13.5562C20.5947 14.579 20.7056 15.7044 20.4896 16.7902C20.2736 17.8759 19.7406 18.8731 18.9578 19.6558C18.175 20.4386 17.1777 20.9717 16.0919 21.1876C15.0062 21.4036 13.8808 21.2928 12.8581 20.8691C11.8353 20.4455 10.9612 19.7283 10.3462 18.8079C9.73117 17.8875 9.40283 16.8053 9.40283 15.6982C9.40227 14.9631 9.54666 14.2351 9.82774 13.5558C10.1088 12.8765 10.5211 12.2593 11.0409 11.7394C11.5608 11.2195 12.178 10.8072 12.8574 10.5261C13.5367 10.245 14.2648 10.1007 15 10.1013ZM21.4028 6.887C21.7207 6.88785 22.0312 6.98258 22.295 7.15988C22.5588 7.33718 22.7642 7.5891 22.885 7.88309C23.0059 8.17708 23.0368 8.50021 22.974 8.8118C22.9111 9.12339 22.7573 9.40921 22.5319 9.63337C22.3066 9.85753 22.0199 10.01 21.7079 10.0712C21.396 10.1323 21.0729 10.0994 20.7795 9.97698C20.4862 9.85456 20.2358 9.64785 20.0599 9.38309C19.884 9.11833 19.7906 8.8074 19.7914 8.48954C19.7918 8.27845 19.8339 8.06954 19.9152 7.87472C19.9964 7.6799 20.1153 7.50294 20.265 7.35407C20.4146 7.20521 20.5921 7.08732 20.7874 7.00712C20.9826 6.92691 21.1917 6.88632 21.4028 6.887Z" fill="white"/>
</svg>
