<svg width="30" height="31" viewBox="0 0 30 31" fill="none" xmlns="http://www.w3.org/2000/svg">
<path fill-rule="evenodd" clip-rule="evenodd" d="M1.93257 15.6496C1.3804 16.0394 1.35686 16.4147 1.86194 16.7755C3.17496 17.6181 5.42669 18.3924 7.23475 18.7306C8.0121 18.8646 8.97828 18.8465 9.68153 18.4828C12.1706 17.1957 15.6506 14.597 19.6533 11.8163C20.1754 11.4633 20.7091 11.1629 20.8687 11.0833C21.6139 10.7117 21.8627 11.0169 21.4761 11.6194C21.1141 12.0734 20.5231 12.6315 20.5231 12.6315C19.7045 13.4564 18.874 14.2465 18.0372 15.0183C17.9253 15.0749 14.6442 18.1256 13.9583 18.8365C13.0723 19.9425 12.9127 20.8578 13.76 21.4911C16.9302 23.7095 22.2635 27.3061 22.2635 27.3061C22.8363 27.707 23.214 27.7736 23.944 27.6269C24.7536 27.3954 25.2722 26.9031 25.4928 26.144C26.6886 19.5637 27.7442 13.1126 28.4637 6.97192C28.6743 5.52264 27.9875 4.84449 25.8951 5.38114C14.6625 9.73183 6.64541 13.1632 1.93257 15.6496Z" fill="white"/>
</svg>
