<svg width="30" height="31" viewBox="0 0 30 31" fill="none" xmlns="http://www.w3.org/2000/svg">
<path fill-rule="evenodd" clip-rule="evenodd" d="M23.9211 14.7982C23.9211 14.7982 27.475 9.56231 27.8349 7.83646C27.8774 7.71674 27.8891 7.58687 27.8688 7.46056C27.8485 7.33424 27.797 7.21607 27.7196 7.11874C27.6422 7.02141 27.5418 6.94853 27.4291 6.90759C27.3164 6.86666 27.1955 6.8593 27.0792 6.88629H23.9931C23.7436 6.85745 23.4923 6.91924 23.2789 7.06146C23.0654 7.20368 22.9019 7.41827 22.8144 7.67171C21.8218 9.84439 20.5794 11.8738 19.1165 13.7122C18.9688 13.9672 18.7733 14.186 18.5425 14.3546C18.3116 14.5233 18.0504 14.6383 17.776 14.6917C17.4881 14.6917 17.3531 14.4396 17.3531 13.7609V7.78817C17.3531 6.95433 17.2542 6.71207 16.5974 6.71207H11.6489C11.5752 6.70124 11.5001 6.70672 11.4285 6.72864C11.3569 6.75055 11.2903 6.78843 11.2329 6.83942C11.1754 6.89041 11.1283 6.95348 11.0946 7.025C11.0609 7.09653 11.0413 7.17454 11.0371 7.25462C11.0371 8.03998 12.1887 8.21492 12.1887 10.348V14.74C12.1887 15.632 12.1437 15.9714 11.7479 15.9714C10.6862 15.9714 8.16693 12.1608 6.75436 7.83646C6.73154 7.66383 6.67738 7.4979 6.59489 7.34788C6.5124 7.19786 6.4033 7.06699 6.27375 6.96251C6.1442 6.85803 5.99674 6.78203 5.83992 6.73905C5.6831 6.69607 5.51999 6.68698 5.35986 6.71207H2.27376C2.17425 6.70501 2.07448 6.71976 1.98063 6.7561C1.88677 6.79243 1.80083 6.84953 1.72824 6.92322C1.65564 6.9969 1.59793 7.08576 1.55866 7.18455C1.51939 7.28334 1.49943 7.38954 1.50001 7.49701C1.50001 8.35994 2.46275 12.3354 6.25958 17.6681C8.80579 21.2556 12.1438 23.1949 15.1579 23.1949C17.0023 23.1949 17.4431 22.8746 17.4431 22.0601V19.3166C17.4431 18.6282 17.7041 18.3276 18.0819 18.3276C18.5048 18.3276 19.2516 18.4731 21.006 20.2668C23.0754 22.332 23.2193 23.1949 24.344 23.1949H27.8079C27.904 23.2052 28.001 23.1913 28.0915 23.1547C28.1819 23.1181 28.2634 23.0597 28.3295 22.9838C28.3956 22.9079 28.4446 22.8164 28.4727 22.7168C28.5008 22.6172 28.5073 22.5123 28.4917 22.4095C28.4917 21.5951 27.475 20.1501 25.9275 18.4242C25.2887 17.5419 24.254 16.5824 23.9211 16.1461C23.4533 15.6322 23.5972 15.3315 23.9211 14.7982Z" fill="white"/>
</svg>
