<svg width="30" height="31" viewBox="0 0 30 31" fill="none" xmlns="http://www.w3.org/2000/svg">
<path fill-rule="evenodd" clip-rule="evenodd" d="M1.60251 15.1338C1.60251 8.17229 7.30477 2.49854 14.3013 2.49854C17.697 2.49854 20.8877 3.81179 23.2839 6.20879C25.6801 8.59304 27 11.7678 27 15.1465C27 22.108 21.2977 27.7818 14.3013 27.7818C12.1741 27.7818 10.0854 27.2463 8.22739 26.239L1.5 27.9985L3.29397 21.445C2.19196 19.5325 1.60251 17.365 1.60251 15.1338ZM9.80351 9.29395C9.59848 9.29395 9.2525 9.37045 8.95778 9.6892C8.9357 9.71416 8.91024 9.74194 8.88207 9.77268C8.55051 10.1345 7.84296 10.9065 7.84296 12.3284C7.84296 13.7488 8.79385 15.116 9.06639 15.5079C9.09233 15.5452 9.11212 15.5736 9.12436 15.5924C9.14093 15.6125 9.17365 15.6578 9.22193 15.7247C9.69657 16.3821 11.6742 19.1215 14.5703 20.3482C15.3264 20.6924 15.9158 20.8837 16.3771 21.0239C17.1332 21.2662 17.8251 21.2279 18.3761 21.1514C18.9912 21.0622 20.247 20.3864 20.5161 19.6469C20.7852 18.9074 20.7852 18.2827 20.7083 18.1424C20.6294 18.0304 20.4614 17.9577 20.2043 17.8464C20.1689 17.8312 20.1319 17.8151 20.0932 17.7982C19.7729 17.6197 18.2095 16.8547 17.9276 16.7527C17.6329 16.6507 17.4535 16.5997 17.21 16.9057C17.005 17.2244 16.3899 17.9384 16.2105 18.1424C16.1633 18.1957 16.1231 18.2544 16.0847 18.3105C15.9669 18.4824 15.8666 18.6289 15.6347 18.5135C13.8071 17.6042 12.3753 16.5297 11.3035 14.7522C11.1497 14.4462 11.1874 13.9732 11.3412 13.8329C11.4822 13.6927 11.6872 13.4632 11.8153 13.2719C11.953 13.1244 12.0119 13.003 12.0861 12.8502C12.1016 12.8181 12.1179 12.7846 12.1357 12.7492C12.2382 12.5324 12.1869 12.3539 12.11 12.2009C12.0659 12.1205 11.8363 11.566 11.5977 10.9898C11.4204 10.5615 11.2381 10.1213 11.1234 9.85495C10.8967 9.31359 10.67 9.31096 10.4787 9.30874C10.4538 9.30845 10.4294 9.30817 10.4058 9.3067C10.3204 9.3067 10.2293 9.30381 10.1337 9.30078C10.0284 9.29745 9.91771 9.29395 9.80351 9.29395Z" fill="white"/>
</svg>
