<svg width="230" height="65" viewBox="0 0 230 65" fill="none" xmlns="http://www.w3.org/2000/svg">
<path d="M84.58 31.19C83.32 31.99 81.72 32.39 79.78 32.39C77.2 32.39 75.09 31.42 73.45 29.48C71.83 27.54 71.02 24.76 71.02 21.14C71.02 17.52 71.83 14.74 73.45 12.8C75.09 10.86 77.2 9.89 79.78 9.89C81.72 9.89 83.32 10.29 84.58 11.09L82.75 15.86C82.09 15.36 81.37 15.11 80.59 15.11C79.51 15.11 78.67 15.64 78.07 16.7C77.49 17.76 77.2 19.22 77.2 21.08C77.2 22.94 77.49 24.4 78.07 25.46C78.67 26.52 79.51 27.05 80.59 27.05C81.37 27.05 82.09 26.8 82.75 26.3L84.58 31.19ZM101.736 23.9C101.736 26.4 101.036 28.44 99.6358 30.02C98.2358 31.6 96.3258 32.39 93.9058 32.39C91.4858 32.39 89.5758 31.6 88.1758 30.02C86.7758 28.44 86.0758 26.4 86.0758 23.9C86.0758 21.42 86.7758 19.39 88.1758 17.81C89.5758 16.23 91.4858 15.44 93.9058 15.44C96.3258 15.44 98.2358 16.23 99.6358 17.81C101.036 19.39 101.736 21.42 101.736 23.9ZM93.9058 27.74C95.2458 27.74 95.9158 26.44 95.9158 23.84C95.9158 21.24 95.2458 19.94 93.9058 19.94C92.5658 19.94 91.8958 21.24 91.8958 23.84C91.8958 26.44 92.5658 27.74 93.9058 27.74ZM118.687 32H112.867V21.65C112.867 21.13 112.717 20.73 112.417 20.45C112.117 20.15 111.697 20 111.157 20C110.637 20 110.207 20.07 109.867 20.21V32H104.047V16.64C106.247 15.84 108.597 15.44 111.097 15.44C113.717 15.44 115.637 15.91 116.857 16.85C118.077 17.77 118.687 19.14 118.687 20.96V32ZM133.538 26.99C133.538 28.69 132.928 30.02 131.708 30.98C130.508 31.92 128.718 32.39 126.338 32.39C124.178 32.39 122.278 31.99 120.638 31.19L122.438 26.81C122.818 27.05 123.408 27.29 124.208 27.53C125.008 27.75 125.658 27.86 126.158 27.86C126.558 27.86 126.868 27.78 127.088 27.62C127.328 27.44 127.448 27.22 127.448 26.96C127.448 26.66 127.318 26.42 127.058 26.24C126.798 26.06 126.388 25.87 125.828 25.67C125.268 25.47 124.858 25.32 124.598 25.22C124.338 25.12 123.938 24.92 123.398 24.62C122.858 24.32 122.448 24.02 122.168 23.72C121.908 23.4 121.658 22.97 121.418 22.43C121.178 21.89 121.058 21.29 121.058 20.63C121.058 19.01 121.638 17.74 122.798 16.82C123.958 15.9 125.568 15.44 127.628 15.44C129.708 15.44 131.548 15.84 133.148 16.64L131.468 20.51C131.108 20.31 130.618 20.12 129.998 19.94C129.398 19.74 128.878 19.64 128.438 19.64C127.498 19.64 127.028 19.95 127.028 20.57C127.028 20.89 127.168 21.15 127.448 21.35C127.728 21.55 128.158 21.75 128.738 21.95C129.318 22.15 129.728 22.3 129.968 22.4C130.208 22.48 130.608 22.67 131.168 22.97C131.728 23.27 132.138 23.58 132.398 23.9C132.678 24.2 132.938 24.63 133.178 25.19C133.418 25.73 133.538 26.33 133.538 26.99Z" fill="#00B19F"/>
<path d="M150.867 23.9C150.867 26.4 150.167 28.44 148.767 30.02C147.367 31.6 145.457 32.39 143.037 32.39C140.617 32.39 138.707 31.6 137.307 30.02C135.907 28.44 135.207 26.4 135.207 23.9C135.207 21.42 135.907 19.39 137.307 17.81C138.707 16.23 140.617 15.44 143.037 15.44C145.457 15.44 147.367 16.23 148.767 17.81C150.167 19.39 150.867 21.42 150.867 23.9ZM143.037 27.74C144.377 27.74 145.047 26.44 145.047 23.84C145.047 21.24 144.377 19.94 143.037 19.94C141.697 19.94 141.027 21.24 141.027 23.84C141.027 26.44 141.697 27.74 143.037 27.74ZM163.198 15.65L162.148 20.39C161.688 20.13 161.038 20 160.198 20C159.738 20 159.338 20.06 158.998 20.18V32H153.178V16.64C155.398 15.84 157.868 15.44 160.588 15.44C161.628 15.44 162.498 15.51 163.198 15.65ZM174.402 31.67C173.602 32.09 172.492 32.3 171.072 32.3C169.292 32.3 168.022 31.83 167.262 30.89C166.502 29.93 166.122 28.45 166.122 26.45V20.15H164.382V15.83H166.122V12.53L171.822 11V15.83H174.402V20.15H171.822V26.03C171.822 26.81 172.252 27.2 173.112 27.2C173.572 27.2 174.002 27.1 174.402 26.9V31.67ZM181.892 8.99C182.512 9.55 182.822 10.24 182.822 11.06C182.822 11.88 182.512 12.58 181.892 13.16C181.272 13.72 180.532 14 179.672 14C178.812 14 178.072 13.72 177.452 13.16C176.832 12.58 176.522 11.88 176.522 11.06C176.522 10.24 176.832 9.55 177.452 8.99C178.072 8.41 178.812 8.12 179.672 8.12C180.532 8.12 181.272 8.41 181.892 8.99ZM182.582 32H176.762V15.83H182.582V32ZM199.924 31.19C198.184 31.99 195.834 32.39 192.874 32.39C190.334 32.39 188.454 31.89 187.234 30.89C186.014 29.89 185.404 28.28 185.404 26.06V15.83H191.224V26.21C191.224 27.19 191.774 27.68 192.874 27.68C193.434 27.68 193.844 27.63 194.104 27.53V15.83H199.924V31.19ZM226.208 32H220.388V21.65C220.388 20.55 219.798 20 218.618 20C218.098 20 217.688 20.07 217.388 20.21V32H211.568V21.65C211.568 20.55 210.978 20 209.798 20C209.278 20 208.868 20.07 208.568 20.21V32H202.748V16.64C204.848 15.84 207.058 15.44 209.378 15.44C211.538 15.44 213.298 15.9 214.658 16.82C216.198 15.9 218.068 15.44 220.268 15.44C222.148 15.44 223.608 15.93 224.648 16.91C225.688 17.89 226.208 19.24 226.208 20.96V32Z" fill="#F3F7FC"/>
<path d="M1.651 60.091C1.495 60.091 1.37367 60.0477 1.287 59.961C1.20033 59.8657 1.157 59.7357 1.157 59.571V51.264C1.157 51.0907 1.20033 50.9607 1.287 50.874C1.37367 50.7873 1.495 50.744 1.651 50.744C1.78967 50.744 1.898 50.7743 1.976 50.835C2.06267 50.887 2.14067 50.978 2.21 51.108L5.772 57.816H5.382L8.931 51.108C9.00033 50.978 9.074 50.887 9.152 50.835C9.23 50.7743 9.34267 50.744 9.49 50.744C9.63733 50.744 9.75433 50.7873 9.841 50.874C9.92767 50.9607 9.971 51.0907 9.971 51.264V59.571C9.971 59.7357 9.92767 59.8657 9.841 59.961C9.763 60.0477 9.64167 60.091 9.477 60.091C9.321 60.091 9.19967 60.0477 9.113 59.961C9.02633 59.8657 8.983 59.7357 8.983 59.571V52.265H9.295L6.045 58.362C5.98433 58.4747 5.91933 58.557 5.85 58.609C5.78933 58.6523 5.69833 58.674 5.577 58.674C5.45567 58.674 5.36033 58.648 5.291 58.596C5.22167 58.544 5.161 58.466 5.109 58.362L1.82 52.252H2.132V59.571C2.132 59.7357 2.08867 59.8657 2.002 59.961C1.924 60.0477 1.807 60.091 1.651 60.091ZM14.1631 60.117C13.7298 60.117 13.3398 60.0347 12.9931 59.87C12.6551 59.6967 12.3864 59.4627 12.1871 59.168C11.9878 58.8733 11.8881 58.544 11.8881 58.18C11.8881 57.712 12.0051 57.3437 12.2391 57.075C12.4818 56.8063 12.8761 56.6157 13.4221 56.503C13.9768 56.3903 14.7308 56.334 15.6841 56.334H16.2691V57.023H15.6971C14.9951 57.023 14.4404 57.0577 14.0331 57.127C13.6344 57.1877 13.3528 57.296 13.1881 57.452C13.0321 57.608 12.9541 57.829 12.9541 58.115C12.9541 58.4703 13.0754 58.7607 13.3181 58.986C13.5694 59.2113 13.9074 59.324 14.3321 59.324C14.6788 59.324 14.9821 59.2417 15.2421 59.077C15.5108 58.9123 15.7188 58.687 15.8661 58.401C16.0221 58.115 16.1001 57.7857 16.1001 57.413V55.931C16.1001 55.3937 15.9918 55.008 15.7751 54.774C15.5584 54.5313 15.2031 54.41 14.7091 54.41C14.4058 54.41 14.1024 54.449 13.7991 54.527C13.4958 54.605 13.1751 54.7307 12.8371 54.904C12.7158 54.9647 12.6118 54.9863 12.5251 54.969C12.4384 54.943 12.3691 54.8953 12.3171 54.826C12.2651 54.7567 12.2348 54.6787 12.2261 54.592C12.2174 54.4967 12.2348 54.4057 12.2781 54.319C12.3301 54.2323 12.4081 54.163 12.5121 54.111C12.8934 53.9203 13.2704 53.7817 13.6431 53.695C14.0158 53.6083 14.3711 53.565 14.7091 53.565C15.2551 53.565 15.7058 53.656 16.0611 53.838C16.4164 54.0113 16.6808 54.28 16.8541 54.644C17.0274 54.9993 17.1141 55.4587 17.1141 56.022V59.545C17.1141 59.7183 17.0708 59.8527 16.9841 59.948C16.9061 60.0433 16.7891 60.091 16.6331 60.091C16.4684 60.091 16.3428 60.0433 16.2561 59.948C16.1694 59.8527 16.1261 59.7183 16.1261 59.545V58.531H16.2431C16.1738 58.8603 16.0394 59.142 15.8401 59.376C15.6494 59.61 15.4111 59.792 15.1251 59.922C14.8391 60.052 14.5184 60.117 14.1631 60.117ZM19.7019 62.431C19.5286 62.431 19.3986 62.3833 19.3119 62.288C19.2252 62.2013 19.1819 62.0713 19.1819 61.898V54.124C19.1819 53.9507 19.2252 53.8207 19.3119 53.734C19.3986 53.6387 19.5242 53.591 19.6889 53.591C19.8622 53.591 19.9922 53.6387 20.0789 53.734C20.1742 53.8207 20.2219 53.9507 20.2219 54.124V55.359L20.0789 55.177C20.2176 54.683 20.4906 54.293 20.8979 54.007C21.3139 53.7123 21.8079 53.565 22.3799 53.565C22.9432 53.565 23.4329 53.6993 23.8489 53.968C24.2736 54.228 24.5986 54.605 24.8239 55.099C25.0579 55.5843 25.1749 56.165 25.1749 56.841C25.1749 57.5083 25.0579 58.089 24.8239 58.583C24.5986 59.0683 24.2779 59.4453 23.8619 59.714C23.4459 59.9827 22.9519 60.117 22.3799 60.117C21.8079 60.117 21.3182 59.974 20.9109 59.688C20.5036 59.3933 20.2262 59.0033 20.0789 58.518H20.2349V61.898C20.2349 62.0713 20.1872 62.2013 20.0919 62.288C19.9966 62.3833 19.8666 62.431 19.7019 62.431ZM22.1589 59.272C22.5576 59.272 22.8999 59.1767 23.1859 58.986C23.4806 58.7953 23.7059 58.518 23.8619 58.154C24.0266 57.79 24.1089 57.3523 24.1089 56.841C24.1089 56.0523 23.9312 55.45 23.5759 55.034C23.2292 54.618 22.7569 54.41 22.1589 54.41C21.7689 54.41 21.4266 54.5053 21.1319 54.696C20.8372 54.878 20.6076 55.151 20.4429 55.515C20.2869 55.8703 20.2089 56.3123 20.2089 56.841C20.2089 57.621 20.3866 58.2233 20.7419 58.648C21.0972 59.064 21.5696 59.272 22.1589 59.272ZM27.408 60.091C27.2346 60.091 27.1003 60.0433 27.005 59.948C26.9183 59.8527 26.875 59.7183 26.875 59.545V54.163C26.875 53.981 26.9183 53.8467 27.005 53.76C27.1003 53.6647 27.2346 53.617 27.408 53.617C27.5726 53.617 27.6983 53.6647 27.785 53.76C27.8803 53.8467 27.928 53.981 27.928 54.163V56.321H29.111L31.035 53.851C31.1216 53.747 31.217 53.682 31.321 53.656C31.425 53.6213 31.5203 53.6213 31.607 53.656C31.7023 53.682 31.776 53.734 31.828 53.812C31.8886 53.8813 31.919 53.968 31.919 54.072C31.919 54.176 31.88 54.2843 31.802 54.397L29.969 56.75L29.67 56.412C29.9126 56.438 30.125 56.4987 30.307 56.594C30.489 56.6893 30.6623 56.8323 30.827 57.023C30.9916 57.2137 31.1693 57.478 31.36 57.816L32.296 59.363C32.3566 59.4843 32.3783 59.5927 32.361 59.688C32.3523 59.7833 32.309 59.87 32.231 59.948C32.153 60.0173 32.062 60.0607 31.958 60.078C31.8626 60.0953 31.7673 60.0823 31.672 60.039C31.5766 59.9957 31.49 59.9177 31.412 59.805L30.385 58.089C30.2376 57.8463 30.099 57.66 29.969 57.53C29.839 57.3913 29.6916 57.296 29.527 57.244C29.3623 57.192 29.1586 57.166 28.916 57.166H27.928V59.545C27.928 59.7183 27.8803 59.8527 27.785 59.948C27.6983 60.0433 27.5726 60.091 27.408 60.091ZM36.5777 60.117C35.9104 60.117 35.3341 59.987 34.8487 59.727C34.3721 59.4583 33.9994 59.0813 33.7307 58.596C33.4707 58.1107 33.3407 57.53 33.3407 56.854C33.3407 56.1953 33.4707 55.6233 33.7307 55.138C33.9907 54.644 34.3461 54.2583 34.7967 53.981C35.2561 53.7037 35.7847 53.565 36.3827 53.565C36.8074 53.565 37.1887 53.6387 37.5267 53.786C37.8647 53.9247 38.1507 54.1283 38.3847 54.397C38.6274 54.6657 38.8094 54.9907 38.9307 55.372C39.0607 55.7533 39.1257 56.1823 39.1257 56.659C39.1257 56.7977 39.0867 56.9017 39.0087 56.971C38.9307 57.0317 38.8181 57.062 38.6707 57.062H34.1467V56.373H38.4237L38.2157 56.542C38.2157 56.074 38.1464 55.6797 38.0077 55.359C37.8691 55.0297 37.6654 54.7783 37.3967 54.605C37.1367 54.4317 36.8074 54.345 36.4087 54.345C35.9667 54.345 35.5897 54.449 35.2777 54.657C34.9744 54.8563 34.7447 55.138 34.5887 55.502C34.4327 55.8573 34.3547 56.2733 34.3547 56.75V56.828C34.3547 57.6253 34.5454 58.232 34.9267 58.648C35.3167 59.064 35.8671 59.272 36.5777 59.272C36.8724 59.272 37.1627 59.233 37.4487 59.155C37.7434 59.077 38.0294 58.947 38.3067 58.765C38.4281 58.687 38.5364 58.6523 38.6317 58.661C38.7357 58.661 38.8181 58.6913 38.8787 58.752C38.9394 58.804 38.9784 58.8733 38.9957 58.96C39.0217 59.038 39.0131 59.1247 38.9697 59.22C38.9351 59.3153 38.8614 59.3977 38.7487 59.467C38.4627 59.675 38.1247 59.8353 37.7347 59.948C37.3447 60.0607 36.9591 60.117 36.5777 60.117ZM42.6096 60.091C42.445 60.091 42.315 60.0433 42.2196 59.948C42.1243 59.8527 42.0766 59.7183 42.0766 59.545V54.527H40.1786C39.8493 54.527 39.6846 54.384 39.6846 54.098C39.6846 53.968 39.728 53.8683 39.8146 53.799C39.9013 53.721 40.0226 53.682 40.1786 53.682H45.0406C45.3613 53.682 45.5216 53.8207 45.5216 54.098C45.5216 54.2367 45.4783 54.345 45.3916 54.423C45.3136 54.4923 45.1966 54.527 45.0406 54.527H43.1296V59.545C43.1296 59.7183 43.0863 59.8527 42.9996 59.948C42.9216 60.0433 42.7916 60.091 42.6096 60.091ZM47.021 60.091C46.9257 60.091 46.839 60.0693 46.761 60.026C46.6917 59.9913 46.6353 59.9307 46.592 59.844C46.5573 59.7573 46.54 59.649 46.54 59.519V54.111C46.54 53.9377 46.5833 53.8077 46.67 53.721C46.7567 53.6343 46.8737 53.591 47.021 53.591C47.177 53.591 47.294 53.6343 47.372 53.721C47.4587 53.8077 47.502 53.9377 47.502 54.111V58.999H47.177L50.96 53.929C51.0293 53.8337 51.1117 53.7557 51.207 53.695C51.3023 53.6257 51.4237 53.591 51.571 53.591C51.675 53.591 51.7617 53.6083 51.831 53.643C51.9003 53.6777 51.9523 53.7383 51.987 53.825C52.0303 53.903 52.052 54.0113 52.052 54.15V59.571C52.052 59.7357 52.0087 59.8657 51.922 59.961C51.844 60.0477 51.727 60.091 51.571 60.091C51.415 60.091 51.2937 60.0477 51.207 59.961C51.129 59.8657 51.09 59.7357 51.09 59.571V54.67H51.415L47.619 59.753C47.5583 59.8397 47.4803 59.9177 47.385 59.987C47.2983 60.0563 47.177 60.091 47.021 60.091ZM54.6648 60.091C54.4915 60.091 54.3571 60.0433 54.2618 59.948C54.1751 59.8527 54.1318 59.7183 54.1318 59.545V54.124C54.1318 53.942 54.1751 53.8077 54.2618 53.721C54.3571 53.6343 54.4915 53.591 54.6648 53.591C54.8295 53.591 54.9551 53.6343 55.0418 53.721C55.1371 53.8077 55.1848 53.942 55.1848 54.124V56.308H58.6298V54.124C58.6298 53.942 58.6731 53.8077 58.7598 53.721C58.8551 53.6343 58.9851 53.591 59.1498 53.591C59.3145 53.591 59.4445 53.6343 59.5398 53.721C59.6351 53.8077 59.6828 53.942 59.6828 54.124V59.545C59.6828 59.7183 59.6351 59.8527 59.5398 59.948C59.4445 60.0433 59.3145 60.091 59.1498 60.091C58.9851 60.091 58.8551 60.0433 58.7598 59.948C58.6731 59.8527 58.6298 59.7183 58.6298 59.545V57.166H55.1848V59.545C55.1848 59.7183 55.1415 59.8527 55.0548 59.948C54.9681 60.0433 54.8381 60.091 54.6648 60.091ZM62.2947 60.091C62.1213 60.091 61.987 60.0433 61.8917 59.948C61.805 59.844 61.7617 59.701 61.7617 59.519V54.28C61.7617 54.0807 61.8137 53.9333 61.9177 53.838C62.0217 53.734 62.169 53.682 62.3597 53.682H65.8047C65.9693 53.682 66.0907 53.7167 66.1687 53.786C66.2467 53.8553 66.2857 53.9593 66.2857 54.098C66.2857 54.2367 66.2467 54.345 66.1687 54.423C66.0907 54.4923 65.9693 54.527 65.8047 54.527H62.8147V59.519C62.8147 59.9003 62.6413 60.091 62.2947 60.091ZM70.0501 60.117C69.4348 60.117 68.9018 59.9827 68.4511 59.714C68.0004 59.4453 67.6494 59.0683 67.3981 58.583C67.1554 58.089 67.0341 57.5083 67.0341 56.841C67.0341 56.3383 67.1034 55.8877 67.2421 55.489C67.3808 55.0817 67.5844 54.735 67.8531 54.449C68.1218 54.163 68.4381 53.9463 68.8021 53.799C69.1748 53.643 69.5908 53.565 70.0501 53.565C70.6654 53.565 71.1984 53.6993 71.6491 53.968C72.0998 54.2367 72.4464 54.618 72.6891 55.112C72.9404 55.5973 73.0661 56.1737 73.0661 56.841C73.0661 57.3437 72.9968 57.7943 72.8581 58.193C72.7194 58.5917 72.5158 58.9383 72.2471 59.233C71.9784 59.519 71.6578 59.74 71.2851 59.896C70.9211 60.0433 70.5094 60.117 70.0501 60.117ZM70.0501 59.272C70.4401 59.272 70.7824 59.1767 71.0771 58.986C71.3718 58.7953 71.5971 58.518 71.7531 58.154C71.9178 57.79 72.0001 57.3523 72.0001 56.841C72.0001 56.0523 71.8224 55.45 71.4671 55.034C71.1204 54.618 70.6481 54.41 70.0501 54.41C69.6514 54.41 69.3048 54.5053 69.0101 54.696C68.7241 54.878 68.4988 55.151 68.3341 55.515C68.1781 55.8703 68.1001 56.3123 68.1001 56.841C68.1001 57.621 68.2778 58.2233 68.6331 58.648C68.9884 59.064 69.4608 59.272 70.0501 59.272ZM75.3204 60C75.147 60 75.0127 59.9523 74.9174 59.857C74.822 59.7617 74.7744 59.6273 74.7744 59.454V54.228C74.7744 54.0547 74.822 53.9203 74.9174 53.825C75.0127 53.7297 75.147 53.682 75.3204 53.682H77.8554C78.358 53.682 78.7697 53.747 79.0904 53.877C79.411 53.9983 79.6494 54.1847 79.8054 54.436C79.9614 54.6787 80.0394 54.982 80.0394 55.346C80.0394 55.7447 79.8964 56.0827 79.6104 56.36C79.333 56.6373 78.969 56.802 78.5184 56.854V56.685C79.0557 56.7023 79.476 56.854 79.7794 57.14C80.0914 57.426 80.2474 57.7987 80.2474 58.258C80.2474 58.7953 80.048 59.22 79.6494 59.532C79.2507 59.844 78.6874 60 77.9594 60H75.3204ZM75.7754 59.285H77.9204C78.345 59.285 78.67 59.194 78.8954 59.012C79.1294 58.8213 79.2464 58.5527 79.2464 58.206C79.2464 57.8593 79.1294 57.595 78.8954 57.413C78.67 57.231 78.345 57.14 77.9204 57.14H75.7754V59.285ZM75.7754 56.425H77.8034C78.1934 56.425 78.4967 56.334 78.7134 56.152C78.9387 55.97 79.0514 55.7187 79.0514 55.398C79.0514 55.0773 78.9387 54.8303 78.7134 54.657C78.4967 54.4837 78.1934 54.397 77.8034 54.397H75.7754V56.425ZM84.5228 60.117C83.9074 60.117 83.3744 59.9827 82.9238 59.714C82.4731 59.4453 82.1221 59.0683 81.8708 58.583C81.6281 58.089 81.5068 57.5083 81.5068 56.841C81.5068 56.3383 81.5761 55.8877 81.7148 55.489C81.8534 55.0817 82.0571 54.735 82.3258 54.449C82.5944 54.163 82.9108 53.9463 83.2748 53.799C83.6474 53.643 84.0634 53.565 84.5228 53.565C85.1381 53.565 85.6711 53.6993 86.1218 53.968C86.5724 54.2367 86.9191 54.618 87.1618 55.112C87.4131 55.5973 87.5388 56.1737 87.5388 56.841C87.5388 57.3437 87.4694 57.7943 87.3308 58.193C87.1921 58.5917 86.9884 58.9383 86.7198 59.233C86.4511 59.519 86.1304 59.74 85.7578 59.896C85.3938 60.0433 84.9821 60.117 84.5228 60.117ZM84.5228 59.272C84.9128 59.272 85.2551 59.1767 85.5498 58.986C85.8444 58.7953 86.0698 58.518 86.2258 58.154C86.3904 57.79 86.4728 57.3523 86.4728 56.841C86.4728 56.0523 86.2951 55.45 85.9398 55.034C85.5931 54.618 85.1208 54.41 84.5228 54.41C84.1241 54.41 83.7774 54.5053 83.4828 54.696C83.1968 54.878 82.9714 55.151 82.8068 55.515C82.6508 55.8703 82.5728 56.3123 82.5728 56.841C82.5728 57.621 82.7504 58.2233 83.1058 58.648C83.4611 59.064 83.9334 59.272 84.5228 59.272ZM92.107 60.117C91.4397 60.117 90.8634 59.987 90.378 59.727C89.9014 59.4583 89.5287 59.0813 89.26 58.596C89 58.1107 88.87 57.53 88.87 56.854C88.87 56.1953 89 55.6233 89.26 55.138C89.52 54.644 89.8754 54.2583 90.326 53.981C90.7854 53.7037 91.314 53.565 91.912 53.565C92.3367 53.565 92.718 53.6387 93.056 53.786C93.394 53.9247 93.68 54.1283 93.914 54.397C94.1567 54.6657 94.3387 54.9907 94.46 55.372C94.59 55.7533 94.655 56.1823 94.655 56.659C94.655 56.7977 94.616 56.9017 94.538 56.971C94.46 57.0317 94.3474 57.062 94.2 57.062H89.676V56.373H93.953L93.745 56.542C93.745 56.074 93.6757 55.6797 93.537 55.359C93.3984 55.0297 93.1947 54.7783 92.926 54.605C92.666 54.4317 92.3367 54.345 91.938 54.345C91.496 54.345 91.119 54.449 90.807 54.657C90.5037 54.8563 90.274 55.138 90.118 55.502C89.962 55.8573 89.884 56.2733 89.884 56.75V56.828C89.884 57.6253 90.0747 58.232 90.456 58.648C90.846 59.064 91.3964 59.272 92.107 59.272C92.4017 59.272 92.692 59.233 92.978 59.155C93.2727 59.077 93.5587 58.947 93.836 58.765C93.9574 58.687 94.0657 58.6523 94.161 58.661C94.265 58.661 94.3474 58.6913 94.408 58.752C94.4687 58.804 94.5077 58.8733 94.525 58.96C94.551 59.038 94.5424 59.1247 94.499 59.22C94.4644 59.3153 94.3907 59.3977 94.278 59.467C93.992 59.675 93.654 59.8353 93.264 59.948C92.874 60.0607 92.4884 60.117 92.107 60.117ZM101.646 60.117C101.213 60.117 100.823 60.0347 100.476 59.87C100.138 59.6967 99.8698 59.4627 99.6705 59.168C99.4712 58.8733 99.3715 58.544 99.3715 58.18C99.3715 57.712 99.4885 57.3437 99.7225 57.075C99.9652 56.8063 100.359 56.6157 100.905 56.503C101.46 56.3903 102.214 56.334 103.167 56.334H103.752V57.023H103.18C102.478 57.023 101.924 57.0577 101.516 57.127C101.118 57.1877 100.836 57.296 100.671 57.452C100.515 57.608 100.437 57.829 100.437 58.115C100.437 58.4703 100.559 58.7607 100.801 58.986C101.053 59.2113 101.391 59.324 101.815 59.324C102.162 59.324 102.465 59.2417 102.725 59.077C102.994 58.9123 103.202 58.687 103.349 58.401C103.505 58.115 103.583 57.7857 103.583 57.413V55.931C103.583 55.3937 103.475 55.008 103.258 54.774C103.042 54.5313 102.686 54.41 102.192 54.41C101.889 54.41 101.586 54.449 101.282 54.527C100.979 54.605 100.658 54.7307 100.32 54.904C100.199 54.9647 100.095 54.9863 100.008 54.969C99.9218 54.943 99.8525 54.8953 99.8005 54.826C99.7485 54.7567 99.7182 54.6787 99.7095 54.592C99.7008 54.4967 99.7182 54.4057 99.7615 54.319C99.8135 54.2323 99.8915 54.163 99.9955 54.111C100.377 53.9203 100.754 53.7817 101.126 53.695C101.499 53.6083 101.854 53.565 102.192 53.565C102.738 53.565 103.189 53.656 103.544 53.838C103.9 54.0113 104.164 54.28 104.337 54.644C104.511 54.9993 104.597 55.4587 104.597 56.022V59.545C104.597 59.7183 104.554 59.8527 104.467 59.948C104.389 60.0433 104.272 60.091 104.116 60.091C103.952 60.091 103.826 60.0433 103.739 59.948C103.653 59.8527 103.609 59.7183 103.609 59.545V58.531H103.726C103.657 58.8603 103.523 59.142 103.323 59.376C103.133 59.61 102.894 59.792 102.608 59.922C102.322 60.052 102.002 60.117 101.646 60.117ZM107.185 60.091C107.012 60.091 106.878 60.0433 106.782 59.948C106.696 59.844 106.652 59.701 106.652 59.519V54.28C106.652 54.0807 106.704 53.9333 106.808 53.838C106.912 53.734 107.06 53.682 107.25 53.682H110.695C110.86 53.682 110.981 53.7167 111.059 53.786C111.137 53.8553 111.176 53.9593 111.176 54.098C111.176 54.2367 111.137 54.345 111.059 54.423C110.981 54.4923 110.86 54.527 110.695 54.527H107.705V59.519C107.705 59.9003 107.532 60.091 107.185 60.091ZM115.162 60.117C114.494 60.117 113.918 59.987 113.433 59.727C112.956 59.4583 112.583 59.0813 112.315 58.596C112.055 58.1107 111.925 57.53 111.925 56.854C111.925 56.1953 112.055 55.6233 112.315 55.138C112.575 54.644 112.93 54.2583 113.381 53.981C113.84 53.7037 114.369 53.565 114.967 53.565C115.391 53.565 115.773 53.6387 116.111 53.786C116.449 53.9247 116.735 54.1283 116.969 54.397C117.211 54.6657 117.393 54.9907 117.515 55.372C117.645 55.7533 117.71 56.1823 117.71 56.659C117.71 56.7977 117.671 56.9017 117.593 56.971C117.515 57.0317 117.402 57.062 117.255 57.062H112.731V56.373H117.008L116.8 56.542C116.8 56.074 116.73 55.6797 116.592 55.359C116.453 55.0297 116.249 54.7783 115.981 54.605C115.721 54.4317 115.391 54.345 114.993 54.345C114.551 54.345 114.174 54.449 113.862 54.657C113.558 54.8563 113.329 55.138 113.173 55.502C113.017 55.8573 112.939 56.2733 112.939 56.75V56.828C112.939 57.6253 113.129 58.232 113.511 58.648C113.901 59.064 114.451 59.272 115.162 59.272C115.456 59.272 115.747 59.233 116.033 59.155C116.327 59.077 116.613 58.947 116.891 58.765C117.012 58.687 117.12 58.6523 117.216 58.661C117.32 58.661 117.402 58.6913 117.463 58.752C117.523 58.804 117.562 58.8733 117.58 58.96C117.606 59.038 117.597 59.1247 117.554 59.22C117.519 59.3153 117.445 59.3977 117.333 59.467C117.047 59.675 116.709 59.8353 116.319 59.948C115.929 60.0607 115.543 60.117 115.162 60.117ZM119.881 60.091C119.707 60.091 119.573 60.0433 119.478 59.948C119.391 59.8527 119.348 59.7183 119.348 59.545V54.124C119.348 53.942 119.391 53.8077 119.478 53.721C119.573 53.6343 119.707 53.591 119.881 53.591C120.045 53.591 120.171 53.6343 120.258 53.721C120.353 53.8077 120.401 53.942 120.401 54.124V56.308H123.846V54.124C123.846 53.942 123.889 53.8077 123.976 53.721C124.071 53.6343 124.201 53.591 124.366 53.591C124.53 53.591 124.66 53.6343 124.756 53.721C124.851 53.8077 124.899 53.942 124.899 54.124V59.545C124.899 59.7183 124.851 59.8527 124.756 59.948C124.66 60.0433 124.53 60.091 124.366 60.091C124.201 60.091 124.071 60.0433 123.976 59.948C123.889 59.8527 123.846 59.7183 123.846 59.545V57.166H120.401V59.545C120.401 59.7183 120.357 59.8527 120.271 59.948C120.184 60.0433 120.054 60.091 119.881 60.091ZM128.824 60.091C128.659 60.091 128.529 60.0433 128.434 59.948C128.338 59.8527 128.291 59.7183 128.291 59.545V54.527H126.393C126.063 54.527 125.898 54.384 125.898 54.098C125.898 53.968 125.942 53.8683 126.029 53.799C126.115 53.721 126.237 53.682 126.393 53.682H131.255C131.575 53.682 131.736 53.8207 131.736 54.098C131.736 54.2367 131.692 54.345 131.606 54.423C131.528 54.4923 131.411 54.527 131.255 54.527H129.344V59.545C129.344 59.7183 129.3 59.8527 129.214 59.948C129.136 60.0433 129.006 60.091 128.824 60.091ZM135.419 60.117C134.787 60.117 134.241 59.9783 133.781 59.701C133.322 59.4237 132.967 59.038 132.715 58.544C132.473 58.0413 132.351 57.4607 132.351 56.802C132.351 56.2993 132.421 55.8487 132.559 55.45C132.698 55.0513 132.902 54.7133 133.17 54.436C133.439 54.15 133.76 53.9333 134.132 53.786C134.514 53.6387 134.943 53.565 135.419 53.565C135.731 53.565 136.056 53.6127 136.394 53.708C136.732 53.8033 137.04 53.968 137.317 54.202C137.404 54.2627 137.46 54.3363 137.486 54.423C137.512 54.5097 137.512 54.5963 137.486 54.683C137.46 54.761 137.417 54.8303 137.356 54.891C137.296 54.943 137.218 54.9733 137.122 54.982C137.036 54.9907 136.945 54.9603 136.849 54.891C136.624 54.7177 136.394 54.5963 136.16 54.527C135.926 54.4577 135.701 54.423 135.484 54.423C135.146 54.423 134.852 54.4793 134.6 54.592C134.349 54.696 134.137 54.8477 133.963 55.047C133.79 55.2463 133.656 55.4933 133.56 55.788C133.474 56.0827 133.43 56.425 133.43 56.815C133.43 57.569 133.608 58.167 133.963 58.609C134.319 59.0423 134.826 59.259 135.484 59.259C135.701 59.259 135.922 59.2243 136.147 59.155C136.381 59.0857 136.615 58.9643 136.849 58.791C136.945 58.7217 137.036 58.6913 137.122 58.7C137.209 58.7087 137.283 58.7433 137.343 58.804C137.404 58.856 137.443 58.9253 137.46 59.012C137.486 59.0987 137.486 59.1853 137.46 59.272C137.434 59.35 137.378 59.4193 137.291 59.48C137.014 59.7053 136.711 59.87 136.381 59.974C136.052 60.0693 135.731 60.117 135.419 60.117ZM140.719 60.091C140.554 60.091 140.424 60.0433 140.329 59.948C140.234 59.8527 140.186 59.7183 140.186 59.545V54.527H138.288C137.959 54.527 137.794 54.384 137.794 54.098C137.794 53.968 137.837 53.8683 137.924 53.799C138.011 53.721 138.132 53.682 138.288 53.682H143.15C143.471 53.682 143.631 53.8207 143.631 54.098C143.631 54.2367 143.588 54.345 143.501 54.423C143.423 54.4923 143.306 54.527 143.15 54.527H141.239V59.545C141.239 59.7183 141.196 59.8527 141.109 59.948C141.031 60.0433 140.901 60.091 140.719 60.091ZM145.195 60C145.022 60 144.888 59.9523 144.792 59.857C144.697 59.7617 144.649 59.6273 144.649 59.454V54.228C144.649 54.0547 144.697 53.9203 144.792 53.825C144.888 53.7297 145.022 53.682 145.195 53.682H147.73C148.233 53.682 148.645 53.747 148.965 53.877C149.286 53.9983 149.524 54.1847 149.68 54.436C149.836 54.6787 149.914 54.982 149.914 55.346C149.914 55.7447 149.771 56.0827 149.485 56.36C149.208 56.6373 148.844 56.802 148.393 56.854V56.685C148.931 56.7023 149.351 56.854 149.654 57.14C149.966 57.426 150.122 57.7987 150.122 58.258C150.122 58.7953 149.923 59.22 149.524 59.532C149.126 59.844 148.562 60 147.834 60H145.195ZM145.65 59.285H147.795C148.22 59.285 148.545 59.194 148.77 59.012C149.004 58.8213 149.121 58.5527 149.121 58.206C149.121 57.8593 149.004 57.595 148.77 57.413C148.545 57.231 148.22 57.14 147.795 57.14H145.65V59.285ZM145.65 56.425H147.678C148.068 56.425 148.372 56.334 148.588 56.152C148.814 55.97 148.926 55.7187 148.926 55.398C148.926 55.0773 148.814 54.8303 148.588 54.657C148.372 54.4837 148.068 54.397 147.678 54.397H145.65V56.425ZM154.398 60.117C153.782 60.117 153.249 59.9827 152.799 59.714C152.348 59.4453 151.997 59.0683 151.746 58.583C151.503 58.089 151.382 57.5083 151.382 56.841C151.382 56.3383 151.451 55.8877 151.59 55.489C151.728 55.0817 151.932 54.735 152.201 54.449C152.469 54.163 152.786 53.9463 153.15 53.799C153.522 53.643 153.938 53.565 154.398 53.565C155.013 53.565 155.546 53.6993 155.997 53.968C156.447 54.2367 156.794 54.618 157.037 55.112C157.288 55.5973 157.414 56.1737 157.414 56.841C157.414 57.3437 157.344 57.7943 157.206 58.193C157.067 58.5917 156.863 58.9383 156.595 59.233C156.326 59.519 156.005 59.74 155.633 59.896C155.269 60.0433 154.857 60.117 154.398 60.117ZM154.398 59.272C154.788 59.272 155.13 59.1767 155.425 58.986C155.719 58.7953 155.945 58.518 156.101 58.154C156.265 57.79 156.348 57.3523 156.348 56.841C156.348 56.0523 156.17 55.45 155.815 55.034C155.468 54.618 154.996 54.41 154.398 54.41C153.999 54.41 153.652 54.5053 153.358 54.696C153.072 54.878 152.846 55.151 152.682 55.515C152.526 55.8703 152.448 56.3123 152.448 56.841C152.448 57.621 152.625 58.2233 152.981 58.648C153.336 59.064 153.808 59.272 154.398 59.272Z" fill="#F3F7FC"/>
<path d="M22.1221 19.3188C22.1221 25.7841 25.4347 31.3805 30.3845 34.8077C35.3051 31.3255 38.4578 25.7144 38.4578 19.227C38.4578 12.7948 35.4277 7.14331 30.5768 3.65381C25.5573 7.07359 22.1221 12.7948 22.1221 19.3188Z" fill="url(#paint0_linear_1_851)"/>
<path d="M19.4729 19.3188C19.4729 12.3141 22.823 6.07634 28.0041 2.12084C25.3732 0.77054 22.3937 0 19.2308 0C8.61182 0 0 8.60815 0 19.2308C0 29.8497 8.60815 38.4615 19.2308 38.4615C22.3386 38.4615 25.2704 37.7203 27.8683 36.4104C22.7643 32.4476 19.4729 26.2611 19.4729 19.3188Z" fill="url(#paint1_linear_1_851)"/>
<path d="M41.1073 38.2009C30.6938 38.2009 22.2251 29.7285 22.2251 19.3187C22.2251 8.90524 30.6975 0.436523 41.1073 0.436523C51.5207 0.436523 59.9895 8.90891 59.9895 19.3187C59.9895 29.7285 51.5207 38.2009 41.1073 38.2009ZM41.1073 3.08207C32.1542 3.08207 24.8743 10.3656 24.8743 19.315C24.8743 28.2681 32.1579 35.548 41.1073 35.548C50.0603 35.548 57.3439 28.2644 57.3439 19.315C57.3439 10.3656 50.0603 3.08207 41.1073 3.08207Z" fill="url(#paint2_linear_1_851)"/>
<defs>
<linearGradient id="paint0_linear_1_851" x1="33.7144" y1="38.2218" x2="17.3943" y2="36.9299" gradientUnits="userSpaceOnUse">
<stop stop-color="#00B19F"/>
<stop offset="1" stop-color="#5BCF90"/>
</linearGradient>
<linearGradient id="paint1_linear_1_851" x1="19.8726" y1="42.6765" x2="-7.94403" y2="39.6189" gradientUnits="userSpaceOnUse">
<stop stop-color="#00B19F"/>
<stop offset="1" stop-color="#5BCF90"/>
</linearGradient>
<linearGradient id="paint2_linear_1_851" x1="57.5" y1="37.9999" x2="31.9978" y2="43.2158" gradientUnits="userSpaceOnUse">
<stop stop-color="#00B19F"/>
<stop offset="1" stop-color="#5BCF90"/>
</linearGradient>
</defs>
</svg>
