<svg width="1056" height="688" viewBox="0 0 1056 688" fill="none" xmlns="http://www.w3.org/2000/svg">
<path d="M993.689 207.479C994.533 209.656 995.306 211.862 996.007 214.096C995.744 214.178 995.596 214.458 995.678 214.721C996.07 215.994 996.44 217.275 996.786 218.566C997.132 219.857 997.453 221.152 997.749 222.45C997.81 222.719 998.077 222.887 998.346 222.827C998.856 225.112 999.29 227.409 999.648 229.716C999.375 229.758 999.188 230.012 999.229 230.285C999.625 232.914 999.922 235.558 1000.12 238.214C1000.14 238.489 1000.38 238.695 1000.66 238.675C1000.82 241 1000.91 243.335 1000.93 245.678C1000.66 245.679 1000.44 245.904 1000.44 246.18C1000.45 248.832 1000.36 251.495 1000.19 254.169C1000.17 254.444 1000.38 254.682 1000.65 254.701C1000.49 257.019 1000.26 259.344 999.96 261.675C999.687 261.64 999.436 261.832 999.4 262.106C999.055 264.72 998.624 267.342 998.109 269.972C998.056 270.243 998.232 270.505 998.503 270.559C998.046 272.844 997.527 275.134 996.945 277.429C996.678 277.361 996.406 277.522 996.337 277.789C995.682 280.337 994.949 282.891 994.141 285.45C994.057 285.713 994.203 285.993 994.466 286.077C993.761 288.282 993 290.491 992.184 292.703C991.925 292.608 991.638 292.739 991.542 292.998C990.616 295.483 989.62 297.972 988.555 300.464C988.447 300.718 988.565 301.012 988.818 301.12C987.908 303.233 986.949 305.348 985.941 307.464C985.692 307.345 985.394 307.45 985.275 307.699C984.131 310.084 982.925 312.472 981.657 314.861C981.528 315.105 981.62 315.407 981.864 315.537C980.775 317.578 979.641 319.619 978.464 321.661C978.225 321.523 977.919 321.604 977.781 321.843C976.458 324.124 975.081 326.406 973.649 328.688C973.502 328.921 973.573 329.23 973.806 329.377C972.565 331.345 971.285 333.312 969.964 335.279C969.735 335.125 969.424 335.186 969.27 335.415C967.8 337.595 966.281 339.776 964.713 341.954C964.552 342.178 964.603 342.491 964.826 342.652C963.459 344.545 962.056 346.438 960.616 348.329C960.396 348.161 960.083 348.203 959.915 348.422C958.321 350.509 956.682 352.594 955.001 354.677C954.827 354.892 954.861 355.207 955.076 355.38C953.603 357.199 952.097 359.015 950.559 360.83C950.348 360.651 950.033 360.677 949.854 360.887C948.153 362.887 946.413 364.885 944.634 366.88C944.45 367.086 944.468 367.402 944.674 367.586C943.114 369.331 941.523 371.073 939.903 372.813C939.701 372.625 939.385 372.636 939.197 372.838C937.403 374.759 935.574 376.677 933.709 378.592C933.516 378.789 933.521 379.106 933.718 379.299C932.084 380.972 930.423 382.642 928.736 384.31C928.542 384.113 928.226 384.111 928.029 384.305C926.153 386.154 924.244 388 922.302 389.841C922.102 390.031 922.093 390.348 922.283 390.548C920.588 392.152 918.869 393.753 917.125 395.35C916.939 395.147 916.622 395.132 916.418 395.319C914.467 397.103 912.485 398.882 910.473 400.657C910.266 400.84 910.247 401.156 910.429 401.363C908.683 402.9 906.914 404.434 905.123 405.965C904.944 405.755 904.629 405.73 904.419 405.909C902.398 407.632 900.349 409.351 898.272 411.065C898.059 411.241 898.029 411.556 898.205 411.769C896.415 413.243 894.605 414.713 892.775 416.18C892.602 415.964 892.287 415.929 892.072 416.102C889.986 417.769 887.874 419.432 885.737 421.089C885.518 421.258 885.479 421.573 885.648 421.791C883.821 423.204 881.976 424.613 880.113 426.019C879.947 425.798 879.633 425.754 879.413 425.92C877.28 427.525 875.124 429.124 872.943 430.718C872.72 430.881 872.672 431.194 872.835 431.417C870.963 432.783 869.073 434.145 867.166 435.502C867.006 435.277 866.694 435.224 866.469 435.384C864.303 436.924 862.115 438.457 859.905 439.985C859.678 440.142 859.621 440.454 859.778 440.681C857.855 442.008 855.915 443.331 853.959 444.649C853.805 444.42 853.494 444.359 853.265 444.513C851.07 445.99 848.854 447.46 846.618 448.925C846.387 449.077 846.323 449.386 846.474 449.617C844.512 450.901 842.534 452.18 840.54 453.454C840.392 453.221 840.083 453.153 839.85 453.302C837.62 454.725 835.37 456.142 833.102 457.553C832.868 457.699 832.796 458.007 832.942 458.242C830.961 459.472 828.967 460.697 826.958 461.917C826.815 461.681 826.507 461.605 826.271 461.749C823.989 463.133 821.689 464.51 819.371 465.881C819.133 466.022 819.055 466.328 819.195 466.566C817.199 467.745 815.19 468.918 813.168 470.087C813.03 469.848 812.724 469.766 812.485 469.904C810.173 471.239 807.843 472.567 805.496 473.888C805.255 474.024 805.17 474.328 805.306 474.569C803.277 475.709 801.237 476.845 799.183 477.975C799.05 477.733 798.746 477.644 798.504 477.777C796.177 479.057 793.833 480.329 791.474 481.595C791.23 481.726 791.139 482.029 791.27 482.272C789.199 483.381 787.117 484.485 785.023 485.584C784.895 485.339 784.593 485.245 784.348 485.373C782.004 486.601 779.646 487.821 777.272 489.036C777.027 489.161 776.929 489.463 777.055 489.708C774.977 490.77 772.887 491.826 770.787 492.877C770.663 492.63 770.363 492.53 770.116 492.653C767.726 493.847 765.321 495.035 762.902 496.215C762.654 496.336 762.551 496.635 762.672 496.883C760.586 497.899 758.49 498.91 756.384 499.915C756.265 499.666 755.966 499.56 755.717 499.679C753.309 500.827 750.886 501.967 748.451 503.101C748.201 503.217 748.092 503.515 748.209 503.765C746.09 504.75 743.962 505.729 741.823 506.702C741.709 506.451 741.412 506.339 741.161 506.454C738.745 507.552 736.315 508.643 733.874 509.727C733.621 509.839 733.508 510.135 733.62 510.387C731.479 511.336 729.329 512.279 727.169 513.217C727.059 512.964 726.765 512.847 726.512 512.957C724.069 514.016 721.615 515.067 719.149 516.111C718.895 516.219 718.776 516.513 718.883 516.767C716.74 517.673 714.587 518.574 712.425 519.469C712.319 519.214 712.027 519.092 711.772 519.198C709.301 520.219 706.819 521.233 704.325 522.239C704.069 522.342 703.945 522.634 704.049 522.89C701.888 523.76 699.719 524.625 697.541 525.484C697.44 525.228 697.15 525.101 696.893 525.202C694.418 526.177 691.932 527.145 689.436 528.104C689.178 528.204 689.05 528.493 689.149 528.751C686.96 529.591 684.764 530.425 682.559 531.253C682.462 530.995 682.174 530.864 681.915 530.961C679.425 531.894 676.925 532.821 674.415 533.739C674.156 533.834 674.023 534.121 674.118 534.38C671.928 535.18 669.731 535.974 667.527 536.762C667.434 536.502 667.148 536.367 666.888 536.459C664.369 537.358 661.84 538.25 659.301 539.133C659.04 539.224 658.903 539.509 658.993 539.769C656.793 540.534 654.586 541.292 652.371 542.044C652.282 541.783 651.998 541.643 651.737 541.731C649.216 542.586 646.686 543.433 644.146 544.272C643.884 544.359 643.742 544.642 643.828 544.904C641.603 545.638 639.37 546.366 637.13 547.088C637.046 546.825 636.764 546.681 636.501 546.765C633.968 547.581 631.426 548.388 628.875 549.187C628.611 549.27 628.464 549.55 628.547 549.814C626.322 550.51 624.09 551.2 621.852 551.883C621.772 551.619 621.492 551.47 621.228 551.551C618.671 552.33 616.105 553.102 613.531 553.865C613.267 553.944 613.116 554.222 613.194 554.487C610.957 555.149 608.713 555.805 606.464 556.455C606.387 556.189 606.11 556.036 605.845 556.113C603.287 556.85 600.722 557.579 598.149 558.3C597.883 558.375 597.727 558.651 597.802 558.916C595.547 559.547 593.286 560.171 591.019 560.789C590.947 560.522 590.672 560.365 590.405 560.438C589.111 560.79 587.815 561.14 586.517 561.488C585.219 561.835 583.921 562.18 582.624 562.523C582.357 562.593 582.198 562.867 582.268 563.134C579.996 563.732 577.726 564.322 575.458 564.904C575.389 564.636 575.117 564.475 574.85 564.543C572.261 565.205 569.674 565.857 567.091 566.497C566.822 566.563 566.659 566.835 566.725 567.103C564.452 567.665 562.182 568.218 559.913 568.763C559.849 568.495 559.579 568.329 559.31 568.394C556.699 569.02 554.092 569.634 551.487 570.238C551.218 570.3 551.051 570.569 551.113 570.838C548.833 571.365 546.555 571.883 544.28 572.393C544.22 572.123 543.953 571.954 543.683 572.014C541.075 572.597 538.469 573.169 535.868 573.73C535.598 573.788 535.426 574.054 535.484 574.324C533.184 574.819 530.886 575.305 528.591 575.782C528.535 575.511 528.271 575.338 528 575.394C525.382 575.937 522.767 576.468 520.156 576.988C519.885 577.042 519.71 577.305 519.764 577.576C517.47 578.032 515.179 578.479 512.891 578.917C512.839 578.646 512.577 578.468 512.306 578.52C509.666 579.025 507.03 579.517 504.399 579.998C504.127 580.048 503.947 580.308 503.997 580.58C501.694 581 499.394 581.411 497.098 581.813C497.051 581.541 496.792 581.359 496.52 581.406C493.887 581.866 491.259 582.314 488.636 582.75C488.363 582.795 488.179 583.052 488.224 583.325C485.901 583.71 483.581 584.086 481.266 584.453C481.223 584.18 480.967 583.994 480.694 584.037C478.053 584.454 475.416 584.859 472.786 585.252C472.512 585.293 472.324 585.547 472.365 585.82C470.05 586.165 467.738 586.501 465.432 586.827C465.393 586.554 465.14 586.363 464.867 586.402C462.204 586.777 459.548 587.14 456.898 587.491C456.624 587.527 456.431 587.779 456.467 588.052C454.148 588.358 451.833 588.655 449.523 588.942C449.489 588.668 449.24 588.473 448.966 588.507C446.308 588.836 443.657 589.152 441.012 589.456C440.738 589.488 440.541 589.736 440.573 590.01C438.233 590.278 435.9 590.536 433.571 590.785C433.542 590.51 433.296 590.311 433.021 590.34C430.365 590.622 427.716 590.892 425.074 591.149C424.799 591.176 424.598 591.42 424.625 591.695C422.286 591.921 419.953 592.138 417.626 592.344C417.602 592.069 417.359 591.866 417.084 591.89C414.408 592.126 411.74 592.35 409.08 592.56C408.805 592.582 408.599 592.822 408.621 593.098C406.294 593.28 403.974 593.453 401.66 593.616C401.64 593.341 401.401 593.133 401.126 593.152C398.441 593.34 395.765 593.514 393.098 593.675C392.822 593.692 392.612 593.929 392.629 594.204C390.284 594.344 387.947 594.474 385.616 594.594C385.602 594.318 385.367 594.106 385.091 594.12C382.429 594.255 379.776 594.377 377.132 594.486C376.856 594.497 376.642 594.73 376.653 595.006C374.29 595.102 371.935 595.187 369.588 595.262C369.579 594.986 369.349 594.769 369.073 594.777C366.396 594.861 363.73 594.93 361.075 594.986C360.799 594.992 360.58 595.221 360.585 595.497C358.242 595.545 355.907 595.582 353.581 595.608C353.578 595.332 353.351 595.111 353.075 595.114C350.382 595.143 347.7 595.158 345.03 595.158C344.754 595.158 344.53 595.382 344.531 595.658C342.195 595.657 339.868 595.645 337.55 595.622C337.553 595.346 337.332 595.12 337.056 595.117C334.363 595.089 331.682 595.046 329.014 594.988C328.738 594.982 328.509 595.201 328.503 595.477C326.153 595.425 323.813 595.362 321.484 595.287C321.493 595.011 321.276 594.779 321 594.77C318.33 594.683 315.674 594.58 313.031 594.462C312.755 594.45 312.521 594.664 312.509 594.94C310.145 594.833 307.793 594.714 305.452 594.584C305.467 594.308 305.256 594.072 304.981 594.057C302.312 593.906 299.658 593.74 297.019 593.559C296.743 593.54 296.504 593.748 296.486 594.023C294.132 593.86 291.791 593.684 289.462 593.496C289.485 593.221 289.28 592.98 289.004 592.957C286.326 592.739 283.664 592.505 281.019 592.255C280.744 592.229 280.5 592.431 280.474 592.706C278.144 592.484 275.827 592.249 273.523 592.002C273.552 591.728 273.354 591.481 273.079 591.451C270.394 591.161 267.727 590.854 265.077 590.53C264.803 590.497 264.554 590.692 264.52 590.966C262.204 590.681 259.901 590.383 257.613 590.072C257.65 589.798 257.459 589.546 257.185 589.509C254.506 589.143 251.845 588.759 249.205 588.357C248.932 588.316 248.677 588.503 248.636 588.776C246.317 588.421 244.015 588.053 241.728 587.671C241.773 587.399 241.59 587.141 241.318 587.096C238.662 586.65 236.028 586.186 233.416 585.703C233.145 585.653 232.884 585.833 232.834 586.104C230.518 585.674 228.219 585.23 225.938 584.771C225.992 584.501 225.817 584.237 225.547 584.183C222.917 583.651 220.311 583.101 217.729 582.532C217.459 582.473 217.193 582.643 217.133 582.912C214.824 582.401 212.535 581.874 210.265 581.333C210.329 581.064 210.163 580.794 209.895 580.73C207.293 580.106 204.717 579.462 202.167 578.799C201.9 578.729 201.627 578.889 201.557 579.156C199.262 578.556 196.989 577.94 194.737 577.308C194.812 577.042 194.657 576.766 194.391 576.691C191.819 575.965 189.276 575.219 186.762 574.452C186.498 574.371 186.219 574.52 186.138 574.784C183.865 574.087 181.616 573.373 179.392 572.642C179.479 572.38 179.336 572.098 179.074 572.011C176.536 571.173 174.03 570.313 171.557 569.431C171.297 569.338 171.011 569.474 170.918 569.734C168.679 568.931 166.467 568.111 164.282 567.272C164.381 567.015 164.252 566.726 163.995 566.626C161.497 565.663 159.036 564.677 156.612 563.667C156.357 563.561 156.064 563.681 155.958 563.936C153.766 563.018 151.604 562.081 149.473 561.125C149.586 560.874 149.474 560.578 149.223 560.464C146.776 559.361 144.37 558.233 142.006 557.079C141.758 556.958 141.459 557.061 141.338 557.309C139.21 556.266 137.117 555.202 135.059 554.118C135.188 553.874 135.094 553.572 134.85 553.443C132.469 552.183 130.135 550.896 127.85 549.581C127.61 549.444 127.305 549.526 127.167 549.765C125.126 548.586 123.124 547.384 121.161 546.162C121.307 545.928 121.236 545.619 121.002 545.473C118.71 544.038 116.471 542.573 114.288 541.079C114.06 540.923 113.749 540.981 113.593 541.209C111.662 539.88 109.774 538.528 107.93 537.154C108.095 536.933 108.05 536.62 107.829 536.454C105.661 534.828 103.554 533.17 101.51 531.481C101.297 531.305 100.982 531.335 100.806 531.547C98.9935 530.04 97.23 528.507 95.517 526.95C95.7028 526.746 95.6887 526.43 95.4852 526.244C93.5054 524.432 91.5941 522.586 89.7526 520.708C89.5595 520.511 89.2434 520.507 89.0462 520.7C87.3947 519.003 85.7997 517.28 84.262 515.529C84.4695 515.347 84.4909 515.032 84.3097 514.824C82.5486 512.804 80.8642 510.748 79.2582 508.657C79.0902 508.438 78.7769 508.397 78.5579 508.565C77.1334 506.694 75.771 504.796 74.4717 502.87C74.7006 502.717 74.762 502.407 74.6087 502.177C73.1196 499.949 71.7153 497.685 70.3976 495.383C70.2606 495.144 69.9557 495.061 69.7162 495.197C68.5609 493.158 67.4728 491.091 66.4533 488.994C66.7015 488.874 66.8058 488.576 66.6863 488.328C65.5322 485.927 64.4682 483.489 63.4961 481.014C63.3953 480.757 63.1058 480.631 62.849 480.731C62.0055 478.554 61.2326 476.348 60.5315 474.114C60.7946 474.032 60.942 473.752 60.8606 473.489C60.4678 472.216 60.0984 470.934 59.7525 469.643C59.4066 468.353 59.0857 467.058 58.7896 465.76C58.7283 465.491 58.461 465.322 58.1921 465.383C57.6822 463.098 57.2486 460.801 56.8904 458.493C57.1629 458.452 57.3503 458.197 57.3093 457.925C56.9136 455.295 56.6161 452.652 56.4153 449.996C56.3945 449.721 56.155 449.515 55.8801 449.535C55.7149 447.21 55.6234 444.875 55.6046 442.532C55.8802 442.53 56.1026 442.306 56.1016 442.03C56.092 439.378 56.1757 436.714 56.3514 434.04C56.3695 433.765 56.1614 433.527 55.8864 433.509C56.0485 431.191 56.2793 428.866 56.5779 426.534C56.8513 426.57 57.102 426.377 57.1381 426.104C57.4835 423.49 57.9143 420.867 58.4293 418.237C58.4823 417.967 58.3061 417.704 58.0356 417.651C58.4919 415.366 59.0114 413.076 59.5933 410.78C59.8605 410.849 60.1325 410.688 60.2013 410.421C60.8567 407.873 61.5892 405.319 62.3978 402.76C62.4809 402.497 62.3352 402.216 62.0724 402.133C62.7771 399.927 63.538 397.718 64.3542 395.506C64.6128 395.602 64.9003 395.47 64.9966 395.212C65.9222 392.727 66.918 390.238 67.9829 387.745C68.0913 387.492 67.9737 387.198 67.7202 387.089C68.63 384.977 69.5891 382.862 70.5971 380.746C70.846 380.865 71.1443 380.76 71.2636 380.511C72.4075 378.125 73.6137 375.738 74.8812 373.348C75.0105 373.105 74.9179 372.802 74.6744 372.673C75.7634 370.632 76.8969 368.591 78.0745 366.549C78.3133 366.687 78.6189 366.606 78.7573 366.367C80.0798 364.086 81.4575 361.804 82.8894 359.522C83.0361 359.288 82.9656 358.98 82.7321 358.833C83.9728 356.865 85.2538 354.897 86.5744 352.93C86.8033 353.084 87.1138 353.024 87.2681 352.795C88.7385 350.614 90.2578 348.434 91.8254 346.255C91.9866 346.031 91.9358 345.719 91.712 345.558C93.0794 343.664 94.4831 341.772 95.9227 339.881C96.1421 340.049 96.4557 340.007 96.6233 339.787C98.2177 337.701 99.856 335.616 101.538 333.533C101.711 333.318 101.677 333.003 101.463 332.83C102.936 331.011 104.442 329.194 105.98 327.38C106.19 327.558 106.505 327.533 106.684 327.323C108.385 325.322 110.125 323.325 111.904 321.33C112.088 321.124 112.07 320.808 111.864 320.624C113.425 318.879 115.015 317.137 116.635 315.397C116.837 315.585 117.153 315.574 117.342 315.372C119.135 313.451 120.965 311.533 122.829 309.618C123.022 309.42 123.018 309.104 122.82 308.911C124.454 307.238 126.115 305.568 127.803 303.9C127.996 304.097 128.313 304.099 128.509 303.905C130.386 302.056 132.295 300.21 134.236 298.368C134.437 298.178 134.445 297.862 134.255 297.662C135.95 296.058 137.67 294.457 139.414 292.859C139.6 293.063 139.916 293.077 140.12 292.891C142.071 291.107 144.053 289.328 146.065 287.553C146.272 287.37 146.292 287.054 146.109 286.847C147.856 285.309 149.624 283.775 151.415 282.245C151.594 282.455 151.91 282.48 152.12 282.301C154.141 280.577 156.19 278.858 158.266 277.144C158.479 276.969 158.51 276.654 158.334 276.441C160.124 274.967 161.934 273.496 163.764 272.03C163.936 272.246 164.251 272.28 164.466 272.108C166.552 270.44 168.664 268.778 170.802 267.12C171.02 266.951 171.06 266.637 170.891 266.419C172.717 265.006 174.562 263.596 176.426 262.191C176.592 262.412 176.905 262.456 177.126 262.29C179.258 260.685 181.415 259.085 183.595 257.491C183.818 257.328 183.867 257.016 183.704 256.793C185.576 255.427 187.465 254.065 189.372 252.708C189.532 252.932 189.844 252.985 190.069 252.825C192.235 251.286 194.423 249.752 196.634 248.224C196.861 248.067 196.918 247.756 196.761 247.529C198.684 246.202 200.624 244.879 202.58 243.561C202.734 243.79 203.044 243.851 203.273 243.697C205.468 242.22 207.684 240.749 209.92 239.284C210.151 239.133 210.215 238.823 210.064 238.592C212.027 237.309 214.005 236.03 215.998 234.756C216.147 234.988 216.456 235.057 216.688 234.908C218.918 233.485 221.168 232.068 223.436 230.656C223.671 230.511 223.743 230.202 223.597 229.968C225.577 228.738 227.572 227.513 229.58 226.293C229.724 226.529 230.031 226.604 230.267 226.461C232.549 225.077 234.849 223.699 237.167 222.328C237.405 222.188 237.484 221.881 237.343 221.644C239.339 220.465 241.348 219.291 243.37 218.123C243.508 218.362 243.814 218.444 244.053 218.306C246.366 216.971 248.696 215.643 251.042 214.322C251.283 214.186 251.368 213.881 251.233 213.641C253.261 212.5 255.302 211.365 257.355 210.235C257.488 210.477 257.792 210.565 258.034 210.432C260.361 209.153 262.705 207.88 265.065 206.614C265.308 206.484 265.399 206.181 265.269 205.937C267.339 204.828 269.421 203.724 271.515 202.626C271.643 202.87 271.946 202.965 272.19 202.837C274.534 201.609 276.892 200.388 279.266 199.174C279.512 199.048 279.609 198.747 279.483 198.501C281.562 197.44 283.651 196.383 285.752 195.332C285.875 195.579 286.175 195.68 286.422 195.556C288.813 194.362 291.217 193.175 293.636 191.995C293.884 191.874 293.988 191.575 293.866 191.326C295.952 190.31 298.048 189.3 300.155 188.294C300.273 188.544 300.572 188.65 300.821 188.531C303.23 187.383 305.652 186.242 308.087 185.109C308.338 184.992 308.446 184.695 308.33 184.445C310.448 183.46 312.577 182.481 314.715 181.508C314.83 181.759 315.126 181.87 315.377 181.756C317.794 180.658 320.223 179.566 322.664 178.482C322.917 178.37 323.031 178.075 322.919 177.823C325.059 176.874 327.209 175.93 329.369 174.993C329.479 175.246 329.773 175.362 330.027 175.253C332.469 174.194 334.923 173.142 337.389 172.098C337.644 171.991 337.762 171.697 337.655 171.443C339.799 170.537 341.952 169.636 344.113 168.741C344.219 168.996 344.511 169.117 344.767 169.012C347.237 167.991 349.719 166.977 352.213 165.971C352.469 165.867 352.593 165.576 352.49 165.32C354.65 164.449 356.819 163.584 358.997 162.725C359.098 162.982 359.389 163.108 359.645 163.007C362.12 162.032 364.606 161.065 367.102 160.105C367.36 160.006 367.489 159.717 367.39 159.459C369.578 158.619 371.775 157.785 373.979 156.957C374.076 157.215 374.365 157.346 374.623 157.249C377.113 156.315 379.613 155.389 382.123 154.47C382.382 154.376 382.515 154.089 382.421 153.829C384.61 153.029 386.807 152.235 389.011 151.447C389.104 151.707 389.39 151.843 389.65 151.75C392.169 150.851 394.698 149.96 397.237 149.077C397.498 148.986 397.636 148.701 397.545 148.44C399.745 147.676 401.953 146.918 404.167 146.165C404.256 146.427 404.54 146.567 404.802 146.478C407.322 145.623 409.853 144.776 412.392 143.937C412.654 143.851 412.796 143.568 412.71 143.306C414.936 142.572 417.168 141.843 419.408 141.122C419.492 141.384 419.774 141.529 420.037 141.444C422.57 140.629 425.113 139.822 427.664 139.022C427.927 138.94 428.074 138.659 427.991 138.396C430.216 137.7 432.448 137.01 434.686 136.327C434.767 136.591 435.046 136.74 435.31 136.659C437.867 135.879 440.433 135.108 443.007 134.344C443.272 134.266 443.423 133.988 443.344 133.723C445.581 133.061 447.825 132.405 450.074 131.755C450.151 132.02 450.428 132.173 450.693 132.097C453.251 131.36 455.816 130.63 458.39 129.91C458.656 129.835 458.811 129.559 458.736 129.293C460.991 128.663 463.252 128.039 465.519 127.421C465.592 127.687 465.866 127.844 466.133 127.772C467.427 127.42 468.723 127.07 470.022 126.722C471.32 126.374 472.617 126.029 473.914 125.687C474.181 125.617 474.34 125.343 474.27 125.076C476.542 124.478 478.812 123.888 481.08 123.306C481.149 123.574 481.421 123.735 481.689 123.667C484.278 123.004 486.864 122.353 489.448 121.713C489.716 121.646 489.879 121.375 489.813 121.107C492.086 120.545 494.357 119.991 496.625 119.446C496.69 119.715 496.96 119.88 497.228 119.816C499.839 119.19 502.447 118.575 505.051 117.972C505.32 117.91 505.488 117.641 505.425 117.372C507.705 116.845 509.983 116.327 512.258 115.817C512.318 116.086 512.585 116.256 512.855 116.196C515.464 115.612 518.069 115.04 520.671 114.479C520.941 114.421 521.112 114.155 521.054 113.885C523.355 113.391 525.652 112.905 527.947 112.428C528.003 112.698 528.268 112.872 528.538 112.816C531.157 112.273 533.771 111.741 536.382 111.221C536.653 111.167 536.829 110.904 536.775 110.633C539.069 110.178 541.36 109.731 543.647 109.292C543.699 109.563 543.961 109.741 544.232 109.689C546.872 109.185 549.508 108.692 552.139 108.211C552.411 108.162 552.591 107.901 552.541 107.63C554.844 107.21 557.144 106.799 559.44 106.397C559.487 106.669 559.746 106.851 560.018 106.804C562.651 106.344 565.28 105.896 567.903 105.46C568.175 105.415 568.359 105.157 568.314 104.885C570.637 104.5 572.957 104.124 575.272 103.757C575.315 104.03 575.571 104.216 575.844 104.173C578.486 103.756 581.122 103.351 583.753 102.958C584.026 102.917 584.214 102.663 584.173 102.389C586.489 102.045 588.8 101.709 591.106 101.383C591.145 101.656 591.398 101.846 591.671 101.808C594.334 101.433 596.99 101.069 599.641 100.719C599.914 100.682 600.107 100.431 600.071 100.157C602.39 99.8515 604.705 99.5551 607.015 99.268C607.049 99.542 607.299 99.7367 607.573 99.7028C610.23 99.3739 612.882 99.0573 615.526 98.7532C615.8 98.7216 615.997 98.4736 615.966 98.1993C618.305 97.9315 620.639 97.6734 622.967 97.4248C622.996 97.6994 623.242 97.8984 623.517 97.8693C626.173 97.5872 628.823 97.3176 631.465 97.0606C631.739 97.0339 631.94 96.7894 631.914 96.5146C634.252 96.2883 636.585 96.0719 638.912 95.8652C638.937 96.1403 639.179 96.3436 639.454 96.3194C642.13 96.0832 644.798 95.86 647.458 95.6497C647.733 95.6279 647.939 95.3871 647.917 95.1119C650.244 94.9292 652.565 94.7564 654.879 94.5935C654.898 94.8689 655.137 95.0766 655.412 95.0574C658.097 94.8699 660.773 94.6957 663.44 94.5346C663.716 94.518 663.926 94.2811 663.909 94.0054C666.254 93.8652 668.592 93.7353 670.922 93.6155C670.936 93.8913 671.171 94.1035 671.447 94.0895C674.109 93.9542 676.763 93.8323 679.406 93.7235C679.682 93.7122 679.896 93.4793 679.885 93.2034C682.248 93.1077 684.603 93.0226 686.95 92.948C686.959 93.224 687.19 93.4408 687.466 93.4322C690.142 93.3488 692.808 93.2792 695.464 93.2233C695.74 93.2175 695.959 92.9889 695.953 92.7129C698.296 92.665 700.631 92.6278 702.958 92.6012C702.961 92.8773 703.187 93.0988 703.463 93.0958C706.156 93.0668 708.838 93.052 711.508 93.0515C711.784 93.0514 712.008 92.8275 712.008 92.5514C714.343 92.5525 716.67 92.5644 718.988 92.5872C718.985 92.8633 719.206 93.0895 719.482 93.0924C722.176 93.1207 724.856 93.1637 727.525 93.2212C727.801 93.2272 728.029 93.0082 728.035 92.7321C730.385 92.7845 732.725 92.8481 735.055 92.9231C735.046 93.1991 735.262 93.4302 735.538 93.4393C738.208 93.5271 740.865 93.6297 743.508 93.7472C743.784 93.7595 744.017 93.5457 744.029 93.2699C746.393 93.3767 748.745 93.4953 751.086 93.6257C751.071 93.9014 751.282 94.1375 751.558 94.153C754.226 94.3037 756.88 94.4697 759.52 94.651C759.795 94.6699 760.034 94.4619 760.053 94.1864C762.406 94.3499 764.747 94.5256 767.076 94.7133C767.054 94.9885 767.259 95.2298 767.534 95.2522C770.212 95.4703 772.874 95.7044 775.519 95.9544C775.794 95.9804 776.038 95.7786 776.064 95.5037C778.394 95.7259 780.711 95.9605 783.016 96.2075C782.986 96.4821 783.184 96.7287 783.459 96.7584C786.144 97.0485 788.812 97.3555 791.461 97.6792C791.735 97.7127 791.984 97.5177 792.018 97.2435C794.334 97.5287 796.637 97.8267 798.925 98.1374C798.888 98.411 799.079 98.6632 799.353 98.7006C802.033 99.067 804.693 99.451 807.333 99.8525C807.606 99.894 807.861 99.7063 807.903 99.4333C810.221 99.7881 812.524 100.156 814.811 100.538C814.765 100.81 814.948 101.068 815.221 101.114C817.876 101.56 820.51 102.024 823.122 102.506C823.394 102.556 823.654 102.377 823.704 102.105C826.021 102.535 828.319 102.979 830.601 103.438C830.546 103.709 830.721 103.972 830.992 104.027C833.621 104.558 836.227 105.109 838.809 105.678C839.079 105.737 839.346 105.567 839.405 105.297C841.714 105.809 844.004 106.335 846.274 106.877C846.209 107.145 846.375 107.415 846.643 107.48C849.246 108.104 851.822 108.747 854.371 109.411C854.639 109.48 854.912 109.32 854.981 109.053C857.276 109.653 859.55 110.269 861.802 110.902C861.727 111.167 861.881 111.444 862.147 111.519C864.719 112.244 867.262 112.991 869.776 113.758C870.04 113.838 870.32 113.69 870.4 113.425C872.673 114.122 874.922 114.836 877.146 115.567C877.06 115.829 877.202 116.112 877.464 116.199C880.002 117.037 882.508 117.897 884.981 118.778C885.241 118.871 885.527 118.736 885.62 118.475C887.859 119.278 890.072 120.098 892.257 120.937C892.157 121.194 892.286 121.484 892.543 121.583C895.041 122.546 897.502 123.533 899.927 124.543C900.182 124.649 900.474 124.528 900.581 124.274C902.773 125.191 904.934 126.128 907.065 127.084C906.952 127.336 907.064 127.632 907.316 127.745C909.763 128.848 912.169 129.977 914.532 131.13C914.78 131.251 915.079 131.148 915.201 130.9C917.328 131.944 919.421 133.007 921.48 134.091C921.351 134.335 921.444 134.637 921.688 134.767C924.069 136.027 926.403 137.314 928.689 138.628C928.928 138.766 929.233 138.684 929.371 138.445C931.412 139.624 933.414 140.825 935.378 142.048C935.232 142.282 935.303 142.59 935.536 142.737C937.829 144.172 940.067 145.636 942.25 147.13C942.478 147.286 942.789 147.228 942.945 147.001C944.876 148.329 946.764 149.681 948.609 151.056C948.443 151.277 948.488 151.59 948.709 151.755C950.877 153.381 952.984 155.039 955.028 156.728C955.241 156.904 955.556 156.874 955.732 156.662C957.545 158.17 959.308 159.702 961.021 161.26C960.835 161.464 960.85 161.78 961.053 161.966C963.033 163.778 964.944 165.623 966.786 167.502C966.979 167.699 967.295 167.702 967.492 167.51C969.144 169.206 970.739 170.93 972.276 172.681C972.069 172.862 972.047 173.178 972.229 173.385C973.99 175.406 975.674 177.462 977.28 179.552C977.448 179.771 977.761 179.813 977.98 179.645C979.405 181.515 980.767 183.413 982.067 185.339C981.838 185.493 981.776 185.803 981.93 186.032C983.419 188.26 984.823 190.525 986.141 192.827C986.278 193.066 986.583 193.149 986.822 193.013C987.977 195.051 989.065 197.119 990.085 199.215C989.837 199.335 989.732 199.633 989.852 199.882C991.006 202.283 992.07 204.721 993.042 207.196C993.143 207.452 993.432 207.579 993.689 207.479Z" stroke="url(#paint0_linear)" stroke-opacity="0.6" stroke-linecap="round" stroke-dasharray="8 8"/>
<defs>
<linearGradient id="paint0_linear" x1="210" y1="271.5" x2="586.646" y2="561.97" gradientUnits="userSpaceOnUse">
<stop stop-color="white" stop-opacity="0"/>
<stop offset="1" stop-color="white"/>
</linearGradient>
</defs>
</svg>
