<svg width="593" height="314" viewBox="0 0 593 314" fill="none" xmlns="http://www.w3.org/2000/svg">
<path d="M586.371 67.7245C587.326 69.7968 588.173 71.9132 588.91 74.0734C588.649 74.1612 588.509 74.4436 588.596 74.7051C589.005 75.9362 589.379 77.1814 589.717 78.4409C590.054 79.7003 590.353 80.9657 590.614 82.2368C590.669 82.5067 590.932 82.6809 591.202 82.6266C591.644 84.8659 591.968 87.1224 592.178 89.3943C591.904 89.4186 591.7 89.6601 591.724 89.9346C591.942 92.5085 592.012 95.1025 591.938 97.7139C591.93 97.9894 592.146 98.2191 592.422 98.2279C592.341 100.49 592.154 102.763 591.861 105.048C591.588 105.012 591.337 105.204 591.3 105.477C590.957 108.019 590.483 110.575 589.882 113.143C589.819 113.411 589.985 113.679 590.253 113.743C589.726 115.932 589.107 118.129 588.398 120.332C588.136 120.246 587.854 120.389 587.768 120.651C586.972 123.082 586.064 125.521 585.048 127.965C584.943 128.22 585.063 128.512 585.317 128.618C584.445 130.689 583.497 132.762 582.473 134.839C582.226 134.716 581.926 134.817 581.803 135.064C580.662 137.353 579.429 139.646 578.105 141.94C577.967 142.179 578.049 142.485 578.287 142.623C577.157 144.565 575.963 146.509 574.705 148.451C574.474 148.301 574.164 148.367 574.014 148.598C572.613 150.747 571.134 152.895 569.58 155.043C569.418 155.266 569.468 155.578 569.691 155.74C568.363 157.563 566.981 159.385 565.546 161.204C565.33 161.033 565.015 161.069 564.844 161.285C563.241 163.306 561.572 165.323 559.839 167.337C559.659 167.546 559.682 167.862 559.891 168.042C558.422 169.74 556.907 171.436 555.347 173.128C555.144 172.941 554.828 172.953 554.641 173.156C552.894 175.042 551.092 176.923 549.235 178.799C549.041 178.995 549.042 179.311 549.238 179.505C547.645 181.108 546.013 182.707 544.341 184.3C544.15 184.1 543.834 184.092 543.634 184.282C541.756 186.067 539.828 187.845 537.852 189.616C537.647 189.8 537.629 190.117 537.814 190.322C536.137 191.821 534.425 193.314 532.68 194.802C532.501 194.592 532.186 194.566 531.975 194.745C530.008 196.417 527.999 198.081 525.948 199.739C525.733 199.912 525.699 200.227 525.873 200.442C524.104 201.866 522.304 203.285 520.474 204.698C520.305 204.479 519.991 204.439 519.773 204.607C517.728 206.181 515.645 207.747 513.526 209.305C513.304 209.469 513.256 209.782 513.419 210.004C511.595 211.341 509.744 212.672 507.867 213.997C507.708 213.771 507.396 213.717 507.17 213.876C505.043 215.372 502.882 216.86 500.687 218.338C500.459 218.493 500.398 218.803 500.552 219.032C498.68 220.291 496.784 221.542 494.864 222.787C494.714 222.555 494.404 222.489 494.173 222.639C491.995 224.047 489.787 225.447 487.549 226.837C487.314 226.982 487.242 227.29 487.388 227.525C485.456 228.722 483.502 229.912 481.526 231.094C481.385 230.857 481.078 230.78 480.841 230.921C478.62 232.248 476.372 233.564 474.097 234.871C473.858 235.009 473.775 235.314 473.913 235.554C471.937 236.686 469.941 237.811 467.925 238.929C467.791 238.687 467.487 238.6 467.246 238.733C464.98 239.986 462.69 241.229 460.376 242.462C460.132 242.592 460.04 242.895 460.169 243.138C458.163 244.205 456.139 245.264 454.097 246.314C453.971 246.069 453.669 245.972 453.424 246.098C451.111 247.285 448.776 248.461 446.419 249.627C446.172 249.75 446.07 250.05 446.193 250.297C444.159 251.301 442.11 252.296 440.044 253.284C439.925 253.034 439.627 252.929 439.377 253.048C437.024 254.17 434.651 255.281 432.256 256.381C432.006 256.497 431.896 256.794 432.011 257.045C429.953 257.988 427.88 258.924 425.793 259.851C425.681 259.598 425.385 259.484 425.133 259.596C422.747 260.653 420.342 261.7 417.918 262.735C417.664 262.843 417.546 263.137 417.655 263.391C415.572 264.278 413.475 265.157 411.365 266.027C411.26 265.772 410.968 265.65 410.712 265.755C408.301 266.748 405.872 267.729 403.426 268.698C403.169 268.8 403.043 269.09 403.145 269.347C401.036 270.181 398.913 271.007 396.779 271.823C396.681 271.565 396.392 271.436 396.134 271.534C393.699 272.464 391.247 273.381 388.781 274.287C388.521 274.382 388.389 274.67 388.484 274.929C386.351 275.71 384.206 276.483 382.05 277.246C381.958 276.986 381.673 276.849 381.412 276.941C378.956 277.809 376.484 278.665 373.998 279.509C373.737 279.598 373.597 279.882 373.685 280.143C371.532 280.872 369.367 281.593 367.192 282.303C367.107 282.041 366.825 281.897 366.562 281.983C364.085 282.79 361.595 283.586 359.091 284.369C358.827 284.451 358.68 284.732 358.763 284.995C356.591 285.673 354.409 286.341 352.217 287C352.138 286.735 351.859 286.585 351.595 286.664C349.099 287.412 346.591 288.148 344.07 288.871C343.805 288.947 343.651 289.224 343.727 289.49C341.539 290.116 339.342 290.732 337.136 291.339C337.063 291.073 336.788 290.916 336.521 290.989C335.257 291.336 333.99 291.679 332.72 292.019C331.45 292.36 330.181 292.696 328.913 293.027C328.646 293.097 328.486 293.371 328.556 293.638C326.342 294.215 324.131 294.78 321.923 295.332C321.856 295.064 321.585 294.901 321.317 294.968C318.772 295.602 316.232 296.219 313.697 296.819C313.428 296.883 313.262 297.152 313.325 297.421C311.098 297.946 308.875 298.458 306.655 298.958C306.594 298.688 306.327 298.519 306.058 298.579C303.498 299.153 300.943 299.709 298.394 300.248C298.124 300.306 297.951 300.571 298.008 300.841C295.77 301.313 293.535 301.772 291.305 302.217C291.252 301.946 290.988 301.77 290.718 301.824C288.143 302.336 285.574 302.831 283.013 303.307C282.741 303.358 282.562 303.619 282.613 303.891C280.364 304.307 278.12 304.711 275.882 305.1C275.835 304.828 275.577 304.646 275.304 304.693C272.715 305.142 270.134 305.573 267.56 305.985C267.288 306.029 267.102 306.286 267.146 306.558C264.889 306.918 262.638 307.265 260.394 307.597C260.354 307.324 260.1 307.135 259.827 307.175C257.224 307.559 254.63 307.924 252.045 308.27C251.771 308.307 251.579 308.558 251.616 308.832C249.353 309.133 247.098 309.42 244.851 309.693C244.818 309.419 244.569 309.224 244.294 309.257C241.678 309.573 239.072 309.869 236.477 310.146C236.202 310.176 236.004 310.422 236.033 310.697C233.762 310.938 231.499 311.164 229.245 311.376C229.219 311.101 228.975 310.898 228.7 310.924C226.077 311.168 223.465 311.393 220.867 311.597C220.591 311.619 220.386 311.86 220.407 312.135C218.125 312.313 215.852 312.475 213.589 312.623C213.571 312.348 213.334 312.138 213.058 312.156C210.434 312.325 207.823 312.473 205.227 312.602C204.951 312.615 204.739 312.85 204.753 313.126C202.459 313.237 200.176 313.332 197.906 313.412C197.896 313.136 197.665 312.92 197.389 312.929C194.768 313.019 192.163 313.087 189.575 313.135C189.299 313.14 189.079 313.368 189.084 313.644C186.78 313.684 184.489 313.707 182.211 313.715C182.21 313.439 181.986 313.215 181.71 313.216C179.087 313.222 176.481 313.205 173.895 313.167C173.619 313.163 173.392 313.384 173.388 313.66C171.086 313.623 168.799 313.57 166.527 313.499C166.536 313.223 166.319 312.993 166.043 312.984C163.41 312.899 160.798 312.791 158.208 312.66C157.933 312.646 157.698 312.858 157.684 313.134C155.399 313.016 153.131 312.88 150.88 312.727C150.899 312.451 150.691 312.213 150.416 312.193C147.776 312.01 145.161 311.802 142.57 311.57C142.295 311.545 142.053 311.748 142.028 312.023C139.74 311.815 137.471 311.588 135.223 311.342C135.253 311.067 135.055 310.82 134.781 310.79C132.167 310.5 129.58 310.185 127.022 309.844C126.748 309.808 126.497 310 126.46 310.274C124.169 309.965 121.901 309.636 119.657 309.287C119.699 309.014 119.513 308.758 119.24 308.715C116.635 308.306 114.062 307.869 111.523 307.405C111.252 307.355 110.991 307.535 110.941 307.806C108.686 307.39 106.457 306.952 104.256 306.493C104.312 306.223 104.139 305.958 103.869 305.901C101.272 305.355 98.7139 304.779 96.195 304.173C95.9267 304.109 95.6568 304.274 95.5921 304.542C93.3474 303.998 91.1341 303.43 88.9532 302.838C89.0257 302.572 88.8688 302.298 88.6026 302.225C86.0565 301.529 83.555 300.801 81.0998 300.041C80.8361 299.959 80.5563 300.106 80.4744 300.37C78.2775 299.684 76.1176 298.973 73.9957 298.237C74.0865 297.976 73.9491 297.692 73.6886 297.601C71.1806 296.723 68.7266 295.81 66.3283 294.862C66.0718 294.761 65.7815 294.886 65.6798 295.143C63.5271 294.285 61.4195 293.398 59.358 292.484C59.4703 292.232 59.3573 291.936 59.1054 291.824C56.6858 290.741 54.331 289.62 52.0431 288.459C51.7971 288.334 51.4965 288.432 51.3714 288.678C49.311 287.624 47.305 286.539 45.3548 285.422C45.4923 285.183 45.4104 284.877 45.1716 284.739C42.878 283.414 40.6634 282.045 38.5303 280.633C38.3003 280.481 37.9906 280.544 37.8379 280.773C35.9129 279.487 34.0545 278.165 32.2644 276.808C32.4314 276.589 32.3896 276.276 32.1706 276.108C30.0687 274.499 28.0635 272.841 26.1581 271.134C25.9527 270.95 25.6373 270.967 25.4529 271.172C23.7374 269.619 22.1031 268.026 20.5525 266.394C20.7528 266.205 20.7624 265.889 20.5737 265.688C18.7688 263.766 17.0806 261.789 15.5126 259.759C15.3441 259.54 15.031 259.5 14.8125 259.667C13.4165 257.835 12.117 255.96 10.9167 254.042C11.1506 253.896 11.2232 253.589 11.0787 253.354C9.70851 251.13 8.47237 248.849 7.37443 246.51C7.25732 246.261 6.96061 246.153 6.711 246.269C5.75658 244.197 4.90932 242.081 4.17212 239.921C4.43298 239.833 4.57384 239.55 4.48683 239.289C4.07706 238.058 3.70317 236.813 3.36571 235.553C3.02825 234.294 2.72939 233.028 2.46871 231.757C2.41335 231.487 2.15017 231.313 1.88031 231.367C1.43869 229.128 1.11423 226.872 0.90462 224.6C1.17884 224.575 1.38202 224.334 1.35874 224.059C1.14048 221.486 1.0702 218.891 1.14464 216.28C1.15249 216.005 0.936039 215.775 0.660838 215.766C0.741104 213.505 0.928815 211.231 1.22182 208.946C1.49486 208.982 1.74572 208.79 1.78254 208.517C2.1253 205.975 2.59903 203.419 3.20088 200.851C3.26379 200.583 3.09763 200.315 2.82961 200.251C3.35623 198.062 3.97509 195.865 4.68436 193.663C4.94642 193.748 5.22811 193.605 5.31399 193.343C6.1108 190.912 7.01828 188.473 8.03407 186.029C8.13989 185.774 8.01956 185.482 7.76529 185.376C8.63691 183.305 9.5855 181.232 10.6096 179.155C10.8566 179.278 11.1562 179.177 11.2792 178.93C12.4204 176.641 13.6538 174.348 14.9776 172.054C15.1154 171.815 15.0337 171.509 14.7951 171.371C15.9254 169.429 17.1199 167.485 18.3774 165.543C18.6086 165.693 18.918 165.627 19.0686 165.396C20.4697 163.247 21.9482 161.099 23.5025 158.951C23.6643 158.728 23.6144 158.416 23.3913 158.254C24.7191 156.431 26.1012 154.609 27.5366 152.79C27.7529 152.961 28.067 152.925 28.2385 152.709C29.8413 150.688 31.5101 148.671 33.2435 146.657C33.4235 146.448 33.4001 146.132 33.1912 145.952C34.6606 144.254 36.1757 142.558 37.7356 140.866C37.9382 141.053 38.2542 141.041 38.4417 140.838C40.1881 138.952 41.9903 137.071 43.8473 135.195C44.0415 134.999 44.04 134.683 43.8441 134.489C45.4371 132.886 47.0699 131.287 48.7417 129.694C48.9319 129.894 49.2481 129.902 49.4482 129.712C51.3267 127.928 53.2544 126.149 55.2301 124.378C55.4356 124.194 55.4529 123.878 55.2689 123.672C56.9461 122.174 58.6575 120.68 60.4026 119.192C60.5814 119.402 60.8968 119.428 61.1071 119.249C63.074 117.577 65.0836 115.913 67.1349 114.255C67.3496 114.082 67.3831 113.767 67.2098 113.553C68.979 112.128 70.7788 110.709 72.6088 109.296C72.7773 109.515 73.091 109.555 73.3098 109.387C75.3546 107.813 77.4371 106.247 79.5563 104.688C79.7787 104.525 79.8265 104.212 79.6632 103.99C81.4872 102.653 83.3382 101.322 85.2157 99.9974C85.3747 100.223 85.6864 100.277 85.9122 100.118C88.0394 98.6221 90.2005 97.1343 92.3949 95.6555C92.6239 95.5013 92.6844 95.1907 92.5303 94.9617C94.4026 93.7034 96.2988 92.4517 98.2187 91.207C98.3687 91.4386 98.6781 91.505 98.9099 91.3551C101.088 89.9467 103.296 88.5474 105.533 87.1575C105.768 87.0118 105.84 86.7037 105.695 86.4692C107.627 85.2722 109.58 84.0823 111.556 82.8999C111.698 83.1368 112.004 83.2141 112.241 83.0726C114.462 81.7465 116.71 80.4297 118.985 79.1228C119.225 78.9853 119.307 78.6798 119.17 78.4404C121.146 77.3079 123.142 76.1828 125.157 75.0655C125.291 75.3069 125.595 75.3944 125.837 75.2608C128.102 74.0078 130.392 72.7647 132.707 71.5318C132.95 71.402 133.043 71.0993 132.913 70.8556C134.919 69.7893 136.944 68.7306 138.986 67.68C139.112 67.9255 139.413 68.0224 139.659 67.8963C141.971 66.7094 144.306 65.5328 146.663 64.3668C146.911 64.2444 147.012 63.9446 146.89 63.6971C148.923 62.6936 150.973 61.6979 153.039 60.7105C153.158 60.9596 153.456 61.0652 153.705 60.9464C156.058 59.8244 158.432 58.713 160.826 57.6126C161.077 57.4973 161.187 57.2005 161.072 56.9497C163.129 56.006 165.202 55.0705 167.29 54.1433C167.402 54.3957 167.697 54.5096 167.949 54.3977C170.335 53.3405 172.741 52.2942 175.164 51.2593C175.418 51.1509 175.536 50.8572 175.428 50.6033C177.511 49.716 179.607 48.8371 181.718 47.9668C181.823 48.222 182.115 48.3438 182.37 48.2387C184.782 47.2464 187.211 46.2654 189.657 45.2959C189.913 45.1942 190.039 44.9037 189.937 44.647C192.047 43.813 194.169 42.9876 196.303 42.171C196.402 42.4289 196.691 42.5581 196.949 42.4597C199.384 41.5304 201.835 40.6126 204.302 39.7067C204.561 39.6116 204.694 39.3244 204.599 39.0652C206.732 38.2838 208.876 37.5113 211.032 36.7479C211.124 37.0082 211.41 37.1446 211.67 37.0526C214.127 36.1849 216.598 35.3289 219.084 34.485C219.346 34.3962 219.486 34.1124 219.397 33.851C221.551 33.1218 223.715 32.4017 225.89 31.6908C225.976 31.9533 226.258 32.0966 226.52 32.011C228.997 31.2036 231.488 30.4082 233.992 29.6251C234.255 29.5427 234.402 29.2623 234.32 28.9988C236.492 28.3214 238.674 27.6532 240.865 26.9946C240.944 27.259 241.223 27.4091 241.488 27.3298C243.983 26.5818 246.492 25.846 249.012 25.1229C249.278 25.0468 249.431 24.77 249.355 24.5046C251.543 23.8786 253.741 23.2621 255.947 22.6553C256.02 22.9215 256.295 23.0781 256.561 23.0051C257.825 22.6584 259.092 22.3149 260.362 21.9747C261.632 21.6344 262.901 21.2984 264.169 20.9665C264.436 20.8966 264.596 20.6235 264.526 20.3564C266.74 19.7788 268.952 19.214 271.16 18.6621C271.226 18.9299 271.498 19.0929 271.766 19.0262C274.31 18.3921 276.85 17.7751 279.386 17.1751C279.654 17.1115 279.821 16.8422 279.757 16.5735C281.984 16.0482 284.208 15.5359 286.428 15.0366C286.488 15.3059 286.755 15.4753 287.025 15.4149C289.585 14.8412 292.139 14.2847 294.688 13.7455C294.958 13.6884 295.131 13.4231 295.074 13.153C297.313 12.6812 299.547 12.2227 301.777 11.7774C301.831 12.0481 302.094 12.2239 302.365 12.17C304.94 11.6579 307.508 11.1634 310.07 10.6865C310.341 10.636 310.52 10.3751 310.47 10.1037C312.719 9.68686 314.962 9.28359 317.2 8.89383C317.247 9.16581 317.506 9.34804 317.778 9.30089C320.367 8.85205 322.949 8.42131 325.522 8.00858C325.795 7.96486 325.98 7.70849 325.937 7.43591C328.193 7.07584 330.444 6.72962 332.688 6.39718C332.728 6.67026 332.982 6.859 333.255 6.81877C335.858 6.43529 338.453 6.0704 341.037 5.72399C341.311 5.68732 341.503 5.43583 341.466 5.16221C343.729 4.8609 345.984 4.57376 348.232 4.30071C348.265 4.57476 348.514 4.77009 348.788 4.73703C351.404 4.42142 354.01 4.12495 356.605 3.84753C356.88 3.81818 357.079 3.57192 357.049 3.29742C359.321 3.05659 361.584 2.83013 363.838 2.6184C363.863 2.89336 364.107 3.09551 364.382 3.06993C367.005 2.82585 369.617 2.60147 372.216 2.3967C372.491 2.37501 372.697 2.13426 372.675 1.85897C374.958 1.68119 377.231 1.51875 379.493 1.37114C379.511 1.64659 379.749 1.85551 380.024 1.83779C382.649 1.66906 385.259 1.5206 387.855 1.39232C388.131 1.3787 388.343 1.14419 388.33 0.868495C390.624 0.757351 392.906 0.661963 395.177 0.582245C395.186 0.858113 395.418 1.07406 395.693 1.06465C398.314 0.975238 400.919 0.906744 403.508 0.859059C403.784 0.853976 404.003 0.626165 403.998 0.350189C406.303 0.310091 408.594 0.286477 410.871 0.279276C410.872 0.555296 411.096 0.778542 411.372 0.777962C413.996 0.772425 416.601 0.788709 419.187 0.826677C419.463 0.83073 419.69 0.61033 419.695 0.334344C421.997 0.370661 424.284 0.424168 426.555 0.494777C426.547 0.770648 426.763 1.00144 427.039 1.01033C429.672 1.09516 432.284 1.20301 434.874 1.33375C435.15 1.34766 435.385 1.13553 435.399 0.859885C437.684 0.977938 439.952 1.11382 442.202 1.26742C442.183 1.54277 442.391 1.78144 442.666 1.80058C445.306 1.98404 447.922 2.19195 450.512 2.42417C450.787 2.44882 451.03 2.24602 451.055 1.97114C453.343 2.17927 455.611 2.40639 457.859 2.65238C457.829 2.92671 458.027 3.17367 458.301 3.20406C460.916 3.49373 463.502 3.80901 466.06 4.14971C466.334 4.18615 466.585 3.994 466.622 3.72046C468.913 4.02903 471.181 4.35765 473.426 4.70697C473.383 4.97975 473.569 5.23566 473.842 5.27853C476.447 5.68807 479.02 6.12506 481.559 6.5893C481.831 6.63895 482.091 6.459 482.141 6.18736C484.396 6.60351 486.625 7.04118 488.827 7.50028C488.77 7.77052 488.943 8.03567 489.213 8.0925C491.81 8.63873 494.368 9.21485 496.887 9.82061C497.156 9.88514 497.426 9.72007 497.49 9.45186C499.735 9.99618 501.948 10.5641 504.129 11.1556C504.057 11.4218 504.214 11.6965 504.48 11.7692C507.026 12.4653 509.527 13.1934 511.983 13.9534C512.246 14.035 512.526 13.8876 512.608 13.6242C514.805 14.3096 516.965 15.0206 519.087 15.757C518.996 16.0175 519.133 16.3023 519.394 16.3935C521.902 17.2707 524.356 18.1836 526.754 19.1318C527.011 19.2333 527.301 19.1077 527.403 18.8513C529.555 19.7091 531.663 20.5955 533.724 21.5103C533.612 21.7623 533.725 22.0576 533.977 22.1702C536.397 23.2526 538.751 24.3742 541.039 25.5348C541.285 25.6596 541.586 25.5616 541.711 25.3158C543.771 26.3696 545.777 27.4551 547.728 28.5723C547.59 28.8113 547.672 29.1166 547.911 29.2546C550.204 30.5796 552.419 31.9486 554.552 33.3609C554.782 33.5132 555.092 33.4504 555.244 33.2209C557.169 34.5069 559.028 35.8287 560.818 37.1859C560.651 37.4051 560.693 37.7183 560.912 37.886C563.014 39.4949 565.019 41.1531 566.924 42.8598C567.13 43.0438 567.445 43.0267 567.629 42.8219C569.345 44.3748 570.979 45.9676 572.53 47.6002C572.33 47.7893 572.32 48.105 572.509 48.306C574.314 50.2284 576.002 52.2052 577.57 54.2355C577.738 54.4536 578.051 54.4942 578.27 54.3266C579.666 56.1585 580.965 58.034 582.166 59.9524C581.932 60.0977 581.859 60.4049 582.004 60.6395C583.374 62.8638 584.61 65.1454 585.708 67.4836C585.825 67.733 586.122 67.8406 586.371 67.7245Z" stroke="url(#paint0_linear)" stroke-opacity="0.6" stroke-linecap="round" stroke-dasharray="8 8"/>
<defs>
<linearGradient id="paint0_linear" x1="130.5" y1="74" x2="592.501" y2="83.5" gradientUnits="userSpaceOnUse">
<stop stop-color="white" stop-opacity="0"/>
<stop offset="1" stop-color="white"/>
</linearGradient>
</defs>
</svg>
